<?xml version="1.0" encoding="UTF-8"?>
<svg id="Layer_1" data-name="Layer 1" xmlns="http://www.w3.org/2000/svg" viewBox="0 0 87.4 64.3">
  <defs>
    <style>
      .cls-1 {
        fill: #3f3f3e;
        stroke-width: 0px;
      }
    </style>
  </defs>
  <path class="cls-1" d="M49.09,64.3h0c-2.29,0-4.73-.36-7.24-1.07-7.08-2-14.38-6.68-20.55-13.2-6.47-6.12-11.16-13.42-13.16-20.5-2.12-7.52-1.06-14.16,3.01-18.67.52-.62,5.51-6.29,11.65-4.34,3.12.99,4.98,4.12,5.53,9.3.4,3.76.01,7.62-.12,8.72-.13,1.07-.79,3.61-4.22,4.48,1.32,2.64,4.18,6.17,8.22,10.12,3.98,4.07,7.52,6.93,10.16,8.26.62-2.44,2.2-3.95,4.48-4.22,1.09-.13,4.95-.52,8.72-.12,5.19.55,8.32,2.41,9.3,5.53,1.95,6.15-3.72,11.13-4.37,11.67-2.93,2.64-6.89,4.05-11.41,4.05ZM20.2,8.37c-3.89,0-6.97,3.51-7.36,3.97-3.55,3.95-4.45,9.84-2.54,16.59,1.89,6.69,6.36,13.63,12.58,19.52,5.94,6.27,12.87,10.74,19.57,12.62,6.69,1.89,12.68.98,16.57-2.51.56-.47,5.21-4.55,3.7-9.31-.69-2.19-3.18-3.53-7.4-3.98-3.53-.38-7.18,0-8.22.11-2.03.24-2.62,2.13-2.76,3.68-.03.34-.22.65-.51.84-.29.19-.65.23-.98.12-3.9-1.35-8.8-5.8-12.22-9.3-3.51-3.43-7.96-8.34-9.31-12.23-.11-.33-.07-.69.12-.98.19-.29.5-.48.84-.51.34-.03.67-.08.96-.14,2.05-.46,2.61-1.67,2.72-2.61.12-1.04.49-4.69.12-8.21-.45-4.22-1.79-6.71-3.98-7.4-.66-.21-1.3-.3-1.93-.3Z"/>
  <g>
    <path class="cls-1" d="M63.61,42.68c-.27,0-.54-.09-.75-.29-.46-.41-.5-1.12-.08-1.58,3.77-4.18,5.84-9.59,5.84-15.24,0-12.56-10.23-22.79-22.79-22.79-5.64,0-11.05,2.07-15.24,5.84-.46.41-1.17.38-1.58-.08-.41-.46-.38-1.17.08-1.58C33.69,2.82,39.64.55,45.83.55c13.8,0,25.03,11.23,25.03,25.03,0,6.2-2.28,12.14-6.42,16.74-.22.25-.53.37-.83.37Z"/>
    <path class="cls-1" d="M45.83,7.8c-.62,0-1.12-.5-1.12-1.12v-1.17c0-.62.5-1.12,1.12-1.12s1.12.5,1.12,1.12v1.17c0,.62-.5,1.12-1.12,1.12Z"/>
    <g>
      <path class="cls-1" d="M32.47,13.33c-.29,0-.57-.11-.79-.33l-.83-.83c-.44-.44-.44-1.15,0-1.58s1.15-.44,1.58,0l.83.83c.44.44.44,1.15,0,1.58-.22.22-.51.33-.79.33Z"/>
      <path class="cls-1" d="M60.02,40.88c-.29,0-.57-.11-.79-.33l-.83-.83c-.44-.44-.44-1.15,0-1.58.44-.44,1.15-.44,1.58,0l.83.83c.44.44.44,1.15,0,1.58-.22.22-.51.33-.79.33Z"/>
    </g>
    <path class="cls-1" d="M65.9,26.69h-1.17c-.62,0-1.12-.5-1.12-1.12s.5-1.12,1.12-1.12h1.17c.62,0,1.12.5,1.12,1.12s-.5,1.12-1.12,1.12Z"/>
    <path class="cls-1" d="M59.19,13.33c-.29,0-.57-.11-.79-.33-.44-.44-.44-1.15,0-1.58l.83-.83c.44-.44,1.15-.44,1.58,0,.44.44.44,1.15,0,1.58l-.83.83c-.22.22-.51.33-.79.33Z"/>
    <path class="cls-1" d="M59.19,26.69h-13.36c-.62,0-1.12-.5-1.12-1.12v-10.33c0-.62.5-1.12,1.12-1.12s1.12.5,1.12,1.12v9.21h12.24c.62,0,1.12.5,1.12,1.12s-.5,1.12-1.12,1.12Z"/>
  </g>
</svg>