<?xml version="1.0" encoding="UTF-8"?>
<svg id="Layer_1" data-name="Layer 1" xmlns="http://www.w3.org/2000/svg" viewBox="0 0 87.4 64.3">
  <defs>
    <style>
      .cls-1 {
        fill: #ffd000;
        stroke-width: 0px;
      }
    </style>
  </defs>
  <g>
    <path class="cls-1" d="M47.65,51.63c-2.42,0-4.38-1.96-4.38-4.38s1.96-4.38,4.38-4.38,4.38,1.96,4.38,4.38-1.96,4.38-4.38,4.38ZM47.65,45.01c-1.24,0-2.25,1.01-2.25,2.25s1.01,2.25,2.25,2.25,2.25-1.01,2.25-2.25-1.01-2.25-2.25-2.25Z"/>
    <path class="cls-1" d="M59.58,63.56c-2.42,0-4.38-1.96-4.38-4.38s1.96-4.38,4.38-4.38,4.38,1.96,4.38,4.38-1.96,4.38-4.38,4.38ZM59.58,56.94c-1.24,0-2.25,1.01-2.25,2.25s1.01,2.25,2.25,2.25,2.25-1.01,2.25-2.25-1.01-2.25-2.25-2.25Z"/>
    <path class="cls-1" d="M44.33,63.58c-.27,0-.53-.1-.73-.28-.21-.2-.34-.48-.35-.77,0-.29.11-.58.31-.79l18.56-18.56c.2-.2.47-.32.77-.31.29,0,.57.12.77.33.19.2.3.47.3.75,0,.29-.12.58-.33.78l-18.54,18.54c-.2.2-.48.32-.76.32Z"/>
  </g>
  <path class="cls-1" d="M32.4,63.58c-.59,0-1.08-.49-1.08-1.08V26.46h-5.49c-.93,0-1.75-.52-2.16-1.35-.41-.83-.31-1.8.26-2.53L41.14,2.17c.43-.56,1.13-.9,1.87-.9s1.44.34,1.9.93l17.15,20.35c.59.76.69,1.73.29,2.57-.41.83-1.23,1.35-2.16,1.35h-5.49v12.18c0,.59-.49,1.08-1.08,1.08s-1.08-.49-1.08-1.08v-13.26c0-.59.49-1.08,1.08-1.08h6.57c.1,0,.18-.05.22-.14.04-.09.03-.18-.03-.26L43.23,3.56c-.15-.19-.32-.16-.42-.03l-17.2,20.41s-.04.14,0,.23c.04.09.12.14.22.14h6.57c.59,0,1.08.49,1.08,1.08v37.12c0,.59-.49,1.08-1.08,1.08Z"/>
</svg>