<?xml version="1.0" encoding="UTF-8"?>
<svg id="Layer_1" data-name="Layer 1" xmlns="http://www.w3.org/2000/svg" viewBox="0 0 94.51 106.93">
  <defs>
    <style>
      .cls-1 {
        fill: #3f3f3e;
        stroke-width: 0px;
      }
    </style>
  </defs>
  <path class="cls-1" d="M81.97,52.52q-6.5-11.45-7.22-11.64t-5.47,2.71c-1.51.89-3.5,2.06-6.15,3.61-.39.23-.62.51-.71.86-.2.77.31,1.62,1.33,3.32.26.43.54.91.86,1.45-1.85.54-3.35-.03-7.48-1.61-.9-.34-1.92-.73-3.09-1.17-2.27-.81-3.53-.61-8.84.25-1.19.19-2.58.42-4.24.67-2.47.38-3.67,1.21-5.94,4.14-2.62.03-2.66,0-4.2-1.1-.33-.24-.72-.52-1.21-.85l2.23-3.92c.78-1.36.54-1.5-5.52-4.99-1.46-.84-3.28-1.89-5.54-3.21-.35-.2-.76-.26-1.16-.15-.39.1-.72.36-.92.71-4.34,7.62-7.58,13.22-9.96,17.35q-6.96,12.04-5.54,12.87l.25-.43-.25.43,6.15,3.61q4.73,2.77,5.14,2.75c.67,0,.96-.21,2.61-3.01.38.25.83.55,1.35.88l1,.66c-1.12,1.86-1.29,3.82-.44,5.45.73,1.4,2.12,2.37,3.68,2.61-.48,1.56-.14,3.28.95,4.62,1.08,1.33,2.69,2,4.31,1.81.18,1.69,1.13,3.12,2.62,3.91,1.42.75,3.11.79,4.47.14.77,1.89,2.54,3.12,4.58,3.12,2.31,0,3.38-1.12,4.72-2.99,7.08,2.77,10.33,1.94,11.81.74,1.04-.85,1.56-2.14,1.46-3.62,1.24-.02,2.38-.48,3.28-1.31.9-.84,1.44-1.97,1.56-3.24,1.3.28,2.69,0,3.83-.81,1.19-.84,1.92-2.12,2.08-3.59,1.61.47,3.32.06,4.59-1.13,1.43-1.34,1.97-3.34,1.41-5.18.58-.59,1.09-1.1,1.55-1.56.4-.4.75-.75,1.06-1.06,1.69,2.87,2.2,3.43,2.78,3.58.42.11.74-.08.98-.22,2.33-1.36,4.2-2.43,5.69-3.28,5.6-3.2,6.18-3.53,5.39-4.92-4.33-7.6-7.5-13.17-9.82-17.26ZM28.47,49.06l-14.55,25.53-7.89-4.62,14.55-25.54,7.9,4.62ZM53.15,74.07c-.35.67-.24,1.58.64,2.04,3.11,1.62,5.54,2.9,7.45,3.9,1.64.86,2.89,1.52,3.87,2.02.5,1.16.12,2.06-.41,2.52-.68.6-1.68.61-2.62,0-2.46-1.09-4.39-1.98-5.92-2.67-4.33-1.97-5.36-2.44-6.11-2.16-.41.15-.59.5-.73.81-.15.33-.26.69-.1,1.08.29.75,1.28,1.18,5.42,2.98,1.24.54,2.75,1.19,4.59,2.01.44,1.12.06,1.99-.46,2.44-.54.46-1.5.71-2.58.01l-.09-.05c-1.54-.61-2.85-1.14-3.95-1.59-2.75-1.13-4.2-1.72-5.1-1.72-.29,0-.53.06-.73.19-.33.21-.48.54-.55.86-.78-.9-1.87-1.5-3.04-1.67.44-1.39.23-2.86-.6-4.11-.93-1.38-2.48-2.28-4.06-2.38.07-1.94-1.11-3.83-3.02-4.74-1.8-.86-3.72-.61-5.16.63-.84-1.41-2.37-2.44-4-2.63-1.76-.2-3.35.55-4.47,2.12l-.19.26-2.56-1.7c1.07-1.88,2.51-4.41,4.44-7.82,1.4-2.46,3.05-5.38,5.01-8.85l.15.1c1.97,1.38,2.81,1.97,4.58,2.13-.28.39-.58.8-.9,1.24-.9,1.24-1.94,2.68-3.17,4.36-.51.71-.68,1.61-.45,2.46.23.85.81,1.54,1.59,1.89l2.9,1.32c5.33,1.91,8.26-1.74,10.2-4.17.79-.99,1.54-1.93,2.16-2.12,2.09-.62,2.86-.69,3.98.03,5.94,3.83,10.27,6.61,13.43,8.64,8.21,5.27,8.45,5.43,8.71,5.9.34.58.38,1.27.11,1.89-.27.6-.79,1.02-1.5,1.16-.61.12-.63.12-6.87-3.16-1.95-1.03-4.49-2.36-7.83-4.11-.88-.46-1.69-.02-2.04.65ZM21.46,79.78c0-.68.23-1.02,1.46-2.73.27-.38.58-.81.95-1.32.44-.62.99-.86,1.53-.86.41,0,.81.14,1.15.38.8.55,1.32,1.67.56,2.79l-2.22,3.09c-.53.62-1.38.83-2.17.53-.79-.29-1.26-1-1.26-1.88ZM28.67,81.06c.73-1.03,1.63-2.29,2.73-3.84.48-.69,1.06-.86,1.51-.86.06,0,.11,0,.16,0,.74.07,1.44.57,1.76,1.25.21.45.33,1.16-.24,1.97-.62.88-1.57,2.21-2.51,3.52-1.37,1.92-2.67,3.73-3.03,4.29-.63.82-1.54.88-2.18.67-.65-.22-1.35-.83-1.35-1.9,0-.69.27-1.08,3.15-5.13ZM31.47,89.28l.24-.34c.36-.51,1.31-1.86,4.57-6.47.49-.7,1.07-.87,1.52-.87.06,0,.11,0,.16,0,.73.07,1.44.57,1.75,1.25.3.64.21,1.34-.24,1.98-.93,1.31-1.69,2.4-2.33,3.32-2.69,3.86-3.06,4.35-3.9,4.49h0c-.76.13-1.55-.21-1.97-.85-.46-.71-.39-1.63.18-2.52ZM38.06,92.08l2.31-3.26c.48-.69,1.06-.86,1.51-.86.06,0,.11,0,.16,0,.74.07,1.44.57,1.76,1.25.21.45.33,1.16-.24,1.97-.42.59-.77,1.1-1.07,1.53-1.53,2.21-1.72,2.45-2.56,2.59h0c-.72.12-1.47-.19-1.9-.8-.48-.68-.46-1.57.03-2.44ZM46.74,88.53c.76.39,2.03.88,4.12,1.69.92.35,2,.77,3.29,1.28.41.7.74,1.33.08,2.32-.69,1.03-3.79.65-8.15-.98.83-1.44,1.06-2.95.66-4.31ZM47.32,59.56c-.59,0-1.19.08-1.77.25l-.42.12c-2.27.66-2.36.77-4.68,3.58-.36.44-.78.94-1.27,1.53-1.29,1.54-3.47,2.16-5.25,1.52-.52-.24-.97-.44-1.34-.6-.55-.25-1.05-.47-1.29-.61,1.23-1.69,2.27-3.12,3.15-4.34,4.51-6.23,4.9-6.71,6.98-7.04,1.76-.27,3.2-.5,4.4-.69,5.29-.84,5.72-.9,7.18-.38,1.28.48,2.39.9,3.36,1.28,4.53,1.76,6.32,2.46,9.75,1.3,2.4,4.24,4.35,7.71,5.94,10.53,1.33,2.37,2.41,4.28,3.28,5.82-.46.46-1.04,1.06-1.8,1.85l-.96,1c-1.11-.83-3.52-2.37-9.36-6.12-3.09-1.98-7.14-4.58-12.46-8.01-1.04-.66-2.24-1-3.45-1ZM88.42,69.98l-7.91,4.62-14.55-25.54,7.9-4.62,14.56,25.54Z"/>
  <path class="cls-1" d="M46.56,46.11c9.61,0,17.43-7.79,17.43-17.36s-7.82-17.36-17.43-17.36-17.43,7.79-17.43,17.36,7.82,17.36,17.43,17.36ZM46.56,13.92c8.22,0,14.91,6.65,14.91,14.83s-6.69,14.83-14.91,14.83-14.9-6.65-14.9-14.83,6.69-14.83,14.9-14.83Z"/>
  <polygon class="cls-1" points="55.65 24.21 54.01 22.4 43.39 32.05 39.85 28.37 38.09 30.06 43.27 35.45 55.65 24.21"/>
</svg>