<?xml version="1.0" encoding="UTF-8"?>
<svg id="Layer_1" data-name="Layer 1" xmlns="http://www.w3.org/2000/svg" viewBox="0 0 94.51 106.93">
  <defs>
    <style>
      .cls-1 {
        fill: #ffd000;
        stroke-width: 0px;
      }
    </style>
  </defs>
  <path class="cls-1" d="M74.88,41.04c0-13.98-11.42-25.35-25.46-25.35s-25.46,11.37-25.46,25.35,11.42,25.35,25.46,25.35,25.46-11.37,25.46-25.35ZM27.2,41.04c0-12.19,9.96-22.1,22.21-22.1s22.22,9.92,22.22,22.1-9.97,22.11-22.22,22.11-22.21-9.92-22.21-22.11Z"/>
  <path class="cls-1" d="M84.44,80.11c-1.77-3.64-4.14-8.51-7.29-15.05,9.5-10.85,11.72-25.76,5.79-38.99-6-13.38-18.85-21.7-33.53-21.7s-26.23,7.43-32.66,19.87c-6.36,12.3-5.46,26.34,2.4,37.61-.95,1.66-2.51,4.9-5.46,11.02-2.05,4.26-4.78,9.92-8.45,17.43-.3.62-.19,1.34.29,1.83.48.5,1.19.64,1.83.37l14.19-6.3c.87,3.53,1.53,6.28,2.04,8.42,1.85,7.7,1.9,7.91,3.14,7.91.04,0,.07,0,.11,0,.63,0,1.2-.37,1.47-.93,3.38-7.13,5.91-12.39,7.78-16.27,2.2-4.55,3.49-7.23,4.16-8.85,4.9,1.27,9.4,1.5,14.45.77,3.01,6.37,5.24,11.12,6.89,14.65,4.91,10.48,4.97,10.62,6.09,10.62.03,0,.07,0,.1,0,1.27,0,1.3-.1,3.22-8.11.51-2.11,1.15-4.8,1.99-8.23,3.23,1.44,5.75,2.57,7.73,3.46q7.45,3.35,8.31,2.47t-4.58-12.02ZM16.59,84.84c-1.65.74-3.76,1.68-6.47,2.89,2.87-5.88,5.13-10.43,6.87-13.96,2.14-4.33,3.54-7.15,4.39-9,4.18,4.89,9.57,8.59,15.66,10.76-.82,1.6-2.03,4.19-4.05,8.52-1.44,3.09-3.29,7.03-5.66,12.06-.69-2.82-1.23-5.03-1.65-6.76q-1.58-6.51-2.25-6.83l-.21.45.09-.51q-.62-.33-6.72,2.4ZM23.13,61.62c-.47-.58-.75-.93-.98-1.12-7.32-10.11-8.31-23.37-2.58-34.6,5.83-11.44,16.99-18.27,29.85-18.27,13.52,0,25.29,7.73,30.71,20.16,5.38,12.34,3.05,26.11-6.08,35.94-8.63,9.27-22.06,12.94-34.15,9.36-.16-.07-.33-.15-.52-.17-9.64-3-14.27-8.81-16.25-11.29ZM74.77,67.59l9.69,20.16-11.93-5.29c-.44-.2-.94-.19-1.38.03-.43.21-.75.6-.86,1.07l-3.09,12.55-9.21-19.44c6.3-1.5,12.07-4.62,16.76-9.07Z"/>
  <path class="cls-1" d="M57.31,45.09l8.12-6.12c.56-.42.78-1.13.56-1.8s-.81-1.11-1.51-1.12l-10.19-.21-3.35-9.58c-.21-.61-.81-1.01-1.53-1.01s-1.32.4-1.53,1.01l-3.34,9.58c-2.28.04-4.08.07-5.5.09-5.71.08-5.82.08-6.2,1.24-.38,1.16-.29,1.23,4.37,4.69,1.13.84,2.54,1.89,4.31,3.23-.68,2.24-1.23,3.99-1.66,5.37-1.62,5.18-1.68,5.38-.69,6.11.3.22.52.37.82.37.66,0,1.72-.74,5-3.04,1.15-.81,2.6-1.83,4.43-3.09,2.03,1.4,3.57,2.48,4.76,3.3q4.02,2.8,4.54,2.78c.52,0,.99-.24,1.3-.66.31-.42.4-.94.25-1.44l-2.95-9.7ZM43.98,48.27c1.22-3.85,1.38-4.34.4-5.08l-5.28-3.98,6.63-.14c1.19-.02,1.28-.28,2.76-4.63.26-.76.56-1.65.93-2.7.4,1.17.73,2.15,1,2.96,1.27,3.77,1.46,4.35,2.68,4.38l6.63.14-5.28,3.98c-.95.72-.84,1.07.51,5.4.24.76.51,1.64.83,2.69-1.09-.76-1.97-1.37-2.68-1.87-3.02-2.11-3.16-2.2-3.67-2.2h-.07q-.49,0-3.69,2.22c-.71.49-1.57,1.1-2.65,1.84.37-1.19.68-2.18.94-3Z"/>
</svg>