<?xml version="1.0" encoding="UTF-8"?>
<svg id="Layer_1" data-name="Layer 1" xmlns="http://www.w3.org/2000/svg" viewBox="0 0 94.51 106.93">
  <defs>
    <style>
      .cls-1 {
        fill: #3f3f3e;
        stroke-width: 0px;
      }
    </style>
  </defs>
  <path class="cls-1" d="M47.7,16.88h-.39s-.04,0-.04,0c-.13,0-.26,0-.39,0-16.56,0-29.77,12.95-30.14,29.64-.19,8.32,2.99,14.44,7.83,21.08,1.1,1.51,2.09,2.65,2.97,3.65,2.15,2.47,3.58,4.1,4.63,9.37l.1.49,1.59-.32v1.28h24.91s0,2.99,0,2.99h-25.32v3.61h25.32v3.1h-25.32v3.61h22.55l-3.19,6.38h-11.08l-1.39-2.78-3.23,1.61,2.39,4.77h15.55l4.99-9.99h2.35v-14.94c1.05-5.13,2.46-6.76,4.6-9.21.87-1,1.86-2.13,2.96-3.64,4.83-6.63,8.01-12.76,7.83-21.08-.37-16.62-13.58-29.65-30.06-29.65ZM30.26,68.88c-.82-.94-1.76-2.01-2.77-3.4-4.53-6.21-7.3-11.54-7.14-18.87.33-14.64,11.93-26.1,26.43-26.12h0s.41,0,.41,0h.53s0,0,0,0c14.54.02,26.1,11.37,26.43,26.11.16,7.33-2.61,12.66-7.14,18.87-1.01,1.38-1.94,2.45-2.77,3.4-2.16,2.47-3.9,4.48-5.13,9.59h-23.73c-1.23-5.11-2.97-7.11-5.13-9.59Z"/>
  <rect class="cls-1" x="45.45" y="1.55" width="3.61" height="8.07"/>
  <rect class="cls-1" x="30.48" y="8.27" width="3.61" height="4.33" transform="translate(-1.54 13.15) rotate(-22.5)"/>
  <rect class="cls-1" x="9.31" y="29.44" width="3.61" height="4.33" transform="translate(-22.33 29.78) rotate(-67.5)"/>
  <rect class="cls-1" x="8.95" y="59.73" width="4.33" height="3.61" transform="translate(-22.71 8.95) rotate(-22.51)"/>
  <rect class="cls-1" x="81.58" y="59.37" width="3.61" height="4.33" transform="translate(-5.38 115.03) rotate(-67.5)"/>
  <rect class="cls-1" x="81.22" y="29.8" width="4.33" height="3.61" transform="translate(-5.75 34.33) rotate(-22.51)"/>
  <rect class="cls-1" x="60.06" y="8.63" width="4.33" height="3.61" transform="translate(28.76 63.92) rotate(-67.49)"/>
  <rect class="cls-1" x="16.47" y="13.55" width="3.61" height="8.07" transform="translate(-7.09 18.07) rotate(-45)"/>
  <rect class="cls-1" x="2.23" y="44.77" width="8.07" height="3.61"/>
  <rect class="cls-1" x="14.24" y="73.75" width="8.07" height="3.61" transform="translate(-48.07 35.05) rotate(-45)"/>
  <rect class="cls-1" x="74.43" y="71.51" width="3.61" height="8.07" transform="translate(-31.09 76.03) rotate(-45)"/>
  <rect class="cls-1" x="84.2" y="44.77" width="8.07" height="3.61"/>
  <rect class="cls-1" x="72.2" y="15.79" width="8.07" height="3.61" transform="translate(9.89 59.05) rotate(-44.99)"/>
  <path class="cls-1" d="M65.14,43.84l.09.49,3.55-.62-.09-.49c-1.05-6.03-4.64-11.37-9.85-14.66l-.42-.27-1.92,3.05.42.27c4.34,2.74,7.34,7.19,8.22,12.22Z"/>
</svg>