<?xml version="1.0" encoding="UTF-8"?>
<svg id="Layer_1" data-name="Layer 1" xmlns="http://www.w3.org/2000/svg" viewBox="0 0 94.51 106.93">
  <defs>
    <style>
      .cls-1 {
        fill: #3f3f3e;
        stroke-width: 0px;
      }
    </style>
  </defs>
  <path class="cls-1" d="M26.7,38.94c2.51,1.04,5.09,1.56,7.64,1.56,4.93,0,9.71-1.92,13.41-5.59,5.66-5.61,7.32-15.09,4.04-23.08C48.74,4.42,42.16,0,34.18,0,23.59,0,14.98,8.54,14.98,19.04v2.39c0,7.78,4.49,14.49,11.73,17.51ZM18.81,19.04c0-8.38,6.89-15.2,15.37-15.2s15.37,6.82,15.37,15.2c0,5.64-1.64,10.27-4.74,13.39-2.68,2.69-6.38,4.18-10.41,4.18-7.55,0-15.58-5.32-15.58-15.18v-2.39Z"/>
  <path class="cls-1" d="M89.98,62.01c-3.24-.58-8.66-1.56-15.27-7.31-2-1.74-5.01-1.74-7.01,0-.2.17-.39.33-.59.49-2.7-6.84-9.33-11.36-16.79-11.36-1.86,0-3.25-.03-4.35-.06-4.12-.1-4.27-.06-8.06,1.92-.95.5-2.15,1.12-3.72,1.9-1.58-.78-2.77-1.41-3.73-1.91-3.79-1.98-3.94-2.01-8.06-1.92-1.1.02-2.49.06-4.35.06C8.1,43.83,0,51.86,0,61.73v15.99C0,78.02,0,78.47.38,78.85c.97.97,3.4.96,26.67.87,5.81-.02,12.91-.05,21.58-.07,1.61,8.47,6.73,19.83,21.74,27.08.26.13.55.19.83.19s.57-.06.83-.19c28.76-13.9,21.73-42.55,21.66-42.83-.33-1.28-1.75-1.54-3.72-1.89ZM48.71,63.9c-.01.05-1.25,5.08-.63,11.9H3.84v-14.07c0-7.75,6.37-14.06,14.21-14.06h7.62l7.66,3.8c.9.45.98.41,5.22-1.72,1.07-.54,2.42-1.22,4.15-2.07h7.62c6.2,0,11.69,4.06,13.52,9.93-4.69,3.01-8.77,3.91-11.51,4.51-2.09.46-3.35.74-3.62,1.79ZM71.2,102.87c-17.45-8.85-21.29-24.68-19.04-36.78,5.56-.91,10.17-2.77,14.47-5.84.58-.42,1.12-.82,1.6-1.18,2.4-1.81,3.1-2.19,3.95-1.46,5.13,4.45,11.36,7.38,18.04,8.48.93,5.15,3.02,25.6-19.03,36.78Z"/>
  <path class="cls-1" d="M79.44,73.59c-.65-.19-1.31-.01-1.82.48l-8.86,8.51-4.03-3.62c-.92-.83-2.08-.54-2.7.15-.62.69-.78,1.88.14,2.71,1.31,1.17,2.3,2.08,3.07,2.77,2.73,2.48,2.79,2.53,3.63,2.53.05,0,.09,0,.13,0,.62,0,.91-.28,5.34-4.56,1.45-1.41,3.38-3.26,5.93-5.71.51-.49.71-1.15.55-1.8-.17-.68-.71-1.25-1.39-1.45Z"/>
</svg>