<?xml version="1.0" encoding="UTF-8"?>
<svg id="Layer_1" data-name="Layer 1" xmlns="http://www.w3.org/2000/svg" viewBox="0 0 112.77 122.4">
  <defs>
    <style>
      .cls-1 {
        fill: #ffd000;
        stroke-width: 0px;
      }
    </style>
  </defs>
  <g>
    <path class="cls-1" d="M52.67,93.21H12.31c-4.91,0-8.9-3.99-8.9-8.9V24.74c0-4.91,3.99-8.9,8.9-8.9h67.99c4.91,0,8.9,3.99,8.9,8.9v29.79h-3.07v-29.79c0-3.22-2.62-5.83-5.83-5.83H12.31c-3.22,0-5.83,2.62-5.83,5.83v59.57c0,3.22,2.62,5.83,5.83,5.83h40.36v3.07Z"/>
    <g>
      <path class="cls-1" d="M39.16,50.4c-2.62,0-4.75-2.13-4.75-4.75s2.13-4.75,4.75-4.75,4.75,2.13,4.75,4.75-2.13,4.75-4.75,4.75ZM39.16,43.97c-.93,0-1.68.76-1.68,1.68s.76,1.68,1.68,1.68,1.68-.76,1.68-1.68-.76-1.68-1.68-1.68Z"/>
      <path class="cls-1" d="M53.46,50.4c-2.62,0-4.75-2.13-4.75-4.75s2.13-4.75,4.75-4.75,4.75,2.13,4.75,4.75-2.13,4.75-4.75,4.75ZM53.46,43.97c-.93,0-1.68.76-1.68,1.68s.76,1.68,1.68,1.68,1.68-.76,1.68-1.68-.76-1.68-1.68-1.68Z"/>
      <path class="cls-1" d="M26.52,63.98h-3.34c-1.7,0-3.08-1.38-3.08-3.08v-3.34c0-1.7,1.38-3.08,3.08-3.08h3.34c1.7,0,3.08,1.38,3.08,3.08v3.34c0,1.7-1.38,3.08-3.08,3.08ZM23.19,57.54v3.35s3.34.01,3.34.01c0,0,.01,0,.01-.01v-3.34h-3.35Z"/>
      <path class="cls-1" d="M39.16,63.98c-2.62,0-4.75-2.13-4.75-4.75s2.13-4.75,4.75-4.75,4.75,2.13,4.75,4.75-2.13,4.75-4.75,4.75ZM39.16,57.54c-.93,0-1.68.75-1.68,1.68s.76,1.68,1.68,1.68,1.68-.76,1.68-1.68-.76-1.68-1.68-1.68Z"/>
      <path class="cls-1" d="M55.13,63.98h-3.34c-1.7,0-3.08-1.38-3.08-3.08v-3.34c0-1.7,1.38-3.08,3.08-3.08h3.34c1.7,0,3.08,1.38,3.08,3.08v3.34c0,1.7-1.38,3.08-3.08,3.08ZM51.79,57.54v3.35s3.34.01,3.34.01c0,0,.01,0,.01-.01v-3.34h-3.35Z"/>
      <path class="cls-1" d="M24.86,77.55c-2.62,0-4.75-2.13-4.75-4.75s2.13-4.75,4.75-4.75,4.75,2.13,4.75,4.75-2.13,4.75-4.75,4.75ZM24.86,71.12c-.93,0-1.68.76-1.68,1.68s.76,1.68,1.68,1.68,1.68-.76,1.68-1.68-.76-1.68-1.68-1.68Z"/>
      <path class="cls-1" d="M39.16,77.55c-2.62,0-4.75-2.13-4.75-4.75s2.13-4.75,4.75-4.75,4.75,2.13,4.75,4.75-2.13,4.75-4.75,4.75ZM39.16,71.12c-.93,0-1.68.76-1.68,1.68s.76,1.68,1.68,1.68,1.68-.76,1.68-1.68-.76-1.68-1.68-1.68Z"/>
      <path class="cls-1" d="M53.46,77.55c-2.62,0-4.75-2.13-4.75-4.75s2.13-4.75,4.75-4.75,4.75,2.13,4.75,4.75-2.13,4.75-4.75,4.75ZM53.46,71.12c-.93,0-1.68.76-1.68,1.68s.76,1.68,1.68,1.68,1.68-.76,1.68-1.68-.76-1.68-1.68-1.68Z"/>
      <path class="cls-1" d="M67.77,50.4c-2.62,0-4.75-2.13-4.75-4.75s2.13-4.75,4.75-4.75,4.75,2.13,4.75,4.75-2.13,4.75-4.75,4.75ZM67.77,43.97c-.93,0-1.68.76-1.68,1.68s.76,1.68,1.68,1.68,1.68-.76,1.68-1.68-.76-1.68-1.68-1.68Z"/>
      <path class="cls-1" d="M67.77,63.98c-2.62,0-4.75-2.13-4.75-4.75s2.13-4.75,4.75-4.75,4.75,2.13,4.75,4.75-2.13,4.75-4.75,4.75ZM67.77,57.54c-.93,0-1.68.75-1.68,1.68s.76,1.68,1.68,1.68,1.68-.76,1.68-1.68-.76-1.68-1.68-1.68Z"/>
    </g>
    <g>
      <rect class="cls-1" x="20" y="8.4" width="3.07" height="16.81"/>
      <rect class="cls-1" x="69.55" y="8.4" width="3.07" height="16.81"/>
    </g>
    <rect class="cls-1" x="32.4" y="29.8" width="27.81" height="3.07"/>
  </g>
  <path class="cls-1" d="M84.1,114c-13.93,0-25.26-11.33-25.26-25.26s11.33-25.26,25.26-25.26,25.26,11.33,25.26,25.26-11.33,25.26-25.26,25.26ZM84.1,66.56c-12.24,0-22.19,9.95-22.19,22.19s9.95,22.19,22.19,22.19,22.19-9.95,22.19-22.19-9.95-22.19-22.19-22.19Z"/>
  <g>
    <path class="cls-1" d="M84.29,100.92c-3.06,0-6.48-1.55-7.9-5.32l2.87-1.08c1.04,2.76,3.83,3.62,5.98,3.26.77-.13,3.27-.76,3.34-3.43.07-2.81-2.46-3.86-5.77-4.95-.87-.28-1.69-.55-2.33-.88-2.7-1.35-4-4.06-3.33-6.9.73-3.09,3.5-5.25,6.73-5.25,5.32,0,7.77,4.78,7.87,4.99l-2.74,1.37c-.07-.13-1.73-3.3-5.13-3.3-2.1,0-3.42,1.5-3.75,2.89-.16.69-.33,2.42,1.72,3.45.44.22,1.16.46,1.91.7,3,.98,8.01,2.63,7.88,7.94-.08,3.28-2.4,5.78-5.9,6.37-.47.08-.96.12-1.46.12Z"/>
    <rect class="cls-1" x="82.56" y="72.23" width="3.07" height="5.77"/>
    <rect class="cls-1" x="82.56" y="99.39" width="3.07" height="5.77"/>
  </g>
</svg>