<?xml version="1.0" encoding="UTF-8"?>
<svg id="Layer_1" data-name="Layer 1" xmlns="http://www.w3.org/2000/svg" viewBox="0 0 112.77 122.4">
  <defs>
    <style>
      .cls-1 {
        fill: #ffd000;
        stroke-width: 0px;
      }
    </style>
  </defs>
  <g>
    <path class="cls-1" d="M69.55,115.01H24.42c-5.13,0-9.3-4.17-9.3-9.29V16.68c0-5.12,4.17-9.29,9.3-9.29h45.13c5.13,0,9.3,4.17,9.3,9.29v11.65c0,.85-.69,1.53-1.53,1.53s-1.53-.69-1.53-1.53v-11.65c0-3.43-2.8-6.22-6.23-6.22H24.42c-3.44,0-6.23,2.79-6.23,6.22v89.04c0,3.43,2.8,6.22,6.23,6.22h45.13c3.44,0,6.23-2.79,6.23-6.22v-19.64c0-.85.69-1.53,1.53-1.53s1.53.69,1.53,1.53v19.64c0,5.12-4.17,9.29-9.3,9.29Z"/>
    <path class="cls-1" d="M66.32,98.4H27.66c-2.41,0-4.38-1.96-4.38-4.37V20.39c0-2.41,1.96-4.37,4.38-4.37h38.67c2.41,0,4.38,1.96,4.38,4.37v7.94c0,.85-.69,1.53-1.53,1.53s-1.53-.69-1.53-1.53v-7.94c0-.72-.59-1.31-1.31-1.31H27.66c-.72,0-1.31.59-1.31,1.31v73.64c0,.72.59,1.31,1.31,1.31h38.67c.72,0,1.31-.59,1.31-1.31v-7.94c0-.85.69-1.53,1.53-1.53s1.53.69,1.53,1.53v7.94c0,2.41-1.96,4.37-4.38,4.37Z"/>
    <path class="cls-1" d="M56.09,107.14h-18.21c-.85,0-1.53-.69-1.53-1.53s.69-1.53,1.53-1.53h18.21c.85,0,1.53.69,1.53,1.53s-.69,1.53-1.53,1.53Z"/>
  </g>
  <g>
    <path class="cls-1" d="M60.37,57.38h-.06c-.48,0-.88-.39-.88-.88v-10.73c0-.48.39-.88.88-.88s.94.39.94.88v10.73c0,.48-.39.88-.88.88ZM60.37,56.5h0,0Z"/>
    <path class="cls-1" d="M60.37,71.69h-.06c-.48,0-.88-.39-.88-.88v-4.77c0-.48.39-.88.88-.88s.94.39.94.88v4.77c0,.48-.39.88-.88.88ZM60.37,70.82h0,0Z"/>
    <path class="cls-1" d="M71.1,51.42h-.06c-.48,0-.88-.39-.88-.88v-7.16c0-.48.39-.88.88-.88s.94.39.94.88v7.16c0,.48-.39.88-.88.88ZM71.1,50.54h0,0Z"/>
    <path class="cls-1" d="M71.1,72.89h-.06c-.48,0-.88-.39-.88-.88v-4.77c0-.48.39-.88.88-.88s.94.39.94.88v4.77c0,.48-.39.88-.88.88ZM71.1,72.01h0,0Z"/>
    <path class="cls-1" d="M81.84,49.03h-.06c-.48,0-.88-.39-.88-.88v-3.58c0-.48.39-.88.88-.88s.94.39.94.88v3.58c0,.48-.39.88-.88.88ZM81.84,48.16h0,0Z"/>
    <path class="cls-1" d="M81.84,70.5h-.06c-.48,0-.88-.39-.88-.88v-9.54c0-.48.39-.88.88-.88s.94.39.94.88v9.54c0,.48-.39.88-.88.88ZM81.84,69.62h0,0Z"/>
    <path class="cls-1" d="M73.25,68.12h-4.36c-.93,0-1.68-.75-1.68-1.68v-15.09c0-.93.75-1.68,1.68-1.68h4.36c.93,0,1.68.75,1.68,1.68v15.09c0,.93-.75,1.68-1.68,1.68ZM68.97,66.36h4.21v-14.95h-4.21v14.95Z"/>
    <path class="cls-1" d="M62.52,66.92h-4.36c-.93,0-1.68-.75-1.68-1.68v-7.94c0-.93.75-1.68,1.68-1.68h4.36c.93,0,1.68.75,1.68,1.68v7.94c0,.93-.75,1.68-1.68,1.68ZM58.23,65.17h4.21v-7.79h-4.21v7.79Z"/>
    <path class="cls-1" d="M83.99,60.96h-4.36c-.93,0-1.68-.75-1.68-1.68v-10.32c0-.93.75-1.68,1.68-1.68h4.36c.93,0,1.68.75,1.68,1.68v10.32c0,.93-.75,1.68-1.68,1.68ZM79.7,59.21h4.21v-10.18h-4.21v10.18Z"/>
  </g>
  <path class="cls-1" d="M96.11,79h-50.08c-.85,0-1.53-.69-1.53-1.53v-40.53c0-.85.69-1.53,1.53-1.53h50.08c.85,0,1.53.69,1.53,1.53v40.53c0,.85-.69,1.53-1.53,1.53ZM47.57,75.94h47.01v-37.46h-47.01v37.46Z"/>
</svg>