<?xml version="1.0" encoding="UTF-8"?>
<svg id="Layer_1" data-name="Layer 1" xmlns="http://www.w3.org/2000/svg" viewBox="0 0 112.77 122.4">
  <defs>
    <style>
      .cls-1 {
        fill: #ffd000;
        stroke-width: 0px;
      }
    </style>
  </defs>
  <g>
    <g>
      <g>
        <path class="cls-1" d="M56.49,73.86c-23.48,0-47.25-4.79-47.25-13.94h3.42c0,4.39,16.68,10.52,43.83,10.52s43.83-6.13,43.83-10.52h3.42c0,9.15-23.77,13.94-47.25,13.94Z"/>
        <path class="cls-1" d="M56.49,95.45c-23.48,0-47.25-4.79-47.25-13.94v-21.58h3.42v21.58c0,4.39,16.68,10.52,43.83,10.52s43.83-6.13,43.83-10.52v-21.58h3.42v21.58c0,9.15-23.77,13.94-47.25,13.94Z"/>
      </g>
      <g>
        <path class="cls-1" d="M56.49,30.7c-23.48,0-47.25-4.79-47.25-13.94S33.01,2.83,56.49,2.83s47.25,4.79,47.25,13.94-23.77,13.94-47.25,13.94ZM56.49,6.24c-27.16,0-43.83,6.13-43.83,10.52s16.68,10.52,43.83,10.52,43.83-6.13,43.83-10.52-16.68-10.52-43.83-10.52Z"/>
        <path class="cls-1" d="M56.49,52.28c-23.48,0-47.25-4.79-47.25-13.94v-21.58h3.42v21.58c0,4.39,16.68,10.52,43.83,10.52s43.83-6.13,43.83-10.52v-21.58h3.42v21.58c0,9.15-23.77,13.94-47.25,13.94Z"/>
        <rect class="cls-1" x="9.24" y="38.35" width="3.42" height="21.58"/>
        <rect class="cls-1" x="100.33" y="38.35" width="3.42" height="21.58"/>
      </g>
    </g>
    <rect class="cls-1" x="90.08" y="55.17" width="4.78" height="3.42"/>
    <rect class="cls-1" x="90.08" y="76.25" width="4.78" height="3.42"/>
    <rect class="cls-1" x="90.08" y="32.81" width="4.78" height="3.42"/>
  </g>
  <g>
    <path class="cls-1" d="M90.98,111.47h-20.23c-6.17,0-11.19-5.02-11.19-11.19v-5.62h3.42v5.62c0,4.29,3.49,7.78,7.77,7.78h20.23v3.42Z"/>
    <path class="cls-1" d="M99.09,119.57c-5.41,0-9.81-4.4-9.81-9.81s4.4-9.81,9.81-9.81,9.81,4.4,9.81,9.81-4.4,9.81-9.81,9.81ZM99.09,103.36c-3.53,0-6.4,2.87-6.4,6.4s2.87,6.4,6.4,6.4,6.4-2.87,6.4-6.4-2.87-6.4-6.4-6.4Z"/>
  </g>
  <g>
    <path class="cls-1" d="M42.15,111.73c-.05,0-.11,0-.16,0l-20.24-.43.07-3.42,20.22.43s.07,0,.11,0c4.22,0,7.7-3.42,7.76-7.66l.08-5.62,3.42.05-.08,5.62c-.09,6.12-5.09,11.03-11.19,11.03Z"/>
    <path class="cls-1" d="M13.68,119.29s-.1,0-.14,0c-2.62-.04-5.07-1.09-6.9-2.97-1.83-1.88-2.81-4.36-2.78-6.98.04-2.62,1.09-5.07,2.98-6.9,1.88-1.83,4.4-2.78,6.98-2.77,5.41.08,9.75,4.54,9.67,9.95-.08,5.36-4.47,9.67-9.81,9.67ZM13.68,103.08c-1.67,0-3.25.64-4.46,1.81-1.22,1.19-1.91,2.79-1.94,4.5-.02,1.71.62,3.32,1.81,4.55,1.19,1.23,2.79,1.91,4.5,1.94,3.54.15,6.44-2.77,6.49-6.3.05-3.53-2.78-6.44-6.3-6.49-.03,0-.07,0-.1,0Z"/>
  </g>
</svg>