<?xml version="1.0" encoding="UTF-8"?>
<svg id="Layer_1" data-name="Layer 1" xmlns="http://www.w3.org/2000/svg" viewBox="0 0 112.77 122.4">
  <defs>
    <style>
      .cls-1 {
        fill: #ffd000;
        stroke-width: 0px;
      }
    </style>
  </defs>
  <path class="cls-1" d="M64.09,47.14c.27.27.63.42,1.02.42s.74-.15,1.02-.42c.56-.56.56-1.47,0-2.04l-5.33-5.33c.38-.71.58-1.51.58-2.32,0-2.21-1.46-4.13-3.54-4.76v-11.67c0-.79-.65-1.44-1.44-1.44s-1.44.65-1.44,1.44v11.67c-2.08.63-3.54,2.55-3.54,4.76,0,2.75,2.23,4.98,4.98,4.98.84,0,1.65-.21,2.38-.61l5.33,5.32ZM58.49,37.45c0,1.16-.94,2.11-2.1,2.11s-2.1-.94-2.1-2.11.94-2.1,2.1-2.1,2.1.94,2.1,2.1Z"/>
  <path class="cls-1" d="M107.5,81.43h-11.82v-7.49c0-.79-.65-1.44-1.44-1.44h-36.42v-7.99c6.64-.35,12.86-3.08,17.58-7.73l.32-.31h0c5.03-5.12,7.8-11.86,7.8-19.02s-2.78-13.93-7.8-19.02l-.31-.32h-.01c-5.11-5.03-11.85-7.79-19.01-7.79s-13.92,2.77-19.01,7.8l-.32.31h0c-5.03,5.13-7.8,11.87-7.8,19.03s2.78,13.92,7.8,19.02l.31.32h.01c4.73,4.65,10.94,7.38,17.57,7.73v7.99H18.52c-.79,0-1.44.65-1.44,1.44v7.49H5.27c-.79,0-1.44.65-1.44,1.44v27.78c0,.79.65,1.44,1.44,1.44h26.51c.79,0,1.44-.65,1.44-1.44v-27.78c0-.79-.65-1.44-1.44-1.44h-11.82v-6.06h34.99v6.06h-11.82c-.79,0-1.44.65-1.44,1.44v27.78c0,.79.65,1.44,1.44,1.44h26.51c.79,0,1.44-.65,1.44-1.44v-27.78c0-.79-.65-1.44-1.44-1.44h-11.82v-6.06h34.99v6.06h-11.82c-.79,0-1.44.65-1.44,1.44v27.78c0,.79.65,1.44,1.44,1.44h26.51c.79,0,1.44-.65,1.44-1.44v-27.78c0-.79-.65-1.44-1.44-1.44ZM106.06,84.31v24.9h-23.63v-24.9h23.63ZM54.95,59.61v2.02c-5.42-.32-10.57-2.46-14.64-6.07l1.42-1.42c.27-.27.42-.63.42-1.02s-.15-.75-.42-1.02c-.56-.56-1.47-.56-2.03,0l-1.42,1.42c-3.62-4.07-5.75-9.22-6.07-14.64h2.02c.79,0,1.44-.65,1.44-1.44s-.65-1.44-1.44-1.44h-2.02c.32-5.42,2.46-10.57,6.07-14.64l1.42,1.42c.55.55,1.49.54,2.03,0,.27-.27.42-.63.42-1.02s-.15-.75-.42-1.02l-1.42-1.42c4.07-3.61,9.22-5.75,14.64-6.07v2.02c0,.79.65,1.44,1.44,1.44s1.44-.65,1.44-1.44v-2.02c5.42.32,10.57,2.46,14.64,6.07l-1.42,1.42c-.27.27-.42.63-.42,1.02s.15.75.42,1.02c.54.54,1.49.54,2.03,0l1.42-1.42c3.62,4.07,5.75,9.22,6.07,14.64h-2.02c-.79,0-1.44.65-1.44,1.44s.65,1.44,1.44,1.44h2.02c-.32,5.42-2.46,10.57-6.07,14.64l-1.42-1.42c-.56-.56-1.47-.56-2.03,0-.27.27-.42.63-.42,1.02s.15.75.42,1.02l1.42,1.42c-4.07,3.61-9.22,5.75-14.64,6.07v-2.02c0-.79-.65-1.44-1.44-1.44s-1.44.65-1.44,1.44ZM44.57,109.21v-24.9h23.63v24.9h-23.63ZM6.71,109.21v-24.9h23.63v24.9H6.71Z"/>
  <path class="cls-1" d="M24.36,87.66h-11.68c-.79,0-1.44.65-1.44,1.44s.65,1.44,1.44,1.44h11.68c.79,0,1.44-.65,1.44-1.44s-.65-1.44-1.44-1.44Z"/>
  <path class="cls-1" d="M24.36,96.48h-11.68c-.79,0-1.44.65-1.44,1.44s.65,1.44,1.44,1.44h11.68c.79,0,1.44-.65,1.44-1.44s-.65-1.44-1.44-1.44Z"/>
  <path class="cls-1" d="M62.22,87.66h-11.68c-.79,0-1.44.65-1.44,1.44s.65,1.44,1.44,1.44h11.68c.79,0,1.44-.65,1.44-1.44s-.65-1.44-1.44-1.44Z"/>
  <path class="cls-1" d="M62.22,96.48h-11.68c-.79,0-1.44.65-1.44,1.44s.65,1.44,1.44,1.44h11.68c.79,0,1.44-.65,1.44-1.44s-.65-1.44-1.44-1.44Z"/>
  <path class="cls-1" d="M88.41,90.53h11.68c.79,0,1.44-.65,1.44-1.44s-.65-1.44-1.44-1.44h-11.68c-.79,0-1.44.65-1.44,1.44s.65,1.44,1.44,1.44Z"/>
  <path class="cls-1" d="M88.41,99.36h11.68c.79,0,1.44-.65,1.44-1.44s-.65-1.44-1.44-1.44h-11.68c-.79,0-1.44.65-1.44,1.44s.65,1.44,1.44,1.44Z"/>
</svg>