<?xml version="1.0" encoding="UTF-8"?>
<svg id="Layer_1" data-name="Layer 1" xmlns="http://www.w3.org/2000/svg" viewBox="0 0 112.77 122.4">
  <defs>
    <style>
      .cls-1 {
        fill: #ffd000;
        stroke-width: 0px;
      }
    </style>
  </defs>
  <rect class="cls-1" x="3.79" y="98.09" width="105.19" height="2.95"/>
  <path class="cls-1" d="M13.7,75.32c5.46,0,9.91-4.44,9.91-9.91,0-2.2-.73-4.23-1.95-5.87l11.78-11.78c1.65,1.22,3.67,1.95,5.87,1.95s4.23-.73,5.87-1.95l11.78,11.78c-1.22,1.65-1.95,3.67-1.95,5.87,0,5.46,4.44,9.91,9.91,9.91s9.91-4.44,9.91-9.91c0-2.2-.73-4.23-1.95-5.87l20.32-20.32c1.65,1.22,3.67,1.95,5.87,1.95,5.46,0,9.91-4.44,9.91-9.91s-4.44-9.91-9.91-9.91-9.91,4.44-9.91,9.91c0,2.2.73,4.23,1.95,5.87l-20.32,20.32c-1.65-1.22-3.67-1.95-5.87-1.95s-4.23.73-5.87,1.95l-11.78-11.78c1.22-1.65,1.95-3.67,1.95-5.87,0-5.46-4.44-9.91-9.91-9.91s-9.91,4.44-9.91,9.91c0,2.2.73,4.23,1.95,5.87l-11.78,11.78c-1.65-1.22-3.67-1.95-5.87-1.95-5.46,0-9.91,4.44-9.91,9.91s4.44,9.91,9.91,9.91ZM20.87,65.42c0,3.95-3.22,7.17-7.17,7.17s-7.17-3.22-7.17-7.17,3.21-7.17,7.17-7.17,7.17,3.22,7.17,7.17ZM39.31,46.97c-3.95,0-7.17-3.22-7.17-7.17s3.22-7.17,7.17-7.17,7.17,3.22,7.17,7.17-3.21,7.17-7.17,7.17ZM72.09,65.42c0,3.95-3.21,7.17-7.17,7.17s-7.17-3.22-7.17-7.17,3.22-7.17,7.17-7.17,7.17,3.22,7.17,7.17ZM91.9,31.27c0-3.95,3.21-7.17,7.17-7.17s7.17,3.22,7.17,7.17-3.22,7.17-7.17,7.17-7.17-3.22-7.17-7.17Z"/>
</svg>