<?xml version="1.0" encoding="UTF-8"?>
<svg id="Layer_1" data-name="Layer 1" xmlns="http://www.w3.org/2000/svg" viewBox="0 0 112.77 122.4">
  <defs>
    <style>
      .cls-1 {
        fill: #ffd000;
        stroke-width: 0px;
      }
    </style>
  </defs>
  <path class="cls-1" d="M25.71,78.76h-3.25v-4.9c0-16.72,12.05-25.93,33.93-25.93s33.93,9.21,33.93,25.93v4.81h-3.25v-4.81c0-10.35-5.32-22.68-30.68-22.68s-30.68,12.33-30.68,22.68v4.9Z"/>
  <path class="cls-1" d="M78.45,99.25c-.14,0-.27,0-.38-.01-.09,0-.19,0-.29,0h-43.06c-.63.02-1.78.06-2.63-1.26l-6.28-7.66-.09-.19c-.43-.93-.39-1.9.11-2.67.48-.75,1.33-1.19,2.31-1.19h5.47v3.25h-4.24l5.3,6.46c.1,0,.21,0,.32,0h42.79c.15,0,.3,0,.44.01.08,0,.17,0,.26,0,0,0,.02-.02.03-.04l4.95-6.44h-4.3v-3.25h5.47c.99,0,1.83.43,2.31,1.18.49.77.53,1.74.11,2.67l-.19.31-5.76,7.51c-.88,1.16-1.92,1.31-2.64,1.31Z"/>
  <path class="cls-1" d="M80.79,97.49h-3.25v-30.34h-42.29v30.14h-3.25v-30.39c0-1.66,1.35-3.01,3.01-3.01h42.79c1.66,0,3.01,1.35,3.01,3.01v30.59Z"/>
  <path class="cls-1" d="M56.39,118.29c-28.79,0-51.34-9.02-51.34-20.53,0-7.28,8.61-13.61,23.62-17.38l.79,3.16c-13.05,3.27-21.16,8.72-21.16,14.22,0,8.34,19.32,17.28,48.09,17.28s48.08-8.93,48.08-17.28c0-5.49-8.08-10.93-21.08-14.2l.79-3.16c14.96,3.77,23.54,10.09,23.54,17.36,0,11.51-22.55,20.53-51.34,20.53Z"/>
  <rect class="cls-1" x="55.94" y="79.88" width=".9" height="3.25"/>
  <path class="cls-1" d="M56.39,43.27c-11.09,0-20.11-9.02-20.11-20.11S45.3,3.05,56.39,3.05s20.11,9.02,20.11,20.11-9.02,20.11-20.11,20.11ZM56.39,6.31c-9.29,0-16.85,7.56-16.85,16.85s7.56,16.85,16.85,16.85,16.85-7.56,16.85-16.85-7.56-16.85-16.85-16.85Z"/>
</svg>