<?xml version="1.0" encoding="UTF-8"?>
<svg id="Layer_1" data-name="Layer 1" xmlns="http://www.w3.org/2000/svg" viewBox="0 0 95.65 79.7">
  <defs>
    <style>
      .cls-1 {
        fill: #3f3f3e;
        stroke-width: 0px;
      }
    </style>
  </defs>
  <path class="cls-1" d="M33.84,67.64l-2.77-2.77.24-.26c.79-.85,2.11-2.27,5.05-2.27h28.59c2.22-.93,12.13-10.52,14.38-13.04,1.23-1.38,6.59-9.41,8.85-13.86-1.06-.61-2.87-1.03-4.99-.54-2.54.59-4.24,2.37-6.53,6.81-.19.36-.48.66-.84.84l-8.97,4.66-1.8-3.47,8.42-4.37c2.32-4.4,4.67-7.31,8.83-8.28,4.59-1.07,8.32.65,9.83,2.69.42.56.5,1.3.23,1.93-1.91,4.46-8.58,14.45-10.12,16.18-.13.14-13.46,14.34-17.11,14.34h-28.78c-1.23,0-1.59.38-2.18,1.02l-.34.36ZM64.86,62.38h0Z"/>
  <path class="cls-1" d="M61.24,54.52h-17.6v-3.91h17.6c2.7,0,3.91-1.47,3.91-2.93s-1.21-2.93-3.91-2.93h-11.73c-1.38,0-2.61-.94-4.03-2.02-.98-.75-2.46-1.89-3.24-1.89h-9.78c-1.87,0-4.68,1.7-6.49,3.39-2.87,2.87-8.04,7.76-8.09,7.81l-2.69-2.84c.05-.05,5.18-4.91,8.06-7.78,2.25-2.1,5.96-4.48,9.21-4.48h9.78c2.1,0,3.97,1.43,5.62,2.69.59.45,1.48,1.14,1.81,1.24l11.57-.02c5.14,0,7.82,3.44,7.82,6.84s-2.69,6.84-7.82,6.84Z"/>
  <path class="cls-1" d="M26.59,77.99c-.5,0-1-.19-1.38-.57L3.69,55.9c-.76-.76-.76-2,0-2.77l7.82-7.82c.76-.76,2-.76,2.77,0l21.51,21.51c.76.76.76,2,0,2.77l-7.82,7.82c-.38.38-.88.57-1.38.57ZM7.84,54.52l18.75,18.75,5.06-5.06-18.75-18.75-5.06,5.06Z"/>
  <path class="cls-1" d="M55.37,25.18c-5.48,0-9.78-4.54-9.78-10.34v-2.8c0-5.8,4.3-10.34,9.78-10.34s9.78,4.54,9.78,10.34v2.8c0,5.8-4.3,10.34-9.78,10.34ZM55.37,5.63c-3.29,0-5.87,2.82-5.87,6.42v2.8c0,3.6,2.58,6.42,5.87,6.42s5.87-2.82,5.87-6.42v-2.8c0-3.6-2.58-6.42-5.87-6.42Z"/>
  <path class="cls-1" d="M72.97,34.96h-3.91v-3.99c0-3.35-8.31-5.87-13.69-5.87s-13.69,2.52-13.69,5.87v3.99h-3.91v-3.99c0-6.91,11.46-9.78,17.6-9.78s17.6,2.87,17.6,9.78v3.99Z"/>
</svg>