<?xml version="1.0" encoding="UTF-8"?>
<svg id="Layer_1" data-name="Layer 1" xmlns="http://www.w3.org/2000/svg" viewBox="0 0 95.65 79.7">
  <defs>
    <style>
      .cls-1 {
        fill: #3f3f3e;
        stroke-width: 0px;
      }
    </style>
  </defs>
  <path class="cls-1" d="M93.91,79.7c-.09,0-.17,0-.26-.02l-1.9-.29c-5.09-.76-9.99-2.53-14.22-5.14-4.84,2.59-10.39,3.96-16.11,3.96-.49,0-.98,0-1.47-.03-6.35-.26-12.38-2.23-17.45-5.7-.79-.54-1-1.62-.45-2.42.54-.79,1.62-1,2.42-.45,4.53,3.1,9.93,4.86,15.62,5.09.44.02.89.02,1.33.02,5.48,0,10.77-1.39,15.3-4.01.57-.33,1.28-.31,1.83.05,3.39,2.23,7.31,3.86,11.43,4.76-2.17-3.24-3.78-6.75-4.8-10.44l-.19-.7c-.14-.49-.05-1.02.24-1.45,2.49-3.64,3.84-7.81,3.88-12.08.07-6.03-2.48-11.84-7.18-16.37,0,0-.02-.02-.03-.03-.68-.68-.68-1.78,0-2.46.68-.68,1.78-.68,2.46,0h0c5.37,5.19,8.3,11.91,8.22,18.9-.05,4.69-1.44,9.28-4.04,13.32,1.09,3.93,2.93,7.62,5.46,10.98l1.29,1.71c.43.56.47,1.33.11,1.94-.32.53-.89.85-1.49.85Z"/>
  <path class="cls-1" d="M3.18,69.91c-1.12,0-2.16-.6-2.73-1.55-.66-1.12-.59-2.51.19-3.54l1.54-2.04c2.85-3.78,4.94-7.91,6.22-12.28-3.04-4.9-4.67-10.44-4.74-16.08-.1-8.83,3.64-17.26,10.53-23.74C20.98,4.3,30.09.52,39.85.05c11.81-.57,23.09,3.61,30.89,11.48,6.64,6.69,10.03,15.31,9.52,24.27-.47,8.48-4.52,16.47-11.38,22.49-6.76,5.93-15.66,9.41-25.06,9.8-7.43.31-14.68-1.26-21.03-4.54-5.06,3.01-10.88,5.07-16.87,5.97l-2.26.34c-.15.02-.31.04-.47.04ZM41.99,2.88c-.66,0-1.33.02-2,.05-9.07.44-17.53,3.94-23.82,9.85-6.29,5.92-9.71,13.59-9.62,21.6.06,5.31,1.66,10.53,4.63,15.1l.35.55-.2.71c-1.36,4.92-3.66,9.56-6.85,13.78l-1.54,2.04c-.07.1-.08.23-.02.33.05.09.15.14.26.14l2.31-.34c5.9-.88,11.6-2.96,16.49-6l.71-.44.74.4c6.06,3.29,13.08,4.88,20.27,4.58,8.74-.36,17.01-3.59,23.28-9.09,6.28-5.51,9.98-12.78,10.41-20.49.45-8.13-2.63-15.97-8.69-22.08h0c-6.79-6.85-16.44-10.68-26.71-10.68Z"/>
  <path class="cls-1" d="M48.74,45.03h-23.62c-1.39,0-2.53-1.13-2.53-2.53v-16.71c0-1.39,1.13-2.53,2.53-2.53h23.64c.68,0,1.31.26,1.79.74.48.48.74,1.11.74,1.79v16.71c-.02,1.39-1.15,2.52-2.54,2.52ZM25.48,42.15h22.91v-16s-22.91,0-22.91,0v16Z"/>
  <path class="cls-1" d="M62.49,42.28h-2.61l-8.01-4.35v-7.43s8.01-4.34,8.01-4.34h2.61v16.12ZM54.75,36.22l4.85,2.63v-9.26l-4.85,2.63v4Z"/>
</svg>