<?xml version="1.0" encoding="UTF-8"?>
<svg id="Layer_1" data-name="Layer 1" xmlns="http://www.w3.org/2000/svg" viewBox="0 0 95.65 79.7">
  <defs>
    <style>
      .cls-1 {
        fill: #3f3f3e;
        stroke-width: 0px;
      }
    </style>
  </defs>
  <g>
    <path class="cls-1" d="M41.83,33.03c-.72,0-1.3.58-1.3,1.3v7.83c0,.72.58,1.3,1.3,1.3s1.31-.58,1.31-1.3v-7.83c0-.72-.58-1.3-1.31-1.3Z"/>
    <path class="cls-1" d="M47.05,27.81c-.72,0-1.3.58-1.3,1.3v13.05c0,.72.58,1.3,1.3,1.3s1.31-.58,1.31-1.3v-13.05c0-.72-.58-1.3-1.31-1.3Z"/>
    <path class="cls-1" d="M62.45,27.81c-.72,0-1.3.58-1.3,1.3v13.05c0,.72.58,1.3,1.3,1.3s1.3-.58,1.3-1.3v-13.05c0-.72-.58-1.3-1.3-1.3Z"/>
    <path class="cls-1" d="M52.27,23.9c-.72,0-1.3.58-1.3,1.3v16.96c0,.72.58,1.3,1.3,1.3s1.31-.58,1.31-1.3v-16.96c0-.72-.58-1.3-1.31-1.3Z"/>
    <path class="cls-1" d="M67.45,23.9c-.72,0-1.3.58-1.3,1.3v16.96c0,.72.58,1.3,1.3,1.3s1.31-.58,1.31-1.3v-16.96c0-.72-.58-1.3-1.31-1.3Z"/>
    <path class="cls-1" d="M57.49,22.59c-.72,0-1.31.58-1.31,1.3v18.27c0,.72.58,1.3,1.31,1.3s1.3-.58,1.3-1.3v-18.27c0-.72-.58-1.3-1.3-1.3Z"/>
  </g>
  <g>
    <path class="cls-1" d="M13.62,78.05c-1.07,0-2.07-.42-2.83-1.17-1.55-1.56-1.55-4.09,0-5.65l20.37-20.37.67.82c1.24,1.51,2.64,2.92,4.17,4.17l.82.67-20.37,20.37c-.76.75-1.76,1.17-2.83,1.17ZM31.04,53.68l-18.89,18.89c-.81.81-.81,2.14,0,2.95.79.79,2.16.79,2.95,0l18.9-18.89c-1.05-.92-2.04-1.91-2.95-2.95Z"/>
    <path class="cls-1" d="M13.62,78.28c-1.13,0-2.19-.44-2.99-1.24-1.65-1.65-1.64-4.33,0-5.98l20.56-20.56.83,1.02c1.23,1.5,2.62,2.9,4.14,4.14l1.02.83-20.55,20.56c-.8.8-1.86,1.24-2.99,1.24ZM31.15,51.2l-20.19,20.19c-1.46,1.47-1.46,3.85,0,5.32.71.71,1.66,1.1,2.66,1.1s1.95-.39,2.66-1.1l20.19-20.19-.62-.5c-1.54-1.26-2.95-2.67-4.2-4.2l-.51-.62ZM13.62,76.35c-.62,0-1.22-.24-1.64-.66-.9-.91-.9-2.38,0-3.28l19.07-19.07.16.19c.9,1.03,1.88,2.01,2.93,2.93l.19.16-19.07,19.07c-.42.42-1.01.66-1.64.66h0ZM31.03,54.02l-18.72,18.72c-.72.72-.72,1.9,0,2.62.33.33.81.52,1.31.52h0c.5,0,.98-.19,1.31-.52l18.72-18.72c-.93-.83-1.81-1.71-2.62-2.62Z"/>
  </g>
  <g>
    <path class="cls-1" d="M54.64,64.41c-6.93,0-13.72-2.33-19.2-6.58l-.04.04-.68-.56c-1.6-1.33-3.07-2.82-4.37-4.44-4.57-5.58-7.09-12.63-7.09-19.84C23.26,15.73,37.34,1.65,54.64,1.65s31.38,14.08,31.38,31.38-14.08,31.38-31.38,31.38ZM36,55.84c5.25,4.3,11.87,6.67,18.64,6.67,16.25,0,29.47-13.22,29.47-29.47S70.89,3.56,54.64,3.56s-29.47,13.22-29.47,29.47c0,6.77,2.37,13.39,6.66,18.64,1.23,1.52,2.61,2.92,4.11,4.17l-.07.09.03.03.1-.12ZM54.64,58.33c-13.95,0-25.3-11.35-25.3-25.29S40.69,7.74,54.64,7.74s25.29,11.35,25.29,25.3-11.35,25.29-25.29,25.29ZM54.64,9.65c-12.89,0-23.39,10.49-23.39,23.39s10.49,23.38,23.39,23.38,23.38-10.49,23.38-23.38-10.49-23.39-23.38-23.39Z"/>
    <path class="cls-1" d="M54.64,64.65c-6.89,0-13.7-2.31-19.18-6.51l-.05.05-.84-.69c-1.61-1.34-3.09-2.85-4.4-4.47-4.61-5.62-7.14-12.72-7.14-19.99C23.03,15.6,37.21,1.42,54.64,1.42s31.61,14.18,31.61,31.62-14.18,31.61-31.61,31.61ZM35.42,57.52l.16.12c5.43,4.21,12.2,6.53,19.06,6.53,17.17,0,31.15-13.97,31.15-31.15S71.82,1.88,54.64,1.88s-31.15,13.97-31.15,31.15c0,7.16,2.5,14.15,7.04,19.69,1.29,1.6,2.75,3.08,4.34,4.41l.51.43.04-.04ZM54.64,62.74c-6.75,0-13.34-2.33-18.61-6.57l-.11.14-.34-.33.05-.09c-1.46-1.23-2.8-2.6-3.98-4.07-4.33-5.29-6.71-11.96-6.71-18.78,0-16.38,13.33-29.71,29.7-29.71s29.7,13.33,29.7,29.71-13.33,29.7-29.7,29.7ZM35.97,55.51l.18.15c5.21,4.26,11.78,6.61,18.49,6.61,16.12,0,29.24-13.12,29.24-29.24S70.76,3.79,54.64,3.79s-29.24,13.12-29.24,29.24c0,6.72,2.35,13.28,6.61,18.49,1.17,1.46,2.49,2.8,3.93,4.02l.02-.03ZM54.64,58.56c-14.08,0-25.53-11.45-25.53-25.53S40.56,7.5,54.64,7.5s25.53,11.45,25.53,25.53-11.45,25.53-25.53,25.53ZM54.64,7.97c-13.82,0-25.06,11.24-25.06,25.06s11.24,25.06,25.06,25.06,25.06-11.24,25.06-25.06-11.24-25.06-25.06-25.06ZM54.64,56.65c-13.02,0-23.62-10.6-23.62-23.62s10.6-23.62,23.62-23.62,23.62,10.6,23.62,23.62-10.6,23.62-23.62,23.62ZM54.64,9.88c-12.77,0-23.15,10.39-23.15,23.15s10.39,23.15,23.15,23.15,23.15-10.39,23.15-23.15-10.39-23.15-23.15-23.15Z"/>
  </g>
</svg>