<?xml version="1.0" encoding="UTF-8"?>
<svg version="1.1" xmlns="http://www.w3.org/2000/svg" width="295" height="295">
<path d="M0 0 C0.98597168 0.00225586 1.97194336 0.00451172 2.98779297 0.00683594 C4.11145264 0.01118652 4.11145264 0.01118652 5.2578125 0.015625 C5.25927906 0.83984514 5.26074562 1.66406528 5.26225662 2.5132618 C5.29930935 22.56898729 5.35830371 42.62454359 5.44171524 62.68013191 C5.48152345 72.37887983 5.51390689 82.07754639 5.52880859 91.77636719 C5.54181587 100.22993407 5.56875689 108.68332209 5.61242557 117.13678825 C5.6350612 121.61281201 5.65072192 126.088615 5.64969635 130.56470108 C5.64895098 134.77878782 5.66685217 138.99238614 5.69898033 143.20634651 C5.70749063 144.75185862 5.70922156 146.29742545 5.70361519 147.84295082 C5.69697023 149.95650833 5.71490411 152.068514 5.73883057 154.18191528 C5.74251774 155.36365389 5.74620491 156.54539249 5.75000381 157.76294136 C6.36647692 161.71165679 7.80567502 163.89750514 10.2578125 167.015625 C13.12672297 169.00580824 15.37747926 169.25671811 18.82568359 169.2109375 C20.18320992 169.20117889 20.18320992 169.20117889 21.56816101 169.19122314 C22.54598038 169.17452576 23.52379974 169.15782837 24.53125 169.140625 C26.64216921 169.12312726 28.75309054 169.10588473 30.86401367 169.08886719 C32.52187393 169.07019592 32.52187393 169.07019592 34.21322632 169.05114746 C61.3946222 168.76878871 87.9597483 169.85115237 114.88745117 173.69433594 C126.82978953 175.37664657 137.09394946 174.90667999 149.0078125 173.140625 C168.67264547 170.38815439 188.19370458 168.91408104 208.0546875 169.0390625 C209.17929382 169.04514526 210.30390015 169.05122803 211.46258545 169.05749512 C217.13464018 169.09323509 222.80442292 169.15781825 228.47558594 169.26464844 C230.58007339 169.28882718 232.68456546 169.31260775 234.7890625 169.3359375 C235.75656433 169.36295746 236.72406616 169.38997742 237.72088623 169.41781616 C243.39667168 169.45957124 246.85559786 168.98892821 251.2578125 165.015625 C253.54401678 161.54253108 253.51713559 158.5204842 253.5362854 154.42242432 C253.544974 153.43111987 253.544974 153.43111987 253.55383813 152.41978908 C253.57083193 150.20721867 253.57371404 147.99485694 253.57666016 145.78222656 C253.58595878 144.19544463 253.59612735 142.60866759 253.60710144 141.02189636 C253.63442302 136.71442975 253.64955724 132.40699589 253.66252947 128.09946537 C253.67815056 123.5977458 253.70494404 119.09609318 253.7305603 114.59442139 C253.77736619 106.06995643 253.81410154 97.5454789 253.84723318 89.02095103 C253.88544177 79.31604389 253.93485524 69.61120397 253.98521733 59.90635347 C254.0885641 39.94282694 254.17781559 19.97925786 254.2578125 0.015625 C255.98692023 -0.00651878 257.71611179 -0.0221644 259.4453125 -0.03515625 C260.40824219 -0.04458252 261.37117188 -0.05400879 262.36328125 -0.0637207 C266.97605761 0.06272602 271.96173352 0.43683384 275.85077 3.11094761 C277.95474198 5.95904059 277.67503708 8.81525227 277.64549255 12.22093201 C277.65357086 13.32922799 277.65357086 13.32922799 277.66181237 14.45991379 C277.6761524 16.94276355 277.66897356 19.42508469 277.66186523 21.90795898 C277.66756567 23.68514435 277.67452865 25.46232606 277.68266296 27.23950195 C277.70064591 32.07213593 277.69941634 36.90458885 277.69372058 41.73724627 C277.69063606 45.76823557 277.69671296 49.79918972 277.70275933 53.83017403 C277.71681988 63.33806552 277.71523062 72.8458672 277.70385742 82.35375977 C277.69237491 92.17009723 277.70645065 101.98616153 277.7332539 111.802463 C277.75538916 120.22376733 277.76205318 128.64498578 277.75617748 137.06631714 C277.75280146 142.09892411 277.75526567 147.13135595 277.77242851 152.16393852 C277.78786094 156.895904 277.78398343 161.62746391 277.76512337 166.35941315 C277.76142716 168.09768405 277.76457587 169.83598476 277.77500916 171.57422829 C277.78815094 173.94440204 277.77673368 176.31321967 277.75901794 178.68333435 C277.76862295 179.37389827 277.77822796 180.06446218 277.78812402 180.77595228 C277.73702069 184.09079457 277.44060707 185.77530669 275.40987492 188.44509125 C272.45240933 190.60339274 270.4977372 190.47918536 266.85742188 190.42211914 C265.5512088 190.41227493 264.24499573 190.40243073 262.89920044 190.39228821 C261.46665274 190.36186693 260.0341068 190.33136225 258.6015625 190.30078125 C257.11296732 190.28447052 255.62434701 190.27032634 254.13571167 190.25822449 C250.97917026 190.23008681 247.82300792 190.19159085 244.66668701 190.14489746 C236.5125799 190.02786028 228.35796224 189.99622481 220.203125 189.97265625 C219.40579578 189.97000134 218.60846657 189.96734642 217.78697586 189.96461105 C193.93024758 189.89970084 170.52224866 192.0155057 146.95849609 195.74511719 C132.48242996 197.97287238 118.94006363 196.68383964 104.5703125 194.640625 C82.81508635 191.55471407 61.20847072 189.81457027 39.23046875 189.9609375 C38.45883959 189.9660648 37.68721043 189.97119209 36.89219856 189.97647476 C29.73146764 190.02910245 22.57112886 190.1091275 15.41088867 190.20751953 C11.43758661 190.26101057 7.46449798 190.29510423 3.49090385 190.31725693 C1.99531293 190.32961671 0.49976362 190.34955224 -0.99561882 190.3774147 C-3.0636911 190.41578924 -5.1305948 190.4296205 -7.19897461 190.43798828 C-8.36996201 190.45290314 -9.5409494 190.46781799 -10.74742126 190.48318481 C-14.52128711 189.89398757 -15.44694078 189.03693296 -17.7421875 186.015625 C-18.13756416 183.43182259 -18.28769146 181.27187814 -18.2568512 178.69006348 C-18.26379672 177.95034506 -18.27074225 177.21062665 -18.27789825 176.44849253 C-18.29620191 173.96861063 -18.28589517 171.48968176 -18.27563477 169.00976562 C-18.28269152 167.23242984 -18.29143551 165.45510006 -18.30174255 163.67778015 C-18.32427245 158.84929182 -18.32128862 154.02113071 -18.31242108 149.19260979 C-18.30731681 145.1640463 -18.31459911 141.1355446 -18.32189316 137.10698748 C-18.33890325 127.60528713 -18.33531471 118.10374735 -18.31860352 108.60205078 C-18.30167513 98.79301554 -18.3175241 88.98442507 -18.3498264 79.1754384 C-18.37649693 70.75834623 -18.38380534 62.34139272 -18.37531132 53.92426252 C-18.3703754 48.89499001 -18.37263374 43.86598527 -18.39309883 38.83674622 C-18.41141653 34.10878656 -18.40554542 29.38146838 -18.38089943 24.65354347 C-18.37587933 22.91688675 -18.37941231 21.18018147 -18.39204788 19.44356346 C-18.40791782 17.07536123 -18.39308823 14.7092872 -18.37037659 12.34118652 C-18.38221232 11.65130473 -18.39404804 10.96142293 -18.40624243 10.25063562 C-18.33530389 6.61867582 -17.96861011 5.24852198 -15.39823818 2.6046524 C-10.52712681 -0.30957266 -5.52301815 -0.01641313 0 0 Z " fill="#FFD100" transform="translate(17.7421875,97.984375)"/>
<path d="M0 0 C0.00546844 0.96933472 0.00546844 0.96933472 0.01104736 1.95825195 C0.05298129 8.70739209 0.12240357 15.4558591 0.20751953 22.20458984 C0.23567877 24.72047175 0.25691828 27.2364413 0.27099609 29.75244141 C0.29249456 33.37708236 0.3391837 37.00067517 0.390625 40.625 C0.39185364 41.74302002 0.39308228 42.86104004 0.39434814 44.01293945 C0.54047937 51.87208269 1.59118926 57.65176586 7.41796875 63.375 C26.07644421 75.11770165 59.03403513 74.16458404 78 76 C78 114.94 78 153.88 78 194 C65.46 192.68 52.92 191.36 40 190 C30.49879299 189.3665862 21.36204003 188.89681147 11.8984375 189.078125 C9.50912761 189.1053356 7.11980377 189.13134376 4.73046875 189.15625 C1.02809447 189.19973177 -2.67353833 189.25093525 -6.37548828 189.32226562 C-9.99263184 189.38869618 -13.60895491 189.42356161 -17.2265625 189.453125 C-18.88904526 189.49654022 -18.88904526 189.49654022 -20.58511353 189.54083252 C-21.6174411 189.54443787 -22.64976868 189.54804321 -23.71337891 189.55175781 C-24.61633698 189.56587708 -25.51929504 189.57999634 -26.44961548 189.59454346 C-30.19012767 188.72255846 -31.59492042 186.95109132 -34 184 C-34.6292057 180.61883545 -34.6292057 180.61883545 -34.63491821 176.67480469 C-34.64271817 175.94718807 -34.65051812 175.21957146 -34.65855443 174.46990585 C-34.67846622 172.03671072 -34.66271463 169.60508115 -34.64697266 167.171875 C-34.6537492 165.42556852 -34.66265253 163.67926919 -34.67352295 161.9329834 C-34.69631867 157.1932473 -34.68747887 152.45405532 -34.67162752 147.71430969 C-34.65896994 142.75451184 -34.67070824 137.79476062 -34.67855835 132.83496094 C-34.68765532 124.50577427 -34.67566573 116.17680926 -34.65185547 107.84765625 C-34.62464411 98.21753552 -34.63345824 88.58794406 -34.6609875 78.95783615 C-34.68367618 70.69016361 -34.68687982 62.42265043 -34.67379415 54.15495682 C-34.66599832 49.21678237 -34.66496168 44.27885671 -34.68147659 39.34069824 C-34.69591859 34.69805624 -34.68590473 30.0560967 -34.65700531 25.41352844 C-34.65039303 23.70955031 -34.65229465 22.00551475 -34.66331863 20.30155945 C-34.67698115 17.97532911 -34.6598536 15.65128616 -34.63491821 13.32519531 C-34.63303308 12.02366516 -34.63114796 10.72213501 -34.6292057 9.38116455 C-33.83991059 5.13972704 -32.31608825 3.66731847 -29 1 C-26.78125 0.2265625 -26.78125 0.2265625 -24 0 C-23.3090625 -0.05704102 -22.618125 -0.11408203 -21.90625 -0.17285156 C-19.4384586 -0.35854475 -16.97138799 -0.4963213 -14.5 -0.625 C-13.23736328 -0.70234375 -13.23736328 -0.70234375 -11.94921875 -0.78125 C-11.13066406 -0.82507813 -10.31210937 -0.86890625 -9.46875 -0.9140625 C-8.73076172 -0.9548291 -7.99277344 -0.9955957 -7.23242188 -1.03759766 C-4.7229052 -0.99533327 -2.45146166 -0.51683282 0 0 Z M-2 86.6875 C-3.49302187 90.14011307 -2.97563232 92.4226815 -2 96 C0.31850826 98.38298708 1.62013834 98.96436835 4.95410156 99.27709961 C6.0881543 99.23593018 7.22220703 99.19476074 8.390625 99.15234375 C10.28071289 99.1066626 10.28071289 99.1066626 12.20898438 99.06005859 C13.20031372 99.02897003 13.20031372 99.02897003 14.21166992 98.99725342 C27.44948953 98.60918822 38.65554981 99.64381371 51.17578125 104.140625 C54.85228439 105.25933965 57.30246293 104.9767079 61 104 C63.34572071 101.88128452 63.89543972 100.5974873 64.4375 97.5 C63.84969605 94.14112027 62.57320204 93.20376068 60 91 C47.00759558 84.46678239 33.87115453 82.74796608 19.5625 82.6875 C17.87314331 82.67916138 17.87314331 82.67916138 16.1496582 82.6706543 C6.45269248 82.55817087 6.45269248 82.55817087 -2 86.6875 Z M-1.625 130.75 C-3.47466684 133.77672756 -3.58128871 135.51226772 -3 139 C-0.89709936 141.72744863 0.22958191 142.88308913 3.67871094 143.40649414 C4.68708008 143.36645264 5.69544922 143.32641113 6.734375 143.28515625 C8.42046875 143.24213379 8.42046875 143.24213379 10.140625 143.19824219 C11.33171875 143.15344727 12.5228125 143.10865234 13.75 143.0625 C27.6486361 142.80116442 39.75247249 143.71446048 52.66796875 149.328125 C55.52101955 150.15010948 57.18742045 149.89384808 60 149 C62.50397498 146.91170257 62.50397498 146.91170257 64 144 C63.93639131 140.81956542 63.74060858 138.88673456 61.67724609 136.41625977 C59.8753687 134.89476184 58.45077008 134.22109619 56.2265625 133.46484375 C55.49115234 133.2136377 54.75574219 132.96243164 53.99804688 132.70361328 C53.21494141 132.4507959 52.43183594 132.19797852 51.625 131.9375 C50.81353516 131.67437012 50.00207031 131.41124023 49.16601562 131.14013672 C35.42495268 126.8195772 11.39670553 122.06886298 -1.625 130.75 Z " fill="#FFD100" transform="translate(62,74)"/>
<path d="M0 0 C1.4409026 0.22957777 2.87777015 0.48456354 4.3125 0.75 C5.11300781 0.88921875 5.91351563 1.0284375 6.73828125 1.171875 C9.70486109 2.25808385 10.42244067 3.2646026 12 6 C12.38311005 9.25811672 12.38311005 9.25811672 12.39440918 13.2049408 C12.40354584 14.29508408 12.40354584 14.29508408 12.41286707 15.40725046 C12.4295199 17.84319223 12.42471816 20.27861257 12.41992188 22.71459961 C12.42726088 24.46075484 12.43584661 26.20690522 12.44558716 27.95304871 C12.46782914 32.69684079 12.47073252 37.4404593 12.46883965 42.18429637 C12.46872007 46.14316943 12.47727871 50.10200553 12.48561716 54.06086832 C12.50486071 63.39957198 12.5077315 72.73818624 12.50097656 82.0769043 C12.4943339 91.71436133 12.51720701 101.35143581 12.55429029 110.98881525 C12.58496564 119.26069026 12.59634971 127.53244207 12.59245348 135.80437285 C12.59038383 140.74594455 12.59589854 145.68721858 12.62034607 150.6287365 C12.6425751 155.27542384 12.64076761 159.92148823 12.62041855 164.56817818 C12.61700172 166.27378445 12.62212653 167.97943235 12.63640213 169.6849823 C12.65454692 172.01340972 12.64188429 174.33971299 12.62145996 176.66807556 C12.62217247 177.97090453 12.62288498 179.2737335 12.62361908 180.61604214 C11.84055901 184.86517811 10.33677921 186.34502403 7 189 C4.59092712 189.58108521 4.59092712 189.58108521 2.04663086 189.52001953 C1.08082092 189.51008972 0.11501099 189.50015991 -0.88006592 189.4899292 C-1.92124573 189.45458069 -2.96242554 189.41923218 -4.03515625 189.3828125 C-5.12991272 189.36744446 -6.22466919 189.35207642 -7.3526001 189.33624268 C-9.7025671 189.30257054 -12.05240437 189.25856453 -14.40200806 189.20526123 C-20.54353292 189.0706 -26.68534379 189.02341385 -32.828125 188.984375 C-34.65716118 188.97191238 -34.65716118 188.97191238 -36.52314758 188.959198 C-46.84047077 188.92525758 -57.04272502 189.41546942 -67.3125 190.375 C-68.35230515 190.4705014 -68.35230515 190.4705014 -69.41311646 190.56793213 C-79.62874238 191.52569984 -89.81072439 192.80126169 -100 194 C-100 155.06 -100 116.12 -100 76 C-81.19 74.02 -81.19 74.02 -62 72 C-42.99424256 69.7884752 -42.99424256 69.7884752 -26.625 60.5625 C-23.00861894 54.85974526 -22.4890842 49.62837803 -22 43 C-21.443125 42.98582031 -20.88625 42.97164062 -20.3125 42.95703125 C-14.13411888 42.57088243 -9.76795405 41.0050814 -5 37 C-1.26956916 32.06620438 -0.87649871 27.54710229 -0.68359375 21.484375 C-0.64169922 20.23398438 -0.59980469 18.98359375 -0.55664062 17.6953125 C-0.51732422 16.39335938 -0.47800781 15.09140625 -0.4375 13.75 C-0.37272461 11.77386719 -0.37272461 11.77386719 -0.30664062 9.7578125 C-0.20058083 6.50531212 -0.09851976 3.25273608 0 0 Z M-84 92 C-86.34522935 94.88512978 -86.34522935 94.88512978 -85.875 98.5 C-85.26758602 101.93654086 -85.26758602 101.93654086 -83.4375 104 C-76.99384581 106.64355044 -69.37191958 102.98687909 -63.1484375 100.9375 C-57.6826325 99.30996501 -52.71844767 98.90141843 -47.02734375 99.078125 C-45.71572266 99.10390625 -44.40410156 99.1296875 -43.05273438 99.15625 C-40.98943351 99.19953775 -38.92750519 99.25034851 -36.86499023 99.32226562 C-34.85724558 99.38907115 -32.84845073 99.42150895 -30.83984375 99.453125 C-29.64738037 99.48567383 -28.45491699 99.51822266 -27.22631836 99.55175781 C-23.02997336 98.8341082 -21.56449742 97.33248977 -19 94 C-18.93341849 90.13827239 -19.07508222 87.99098333 -21.75 85.125 C-37.91346057 77.04326971 -68.99453494 82.50249335 -84 92 Z M-84.390625 137.46875 C-86.28949947 139.93978116 -86.28949947 139.93978116 -85.9375 143.125 C-84.98057694 146.05956406 -84.52652208 147.2855743 -82 149 C-77.36463411 150.53676995 -74.42005796 149.36079977 -69.9375 147.6875 C-57.45655361 143.03878038 -45.55987119 142.78614313 -32.36328125 143.25390625 C-31.21214844 143.27582031 -30.06101563 143.29773438 -28.875 143.3203125 C-27.84117187 143.35398926 -26.80734375 143.38766602 -25.7421875 143.42236328 C-22.25519261 142.88528163 -21.12221321 141.76423252 -19 139 C-18.41871129 135.51226772 -18.52533316 133.77672756 -20.375 130.75 C-34.1894425 121.54037166 -72.87012087 125.5717588 -84.390625 137.46875 Z " fill="#FFD100" transform="translate(255,74)"/>
<path d="M0 0 C0.83090652 0.37309799 1.66181305 0.74619598 2.51789856 1.13059998 C5.23782688 2.35577606 7.94668033 3.60366753 10.65625 4.8515625 C12.55801464 5.71235174 14.4606167 6.57129305 16.36401367 7.4284668 C20.31248206 9.2078461 24.25756066 10.99445352 28.20068359 12.78564453 C36.71263438 16.64276618 45.27246656 20.39033319 53.83398438 24.13580322 C56.39942211 25.2587171 58.96358922 26.38447966 61.52734375 27.51123047 C62.3309433 27.8640509 63.13454285 28.21687134 63.9624939 28.5803833 C65.51905425 29.26403094 67.07523916 29.94853419 68.63101196 30.63397217 C72.16779009 32.1877454 75.71087981 33.71512086 79.28662109 35.17724609 C80.25017769 35.57528694 80.25017769 35.57528694 81.23320007 35.98136902 C82.93891068 36.682651 84.64932357 37.37246604 86.36010742 38.0612793 C89.26589031 39.53205756 91.06241191 40.99845155 93.15625 43.4765625 C94.06776044 47.15131323 93.6046947 50.50493232 92.03125 53.9140625 C89.53631257 55.99317703 87.32336301 56.03453995 84.15625 56.4765625 C84.17719727 57.72268311 84.19814453 58.96880371 84.21972656 60.25268555 C84.29222351 64.88375317 84.33808513 69.5147708 84.37597656 74.14624023 C84.39606991 76.14925578 84.42334965 78.15221282 84.45800781 80.1550293 C84.50662611 83.03709358 84.52924152 85.91838116 84.546875 88.80078125 C84.56752014 89.69367355 84.58816528 90.58656586 84.60943604 91.5065155 C84.61092037 95.63585826 84.49584983 97.90365997 82.35058594 101.52270508 C79.33916292 104.20410455 77.13873954 104.40544662 73.15625 104.4765625 C69.75816974 103.37448242 69.20893083 102.55558374 67.15625 99.4765625 C66.98431927 96.64673051 66.92416563 93.91774377 66.9609375 91.08984375 C66.9637674 90.27283493 66.96659729 89.45582611 66.96951294 88.61405945 C66.98070459 86.00557791 67.0058071 83.3974402 67.03125 80.7890625 C67.04128112 79.02018725 67.05040674 77.25130662 67.05859375 75.48242188 C67.08064058 71.14700301 67.1151633 66.81184105 67.15625 62.4765625 C66.2804126 62.77199951 65.4045752 63.06743652 64.50219727 63.37182617 C46.88840705 69.30301204 29.25101779 75.16578106 11.55661011 80.85244751 C9.75527064 81.43285998 7.95506306 82.01679768 6.15603638 82.6043396 C3.621424 83.43106307 1.0828999 84.24447585 -1.45703125 85.0546875 C-2.2035495 85.30098404 -2.95006775 85.54728058 -3.71920776 85.80104065 C-12.74398278 88.64082776 -19.44880903 86.95478942 -28.23046875 84.03125 C-29.34563873 83.66936584 -30.46080872 83.30748169 -31.60977173 82.93463135 C-35.25350997 81.74997512 -38.8923981 80.55113562 -42.53125 79.3515625 C-46.9511893 77.90639089 -51.37238427 76.46508021 -55.79363823 75.02393723 C-57.71677828 74.396532 -59.63943142 73.76765185 -61.56202698 73.13858032 C-69.76276111 70.45859407 -77.98410351 67.85334698 -86.2265625 65.3046875 C-88.26996868 64.6695318 -90.31334521 64.0342807 -92.35668945 63.39892578 C-95.23814965 62.50349528 -98.12056765 61.61240297 -101.00765991 60.73529053 C-103.64056729 59.93466921 -106.26783058 59.11758805 -108.89453125 58.296875 C-109.66374908 58.06840881 -110.43296692 57.83994263 -111.22549438 57.60455322 C-114.26621218 56.64060725 -116.51084134 55.80412639 -118.80541992 53.54638672 C-120.43957806 50.28882907 -120.97853403 46.91938185 -119.84375 43.4765625 C-114.72213075 37.98911331 -107.97624406 35.6859457 -101.15625 32.8515625 C-98.46151131 31.71179866 -95.77005107 30.56435672 -93.078125 29.41796875 C-92.35621475 29.1117308 -91.6343045 28.80549286 -90.89051819 28.48997498 C-82.12555848 24.76437226 -73.42384319 20.89619103 -64.7180481 17.03488159 C-61.9154682 15.79314679 -59.11123335 14.55523095 -56.30639648 13.31860352 C-48.62062287 9.9288186 -40.93935341 6.53412446 -33.30078125 3.0390625 C-32.24431396 2.56170654 -31.18784668 2.08435059 -30.09936523 1.5925293 C-28.26836672 0.76400984 -26.44289419 -0.07691825 -24.62524414 -0.93432617 C-23.83883545 -1.2872876 -23.05242676 -1.64024902 -22.2421875 -2.00390625 C-21.59942871 -2.30192139 -20.95666992 -2.59993652 -20.29443359 -2.90698242 C-12.78271191 -4.79651193 -6.84467407 -3.21159461 0 0 Z " fill="#FFD100" transform="translate(160.84375,3.5234375)"/>
<path d="M0 0 C8.76048826 2.04620029 17.26304708 4.61209551 25.796875 7.44921875 C27.08312304 7.87161871 28.36960693 8.29330103 29.65631104 8.71430969 C35.05687664 10.48200273 40.45504749 12.25675942 45.84814453 14.04711914 C49.17199275 15.15001664 52.49947791 16.24127 55.82950592 17.32535744 C57.69113954 17.93505876 59.54860729 18.55743368 61.40594482 19.18009949 C73.33151973 23.05170952 79.9234068 22.08765107 91.79296875 18.203125 C93.01599197 17.81308289 94.2390152 17.42304077 95.49909973 17.0211792 C98.74092168 15.9872585 101.97818134 14.93973218 105.21459961 13.88903809 C108.46931654 12.83480945 111.72790049 11.79269145 114.98632812 10.75 C118.6727858 9.56986586 122.35855148 8.38771464 126.04179382 7.1975708 C131.75887974 5.35030124 137.4813038 3.52121448 143.21606445 1.72949219 C144.27799515 1.39729675 145.33992584 1.06510132 146.43403625 0.72283936 C149 0 149 0 151 0 C151.12678098 7.74111444 151.21434412 15.48196116 151.2746582 23.22387695 C151.29980157 25.85744227 151.33392084 28.49093782 151.37719727 31.12426758 C151.4378521 34.90984309 151.4662127 38.69449598 151.48828125 42.48046875 C151.51408768 43.65772018 151.5398941 44.83497162 151.56648254 46.04789734 C151.56927147 54.17688552 151.56927147 54.17688552 148.79516602 58.18798828 C146.00534719 59.9965336 144.03484116 60.8853456 140.7890625 61.51171875 C139.79890137 61.71120117 138.80874023 61.91068359 137.78857422 62.11621094 C136.74459473 62.30473633 135.70061523 62.49326172 134.625 62.6875 C133.01069092 62.99929199 133.01069092 62.99929199 131.36376953 63.31738281 C112.97748415 66.79877698 94.69129967 68.2149558 76 68.1875 C75.23409546 68.18689575 74.46819092 68.1862915 73.67907715 68.18566895 C22.58634041 68.07676319 22.58634041 68.07676319 3 59 C0.06345566 55.86859697 -0.36974065 53.73564142 -0.34057617 49.49707031 C-0.34034958 48.39623108 -0.34012299 47.29539185 -0.33988953 46.16119385 C-0.32440567 44.97878113 -0.30892181 43.79636841 -0.29296875 42.578125 C-0.28872391 41.36300232 -0.28447906 40.14787964 -0.28010559 38.89593506 C-0.26330876 35.01373161 -0.22565338 31.13204664 -0.1875 27.25 C-0.17245452 24.61849708 -0.15876588 21.98698602 -0.14648438 19.35546875 C-0.11340185 12.90346883 -0.06319179 6.45177146 0 0 Z M26 18 C24.59946494 20.80107012 24.7924496 23.18891681 24.75 26.3125 C24.72421875 27.44300781 24.6984375 28.57351562 24.671875 29.73828125 C25.03885707 33.38625778 25.69256856 35.16587226 28 38 C32.34613701 40.52173248 37.58850591 40.8795461 42.5 41.5625 C43.41330078 41.68963379 44.32660156 41.81676758 45.26757812 41.94775391 C51.99749281 42.83441902 58.72408785 43.47272505 65.5 43.875 C66.37720703 43.93631104 67.25441406 43.99762207 68.15820312 44.06079102 C72.92965788 44.28789212 76.20966261 44.29594556 80 41 C81.33660145 37.64407137 81.33660145 37.64407137 81 34 C78.45020996 30.74580839 76.80605102 29.21061628 72.77368164 28.15698242 C71.58121826 28.05748291 70.38875488 27.9579834 69.16015625 27.85546875 C67.84982422 27.73623047 66.53949219 27.61699219 65.18945312 27.49414062 C63.81382324 27.39164271 62.43817196 27.28943164 61.0625 27.1875 C59.69057887 27.06775868 58.31882952 26.94603173 56.94726562 26.82226562 C51.28199605 26.33508028 45.68870647 25.9333799 40 26 C40.103125 24.7625 40.20625 23.525 40.3125 22.25 C40.3125 18.79125407 40.21309049 18.24353199 37.8125 15.5 C32.4577863 12.64415269 29.82326194 13.35746765 26 18 Z M92 33 C91.16650049 35.95659873 91.16650049 35.95659873 92 39 C93.97966263 42.06307631 93.97966263 42.06307631 97 44 C100.10927047 44.32908167 100.10927047 44.32908167 103 43 C105.5517286 40.87314071 105.5517286 40.87314071 107 38 C107 34.68804023 106.24393477 33.32234238 104.25 30.6875 C102.12742161 28.8453672 102.12742161 28.8453672 99.5625 28.5 C96.04614692 29.18611767 94.42095091 30.37153902 92 33 Z " fill="#FFD100" transform="translate(72,72)"/>
</svg>
