<?xml version="1.0" encoding="UTF-8"?>
<svg version="1.1" xmlns="http://www.w3.org/2000/svg" width="323" height="325">
<path d="M0 0 C12.0553212 9.03736801 22.04530794 22.17004539 24.75390625 37.3046875 C26.32165927 54.47531582 24.12699132 68.0649233 15 83 C14.4121875 83.680625 13.824375 84.36125 13.21875 85.0625 C11.77467002 86.95302543 11.77467002 86.95302543 12.09375 89.3671875 C18.66025222 108.44400862 35.99447492 123.46136791 53 133 C54.03640625 133.61101562 55.0728125 134.22203125 56.140625 134.8515625 C58.84567977 136.28449403 58.84567977 136.28449403 61.0859375 135.3671875 C61.71757812 134.91601562 62.34921875 134.46484375 63 134 C63.73476562 133.54882812 64.46953125 133.09765625 65.2265625 132.6328125 C66.01804688 132.13523438 66.80953125 131.63765625 67.625 131.125 C81.58936304 122.68862705 96.89519824 120.77937834 112.91796875 123.71875 C116.0471076 124.64590225 118.99810454 125.72313743 122 127 C123.28003906 127.49113281 123.28003906 127.49113281 124.5859375 127.9921875 C137.97383605 133.77812473 148.31671915 146.08132818 153.8125 159.3125 C159.68014348 175.85034664 159.04230295 191.89833943 152 208 C143.11590539 224.05469508 130.50442587 233.56216809 113 239 C74.18393926 247.87545238 28.37705089 230.70811778 -4.36328125 210.97265625 C-19.96098057 200.8703053 -35.31368151 188.51242166 -47 174 C-47.82886719 172.99710938 -48.65773437 171.99421875 -49.51171875 170.9609375 C-59.84194146 158.29183095 -68.17845228 144.65362118 -75.12255859 129.86572266 C-75.92629171 128.15672752 -76.75303474 126.45860297 -77.58203125 124.76171875 C-88.01866631 102.20867359 -92.16527597 77.71361364 -92.4375 53.0625 C-92.47121704 51.12479736 -92.47121704 51.12479736 -92.50561523 49.14794922 C-92.46348824 32.33387591 -86.53187891 18.18017874 -75 6 C-53.29687193 -12.83791996 -24.42690685 -15.09495082 0 0 Z " fill="#FFFFFF" transform="translate(92,85)"/>
<path d="M0 0 C2.27046715 0.01611299 4.53915551 0.00001561 6.80957031 -0.01904297 C20.53541299 -0.03946998 33.86643458 1.94016164 47.02050781 5.95361328 C47.83994873 6.20336914 48.65938965 6.453125 49.50366211 6.71044922 C70.96140774 13.58571514 89.72149287 25.26550133 106.27050781 40.39111328 C106.77678711 40.85211426 107.28306641 41.31311523 107.8046875 41.78808594 C135.33962229 67.20971006 152.46955905 104.17830703 154.43896484 141.59130859 C155.93107187 184.68136173 143.01024117 223.91218773 113.86816406 256.03955078 C110.13965841 259.88267596 110.13965841 259.88267596 108.27050781 261.39111328 C107.61050781 261.39111328 106.95050781 261.39111328 106.27050781 261.39111328 C106.12355469 260.42173828 105.97660156 259.45236328 105.82519531 258.45361328 C103.66768051 245.20149996 100.16331849 232.52506526 92.17675781 221.50439453 C91.27050781 219.39111328 91.27050781 219.39111328 91.87988281 217.02392578 C93.50718252 213.94302689 95.23536933 210.94614194 97.02050781 207.95361328 C112.69891797 180.89444634 116.19677788 150.7381014 108.27441406 120.60205078 C103.73841677 105.69133304 96.13048389 92.40567672 86.27050781 80.39111328 C85.69816406 79.66666016 85.12582031 78.94220703 84.53613281 78.19580078 C68.14600521 58.29350298 41.58097846 45.70102279 16.27050781 42.39111328 C0.67852589 41.31862384 -14.77395327 41.62131276 -29.72949219 46.39111328 C-30.41398437 46.60541992 -31.09847656 46.81972656 -31.80371094 47.04052734 C-42.18066091 50.38431938 -53.60857679 54.90299929 -61.80761719 62.25439453 C-62.44183594 62.62951172 -63.07605469 63.00462891 -63.72949219 63.39111328 C-66.01074219 62.79345703 -66.01074219 62.79345703 -68.72949219 61.39111328 C-69.89480469 60.85615234 -71.06011719 60.32119141 -72.26074219 59.77001953 C-72.89979492 59.47571045 -73.53884766 59.18140137 -74.19726562 58.87817383 C-81.91453489 55.3672057 -89.34510056 52.87748483 -97.72949219 51.39111328 C-98.87546875 51.18744141 -100.02144531 50.98376953 -101.20214844 50.77392578 C-104.04153936 50.28907072 -106.88226281 49.82717544 -109.72949219 49.39111328 C-107.75489879 47.03123337 -105.7614739 44.70101177 -103.72949219 42.39111328 C-103.25769531 41.85099609 -102.78589844 41.31087891 -102.29980469 40.75439453 C-86.84958437 24.22345932 -64.2365496 12.70400477 -42.85449219 6.14111328 C-42.10151855 5.9069873 -41.34854492 5.67286133 -40.57275391 5.43164062 C-27.18129525 1.52591517 -13.90525758 -0.11672515 0 0 Z " fill="#FFFFFF" transform="translate(168.7294921875,-0.39111328125)"/>
<path d="M0 0 C3.02220586 2.51850489 4.41722237 4.36166169 4.86550903 8.30096436 C4.8588472 9.43347626 4.8588472 9.43347626 4.85205078 10.58886719 C4.85189972 11.4494574 4.85174866 12.31004761 4.85159302 13.19671631 C4.84127045 14.11664368 4.83094788 15.03657104 4.8203125 15.984375 C4.8174826 16.93314514 4.81465271 17.88191528 4.81173706 18.85943604 C4.80055448 21.88558639 4.7754533 24.9114393 4.75 27.9375 C4.73996772 29.99088114 4.7308423 32.04426692 4.72265625 34.09765625 C4.70062141 39.12771854 4.66610462 44.15755886 4.625 49.1875 C5.41148926 49.16655273 6.19797852 49.14560547 7.00830078 49.12402344 C10.58873598 49.04062247 14.16896642 48.98876224 17.75 48.9375 C19.60625 48.88722656 19.60625 48.88722656 21.5 48.8359375 C29.72153402 48.74753391 33.5257038 49.22955885 39.4375 54.9375 C42.00988157 59.81148614 42.0355267 63.81907767 40.5 68.9375 C38.19844704 72.92685847 35.7210644 75.1394678 31.625 77.1875 C30.23756847 77.29166941 28.84538187 77.33611871 27.45410156 77.34863281 C26.59270569 77.35824036 25.73130981 77.3678479 24.84381104 77.37774658 C23.44385895 77.3841214 23.44385895 77.3841214 22.015625 77.390625 C21.05605896 77.39632507 20.09649292 77.40202515 19.10784912 77.40789795 C17.07353826 77.41735602 15.03921202 77.42388512 13.00488281 77.42773438 C9.90141783 77.43741757 6.79862133 77.4684242 3.6953125 77.5 C1.71875393 77.50653229 -0.25780937 77.51178187 -2.234375 77.515625 C-3.6221817 77.5341452 -3.6221817 77.5341452 -5.0380249 77.55303955 C-11.63866974 77.5303747 -15.859041 76.67618005 -20.71679688 71.87109375 C-23.78880593 66.67818173 -22.94228981 60.06478111 -22.90625 54.25 C-22.90894807 52.88289108 -22.9128331 51.51578403 -22.91784668 50.14868164 C-22.92372711 47.29066606 -22.91522682 44.43315231 -22.89648438 41.57519531 C-22.87369452 37.92332511 -22.8868256 34.27263095 -22.91077423 30.62080383 C-22.92527235 27.79991903 -22.92060813 24.97931015 -22.91026306 22.15841675 C-22.90632109 20.16102326 -22.91840657 18.16361878 -22.93078613 16.16625977 C-22.81335056 4.78964208 -22.81335056 4.78964208 -18.375 0.1875 C-11.77344907 -3.74803998 -6.59254836 -3.54044264 0 0 Z " fill="#FFFFFF" transform="translate(186.375,85.8125)"/>
</svg>
