<?xml version="1.0" encoding="UTF-8"?>
<svg id="Layer_1" data-name="Layer 1" xmlns="http://www.w3.org/2000/svg" viewBox="0 0 173.92 157.25">
  <defs>
    <style>
      .cls-1 {
        font-family: JUSTSans-Bd, 'JUST Sans';
        font-size: 16.84px;
      }

      .cls-1, .cls-2, .cls-3 {
        fill: #3f3f3e;
      }

      .cls-4 {
        letter-spacing: 0em;
      }

      .cls-5 {
        letter-spacing: 0em;
      }

      .cls-6 {
        letter-spacing: 0em;
      }

      .cls-7 {
        letter-spacing: 0em;
      }

      .cls-8 {
        letter-spacing: 0em;
      }

      .cls-9 {
        letter-spacing: 0em;
      }

      .cls-2 {
        stroke-width: 0px;
      }

      .cls-10 {
        letter-spacing: 0em;
      }

      .cls-3 {
        font-family: JUSTSans-Rg, 'JUST Sans';
        font-size: 11.38px;
      }
    </style>
  </defs>
  <path class="cls-2" d="M67.11,135.56c-2.88-2.82-4.94-6.93-4.65-10.51,3.85-.21,8.57,1.74,10.94,4.06,2.51,2.46,4.03,5.83,3.69,9.03-2.8-3.83-6.33-7-10.46-9.34.93.64,1.85,1.3,2.71,2.03,2.75,2.36,5.01,5.13,6.86,8.19-2.57.21-6.81-1.23-9.1-3.47ZM56.74,132.35c-.95-3.33-2.34-6.49-4.31-9.39-.61-.91-1.3-1.75-2.01-2.59,3.25,3.24,5.73,7.1,7.36,11.38,1.13-2.9.58-6.43-1.14-9.36-1.62-2.77-5.52-5.8-9.17-6.58-1.19,3.26-.32,7.62,1.65,10.98,1.57,2.68,5.16,5.1,7.6,5.56ZM36.03,102.5c-2.03,2.67-2.46,6.94-1.61,10.6.68,2.92,3.3,6.18,5.43,7.3.07-3.34-.31-6.65-1.3-9.89-.31-1.01-.7-1.99-1.12-2.96,2.08,3.91,3.26,8.18,3.55,12.6,1.87-2.35,2.37-5.77,1.62-8.96-.71-3.02-3.44-6.92-6.58-8.68ZM32.39,98.71c-.15-2.98-2.07-7.16-4.74-9.38-2.38,2.18-3.54,6.16-3.36,9.78.14,2.89,2.06,6.43,3.89,7.86.65-3.16.85-6.36.48-9.61-.12-1.01-.32-2.01-.55-3,1.29,4.07,1.68,8.32,1.19,12.56,2.18-1.91,3.25-5.06,3.09-8.22ZM20.48,90.92c2.41-1.41,3.99-4.2,4.41-7.22.4-2.85-.66-7.15-2.79-9.73-2.65,1.63-4.46,5.18-4.95,8.64-.39,2.75.79,6.46,2.26,8.14,1.18-2.87,1.96-5.86,2.19-9,.07-.98.06-1.96.03-2.93.49,4.08.08,8.17-1.15,12.1ZM22.1,69.29c.88-2.62.65-6.87-.9-9.69-2.79,1.07-5.14,4.11-6.21,7.29-.86,2.54-.4,6.24.68,8.09,1.63-2.5,2.9-5.19,3.67-8.11.24-.91.4-1.84.55-2.77-.27,3.95-1.38,7.74-3.24,11.23,2.53-.9,4.52-3.26,5.45-6.03ZM13.93,58.75c2.09-1.95,3.89-4.17,5.29-6.72.44-.79.8-1.62,1.15-2.46-1.16,3.62-3.06,6.9-5.6,9.72,2.56-.26,4.96-2,6.47-4.37,1.42-2.24,2.18-6.25,1.38-9.24-2.85.36-5.73,2.65-7.46,5.36-1.38,2.17-1.81,5.72-1.22,7.7ZM16.6,44.54c2.43.43,5.1-.54,7.11-2.33,1.9-1.69,3.66-5.19,3.71-8.14-2.72-.42-5.98.93-8.29,2.98-1.84,1.63-3.18,4.8-3.15,6.77,2.44-1.25,4.69-2.82,6.64-4.8.61-.62,1.16-1.28,1.7-1.96-2.02,3.03-4.64,5.55-7.72,7.48ZM25,24.48c-2.02,1.21-3.84,3.94-4.17,5.8,2.52-.74,4.91-1.81,7.1-3.32.68-.47,1.32-1,1.95-1.54-2.44,2.48-5.35,4.38-8.59,5.65,2.2.84,4.88.41,7.1-.91,2.09-1.25,4.37-4.22,4.94-6.99-2.48-.88-5.78-.2-8.32,1.31ZM38.82,13.67c-2.3-1.03-5.49-.62-8.02.62-2.02.99-3.95,3.46-4.41,5.2,2.45-.51,4.81-1.35,7.01-2.62.69-.4,1.33-.85,1.97-1.32-2.51,2.18-5.42,3.77-8.6,4.73,2.03.97,4.62.75,6.82-.33,2.08-1.03,4.47-3.69,5.23-6.28ZM62.02,147.25c1.11-.2,2.22-.43,3.31-.75,3.48-1.04,6.66-2.67,9.58-4.73-2.27-1.27-6.75-1.71-9.76-.59-3.78,1.41-7.31,4.36-8.48,7.81,3.46,1.81,8.58,1.97,11.69.81,3.29-1.23,6.03-3.73,7.01-6.84-4.11,2.38-8.62,3.85-13.35,4.3ZM39.67,135.87c1.09.07,2.18.12,3.27.08,3.5-.14,6.87-.9,10.11-2.12-1.82-1.7-5.9-3.14-8.99-2.81-3.87.41-7.9,2.3-9.81,5.2,2.8,2.47,7.55,3.8,10.74,3.46,3.38-.36,6.55-2.02,8.21-4.65-4.42,1.23-8.99,1.54-13.53.84ZM22.24,120.16c1.01.32,2.02.61,3.05.82,3.32.66,6.65.72,9.97.32-1.32-2.01-4.82-4.29-7.79-4.69-3.73-.49-7.93.36-10.39,2.64,2.06,2.95,6.22,5.29,9.29,5.69,3.25.43,6.6-.41,8.76-2.5-4.43.15-8.79-.61-12.89-2.29ZM23.45,108.34c-4.08-1.27-7.81-3.35-11-6.18.82.61,1.64,1.2,2.52,1.72,2.81,1.66,5.83,2.77,8.98,3.46-.57-2.25-3.03-5.44-5.61-6.74-3.24-1.63-7.34-2.19-10.3-.9.94,3.34,3.98,6.79,6.65,8.14,2.82,1.42,6.14,1.73,8.77.51ZM15.37,92.42c-3.7-1.79-6.96-4.3-9.6-7.45.69.7,1.39,1.38,2.16,1.99,2.44,1.98,5.16,3.47,8.06,4.57-.22-2.22-2.11-5.61-4.38-7.22-2.85-2.02-6.68-3.13-9.68-2.32.42,3.32,2.83,7.03,5.17,8.69,2.49,1.76,5.6,2.52,8.28,1.73ZM10.06,75.84c-3.01-2.56-5.43-5.69-7.12-9.26.47.82.96,1.62,1.52,2.38,1.79,2.43,3.96,4.48,6.39,6.21.34-2.12-.6-5.73-2.32-7.78-2.16-2.57-5.45-4.54-8.44-4.51-.41,3.19.92,7.23,2.7,9.34,1.89,2.24,4.6,3.71,7.28,3.62ZM8.42,58.35c-2.35-2.98-4.04-6.38-4.96-10.06.29.86.6,1.71.98,2.53,1.23,2.63,2.88,4.96,4.84,7.05.72-1.93.52-5.51-.72-7.76-1.55-2.83-4.28-5.3-7.1-5.84-.99,2.92-.5,6.98.78,9.3,1.35,2.46,3.63,4.36,6.17,4.78ZM11.13,41.72c-1.84-3.14-3-6.58-3.4-10.2.17.85.35,1.7.61,2.53.82,2.66,2.09,5.08,3.68,7.32.93-1.74,1.21-5.16.33-7.46-1.1-2.89-3.37-5.58-5.98-6.47-1.32,2.65-1.38,6.56-.47,8.94.96,2.52,2.88,4.61,5.23,5.34ZM16.24,27.72c-1.05-3.32-1.4-6.78-.99-10.24-.03.83-.04,1.66.03,2.49.2,2.65.86,5.19,1.87,7.61,1.24-1.42,2.23-4.56,1.89-6.89-.41-2.93-1.95-5.93-4.2-7.3-1.8,2.19-2.68,5.82-2.34,8.23.36,2.55,1.7,4.91,3.74,6.1ZM24.23,6.71c-.2.77-.37,1.54-.48,2.32-.36,2.51-.26,5.01.18,7.48,1.45-1.07,3.01-3.79,3.18-6.03.21-2.81-.61-5.93-2.42-7.67-2.12,1.67-3.7,4.88-3.87,7.2-.18,2.45.58,4.93,2.24,6.45-.3-3.31.08-6.61,1.17-9.75ZM35.87,4.72c.46-.59.87-1.21,1.26-1.85-1.42,2.79-3.42,5.21-5.86,7.17,2.12.13,4.31-.97,5.85-2.7,1.46-1.64,2.61-4.81,2.36-7.34-2.37-.09-5.02,1.39-6.8,3.38-1.41,1.58-2.24,4.42-2.02,6.11,1.97-1.32,3.73-2.88,5.21-4.77ZM137.49,120.64c2.95-2.78,5.69-5.77,8.2-8.96,2.5-3.19,4.73-6.58,6.69-10.13,3.93-7.09,6.55-14.85,8.13-22.76.78-3.96,1.3-7.98,1.53-12.01.21-4.03.15-8.08-.21-12.1-.35-4.02-1.04-8.01-2-11.92-.97-3.91-2.22-7.76-3.79-11.47-3.13-7.43-7.42-14.35-12.64-20.47,5.16,6.17,9.38,13.13,12.43,20.56,1.53,3.71,2.74,7.56,3.67,11.46.92,3.91,1.57,7.88,1.88,11.88.32,4,.35,8.02.09,12.02-.26,4-.82,7.98-1.63,11.91-1.64,7.84-4.31,15.49-8.26,22.45-1.97,3.48-4.21,6.81-6.7,9.93-2.5,3.12-5.24,6.04-8.17,8.75-2.95,2.69-6.08,5.18-9.38,7.43-3.31,2.23-6.76,4.26-10.35,6-1.79.88-3.62,1.68-5.47,2.43-1.86.73-3.72,1.43-5.63,2.02-.94.32-1.91.57-2.86.86-.97.27-1.95.56-2.92.86-1.94.6-3.86,1.27-5.75,2.03-2.54,1.02-5.02,2.22-7.38,3.65-2.36-1.43-4.84-2.63-7.38-3.65-1.89-.76-3.81-1.43-5.75-2.03-.97-.3-1.94-.58-2.92-.86-.95-.29-1.92-.54-2.86-.86-1.9-.59-3.77-1.29-5.63-2.02-1.85-.76-3.68-1.55-5.47-2.43-3.59-1.74-7.04-3.77-10.35-6-3.3-2.25-6.43-4.74-9.38-7.43-2.93-2.71-5.67-5.64-8.17-8.75-2.49-3.12-4.73-6.45-6.7-9.93-3.94-6.96-6.62-14.61-8.26-22.45-.81-3.92-1.37-7.9-1.63-11.91-.25-4-.22-8.02.09-12.02.31-4,.96-7.97,1.88-11.88.93-3.9,2.13-7.75,3.67-11.46,3.05-7.44,7.27-14.39,12.43-20.56-5.22,6.12-9.52,13.05-12.64,20.47-1.57,3.71-2.82,7.56-3.79,11.47-.96,3.92-1.65,7.9-2,11.92-.36,4.02-.43,8.07-.21,12.1.22,4.03.74,8.05,1.53,12.01,1.57,7.91,4.2,15.67,8.13,22.76,1.96,3.54,4.19,6.94,6.69,10.13,2.51,3.18,5.25,6.18,8.2,8.96,2.97,2.76,6.12,5.32,9.45,7.63,3.34,2.3,6.82,4.4,10.46,6.2,1.81.92,3.66,1.74,5.53,2.53,1.88.76,3.78,1.49,5.71,2.11.96.33,1.94.6,2.91.9.96.28,1.91.57,2.86.87,1.9.61,3.77,1.28,5.61,2.04,2.21.91,4.36,1.96,6.4,3.17-.6.4-1.18.81-1.76,1.25-1.64,1.24-3.18,2.63-4.6,4.11-1.42,1.48-2.72,3.06-3.97,4.66l1.47,1.14c1.22-1.58,2.47-3.12,3.81-4.56,1.35-1.44,2.79-2.77,4.35-3.97.74-.58,1.51-1.12,2.3-1.64.79.52,1.55,1.06,2.3,1.64,1.56,1.2,3,2.53,4.35,3.97,1.35,1.44,2.6,2.97,3.81,4.56l1.47-1.14c-1.25-1.59-2.55-3.17-3.97-4.66-1.42-1.48-2.95-2.87-4.6-4.11-.57-.44-1.16-.85-1.76-1.25,2.04-1.21,4.19-2.25,6.4-3.17,1.83-.76,3.71-1.44,5.61-2.04.95-.3,1.9-.59,2.86-.87.97-.3,1.95-.57,2.91-.9,1.93-.62,3.83-1.35,5.71-2.11,1.87-.79,3.73-1.61,5.53-2.53,3.64-1.8,7.12-3.9,10.46-6.2,3.33-2.31,6.48-4.87,9.45-7.63ZM107.28,128.81c-.93.64-1.85,1.3-2.71,2.03-2.76,2.36-5.01,5.13-6.86,8.19,2.56.21,6.81-1.23,9.1-3.47,2.88-2.82,4.94-6.93,4.65-10.51-3.85-.21-8.57,1.74-10.94,4.06-2.51,2.46-4.03,5.83-3.69,9.03,2.8-3.83,6.33-7,10.46-9.34ZM123.5,120.37c-.71.83-1.4,1.68-2.01,2.59-1.97,2.9-3.36,6.06-4.31,9.39,2.45-.45,6.03-2.88,7.6-5.56,1.97-3.36,2.84-7.72,1.65-10.98-3.65.78-7.55,3.81-9.17,6.58-1.72,2.93-2.27,6.47-1.14,9.36,1.63-4.29,4.11-8.14,7.36-11.38ZM136.47,107.55c-.41.97-.81,1.95-1.12,2.96-.99,3.24-1.37,6.55-1.3,9.89,2.13-1.12,4.74-4.38,5.43-7.3.86-3.66.42-7.93-1.61-10.6-3.14,1.76-5.87,5.67-6.58,8.68-.75,3.19-.25,6.61,1.62,8.96.29-4.42,1.47-8.68,3.55-12.6ZM145.73,106.98c1.83-1.43,3.74-4.97,3.89-7.86.18-3.62-.97-7.6-3.36-9.78-2.67,2.22-4.59,6.39-4.74,9.38-.16,3.16.91,6.31,3.09,8.22-.49-4.24-.11-8.49,1.19-12.56-.23.99-.43,1.99-.55,3-.38,3.24-.17,6.45.48,9.61ZM152.31,81.76c.23,3.14,1.01,6.13,2.19,9,1.47-1.68,2.64-5.38,2.25-8.14-.48-3.46-2.3-7.01-4.94-8.64-2.13,2.58-3.19,6.88-2.79,9.73.42,3.02,2,5.81,4.41,7.22-1.23-3.92-1.64-8.01-1.15-12.1-.03.98-.05,1.96.02,2.93ZM158.25,74.98c1.09-1.85,1.54-5.55.68-8.09-1.07-3.18-3.42-6.21-6.21-7.29-1.55,2.82-1.79,7.07-.9,9.69.94,2.78,2.93,5.13,5.45,6.03-1.86-3.49-2.98-7.28-3.24-11.23.14.93.3,1.86.55,2.77.78,2.92,2.04,5.61,3.67,8.11ZM159.99,58.75c.59-1.97.16-5.53-1.22-7.7-1.73-2.72-4.61-5.01-7.46-5.36-.8,2.98-.04,7,1.38,9.24,1.51,2.37,3.91,4.11,6.47,4.37-2.54-2.82-4.45-6.1-5.6-9.72.35.84.71,1.66,1.15,2.46,1.4,2.54,3.2,4.76,5.29,6.72ZM157.94,43.81c.02-1.97-1.31-5.14-3.15-6.77-2.31-2.05-5.57-3.4-8.29-2.98.05,2.96,1.8,6.46,3.71,8.14,2.02,1.79,4.68,2.76,7.11,2.33-3.08-1.93-5.7-4.45-7.72-7.48.54.68,1.09,1.34,1.7,1.96,1.96,1.98,4.2,3.55,6.64,4.8ZM153.09,30.28c-.33-1.86-2.15-4.59-4.18-5.8-2.54-1.51-5.84-2.2-8.32-1.31.58,2.77,2.85,5.74,4.94,6.99,2.21,1.32,4.89,1.75,7.1.91-3.24-1.26-6.16-3.16-8.59-5.65.63.54,1.27,1.07,1.95,1.54,2.19,1.51,4.58,2.58,7.1,3.32ZM147.53,19.49c-.46-1.74-2.39-4.21-4.41-5.2-2.53-1.25-5.72-1.65-8.02-.62.76,2.59,3.15,5.25,5.23,6.28,2.2,1.09,4.79,1.3,6.82.33-3.18-.96-6.1-2.55-8.6-4.73.64.47,1.29.92,1.97,1.32,2.2,1.27,4.55,2.11,7.01,2.62ZM108.77,141.18c-3.01-1.12-7.48-.68-9.76.59,2.93,2.06,6.11,3.69,9.59,4.73,1.08.32,2.19.55,3.31.75-4.73-.44-9.24-1.92-13.35-4.3.97,3.11,3.71,5.61,7.01,6.84,3.11,1.16,8.23,1,11.69-.81-1.16-3.45-4.7-6.4-8.48-7.81ZM129.85,131.03c-3.09-.33-7.17,1.11-8.99,2.81,3.24,1.21,6.61,1.97,10.11,2.12,1.09.05,2.18,0,3.28-.08-4.54.69-9.11.39-13.53-.84,1.66,2.63,4.83,4.29,8.21,4.65,3.19.34,7.94-.99,10.74-3.46-1.92-2.89-5.94-4.78-9.81-5.2ZM146.45,116.61c-2.97.39-6.47,2.68-7.79,4.69,3.32.4,6.65.34,9.97-.32,1.04-.21,2.05-.5,3.05-.82-4.1,1.68-8.46,2.44-12.89,2.29,2.16,2.09,5.51,2.93,8.76,2.5,3.07-.41,7.23-2.74,9.29-5.69-2.46-2.28-6.66-3.14-10.39-2.64ZM155.59,100.59c-2.58,1.3-5.04,4.49-5.61,6.74,3.15-.69,6.16-1.8,8.98-3.46.88-.52,1.71-1.11,2.52-1.72-3.2,2.83-6.93,4.91-11,6.18,2.63,1.22,5.94.91,8.77-.51,2.67-1.35,5.71-4.79,6.65-8.14-2.96-1.29-7.06-.74-10.3.9ZM162.31,84.32c-2.27,1.61-4.16,5-4.38,7.22,2.9-1.1,5.61-2.59,8.06-4.57.76-.62,1.47-1.3,2.16-1.99-2.64,3.15-5.9,5.66-9.6,7.45,2.68.79,5.79.03,8.28-1.73,2.35-1.66,4.75-5.38,5.17-8.69-3-.81-6.83.3-9.68,2.32ZM165.4,67.39c-1.72,2.05-2.66,5.66-2.32,7.78,2.43-1.73,4.59-3.77,6.39-6.21.56-.76,1.05-1.56,1.52-2.38-1.69,3.58-4.11,6.7-7.12,9.26,2.68.08,5.39-1.38,7.28-3.62,1.78-2.12,3.12-6.16,2.7-9.34-2.99-.02-6.28,1.94-8.44,4.51ZM165.35,50.1c-1.23,2.25-1.43,5.83-.72,7.76,1.96-2.09,3.61-4.42,4.84-7.05.38-.82.69-1.67.98-2.53-.92,3.69-2.61,7.08-4.95,10.06,2.54-.43,4.82-2.32,6.17-4.78,1.28-2.33,1.77-6.38.78-9.3-2.82.54-5.55,3.01-7.1,5.84ZM161.9,41.37c1.59-2.24,2.85-4.67,3.68-7.32.26-.83.44-1.68.61-2.53-.39,3.62-1.55,7.06-3.4,10.2,2.35-.74,4.27-2.83,5.23-5.34.91-2.38.85-6.29-.47-8.94-2.61.88-4.87,3.58-5.98,6.47-.88,2.3-.6,5.72.33,7.46ZM158.65,19.97c.06-.83.05-1.66.03-2.49.4,3.46.06,6.92-.99,10.24,2.04-1.19,3.38-3.55,3.74-6.1.34-2.41-.55-6.05-2.34-8.23-2.24,1.38-3.78,4.38-4.2,7.3-.33,2.33.66,5.46,1.89,6.89,1.01-2.42,1.67-4.96,1.87-7.61ZM149.99,16.51c.44-2.47.54-4.96.19-7.48-.11-.78-.29-1.55-.49-2.32,1.09,3.14,1.47,6.44,1.17,9.75,1.66-1.53,2.42-4,2.24-6.45-.17-2.32-1.75-5.53-3.87-7.2-1.81,1.74-2.63,4.86-2.42,7.67.17,2.24,1.73,4.96,3.18,6.03ZM142.65,10.05c-2.45-1.96-4.44-4.38-5.86-7.17.39.63.8,1.26,1.26,1.85,1.48,1.89,3.24,3.46,5.21,4.77.22-1.69-.61-4.53-2.02-6.11-1.77-1.99-4.43-3.47-6.8-3.38-.25,2.54.9,5.71,2.36,7.34,1.55,1.73,3.73,2.83,5.86,2.7Z"/>
  <text class="cls-3" transform="translate(60.84 99.26)"><tspan class="cls-10" x="0" y="0">U</tspan><tspan x="7.9" y="0">AE 2</tspan><tspan class="cls-10" x="31.55" y="0">0</tspan><tspan class="cls-7" x="39.17" y="0">2</tspan><tspan class="cls-4" x="45.7" y="0">3</tspan></text>
  <text class="cls-1" transform="translate(61.76 48.47)"><tspan x="0" y="0">M</tspan><tspan class="cls-6" x="15.97" y="0">O</tspan><tspan class="cls-5" x="28.72" y="0">S</tspan><tspan class="cls-9" x="39.75" y="0">T</tspan><tspan x="-14.47" y="16.47">T</tspan><tspan class="cls-8" x="-3.72" y="16.47">R</tspan><tspan x="7.58" y="16.47">U</tspan><tspan class="cls-5" x="20.14" y="16.47">S</tspan><tspan x="31.17" y="16.47">TED</tspan><tspan x="-9.52" y="32.94">B</tspan><tspan class="cls-9" x="2.07" y="32.94">R</tspan><tspan x="13.41" y="32.94">OKER</tspan></text>
</svg>