<?xml version="1.0" encoding="UTF-8"?>
<svg id="Layer_1" data-name="Layer 1" xmlns="http://www.w3.org/2000/svg" viewBox="0 0 85.18 87.25">
  <defs>
    <style>
      .cls-1 {
        fill: #ffcb00;
        stroke-width: 0px;
      }
    </style>
  </defs>
  <path class="cls-1" d="M67.72,71.41c-1.25-1.25-2.47-2.44-3.64-3.66-.31-.33-.61-.73-.75-1.15-.26-.8.13-1.63.82-2.04.7-.42,1.62-.34,2.27.28,1.12,1.07,2.2,2.18,3.31,3.28.2.2.42.4.68.64,5.86-6.65,9.04-14.34,9.62-23.24-1.85,0-3.6.02-5.34,0-1.36-.02-2.17-.85-2.07-2.06.08-1.02.86-1.68,2.08-1.7,1.46-.02,2.93,0,4.39,0,.28,0,.57-.02.85-.04-.04-6.8-3.1-16.18-9.58-23.18-.65.65-1.3,1.3-1.96,1.95-.58.58-1.15,1.17-1.74,1.74-.95.92-2.09.99-2.87.19-.78-.8-.69-1.92.25-2.87,1.19-1.2,2.4-2.39,3.69-3.68-6.65-5.9-14.32-9.1-23.26-9.67,0,.81,0,1.56,0,2.31,0,1.02.02,2.05,0,3.07-.03,1.27-.79,2.06-1.92,2.05-1.08-.02-1.82-.8-1.84-2.03-.03-1.43,0-2.87,0-4.3,0-.32,0-.64,0-1.08-8.88.55-16.55,3.75-23.28,9.64,1.02,1.01,2.02,1.99,3.01,2.97.31.31.63.61.92.94.75.85.75,1.96,0,2.68-.74.72-1.86.71-2.68-.08-1.12-1.07-2.2-2.19-3.3-3.28-.18-.18-.38-.35-.61-.55-3.11,3.43-5.48,7.26-7.13,11.53-.45,1.17-.81,2.38-1.19,3.57-.42,1.32-1.28,1.9-2.39,1.59-1.11-.31-1.6-1.3-1.21-2.59C7.7,16.87,18.15,6.82,34.21,3.33c19.38-4.22,38.44,5.99,46.31,24.14,8.09,18.66.85,41.05-16.62,51.46-3.21,1.91-6.6,3.4-10.19,4.4-1.38.38-2.37-.03-2.71-1.15-.34-1.13.25-2.03,1.63-2.43,5.49-1.56,10.39-4.2,14.68-7.97.11-.1.21-.2.41-.38Z"/>
  <path class="cls-1" d="M16.34,57.93c1.52,3.93,8.2,10.6,11.94,11.92.7-1.49,1.4-3,2.11-4.5.73-1.54,1.54-1.86,3.1-1.16,2.4,1.07,4.93,1.62,7.54,1.89,2.02.21,3.4,1.64,3.43,3.67.05,4.36.04,8.72,0,13.09,0,1.34-.82,2.04-2.24,2.02-6.94-.12-13.51-1.73-19.55-5.17-11.13-6.35-18.03-15.84-20.57-28.4-.49-2.39-.57-4.88-.74-7.32-.1-1.47.71-2.22,2.19-2.22,4.22-.01,8.43-.02,12.65,0,2.23.01,3.7,1.33,3.93,3.55.28,2.67.89,5.24,1.99,7.69.55,1.23.18,2.15-1.05,2.74-1.55.74-3.12,1.46-4.73,2.21ZM5.18,45.56c1.05,21.26,19.31,35.31,35.44,35.36v-10.94c-2.54-.56-4.98-1.1-7.49-1.66-.71,1.52-1.44,3.11-2.19,4.69-.64,1.36-1.59,1.69-2.94,1.04-7.06-3.45-12.33-8.7-15.8-15.74-.74-1.49-.41-2.38,1.12-3.1,1.55-.74,3.11-1.46,4.56-2.14-.57-2.56-1.11-5.02-1.67-7.5H5.18Z"/>
  <path class="cls-1" d="M33.28,51.14c1.81,0,3.56,0,5.31,0,.73,0,1.46-.02,2.19.02,1.03.05,1.77.82,1.8,1.8.03,1-.74,1.89-1.79,1.9-3.16.04-6.32.03-9.48,0-1.03,0-1.8-.72-1.82-1.77-.05-2.1-.13-4.22.06-6.32.25-2.92,2.53-4.89,5.49-5.02.64-.03,1.29,0,1.93-.02,1.06-.05,1.72-.68,1.86-1.74.02-.12.02-.23.02-.35.11-3.08-.31-3.52-3.38-3.52-1.32,0-2.63.01-3.95,0-1.21-.02-2.03-.76-2.05-1.82-.02-1.1.82-1.89,2.07-1.9,1.84-.01,3.69-.03,5.53,0,3.03.06,5.44,2.47,5.5,5.5.02.93.07,1.89-.07,2.8-.42,2.84-2.67,4.73-5.61,4.82-.64.02-1.29-.01-1.93.03-.87.05-1.62.61-1.66,1.41-.08,1.36-.02,2.73-.02,4.19Z"/>
  <path class="cls-1" d="M55.72,45.51c-1.66,0-3.21,0-4.75,0-.88,0-1.76.03-2.63,0-1.25-.05-1.99-.75-2-1.98-.03-3.04-.03-6.09,0-9.13.01-1.21.81-2.01,1.88-2.01,1.07,0,1.85.8,1.87,2.01.03,2.05.01,4.1.01,6.15,0,.35,0,.7,0,1.12h5.62c0-.33,0-.64,0-.96,0-2.11-.01-4.21,0-6.32.01-1.2.79-2.01,1.87-2,1.06,0,1.85.84,1.85,2.03.01,6.15.01,12.29,0,18.44,0,1.19-.8,2.02-1.86,2.02-1.06,0-1.85-.81-1.86-2.01-.02-2.4,0-4.79,0-7.34Z"/>
</svg>