<?xml version="1.0" encoding="UTF-8"?>
<svg id="Layer_1" data-name="Layer 1" xmlns="http://www.w3.org/2000/svg" viewBox="0 0 85.18 87.25">
  <defs>
    <style>
      .cls-1 {
        fill: #ffcb00;
        stroke-width: 0px;
      }
    </style>
  </defs>
  <path class="cls-1" d="M83.82,53.43c0,.94-.77,1.72-1.72,1.72s-1.72-.77-1.72-1.72.77-1.72,1.72-1.72,1.72.77,1.72,1.72ZM83.82,34.95v11.61c0,.94-.77,1.72-1.72,1.72s-1.72-.77-1.72-1.72v-11.61c0-2.32-1.84-4.21-4.11-4.21h-4.95c.3,1.67.46,3.4.46,5.15,0,16.11-13.1,29.21-29.21,29.21s-29.21-13.1-29.21-29.21c0-1.76.17-3.48.46-5.15h-4.95c-2.27,0-4.11,1.89-4.11,4.21v30.77c0,2.32,1.85,4.21,4.12,4.21l37.13.33c.95,0,1.7.77,1.7,1.72v3.61l7.83-5.36c.29-.19.63-.29.98-.29h19.72c2.27,0,4.11-1.89,4.11-4.21v-5.41c0-.95.77-1.72,1.72-1.72s1.72.77,1.72,1.72v5.41c0,4.21-3.39,7.63-7.54,7.65h-19.19l-10.09,6.89c-.29.21-.64.31-.98.31-.27,0-.55-.07-.81-.21-.57-.29-.91-.88-.91-1.51v-5.17l-35.41-.31c-4.16-.02-7.54-3.44-7.54-7.65v-30.77c0-4.21,3.38-7.65,7.54-7.65h5.78c3.68-11.93,14.8-20.62,27.92-20.62s24.24,8.69,27.92,20.62h5.78c4.16,0,7.54,3.44,7.54,7.65ZM67.84,30.74c-.12-.58-.26-1.15-.42-1.72-.16-.58-.34-1.15-.54-1.72-.74-2.08-1.73-4.04-2.95-5.84-1.13.68-2.33,1.3-3.61,1.86.41,1.28.76,2.61,1.05,3.99.12.57.22,1.14.31,1.72.09.57.17,1.14.24,1.72.14,1.13.23,2.27.28,3.44h6.1c-.08-1.17-.23-2.32-.45-3.44ZM68.3,37.61h-6.1c-.16,3.99-.85,7.77-1.99,11.17,1.25.54,2.43,1.14,3.54,1.79,2.59-3.73,4.23-8.17,4.55-12.97ZM30.1,58.43c-1.5-1.84-2.82-4.02-3.9-6.44-.92.4-1.8.83-2.62,1.29,1.87,2.05,4.07,3.79,6.51,5.14ZM21.42,50.57c1.11-.66,2.29-1.25,3.54-1.79-1.13-3.4-1.83-7.18-1.98-11.17h-6.1c.32,4.79,1.95,9.23,4.54,12.96ZM16.88,34.17h6.1c.05-1.17.14-2.31.28-3.44.07-.58.15-1.15.24-1.72.09-.58.2-1.15.31-1.72.29-1.37.64-2.71,1.05-3.99-1.28-.55-2.49-1.17-3.61-1.85-1.22,1.8-2.21,3.76-2.95,5.84-.2.56-.38,1.14-.54,1.72-.16.57-.3,1.14-.42,1.72-.23,1.12-.38,2.27-.45,3.44ZM55.07,13.36c1.57,1.92,2.93,4.2,4.03,6.75.95-.42,1.86-.87,2.7-1.36-1.92-2.15-4.2-3.98-6.73-5.39ZM57.13,24.52c-3.86,1.25-8.22,1.98-12.82,2.13v7.52h14.45c-.05-1.17-.14-2.32-.29-3.44-.07-.58-.17-1.15-.26-1.72-.1-.58-.21-1.15-.34-1.72-.21-.95-.46-1.88-.74-2.78ZM58.76,37.61h-14.45v7.9c4.56.14,8.88.86,12.72,2.09.98-3.03,1.59-6.41,1.74-9.99ZM28.15,47.59c3.84-1.23,8.15-1.94,12.72-2.09v-7.9h-14.45c.15,3.57.76,6.95,1.73,9.98ZM26.42,34.17h14.45v-7.52c-4.61-.15-8.96-.88-12.82-2.13-.28.9-.53,1.83-.74,2.78-.13.56-.24,1.14-.34,1.72-.1.57-.19,1.14-.26,1.72-.14,1.12-.24,2.27-.29,3.44ZM44.31,23.21c4.15-.14,8.13-.81,11.63-1.92-2.62-6.03-6.81-10.22-11.63-11.03v12.95ZM40.87,10.27c-4.82.81-9.01,4.99-11.63,11.02,3.5,1.12,7.48,1.78,11.63,1.92v-12.95ZM29.38,50.81c2.63,5.86,6.75,9.91,11.49,10.7v-12.57c-4.09.14-8.02.78-11.49,1.87ZM44.31,61.52c4.73-.8,8.86-4.84,11.49-10.7-3.47-1.09-7.39-1.73-11.49-1.87v12.57ZM23.38,18.74c.84.49,1.75.95,2.7,1.36,1.1-2.54,2.46-4.82,4.03-6.74-2.53,1.41-4.81,3.23-6.73,5.38ZM61.59,53.28c-.82-.47-1.7-.9-2.62-1.29-1.08,2.42-2.39,4.59-3.9,6.44,2.44-1.36,4.64-3.1,6.51-5.14Z"/>
</svg>