<?xml version="1.0" encoding="UTF-8"?>
<svg id="Layer_1" data-name="Layer 1" xmlns="http://www.w3.org/2000/svg" viewBox="0 0 196.2 139.76">
  <defs>
    <style>
      .cls-1 {
        fill: #3f3f3e;
        stroke-width: 0px;
      }
    </style>
  </defs>
  <g>
    <path class="cls-1" d="M116.02,46.43c-.8,0-1.59-.38-2.08-1.1-.79-1.15-.5-2.72.66-3.51l44.16-30.28c1.15-.79,2.72-.5,3.51.66.79,1.15.5,2.72-.66,3.51l-44.16,30.28c-.44.3-.93.44-1.42.44Z"/>
    <path class="cls-1" d="M104.03,47.37c-.24,0-.49-.03-.74-.11l-27.76-8.52c-1.33-.41-2.08-1.82-1.67-3.15.41-1.33,1.82-2.08,3.15-1.67l27.76,8.52c1.33.41,2.08,1.82,1.67,3.15-.33,1.09-1.33,1.78-2.41,1.78Z"/>
    <path class="cls-1" d="M33.7,73.87c-.63,0-1.26-.23-1.75-.7-1.01-.96-1.04-2.56-.07-3.57l30.91-32.17c.97-1.01,2.56-1.04,3.57-.07,1.01.96,1.04,2.56.07,3.57l-30.91,32.17c-.5.52-1.16.78-1.82.78Z"/>
    <path class="cls-1" d="M29.03,84.59c-4.87,0-8.83-3.96-8.83-8.83s3.96-8.83,8.83-8.83,8.83,3.96,8.83,8.83-3.96,8.83-8.83,8.83Z"/>
    <path class="cls-1" d="M166.87,19.78c-5.31,0-9.62-4.31-9.62-9.62s4.31-9.62,9.62-9.62,9.62,4.31,9.62,9.62-4.31,9.62-9.62,9.62Z"/>
    <path class="cls-1" d="M69.88,43.12c-4.87,0-8.83-3.96-8.83-8.83s3.96-8.83,8.83-8.83,8.83,3.96,8.83,8.83-3.96,8.83-8.83,8.83Z"/>
    <path class="cls-1" d="M110.56,55.89c-4.87,0-8.83-3.96-8.83-8.83s3.96-8.83,8.83-8.83,8.83,3.96,8.83,8.83-3.96,8.83-8.83,8.83Z"/>
  </g>
  <g>
    <g>
      <path class="cls-1" d="M44.23,127.61c-14.61,0-29.39-4.06-29.39-11.82s14.79-11.82,29.39-11.82,29.39,4.06,29.39,11.82-14.79,11.82-29.39,11.82Z"/>
      <path class="cls-1" d="M44.23,139.23c-14.61,0-29.39-4.06-29.39-11.82v-11.62c0-1.39,1.13-2.52,2.52-2.52s2.52,1.13,2.52,2.52v11.62c0,2.39,9.24,6.77,24.35,6.77s24.35-4.38,24.35-6.77v-11.62c0-1.39,1.13-2.52,2.52-2.52s2.52,1.13,2.52,2.52v11.62c0,7.76-14.79,11.82-29.39,11.82Z"/>
    </g>
    <g>
      <path class="cls-1" d="M98.1,127.61c-14.61,0-29.39-4.06-29.39-11.82,0-1.39,1.13-2.52,2.52-2.52s2.52,1.13,2.52,2.52c0,2.39,9.24,6.77,24.35,6.77s24.35-4.38,24.35-6.77c0-1.39,1.13-2.52,2.52-2.52s2.52,1.13,2.52,2.52c0,7.76-14.79,11.82-29.39,11.82Z"/>
      <path class="cls-1" d="M98.1,139.23c-14.61,0-29.39-4.06-29.39-11.82v-11.62c0-1.39,1.13-2.52,2.52-2.52s2.52,1.13,2.52,2.52v11.62c0,2.39,9.24,6.77,24.35,6.77s24.35-4.38,24.35-6.77v-11.62c0-1.39,1.13-2.52,2.52-2.52s2.52,1.13,2.52,2.52v11.62c0,7.76-14.79,11.82-29.39,11.82Z"/>
    </g>
    <g>
      <path class="cls-1" d="M98.1,116.28c-14.61,0-29.39-4.06-29.39-11.82,0-1.39,1.13-2.52,2.52-2.52s2.52,1.13,2.52,2.52c0,2.39,9.24,6.77,24.35,6.77s24.35-4.38,24.35-6.77c0-1.39,1.13-2.52,2.52-2.52s2.52,1.13,2.52,2.52c0,7.76-14.79,11.82-29.39,11.82Z"/>
      <path class="cls-1" d="M98.1,127.9c-14.61,0-29.39-4.06-29.39-11.82v-11.62c0-1.39,1.13-2.52,2.52-2.52s2.52,1.13,2.52,2.52v11.62c0,2.39,9.24,6.77,24.35,6.77s24.35-4.38,24.35-6.77v-11.62c0-1.39,1.13-2.52,2.52-2.52s2.52,1.13,2.52,2.52v11.62c0,7.76-14.79,11.82-29.39,11.82Z"/>
    </g>
    <path class="cls-1" d="M98.1,104.95c-14.61,0-29.39-4.06-29.39-11.82s14.79-11.82,29.39-11.82,29.39,4.06,29.39,11.82-14.79,11.82-29.39,11.82Z"/>
    <path class="cls-1" d="M151.98,81.92c-14.61,0-29.39-4.06-29.39-11.82s14.79-11.82,29.39-11.82,29.39,4.06,29.39,11.82-14.79,11.82-29.39,11.82Z"/>
    <path class="cls-1" d="M98.1,116.57c-14.61,0-29.39-4.06-29.39-11.82v-11.62c0-1.39,1.13-2.52,2.52-2.52s2.52,1.13,2.52,2.52v11.62c0,2.39,9.24,6.77,24.35,6.77s24.35-4.39,24.35-6.77v-11.62c0-1.39,1.13-2.52,2.52-2.52s2.52,1.13,2.52,2.52v11.62c0,7.76-14.79,11.82-29.39,11.82Z"/>
    <g>
      <path class="cls-1" d="M151.98,127.61c-14.61,0-29.39-4.06-29.39-11.82,0-1.39,1.13-2.52,2.52-2.52s2.52,1.13,2.52,2.52c0,2.39,9.24,6.77,24.35,6.77s24.35-4.38,24.35-6.77c0-1.39,1.13-2.52,2.52-2.52s2.52,1.13,2.52,2.52c0,7.76-14.79,11.82-29.39,11.82Z"/>
      <path class="cls-1" d="M151.98,139.23c-14.61,0-29.39-4.06-29.39-11.82v-11.62c0-1.39,1.13-2.52,2.52-2.52s2.52,1.13,2.52,2.52v11.62c0,2.39,9.24,6.77,24.35,6.77s24.35-4.38,24.35-6.77v-11.62c0-1.39,1.13-2.52,2.52-2.52s2.52,1.13,2.52,2.52v11.62c0,7.76-14.79,11.82-29.39,11.82Z"/>
    </g>
    <g>
      <g>
        <path class="cls-1" d="M151.98,116.28c-14.61,0-29.39-4.06-29.39-11.82,0-1.39,1.13-2.52,2.52-2.52s2.52,1.13,2.52,2.52c0,2.39,9.24,6.77,24.35,6.77s24.35-4.38,24.35-6.77c0-1.39,1.13-2.52,2.52-2.52s2.52,1.13,2.52,2.52c0,7.76-14.79,11.82-29.39,11.82Z"/>
        <path class="cls-1" d="M151.98,127.9c-14.61,0-29.39-4.06-29.39-11.82v-11.62c0-1.39,1.13-2.52,2.52-2.52s2.52,1.13,2.52,2.52v11.62c0,2.39,9.24,6.77,24.35,6.77s24.35-4.38,24.35-6.77v-11.62c0-1.39,1.13-2.52,2.52-2.52s2.52,1.13,2.52,2.52v11.62c0,7.76-14.79,11.82-29.39,11.82Z"/>
      </g>
      <g>
        <path class="cls-1" d="M151.98,104.95c-14.61,0-29.39-4.06-29.39-11.82,0-1.39,1.13-2.52,2.52-2.52s2.52,1.13,2.52,2.52c0,2.39,9.24,6.77,24.35,6.77s24.35-4.38,24.35-6.77c0-1.39,1.13-2.52,2.52-2.52s2.52,1.13,2.52,2.52c0,7.76-14.79,11.82-29.39,11.82Z"/>
        <path class="cls-1" d="M151.98,116.57c-14.61,0-29.39-4.06-29.39-11.82v-11.62c0-1.39,1.13-2.52,2.52-2.52s2.52,1.13,2.52,2.52v11.62c0,2.39,9.24,6.77,24.35,6.77s24.35-4.39,24.35-6.77v-11.62c0-1.39,1.13-2.52,2.52-2.52s2.52,1.13,2.52,2.52v11.62c0,7.76-14.79,11.82-29.39,11.82Z"/>
      </g>
    </g>
    <g>
      <g>
        <path class="cls-1" d="M151.98,93.45c-14.61,0-29.39-4.06-29.39-11.82,0-1.39,1.13-2.52,2.52-2.52s2.52,1.13,2.52,2.52c0,2.39,9.24,6.77,24.35,6.77s24.35-4.38,24.35-6.77c0-1.39,1.13-2.52,2.52-2.52s2.52,1.13,2.52,2.52c0,7.76-14.79,11.82-29.39,11.82Z"/>
        <path class="cls-1" d="M151.98,105.07c-14.61,0-29.39-4.06-29.39-11.82v-11.62c0-1.39,1.13-2.52,2.52-2.52s2.52,1.13,2.52,2.52v11.62c0,2.39,9.24,6.77,24.35,6.77s24.35-4.39,24.35-6.77v-11.62c0-1.39,1.13-2.52,2.52-2.52s2.52,1.13,2.52,2.52v11.62c0,7.76-14.79,11.82-29.39,11.82Z"/>
      </g>
      <path class="cls-1" d="M151.98,93.74c-14.61,0-29.39-4.06-29.39-11.82v-11.62c0-1.39,1.13-2.52,2.52-2.52s2.52,1.13,2.52,2.52v11.62c0,2.39,9.24,6.77,24.35,6.77s24.35-4.38,24.35-6.77v-11.62c0-1.39,1.13-2.52,2.52-2.52s2.52,1.13,2.52,2.52v11.62c0,7.76-14.79,11.82-29.39,11.82Z"/>
    </g>
  </g>
</svg>