<?xml version="1.0" encoding="UTF-8"?>
<svg id="Layer_1" data-name="Layer 1" xmlns="http://www.w3.org/2000/svg" viewBox="0 0 196.2 139.76">
  <defs>
    <style>
      .cls-1 {
        fill: #3f3f3e;
        stroke-width: 0px;
      }
    </style>
  </defs>
  <path class="cls-1" d="M39.52,60.49l9.94,10.53c1.08,1.33,3.06,1.49,4.34.34l30.48-27.32,12.36,14.33c.51.59,1.23.89,1.95.89.59,0,1.18-.2,1.67-.61l37.75-32.09,5.36,6.21c.66.77,1.71,1.08,2.68.79.97-.28,1.68-1.11,1.83-2.11l4.01-28.32c.1-.74-.11-1.48-.6-2.04-.48-.56-1.19-.89-1.93-.89l-28.6-.21h-.02c-1,0-1.92.58-2.34,1.49-.42.92-.27,2,.39,2.77l5.33,6.18-23.53,19.94-12.39-14.43c-.92-1.07-2.54-1.2-3.62-.29l-46.35,39.2c-1.11.94-1.25,2.59-.31,3.7l1.63,1.93Z"/>
  <g>
    <g>
      <path class="cls-1" d="M67.17,138.69h-20.62c-1.42,0-2.58-1.15-2.58-2.58v-33.5c0-1.42,1.15-2.58,2.58-2.58h20.62c1.42,0,2.58,1.15,2.58,2.58v33.5c0,1.42-1.15,2.58-2.58,2.58Z"/>
      <path class="cls-1" d="M108.41,138.69h-20.62c-1.42,0-2.58-1.15-2.58-2.58v-48.97c0-1.42,1.15-2.58,2.58-2.58h20.62c1.42,0,2.58,1.15,2.58,2.58v48.97c0,1.42-1.15,2.58-2.58,2.58ZM90.37,133.54h15.46v-43.81h-15.46v43.81Z"/>
      <path class="cls-1" d="M149.65,138.69h-20.62c-1.42,0-2.58-1.15-2.58-2.58V53.64c0-1.42,1.15-2.58,2.58-2.58h20.62c1.42,0,2.58,1.15,2.58,2.58v82.47c0,1.42-1.15,2.58-2.58,2.58Z"/>
    </g>
    <path class="cls-1" d="M159.96,138.69H36.25c-1.42,0-2.58-1.15-2.58-2.58s1.15-2.58,2.58-2.58h123.71c1.42,0,2.58,1.15,2.58,2.58s-1.15,2.58-2.58,2.58Z"/>
  </g>
</svg>