<?xml version="1.0" encoding="UTF-8"?>
<svg id="Layer_1" data-name="Layer 1" xmlns="http://www.w3.org/2000/svg" viewBox="0 0 196.2 139.76">
  <defs>
    <style>
      .cls-1 {
        fill: #3f3f3e;
        stroke-width: 0px;
      }
    </style>
  </defs>
  <g>
    <path class="cls-1" d="M87.3,18.13C44.83,18.13,10.07,51.73,8.17,93.73h-.01C10.06,45.77,49.68,7.33,98.1,7.33c19.08,0,36.78,5.99,51.36,16.15l5.66-4.81C139.09,7.02,119.39.13,98.1.13,44.5.13.89,43.73.89,97.33c0,1.99,1.61,3.6,3.6,3.6h7.2c1.99,0,3.6-1.61,3.6-3.6,0-39.71,32.3-72.01,72.01-72.01,16.14,0,31.01,5.4,43.03,14.41l5.65-4.8c-13.44-10.51-30.34-16.8-48.68-16.8Z"/>
    <path class="cls-1" d="M176.75,40.31l-4.8,5.65c9.53,13.66,15.39,30.06,16.09,47.78h-21.61c-.51-11.31-3.46-21.97-8.25-31.56l-5.1,6c3.97,8.93,6.23,18.78,6.23,29.16,0,1.99,1.61,3.6,3.6,3.6h28.8c1.99,0,3.6-1.61,3.6-3.6,0-21.29-6.9-41-18.56-57.03Z"/>
  </g>
  <path class="cls-1" d="M134.84,78.53l-5.48-4.66,40.65-47.85c.11-.13.15-.37,0-.54-.15-.18-.42-.2-.59-.05l-47.61,40.45-4.66-5.48,47.61-40.45c1.55-1.32,3.53-1.98,5.55-1.79,2.03.17,3.87,1.11,5.19,2.66,2.43,2.86,2.43,7.01,0,9.87l-40.65,47.85Z"/>
  <path class="cls-1" d="M98.1,53.23c-23.82,0-43.2,19.38-43.2,43.2s19.38,43.2,43.2,43.2,43.2-19.38,43.2-43.2-19.38-43.2-43.2-43.2ZM101.7,117.74v7.5h-7.2v-7.48c-7.85-1.28-10.51-6.7-10.79-9.74-.18-1.98,1.28-3.73,3.26-3.91,1.94-.18,3.68,1.24,3.9,3.17.07.43.84,3.56,7.23,3.56,2.17,0,7.2-.45,7.2-4.63,0-2.11-.63-4.34-8.11-6.28-5.79-1.51-13.49-4.53-13.49-13.33,0-4.76,2.91-10.21,10.8-11.48v-7.48h7.2v7.48c7.85,1.28,10.51,6.7,10.79,9.74.18,1.98-1.28,3.73-3.26,3.91-1.93.18-3.73-1.28-3.91-3.26-.05-.26-.75-3.47-7.21-3.47-2.69,0-7.2.59-7.2,4.56,0,2.06.63,4.41,8.11,6.36,3.69.96,13.49,3.51,13.49,13.25,0,5.12-3.38,10.28-10.8,11.54Z"/>
</svg>