<?xml version="1.0" encoding="UTF-8"?>
<svg id="Layer_1" data-name="Layer 1" xmlns="http://www.w3.org/2000/svg" viewBox="0 0 196.2 139.76">
  <defs>
    <style>
      .cls-1 {
        fill: #3f3f3e;
        stroke-width: 0px;
      }
    </style>
  </defs>
  <path class="cls-1" d="M72.91,47.52h-10.7v-23.62h-3.79v23.62h-10.7c-1.04,0-1.89.85-1.89,1.9v62.98c0,1.05.85,1.9,1.89,1.9h10.7v23.62h3.79v-23.62h10.7c1.05,0,1.9-.85,1.9-1.9v-62.98c0-1.05-.85-1.9-1.9-1.9Z"/>
  <path class="cls-1" d="M110.7,16.03h-10.7V-1.29h-3.79v17.32h-10.7c-1.04,0-1.89.85-1.89,1.9v69.28c0,1.05.85,1.9,1.89,1.9h10.7v23.62h3.79v-23.62h10.7c1.04,0,1.89-.85,1.89-1.9V17.92c0-1.05-.85-1.9-1.89-1.9ZM108.8,19.82v65.49h-21.4V19.82h21.4Z"/>
  <path class="cls-1" d="M148.49,47.52h-10.7v-17.32h-3.79v17.32h-10.7c-1.05,0-1.9.85-1.9,1.9v66.13c0,1.05.85,1.9,1.9,1.9h10.7v23.62h3.79v-23.62h10.7c1.04,0,1.89-.85,1.89-1.9V49.41c0-1.05-.85-1.9-1.89-1.9Z"/>
</svg>