<?xml version="1.0" encoding="UTF-8"?>
<svg id="Layer_1" data-name="Layer 1" xmlns="http://www.w3.org/2000/svg" viewBox="0 0 110.54 105.24">
  <defs>
    <style>
      .cls-1 {
        fill: #fecf0c;
      }

      .cls-1, .cls-2 {
        stroke-width: 0px;
      }

      .cls-2 {
        fill: #444445;
      }
    </style>
  </defs>
  <g>
    <g id="English_Logo" data-name="English Logo">
      <path class="cls-2" d="M48.17,54.48h-3.16l2.23-12.66h3.16l-2.23,12.66ZM37.13,43.79c-.19-.42-.46-.77-.81-1.07s-.78-.52-1.28-.67-1.05-.23-1.68-.23h-4.94l-2.23,12.66h3.18l2.02-11.54h.74c.71,0,1.24.21,1.58.64.34.42.51.97.51,1.65,0,.57-.08,1.11-.25,1.61-.17.5-.4.94-.7,1.3-.59.74-1.27,1.14-1.77,1.35l-.15.84c.65-.03,1.68-.13,2.66-.45.69-.23,1.28-.61,1.78-1.06.51-.45.9-.98,1.19-1.58.29-.61.45-1.35.45-2.06,0-.51-.09-.98-.28-1.4h0ZM63.48,41.82l-6.34,7.55-4.36-7.55h-1.08l-2.23,12.66h1.58l1.38-7.79,3.49,6.04,4.63-5.53-1.28,7.28h3.16l2.13-12.05.11-.61h-1.19ZM73.63,43.08l.22-1.26h-7.89l-2.23,12.66h7.89l.22-1.26h-4.73l.78-4.43h3.45l.22-1.26h-3.45l.78-4.43h4.73ZM41.59,41.82h-4.4c.41.36.75.78.99,1.26h1.8c.36,0,1.97.01,1.98,1.4.02,2.13-3.42,2.22-3.87,4.36-.18.87.5,2.06.5,2.06l2.07,3.59h3.19l-2.82-4.9s-.43-.75-.43-1.04c0-.39.24-1.04,2.21-1.69.39-.13,2.21-.6,2.21-2.86,0-.77-.5-2.17-3.44-2.17h0Z"/>
    </g>
    <g>
      <path class="cls-1" d="M81.06,45.93l1.42,2.47,3.15,5.45c1.55-1.3,2.53-3.25,2.53-5.43,0-3.93-3.18-7.1-7.1-7.1-.85,0-1.66.15-2.42.43l2.42,4.2h0ZM82.35,43.82h2.85l-2.15,3.6-1.42-2.47.72-1.13h0Z"/>
      <path class="cls-1" d="M76.49,53.85l3.15-5.45-3.13-5.43c-1.55,1.3-2.55,3.26-2.55,5.45s.98,4.13,2.53,5.43Z"/>
      <path class="cls-1" d="M81.06,50.87l-2.44,4.23c.76.28,1.58.43,2.44.43s1.68-.15,2.44-.43l-2.44-4.23Z"/>
    </g>
  </g>
  <path class="cls-2" d="M40.57,60.21c-.2-.23-.27-.58-.2-1.06.07-.48.23-.83.48-1.06.25-.23.61-.34,1.06-.34.21,0,.39.02.55.05.16.04.28.09.39.17.1.08.17.18.21.31.04.12.05.28.02.46h-.53c.01-.1,0-.18-.03-.24-.04-.06-.09-.11-.16-.15-.07-.04-.15-.06-.24-.07-.09-.01-.19-.02-.28-.02-.14,0-.26.02-.36.05-.1.04-.19.09-.26.16-.07.07-.13.16-.17.27-.04.11-.08.25-.1.4-.04.31,0,.54.12.68s.33.21.63.21c.08,0,.17,0,.25-.02.08-.01.16-.03.23-.06.07-.03.13-.08.18-.13s.08-.14.1-.23h.53c-.03.18-.08.33-.15.45-.08.12-.17.22-.29.29-.12.07-.25.13-.41.16-.15.03-.32.05-.51.05-.49,0-.83-.11-1.04-.34Z"/>
  <path class="cls-2" d="M47.1,57.8h.59l-1.45,2.69h-.59l1.45-2.69ZM46.26,59.57h1.81l-.07.5h-1.81l.07-.5ZM47.8,60.5l-.7-2.69h.59l.7,2.69h-.59Z"/>
  <path class="cls-2" d="M51.77,57.8h.55l-.38,2.69h-.55l.38-2.69ZM51.51,59.66l.07-.5h1.21c.12,0,.21,0,.29-.03.08-.02.14-.04.19-.08.05-.04.08-.08.11-.13s.04-.12.05-.19c.01-.07.01-.13,0-.19,0-.05-.03-.1-.07-.13-.04-.04-.09-.06-.17-.08s-.17-.03-.28-.03h-1.21l.07-.5h1.21c.21,0,.38.02.52.06.14.04.25.1.33.18.08.08.13.17.16.29.02.12.03.25,0,.4-.02.15-.06.29-.12.4-.06.12-.13.21-.23.29-.1.08-.23.14-.38.17-.15.04-.33.06-.54.06h-1.21Z"/>
  <path class="cls-2" d="M57.15,58.28h.55l-.29,1.75h-.55l.29-1.75Z"/>
  <path class="cls-2" d="M60.83,57.8h2.22l-.07.5h-2.22l.07-.5ZM61.67,57.8h.55l-.38,2.69h-.55l.38-2.69Z"/>
  <path class="cls-2" d="M66.61,57.8h.59l-1.45,2.69h-.59l1.45-2.69ZM65.77,59.57h1.81l-.07.5h-1.81l.07-.5ZM67.32,60.5l-.7-2.69h.59l.7,2.69h-.59Z"/>
  <path class="cls-2" d="M71.28,57.8h.55l-.38,2.69h-.55l.38-2.69ZM71.18,60h1.92l-.07.5h-1.92l.07-.5Z"/>
  <polygon class="cls-2" points="57 60.5 57.07 60.06 57.21 60.06 57.15 60.5 57 60.5"/>
  <polygon class="cls-2" points="57.33 58.24 57.39 57.8 57.54 57.8 57.47 58.24 57.33 58.24"/>
</svg>