<?xml version="1.0" encoding="UTF-8"?>
<svg id="Layer_1" data-name="Layer 1" xmlns="http://www.w3.org/2000/svg" xmlns:xlink="http://www.w3.org/1999/xlink" viewBox="0 0 259.31 63.15">
  <defs>
    <style>
      .cls-1 {
        fill: none;
      }

      .cls-1, .cls-2, .cls-3 {
        stroke-width: 0px;
      }

      .cls-2 {
        fill: #fff;
      }

      .cls-3 {
        fill: #ffcb00;
      }
    </style>
    <clipPath id="clippath">
      <rect class="cls-1" x="338.72" y="-116.74" width="1900" height="159.29"/>
    </clipPath>
    <filter id="drop-shadow-11" filterUnits="userSpaceOnUse">
      <feOffset dx="7" dy="7"/>
      <feGaussianBlur result="blur" stdDeviation="8"/>
      <feFlood flood-color="#000" flood-opacity=".16"/>
      <feComposite in2="blur" operator="in"/>
      <feComposite in="SourceGraphic"/>
    </filter>
  </defs>
  <path class="cls-3" d="M227.73,20.54l6.33,10.97,13.99,24.24c6.88-5.79,11.25-14.46,11.25-24.16,0-17.44-14.14-31.58-31.58-31.58-3.78,0-7.41.67-10.77,1.88l10.77,18.65ZM233.47,11.13h12.66l-9.53,15.99-6.33-10.97,3.2-5.02Z"/>
  <path class="cls-3" d="M207.41,55.74l13.99-24.24-13.94-24.14c-6.91,5.79-11.31,14.49-11.31,24.21s4.37,18.37,11.25,24.16"/>
  <path class="cls-3" d="M227.73,42.47l-10.84,18.78c3.38,1.24,7.03,1.91,10.84,1.91s7.46-.67,10.84-1.91l-10.84-18.78Z"/>
  <path class="cls-2" d="M87.92,56.87h-12.66l8.93-50.64h12.66l-8.93,50.64ZM43.76,14.14c-.75-1.67-1.84-3.1-3.26-4.27-1.42-1.18-3.12-2.08-5.1-2.7-1.97-.63-4.21-.94-6.71-.94H8.93L0,56.87h12.73L20.8,10.72h2.94c2.85,0,4.95.86,6.3,2.56,1.35,1.7,2.02,3.9,2.02,6.6,0,2.3-.34,4.45-1.01,6.45-.68,2-1.6,3.74-2.77,5.21-2.35,2.95-5.08,4.56-7.1,5.42l-.59,3.36c2.61-.12,6.73-.52,10.63-1.8,2.76-.91,5.1-2.44,7.12-4.24,2.03-1.8,3.61-3.91,4.76-6.34,1.15-2.42,1.78-5.41,1.78-8.21,0-2.05-.37-3.91-1.13-5.59M149.16,6.23l-25.35,30.22-17.44-30.22h-4.31l-8.93,50.64h6.33l5.49-31.16,13.94,24.14,18.54-22.09-5.13,29.11h12.66l8.5-48.22.43-2.43h-4.72ZM189.78,11.29l.89-5.06h-31.54l-8.93,50.64h31.57l.89-5.06h-18.91l3.13-17.73h13.79l.89-5.06h-13.79l3.12-17.73h18.88ZM61.6,6.23h-17.57c1.65,1.43,2.98,3.12,3.97,5.04h7.2c1.44,0,7.88.05,7.94,5.61.09,8.52-13.68,8.87-15.46,17.43-.72,3.48,2.01,8.21,2.01,8.21l8.26,14.34h12.76l-11.3-19.58s-1.74-3-1.74-4.16c0-1.56.95-4.16,8.84-6.77,1.56-.51,8.84-2.39,8.84-11.45,0-3.08-2.01-8.69-13.76-8.69"/>
</svg>