<?xml version="1.0" encoding="utf-8"?>
<!-- Generator: Adobe Illustrator 28.2.0, SVG Export Plug-In . SVG Version: 6.00 Build 0)  -->
<svg version="1.1" id="Layer_1" xmlns="http://www.w3.org/2000/svg" xmlns:xlink="http://www.w3.org/1999/xlink" x="0px" y="0px"
	 viewBox="0 0 82.9 85.9" style="enable-background:new 0 0 82.9 85.9;" xml:space="preserve">
<style type="text/css">
	.st0{fill:#FFD000;}
</style>
<path class="st0" d="M73,85.9H9.9C4.4,85.9,0,81.5,0,76V9.9C0,4.4,4.4,0,9.9,0H73c5.5,0,9.9,4.4,9.9,9.9V76
	C82.9,81.5,78.4,85.9,73,85.9z M9.9,3.4c-3.6,0-6.5,2.9-6.5,6.5V76c0,3.6,2.9,6.5,6.5,6.5H73c3.6,0,6.5-2.9,6.5-6.5V9.9
	c0-3.6-2.9-6.5-6.5-6.5C73,3.4,9.9,3.4,9.9,3.4z"/>
<path class="st0" d="M66.3,19.5c-0.3,0.4-0.7,0.9-1,1.3c-16.5,16.6-33,33.2-49.6,49.8c-0.5,0.5-1.4,1-2.1,1.1
	c-1.6,0.2-2.4-0.8-2.4-2.3c0-3.5,0-7,0-10.5V17.1c0-2.1,0.7-2.9,2.3-3c1.6,0,2.6,1,2.7,2.9c0,1.1,0,2.2,0,3.4v45.9
	c0.1,0.1,0.2,0.1,0.3,0.2c0.6-0.6,1.2-1.3,1.8-1.9C28.7,54,39.3,43.4,49.8,32.8c5.8-5.9,11.6-11.7,17.4-17.6c1-1,2-1.4,3.3-0.9
	c1.3,0.5,1.4,1.6,1.4,2.8c0,17.2,0,34.5,0,51.7c0,2.1-0.7,2.9-2.3,3c-1.7,0-2.6-1-2.7-2.9c-0.1-0.8,0-1.7,0-2.5V21.1
	c0-0.5,0-0.9-0.1-1.4C66.6,19.7,66.4,19.6,66.3,19.5L66.3,19.5z"/>
</svg>
