<?xml version="1.0" encoding="utf-8"?>
<!-- Generator: Adobe Illustrator 28.2.0, SVG Export Plug-In . SVG Version: 6.00 Build 0)  -->
<svg version="1.1" id="Layer_1" xmlns="http://www.w3.org/2000/svg" xmlns:xlink="http://www.w3.org/1999/xlink" x="0px" y="0px"
	 viewBox="0 0 84.9 88.1" style="enable-background:new 0 0 84.9 88.1;" xml:space="preserve">
<style type="text/css">
	.st0{fill:#FFD000;}
</style>
<path class="st0" d="M27,43.9c0-7.9,0-15.7,0-23.6c0-1.4,0.4-2.5,1.4-3.4c0.7-0.6,1.3-1.3,2.1-1.7c0.9-0.4,1.9-0.9,2.8-0.9
	c6.2-0.1,12.4,0,18.6-0.1c1.3,0,2.4,0.4,3.4,1.2c2.1,1.7,3.2,3.6,3.1,6.5c-0.1,14.2,0,28.5-0.1,42.8c0,1.3,0,2.7-0.2,3.9
	c-0.1,0.5-0.3,1.2-0.6,1.6c-1,1-2.1,2.1-3.3,2.9c-0.5,0.4-1.4,0.6-2.1,0.6c-6.3,0-12.7,0-19,0c-1.2,0-2.1-0.4-2.9-1.2
	c-3.4-3.4-3.2-2.2-3.2-7.3C27,58.2,27,51.1,27,43.9L27,43.9z M36.5,44v19.7c0,1.4,0.4,1.9,1.6,1.9c3.1,0,6.2,0,9.3,0
	c0.8,0,1.3-0.3,1.4-1.2c0-0.5,0.1-0.9,0.1-1.4c0-12.4,0-24.8,0-37.3c0-0.6-0.1-1.2-0.1-1.9c0-1.2-0.6-1.5-1.7-1.5
	c-2.9,0-5.8,0-8.6,0c-1.8,0-2,0.2-2,2C36.4,31,36.4,37.5,36.5,44L36.5,44z"/>
<path class="st0" d="M74.8,88.1H10.1C4.5,88.1,0,83.5,0,78V10.1C0,4.5,4.5,0,10.1,0h64.7C80.4,0,85,4.5,85,10.1V78
	C85,83.6,80.4,88.1,74.8,88.1z M10.1,3.4c-3.7,0-6.7,3-6.7,6.7V78c0,3.7,3,6.7,6.7,6.7h64.7c3.7,0,6.7-3,6.7-6.7V10.1
	c0-3.7-3-6.7-6.7-6.7H10.1z"/>
</svg>
