<?xml version="1.0" encoding="utf-8"?>
<!-- Generator: Adobe Illustrator 28.2.0, SVG Export Plug-In . SVG Version: 6.00 Build 0)  -->
<svg version="1.1" id="Layer_1" xmlns="http://www.w3.org/2000/svg" xmlns:xlink="http://www.w3.org/1999/xlink" x="0px" y="0px"
	 viewBox="0 0 81.4 84.4" style="enable-background:new 0 0 81.4 84.4;" xml:space="preserve">
<style type="text/css">
	.st0{fill:#FFD000;}
</style>
<g>
	<path class="st0" d="M52.2,40.9h1.5c4.3,0,8.7,0,13,0c1,0,1.3-0.3,1.3-1.3c0-6.9,0-13.8,0-20.7c0-0.4-0.1-0.9,0.1-1.2
		c0.3-0.4,0.8-0.9,1.2-0.9c0.4,0,0.9,0.5,1.1,0.8c0.2,0.3,0.1,0.8,0.1,1.2v46.5c0,1.6-0.3,2.2-1.3,2.2c-0.9,0-1.2-0.6-1.2-2.2
		c0-6.8,0-13.7,0-20.5c0-1.1-0.3-1.4-1.4-1.4c-4.7,0.1-9.4,0-14.4,0c0.8,1.2,1.5,2.1,2.2,3.1c0.9,1.3,1,2,0.3,2.5
		c-0.8,0.6-1.4,0.3-2.4-1.1c-1.2-1.6-2.3-3.2-3.5-4.8c-0.5-0.7-0.6-1.3,0-2c1.3-1.8,2.5-3.5,3.8-5.3c0.5-0.8,1.1-1.3,2-0.7
		c0.7,0.4,0.7,1.2,0.1,2.2C53.9,38.4,53.1,39.6,52.2,40.9L52.2,40.9z"/>
	<path class="st0" d="M29.6,43.5c-0.5,0-0.8-0.1-1.2-0.1c-4.4,0-8.9,0-13.3,0c-1,0-1.3,0.3-1.3,1.3c0,6.9,0,13.8,0,20.7
		c0,0.4,0.1,0.9-0.1,1.2c-0.3,0.4-0.8,0.9-1.2,0.9c-0.4,0-0.9-0.4-1.1-0.8c-0.2-0.3-0.1-0.8-0.1-1.2V18.8c0-0.4-0.1-0.8,0.1-1.1
		c0.3-0.4,0.8-0.9,1.2-0.9c0.4,0,0.9,0.5,1.2,0.9c0.2,0.3,0.1,0.8,0.1,1.2c0,6.8,0,13.7,0,20.5c0,1.1,0.3,1.4,1.4,1.4
		c4.7-0.1,9.4,0,14.4,0c-0.8-1.2-1.5-2.1-2.2-3.1c-1-1.3-1-2-0.3-2.5c0.8-0.6,1.4-0.3,2.4,1.1c1.2,1.6,2.3,3.2,3.5,4.8
		c0.5,0.7,0.6,1.3,0,2c-1.3,1.8-2.5,3.5-3.8,5.3c-0.5,0.7-1.1,1.3-2,0.7c-0.7-0.4-0.7-1.2-0.1-2.2C28,45.8,28.8,44.7,29.6,43.5z"/>
</g>
<path class="st0" d="M71.7,84.4H9.7C4.4,84.4,0,80,0,74.6V9.7C0,4.4,4.4,0,9.7,0h61.9c5.4,0,9.7,4.4,9.7,9.7v64.9
	C81.4,80,77,84.4,71.7,84.4L71.7,84.4z M9.7,3.3c-3.5,0-6.4,2.9-6.4,6.4v64.9c0,3.5,2.9,6.4,6.4,6.4h61.9c3.5,0,6.4-2.9,6.4-6.4V9.7
	c0-3.5-2.9-6.4-6.4-6.4C71.7,3.3,9.7,3.3,9.7,3.3z"/>
</svg>
