<?xml version="1.0" encoding="utf-8"?>
<!-- Generator: Adobe Illustrator 27.3.1, SVG Export Plug-In . SVG Version: 6.00 Build 0)  -->
<svg version="1.1" id="katman_1" xmlns="http://www.w3.org/2000/svg" xmlns:xlink="http://www.w3.org/1999/xlink" x="0px" y="0px"
	 viewBox="0 0 434.4 121.2" style="enable-background:new 0 0 434.4 121.2;" xml:space="preserve">
<style type="text/css">
	.st0{fill:#FFFFFF;}
	.st1{fill:#009A61;}
	.st2{fill:#00364D;}
</style>
<g>
	<path class="st0" d="M27.7,81.8c-3.5,3.1-8,4.9-12.6,4.9C7.3,87.3,0.5,81.4,0,73.6c0-0.4,0-0.9,0-1.3C-0.3,67,2.8,62.1,7.8,60.2
		c3.7-1.6,7.6-2.5,11.7-2.8l7.8-0.6v-1.7c0-5-3.3-7.2-8.9-7.2c-4.1,0.2-8.1,1.3-11.7,3.3L2.8,44C8.1,41.1,14,39.6,20,39.5
		c12.1,0,17.8,5.5,17.8,16.1V74c-0.3,3.9,0.1,7.9,1.1,11.7h-9.5L27.7,81.8L27.7,81.8z M20.4,65.1c-2.3-0.1-4.7,0.5-6.7,1.7
		c-1.7,1.1-2.8,3-2.8,5c0,3.3,2.7,6.1,6,6.1c0.2,0,0.4,0,0.6,0c3.3-0.1,6.4-1.3,8.9-3.3v-9.5H20.4z M44.3,63.9
		C44.3,49.5,54.9,40,68.7,40c2-0.1,4.1,0.1,6.1,0.5V18.9h11.1v65c-5.3,2.3-10.9,3.4-16.7,3.3C55.4,86.7,44.3,79,44.3,63.9L44.3,63.9
		z M74.9,76.7V50c-1.8-0.5-3.7-0.7-5.5-0.5c-7.5-0.2-13.7,5.7-13.9,13.2c0,0.4,0,0.8,0,1.3c-0.6,7.1,4.6,13.3,11.7,13.9
		c0.7,0.1,1.5,0.1,2.2,0C71,77.3,73.2,77.3,74.9,76.7z M89.9,41.2h11.7l11.1,30.6l11.1-30.5h11.1l-18.3,45h-8.3L89.9,41.2L89.9,41.2
		z"/>
	<path class="st1" d="M136.5,63.9c-0.3-12.9,9.9-23.6,22.8-23.9c0.3,0,0.6,0,0.9,0c4.2,0.1,8.3,1,12.1,2.8v9.4
		c-3.3-2.3-7.1-3.4-11.1-3.3c-8.3,0-13.3,6.1-13.3,14.4c0,9.4,5,14.4,12.8,14.4c3.7,0,7.3-0.9,10.6-2.8l3.3,7.8
		c-4.7,2.9-10.1,4.4-15.6,4.4c-12.3,0.2-22.4-9.7-22.6-22C136.5,64.8,136.5,64.4,136.5,63.9z M204.3,81.8c-3.5,3.2-8,5-12.8,5
		c-7.8,0.6-14.6-5.3-15.1-13.1c0-0.4,0-0.9,0-1.3c-0.3-5.3,2.8-10.2,7.8-12.1c3.7-1.6,7.6-2.5,11.7-2.8l7.8-0.5v-1.7
		c0-5-3.3-7.2-8.9-7.2c-4.1,0.2-8.1,1.3-11.7,3.3l-3.7-7.4c5.3-2.9,11.3-4.4,17.3-4.5c12.1,0,17.8,5.5,17.8,16.1V74
		c-0.3,3.9,0.1,7.9,1.1,11.7H206L204.3,81.8L204.3,81.8z M197.1,65.1c-2.3-0.1-4.7,0.5-6.7,1.7c-1.7,1-2.8,2.9-2.8,4.9
		c0,3.3,2.7,6.1,6,6.1c0.2,0,0.4,0,0.6,0c3.3-0.1,6.4-1.3,8.9-3.3v-9.4C203.2,65,197.1,65.1,197.1,65.1z M223.2,73.9
		c3.6,2.4,7.8,3.8,12.1,3.9c4.4,0,7.8-1.1,7.8-5c0-7.8-21.2-5-21.2-19.4c0-7.8,6.7-13.3,17.2-13.3c4.5,0.1,9,0.8,13.3,2.2v9.4
		c-4-1.8-8.4-2.7-12.8-2.8c-3.9,0-6.1,1.1-6.1,3.9c0,7.2,21.2,4.4,21.2,20c0,10-8.3,13.9-18.3,13.9c-5.8,0-11.6-1.5-16.7-4.5
		C219.8,82.2,223.2,73.9,223.2,73.9z M261,18.9h11.1v27.3c4.2-3.7,9.5-5.8,15.1-6.1c7.2,0,14.4,3.3,14.4,16.1v29.4h-11.1V59.4
		c0-5.5-1.1-10-6.7-10c-4.2,0.3-8.2,2.1-11.2,5.1v31.1h-11.1V19L261,18.9z M373.8,121.2c33.4,0,60.6-27.1,60.6-60.6S407.3,0,373.8,0
		s-60.6,27.1-60.6,60.6S340.3,121.2,373.8,121.2L373.8,121.2z"/>
	<path class="st0" d="M341.5,92.8l31.1-68.3l2.2,23.9l-20.6,43.9L341.5,92.8L341.5,92.8z"/>
	<path class="st2" d="M343.8,63.9h58.9l-6.7,8.3h-46.7C349.3,72.3,343.8,63.9,343.8,63.9z M333.8,48.9h77.8l-6.7,8.3h-65.5
		C339.3,57.3,333.8,48.9,333.8,48.9z"/>
	<path class="st0" d="M403.7,92.8l-31.1-68.3l-2.2,23.9l20.5,43.9L403.7,92.8L403.7,92.8z"/>
</g>
</svg>
