<?xml version="1.0" encoding="utf-8"?>
<!-- Generator: Adobe Illustrator 27.2.0, SVG Export Plug-In . SVG Version: 6.00 Build 0)  -->
<svg version="1.1" id="Layer_1" xmlns="http://www.w3.org/2000/svg" xmlns:xlink="http://www.w3.org/1999/xlink" x="0px" y="0px"
	 viewBox="0 0 150 50" style="enable-background:new 0 0 150 50;" xml:space="preserve">
<style type="text/css">
	.st0{fill:#FFFFFF;}
	.st1{fill:#CB0E20;}
	.st2{fill:#960016;}
</style>
<g>
	<rect x="23.77" y="9.76" class="st0" width="35.03" height="26.69"/>
	<g>
		<path class="st1" d="M28.25,15.26c-0.06-0.44-0.3-0.66-0.82-0.6c-0.09,0.01-0.18,0-0.27,0.01c-0.37,0-0.77,0.02-0.77-0.5
			c-0.01-0.54,0.42-0.49,0.77-0.49c2.09,0,4.18-0.02,6.26,0c1.39,0.02,2.6,0.59,3.45,1.53c0.7,0.01,1.41,0.02,2.12,0.04
			c-0.06-0.43-0.29-0.46-1.05-0.61c-0.2-0.04-0.44-0.35-0.47-0.56c-0.02-0.13,0.31-0.45,0.49-0.46c0.9-0.05,1.8-0.07,2.69,0.01
			c0.26,0.02,0.57,0.39,0.7,0.68c0.15,0.34,0.3,0.68,0.45,1.01c3.55,0.1,7.11,0.22,10.66,0.29c0.21-0.48,0.42-0.96,0.63-1.44
			c0.16-0.38,0.37-0.58,0.79-0.58c0.94,0.01,1.89,0.01,2.83,0c0.4,0,0.66,0.13,0.65,0.57c-0.01,0.42-0.29,0.49-0.64,0.51
			c-0.95,0.04-1.03,0.12-1.04,0.99c2.36,0.02,4.73,0,7.08-0.08c-0.01-2.44-0.02-4.87-0.03-7.31c-0.02-4.15-3.19-7.78-7.69-7.74
			c-9,0.09-18,0.1-27.01,0c-4.5-0.05-7.67,3.6-7.74,7.79c-0.04,2.49-0.05,4.98-0.04,7.47C22.91,15.5,25.58,15.34,28.25,15.26z"/>
		<path class="st2" d="M55.66,25.54c0,1.14-0.01,2.28-0.01,3.42c0,1.01,0.16,1.16,1.18,1.19c0.4,0.01,0.72,0.03,0.72,0.55
			c0,0.56-0.34,0.58-0.77,0.58c-1.59-0.01-3.19-0.01-4.78,0c-0.4,0-0.79-0.01-0.81-0.56c-0.02-0.57,0.36-0.56,0.77-0.58
			c0.59-0.02,1.25-0.01,1.25-0.85c0-1.26,0-2.53,0-3.8c-1.17-0.03-2.35-0.07-3.52-0.11c-0.84,1.8-1.68,3.61-2.52,5.41
			c-0.08,0.17-0.24,0.3-0.36,0.44c-0.14-0.15-0.33-0.28-0.41-0.45c-0.9-1.87-1.79-3.75-2.69-5.62c-1.24-0.05-2.48-0.09-3.72-0.12
			c0,0.97,0,1.94,0,2.91c0,0.16,0,0.31,0.01,0.47c0.11,1.64,0.15,1.69,1.79,1.77c0.37,0.02,0.6,0.12,0.61,0.54
			c0.01,0.44-0.21,0.6-0.62,0.6c-1.73,0-3.46,0.02-5.18-0.02c-0.18,0-0.45-0.31-0.51-0.52c-0.1-0.35,0.11-0.56,0.52-0.6
			c1.95-0.16,2.08-0.25,2.14-2.17c0.03-1,0.05-2.01,0.07-3.01c-2.77-0.07-5.53-0.08-8.29-0.01c0.01,0.2,0,0.45,0,0.8
			c0.01,1.01,0.01,2.02,0.02,3.03c0.02,1.16,0.17,1.3,1.32,1.38c0.23,0.02,0.53,0.06,0.66,0.22c0.31,0.35,0.04,0.89-0.44,0.91
			c-0.87,0.02-1.75,0.01-2.63,0.01v0c-0.81,0-1.62-0.01-2.42,0c-0.41,0.01-0.7-0.08-0.7-0.58c0-0.46,0.26-0.54,0.65-0.56
			c1.08-0.06,1.23-0.23,1.24-1.3c0.02-1.21,0.05-2.42,0.03-3.63c0-0.07,0.01-0.12,0.02-0.18c-2.71,0.12-5.4,0.33-8.09,0.69
			c0,4.17-0.01,8.33,0.01,12.5c0,0.75,0.1,1.52,0.28,2.25c0.81,3.34,3.78,5.8,7.05,5.81c9.32,0.02,18.63,0.01,27.95,0.01
			c1.15,0,2.24-0.27,3.22-0.83c2.75-1.58,4.11-4.02,4.11-7.15c0-4.27-0.01-8.53-0.02-12.8C60.43,25.59,58.05,25.58,55.66,25.54z"/>
		<path class="st2" d="M31.78,14.52c-1.24-0.05-1.25-0.14-1.23,0.68c1.16-0.02,2.32-0.03,3.48-0.02
			C33.42,14.78,32.66,14.55,31.78,14.52z"/>
		<path class="st1" d="M20.27,23.41c0-4.89-0.06-9.78,0.02-14.67c0.07-4.03,3.25-7.53,7.74-7.48c9,0.1,18,0.09,27.01,0
			c4.5-0.04,7.67,3.44,7.69,7.43c0.06,9.63,0.1,19.25,0.09,28.88c0,3-1.36,5.35-4.11,6.87c-0.98,0.54-2.07,0.8-3.22,0.8
			c-9.32,0-18.63,0.01-27.95-0.01c-3.27-0.01-6.24-2.37-7.05-5.58c-0.18-0.7-0.27-1.44-0.28-2.16c-0.02-4.7-0.01-9.39-0.01-14.09
			C20.23,23.41,20.25,23.41,20.27,23.41z M40.02,17.94c0.05-0.01,0.1-0.02,0.15-0.03c0.08,0.11,0.19,0.21,0.25,0.34
			c2,4.02,4,8.04,6,12.06c0.08,0.17,0.27,0.29,0.41,0.43c0.12-0.14,0.28-0.26,0.36-0.42c1.92-3.94,3.82-7.88,5.74-11.83
			c0.06-0.13,0.17-0.25,0.3-0.43c0,3.68,0.01,7.25-0.01,10.82c0,0.81-0.66,0.8-1.25,0.82c-0.41,0.01-0.79,0.01-0.77,0.55
			c0.02,0.53,0.4,0.54,0.81,0.54c1.59,0,3.19-0.01,4.78,0c0.42,0,0.77-0.02,0.77-0.56c0-0.5-0.32-0.52-0.72-0.53
			c-1.02-0.03-1.18-0.17-1.18-1.14c0-4.24,0.01-8.48,0.03-12.72c0-0.9,0.07-0.97,1.04-1.01c0.36-0.01,0.63-0.09,0.64-0.49
			c0.01-0.42-0.25-0.55-0.65-0.55c-0.94,0.01-1.89,0.01-2.83,0c-0.43-0.01-0.63,0.2-0.79,0.56c-1.83,4.02-3.68,8.04-5.52,12.06
			c-0.09,0.2-0.2,0.39-0.37,0.74c-0.81-1.75-1.55-3.34-2.28-4.93c-1.19-2.58-2.36-5.16-3.57-7.73c-0.13-0.27-0.44-0.63-0.7-0.65
			c-0.89-0.08-1.79-0.06-2.69-0.01c-0.18,0.01-0.51,0.31-0.49,0.44c0.03,0.21,0.27,0.5,0.47,0.54c1.04,0.2,1.09,0.18,1.07,1.22
			c-0.06,3.87-0.12,7.75-0.24,11.62c-0.06,1.85-0.18,1.93-2.14,2.09c-0.41,0.03-0.61,0.24-0.52,0.57c0.06,0.2,0.33,0.5,0.51,0.5
			c1.73,0.04,3.46,0.01,5.18,0.02c0.41,0,0.63-0.15,0.62-0.57c-0.01-0.4-0.24-0.5-0.61-0.51c-1.65-0.08-1.69-0.13-1.79-1.7
			c-0.01-0.15-0.01-0.3-0.01-0.45c0-2.76,0-5.51,0.01-8.27C40.02,18.86,40.02,18.4,40.02,17.94z M24.65,22.62
			c-0.02,0.07-0.04,0.13-0.06,0.2c0.18,0.09,0.35,0.21,0.54,0.25c0.79,0.17,1.57,0.39,2.37,0.45c2.44,0.18,4.9,0.31,7.28-0.38
			c2.3-0.67,3.65-2.89,3.29-5.29c-0.35-2.31-2.24-3.93-4.66-3.96c-2.09-0.02-4.17-0.01-6.26,0c-0.36,0-0.78-0.05-0.77,0.47
			c0.01,0.5,0.4,0.49,0.77,0.48c0.09,0,0.18,0,0.27-0.01c0.61-0.06,0.84,0.21,0.85,0.79c0.01,1.83,0.05,3.66,0.06,5.49
			c0.01,1.55-0.1,1.32,1.41,1.37c0.62,0.02,0.83-0.19,0.82-0.78c-0.03-1.96-0.01-3.92-0.01-5.88c0-1.29-0.22-1.17,1.22-1.12
			c2.06,0.07,3.47,1.14,3.81,2.9c0.08,0.42,0.07,0.86,0.07,1.29c-0.01,2.06-1.23,3.45-3.35,3.82c-2.1,0.37-4.2,0.3-6.3,0.03
			C25.55,22.69,25.1,22.66,24.65,22.62z M29.48,30.83C29.48,30.83,29.48,30.83,29.48,30.83c0.88,0,1.75,0.01,2.63-0.01
			c0.48-0.01,0.75-0.53,0.44-0.87c-0.13-0.14-0.43-0.19-0.66-0.21c-1.15-0.07-1.3-0.21-1.32-1.32c-0.02-0.97-0.02-1.94-0.02-2.91
			c-0.01-1.46,0.15-1.32-1.42-1.36c-0.68-0.02-0.85,0.25-0.85,0.84c0.02,1.16-0.01,2.33-0.03,3.49c-0.02,1.03-0.17,1.19-1.24,1.25
			c-0.39,0.02-0.65,0.09-0.65,0.54c0,0.48,0.28,0.57,0.7,0.56C27.86,30.82,28.67,30.83,29.48,30.83z"/>
		<path class="st0" d="M76.32,37.69c0.45-1.08,0.85-1.97,1.2-2.88c1.3-3.29,2.59-6.59,3.86-9.89c0.16-0.41,0.36-0.61,0.83-0.6
			c1.12,0.03,2.24-0.01,3.37,0.03c0.21,0.01,0.42,0.25,0.63,0.39c-0.21,0.14-0.41,0.38-0.62,0.4c-0.98,0.09-1.23,0.28-1.32,1.24
			c-0.04,0.4-0.05,0.81-0.05,1.21c0.02,4.03,0.02,8.07,0.07,12.1c0.02,1.37,0.14,1.43,1.53,1.67c0.15,0.03,0.27,0.26,0.4,0.4
			c-0.14,0.13-0.28,0.38-0.43,0.38c-1.84,0.03-3.68,0.03-5.52,0c-0.13,0-0.36-0.26-0.36-0.4c0-0.14,0.22-0.37,0.37-0.39
			c1.29-0.19,1.35-0.19,1.38-1.48c0.06-3.36,0.07-6.72,0.09-10.09c0-0.16-0.06-0.32-0.25-0.51c-0.1,0.18-0.22,0.35-0.3,0.54
			c-1.57,4.03-3.14,8.06-4.72,12.08c-0.09,0.24-0.36,0.48-0.6,0.57c-0.43,0.15-0.62-0.17-0.77-0.54c-1.55-3.89-3.12-7.78-4.68-11.66
			c-0.11-0.28-0.25-0.56-0.46-1.01c-0.1,0.3-0.18,0.43-0.18,0.55c0.02,3.25,0.05,6.5,0.08,9.75c0,0.22,0.02,0.45,0.05,0.67
			c0.12,0.81,0.42,1.08,1.24,1.12c0.29,0.01,0.69-0.11,0.7,0.39c0.01,0.54-0.41,0.43-0.73,0.43c-1.37,0.01-2.74,0.01-4.11,0
			c-0.31,0-0.67,0.06-0.67-0.43c0-0.45,0.34-0.39,0.63-0.4c0.83-0.04,1.11-0.23,1.2-1.04c0.11-0.93,0.18-1.88,0.18-2.82
			c0-3.61-0.02-7.22-0.06-10.83c-0.01-1.14-0.3-1.4-1.41-1.51c-0.19-0.02-0.36-0.26-0.54-0.4c0.19-0.13,0.37-0.38,0.56-0.38
			c1.14-0.04,2.29,0.01,3.43-0.03c0.62-0.02,0.66,0.45,0.81,0.81c1.17,2.89,2.32,5.78,3.48,8.67c0.45,1.12,0.91,2.24,1.37,3.36
			C76.06,37.28,76.13,37.38,76.32,37.69z"/>
		<path class="st0" d="M102.63,31.52c0.32-0.28,0.55-0.41,0.69-0.61c1.08-1.55,4.88-1.42,5.77,0.68c0.33,0.78,0.45,1.69,0.48,2.54
			c0.07,1.97,0.01,3.94,0.03,5.91c0.01,1.04,0.16,1.16,1.17,1.32c0.16,0.02,0.3,0.24,0.45,0.36c-0.15,0.15-0.29,0.42-0.45,0.43
			c-1.08,0.04-2.15,0.04-3.23,0c-0.15-0.01-0.43-0.31-0.42-0.48c0.03-1.55,0.13-3.09,0.15-4.63c0.02-1.05-0.01-2.11-0.11-3.15
			c-0.12-1.25-1.12-2.24-2.14-2.22c-1.03,0.02-2.29,1.1-2.35,2.23c-0.1,1.88-0.07,3.76-0.09,5.64c0,0.18,0.02,0.36,0.02,0.54
			c0.02,1.02,0.2,1.18,1.21,1.28c0.2,0.02,0.37,0.25,0.56,0.39c-0.18,0.14-0.36,0.4-0.54,0.41c-1.59,0.03-3.19,0.03-4.78,0
			c-0.18,0-0.36-0.26-0.54-0.41c0.18-0.13,0.36-0.37,0.55-0.39c0.95-0.09,1.16-0.24,1.17-1.18c0.03-2.49,0.04-4.98,0.02-7.46
			c0-0.93-0.15-1.04-1.06-1.06c-0.29-0.01-0.67,0.12-0.71-0.38c-0.04-0.48,0.35-0.44,0.63-0.52c0.75-0.22,1.51-0.4,2.25-0.66
			c1.06-0.38,1.18-0.32,1.19,0.82C102.57,31.04,102.6,31.17,102.63,31.52z"/>
		<path class="st0" d="M127.76,38.61c0.1-0.15,0.24-0.3,0.29-0.46c0.65-1.89,1.29-3.77,1.91-5.66c0.32-0.96,0.22-1.07-0.75-1.37
			c-0.21-0.07-0.35-0.36-0.52-0.55c0.2-0.12,0.4-0.33,0.61-0.33c1.1-0.03,2.2-0.03,3.3,0c0.21,0.01,0.41,0.22,0.61,0.34
			c-0.16,0.17-0.32,0.33-0.48,0.5c-0.32,0.35-0.77,0.66-0.93,1.08c-1.47,3.82-2.89,7.67-4.33,11.51c-0.48,1.28-0.94,2.57-1.47,3.83
			c-0.6,1.42-1.8,2.04-3.31,1.8c-0.85-0.14-1.03-0.44-0.79-1.3c0.08-0.28,0.12-0.57,0.19-0.85c0.15-0.58,0.61-0.71,1.04-0.3
			c0.82,0.79,1.22,0.79,1.73-0.25c0.57-1.16,1.06-2.38,1.42-3.61c0.14-0.47-0.11-1.09-0.28-1.61c-1.02-2.99-2.07-5.97-3.12-8.94
			c-0.23-0.65-0.44-1.35-1.32-1.42c-0.09-0.01-0.26-0.33-0.21-0.4c0.09-0.16,0.29-0.34,0.45-0.35c0.78-0.04,1.57-0.02,2.36-0.02
			c0.72,0,1.44-0.02,2.15,0.02c0.18,0.01,0.34,0.24,0.51,0.36c-0.17,0.15-0.33,0.4-0.52,0.42c-0.97,0.12-1.15,0.32-0.85,1.25
			c0.68,2.11,1.39,4.2,2.09,6.3C127.62,38.58,127.69,38.59,127.76,38.61z"/>
		<path class="st0" d="M98.04,35.87c-0.03,2.25-0.64,4.27-2.53,5.61c-2.8,1.99-7.41,1.38-8.11-3.5c-0.19-1.32-0.1-2.74,0.15-4.06
			c0.44-2.31,2.47-4.04,5.22-4.05c2.87-0.01,4.52,1.66,5.04,4C97.95,34.53,97.97,35.21,98.04,35.87z M95.5,37.08
			c0.01-2.13-0.42-3.86-1.24-4.89c-1.34-1.69-2.94-1.39-3.91,0.37c-0.81,1.46-0.7,3.04-0.45,4.6c0.2,1.29,0.57,2.55,1.56,3.5
			c0.96,0.93,1.96,0.91,2.89-0.05C95.37,39.55,95.41,38.19,95.5,37.08z"/>
		<path class="st0" d="M66.7,12.82c1.51-0.08,3.02-0.18,4.53-0.25c0.65-0.03,1.3,0,1.95,0c1.37-0.01,2.46-0.78,2.9-2.08
			c0.35-1.01,0.36-2.02,0.01-3.03c-0.64-1.87-2.85-2.64-4.81-1.69c-0.18,0.09-0.29,0.49-0.3,0.75c-0.04,1.57-0.05,3.14-0.06,4.71
			c0,0.26,0,0.53,0,0.86c-0.79,0.04-1.52,0.09-2.25,0.08c-0.09,0-0.25-0.33-0.25-0.51c-0.02-1.3-0.01-2.6-0.01-3.9
			c0-0.36,0-0.72-0.03-1.08c-0.08-1.01-0.38-1.31-1.39-1.32c-0.45,0-0.71-0.07-0.7-0.62c0.01-0.56,0.34-0.53,0.71-0.53
			c2.56,0,5.12-0.05,7.67,0.01c3.59,0.1,5.09,2.2,4.11,5.87c-0.56,2.09-2.61,3.68-5.1,3.61c-1.39-0.04-2.78,0.01-4.17-0.1
			c-0.95-0.08-1.88-0.38-2.82-0.57C66.69,12.97,66.7,12.9,66.7,12.82z"/>
		<path class="st0" d="M116.85,36.31c-0.76,0-1.53-0.03-2.29,0.02c-0.19,0.01-0.5,0.25-0.52,0.41c-0.16,1.46,0.92,3.32,2.2,3.98
			c1.05,0.54,2,0.27,2.93-0.27c0.1-0.06,0.18-0.13,0.28-0.19c0.38-0.23,0.71-0.73,1.23-0.32c0.26,0.2-0.12,1.23-0.56,1.52
			c-0.91,0.6-1.94,0.92-3.02,1.01c-3.96,0.34-5.49-2.45-5.61-5.5c-0.03-0.87,0.06-1.75,0.17-2.61c0.36-2.91,3.13-4.82,6.03-4.44
			c1.56,0.2,2.86,1.48,3.17,3.17c0.14,0.79,0.13,1.6,0.2,2.41c0.03,0.41-0.18,0.56-0.55,0.6c-0.62,0.07-1.24,0.17-1.86,0.21
			C118.06,36.33,117.45,36.31,116.85,36.31C116.85,36.31,116.85,36.31,116.85,36.31z M116.31,35.15c0.56,0,1.13,0.04,1.68-0.02
			c0.21-0.02,0.56-0.25,0.57-0.4c0.04-1.19-0.1-2.35-1.07-3.2c-0.66-0.58-1.25-0.62-1.96-0.19c-0.92,0.56-1.72,2.33-1.48,3.42
			c0.03,0.16,0.33,0.35,0.51,0.37C115.14,35.18,115.73,35.15,116.31,35.15z"/>
		<path class="st0" d="M85,16.19c-0.76,0-1.53-0.03-2.29,0.02c-0.19,0.01-0.51,0.24-0.53,0.4c-0.16,1.35,0.93,3.3,2.13,3.96
			c0.97,0.54,1.9,0.38,2.82-0.11c0.2-0.1,0.37-0.25,0.56-0.37c0.35-0.21,0.8-0.71,1.08-0.26c0.18,0.29-0.05,1.01-0.33,1.34
			c-0.32,0.38-0.88,0.61-1.38,0.78c-2.05,0.73-4.64,0.68-6.1-1.17c-0.83-1.05-1.18-2.25-1.27-3.55c-0.12-1.67-0.05-3.33,0.77-4.84
			c1.25-2.3,4.62-3.47,6.91-1.99c1.26,0.81,1.67,2.1,1.83,3.51c0.23,1.92-0.03,2.23-1.97,2.27C86.48,16.2,85.74,16.19,85,16.19
			C85,16.19,85,16.19,85,16.19z M84.4,15.05c0.58,0,1.17,0.04,1.74-0.02c0.2-0.02,0.55-0.25,0.56-0.4c0.05-1.11-0.08-2.2-0.9-3.05
			c-0.69-0.71-1.45-0.79-2.22-0.27c-0.81,0.54-1.63,2.49-1.39,3.4c0.04,0.15,0.31,0.32,0.48,0.33
			C83.24,15.07,83.82,15.05,84.4,15.05z"/>
		<path class="st0" d="M111.16,16.19c-0.74,0-1.48,0.02-2.22-0.01c-0.52-0.02-0.75,0.16-0.65,0.71c0.19,1.09,0.45,2.15,1.25,2.99
			c1.06,1.12,2.39,1.33,3.72,0.56c0.31-0.18,0.58-0.44,0.9-0.59c0.21-0.1,0.49-0.05,0.74-0.07c0.01,0.21,0.06,0.42,0.03,0.62
			c-0.14,1.12-1.13,1.33-1.94,1.61c-1.21,0.43-2.48,0.5-3.76,0.17c-1.28-0.32-2.17-1.12-2.69-2.25c-1.17-2.5-1.16-5.09,0.04-7.54
			c1.15-2.34,4.61-3.51,6.95-1.97c0.87,0.57,1.38,1.42,1.57,2.42c0.15,0.79,0.17,1.6,0.26,2.4c0.06,0.5-0.19,0.69-0.65,0.72
			c-1.18,0.09-2.36,0.19-3.54,0.28C111.17,16.24,111.17,16.22,111.16,16.19z M110.54,15.05c0.58,0,1.17,0.03,1.74-0.02
			c0.19-0.02,0.48-0.2,0.53-0.37c0.29-0.87-0.41-2.8-1.18-3.32c-0.56-0.38-1.13-0.57-1.8-0.14c-0.88,0.57-1.76,2.37-1.54,3.45
			c0.03,0.16,0.32,0.36,0.5,0.37C109.37,15.08,109.96,15.05,110.54,15.05z"/>
		<path class="st0" d="M102.44,16.49c0,1.21-0.03,2.42,0.01,3.63c0.02,0.87,0.3,1.1,1.16,1.12c0.13,0,0.29-0.04,0.4,0.01
			c0.18,0.1,0.33,0.26,0.49,0.4c-0.16,0.14-0.3,0.39-0.47,0.4c-0.67,0.05-1.34,0.02-2.02,0.02c-1.05,0-2.11,0-3.16,0
			c-0.28,0-0.61,0.07-0.63-0.39c-0.02-0.44,0.28-0.43,0.58-0.44c0.94-0.04,1.15-0.21,1.18-1.16c0.07-2.44,0.08-4.88,0.13-7.32
			c0.01-0.56-0.34-0.57-0.75-0.61c-0.27-0.02-0.53-0.18-0.79-0.27c0.19-0.22,0.33-0.55,0.57-0.64c0.81-0.31,1.06-0.84,0.97-1.67
			c-0.29-2.55,1.21-4.24,2.89-5.83c0.68-0.64,1.51-0.44,2.3-0.4c0.13,0.01,0.31,0.35,0.34,0.55c0.06,0.35,0.03,0.71,0,1.07
			c-0.02,0.23-0.06,0.62-0.16,0.65c-0.25,0.06-0.58,0.01-0.81-0.11c-0.94-0.5-1.34-0.53-1.76,0.06c-0.19,0.26-0.34,0.6-0.37,0.92
			c-0.1,1.23-0.14,2.46-0.2,3.69c-0.02,0.4,0.19,0.56,0.58,0.56c0.58-0.01,1.17,0.01,1.75,0c0.38-0.01,0.55,0.18,0.48,0.54
			c-0.07,0.35,0.17,0.89-0.5,0.91c-0.54,0.01-1.08,0.02-1.61,0c-0.52-0.02-0.72,0.17-0.71,0.71c0.03,1.21,0.01,2.42,0.01,3.63
			C102.37,16.49,102.4,16.49,102.44,16.49z"/>
		<path class="st0" d="M127.36,16.22c0-1.1-0.02-2.2,0.01-3.29c0.02-0.59-0.22-0.83-0.79-0.77c-0.16,0.02-0.32,0.03-0.47-0.01
			c-0.15-0.05-0.36-0.15-0.39-0.27c-0.03-0.14,0.09-0.32,0.16-0.48c0.02-0.05,0.11-0.07,0.17-0.09c1.49-0.55,1.31-0.58,1.29-2.29
			c0-0.18-0.04-0.36-0.05-0.54c-0.09-1.77-0.09-1.77,1.49-2.59c0.61-0.32,1-0.08,0.98,0.62c-0.03,1.16-0.02,2.33-0.1,3.49
			c-0.04,0.61,0.21,0.74,0.74,0.72c0.51-0.03,1.03-0.01,1.55,0c0.29,0,0.67-0.04,0.58,0.41c-0.08,0.4,0.17,1.04-0.62,1.03
			c-0.56,0-1.12,0.01-1.68,0c-0.42-0.01-0.6,0.17-0.59,0.61c0.03,2.08,0.03,4.17,0.08,6.25c0.01,0.32,0.1,0.68,0.25,0.96
			c0.35,0.65,0.73,0.68,1.37,0.3c0.24-0.14,0.59-0.11,0.88-0.15c-0.02,0.32,0.06,0.72-0.09,0.96c-0.86,1.36-2.34,1.73-3.78,0.97
			c-0.61-0.32-0.91-0.9-0.93-1.54c-0.04-1.43-0.01-2.86-0.01-4.29C127.39,16.22,127.38,16.22,127.36,16.22z"/>
		<path class="st0" d="M116.11,16.21c0.2-0.96,0.3-1.95,0.63-2.86c0.91-2.5,4.56-4.41,7.66-3.23c0.43,0.16,0.7,0.37,0.58,0.95
			c-0.15,0.72-0.16,1.47-0.19,2.21c-0.02,0.42-0.28,0.5-0.59,0.43c-0.21-0.05-0.52-0.22-0.55-0.38c-0.26-1.39-0.58-1.75-1.89-2.03
			c-0.91-0.19-1.94,0.24-2.48,1.12c-0.24,0.39-0.46,0.84-0.54,1.29c-0.41,2.24-0.24,4.4,1.35,6.2c1,1.14,2.1,1.29,3.46,0.62
			c0.04-0.02,0.08-0.05,0.12-0.07c0.42-0.21,0.97-0.55,1.22,0c0.12,0.27-0.26,0.97-0.6,1.19c-3.26,2.15-7.45,0.16-7.95-3.73
			c-0.07-0.55-0.09-1.12-0.13-1.67C116.18,16.23,116.14,16.22,116.11,16.21z"/>
		<path class="st0" d="M94.1,11.52c0.26-0.33,0.52-0.66,0.78-0.98c0.7-0.84,1.65-0.84,2.59-0.68c0.19,0.03,0.43,0.49,0.43,0.75
			c0,0.76-0.09,1.52-0.18,2.28c-0.02,0.17-0.15,0.46-0.25,0.47c-0.27,0.02-0.54-0.08-0.81-0.14c-0.03-0.01-0.04-0.08-0.07-0.11
			c-0.33-0.3-0.79-0.9-0.97-0.83c-0.49,0.2-1.08,0.61-1.25,1.08c-0.31,0.84-0.42,1.78-0.46,2.69c-0.06,1.3,0.01,2.6,0.05,3.9
			c0.03,0.97,0.36,1.26,1.33,1.3c0.09,0,0.2-0.03,0.26,0.01c0.16,0.11,0.3,0.25,0.45,0.37c-0.15,0.15-0.3,0.42-0.46,0.42
			c-1.82,0.03-3.64,0.03-5.45,0c-0.14,0-0.39-0.23-0.4-0.37c-0.01-0.14,0.2-0.39,0.35-0.42c1.48-0.38,1.51-0.37,1.53-1.87
			c0.02-2.22,0.02-4.44-0.02-6.66c-0.02-1.01-0.22-1.13-1.21-1.19c-0.23-0.01-0.59-0.17-0.65-0.34c-0.15-0.43,0.25-0.47,0.56-0.55
			c0.86-0.24,1.72-0.46,2.56-0.74c0.81-0.27,1.04-0.12,1.04,0.74c0,0.28,0.03,0.55,0.05,0.83C93.97,11.49,94.04,11.5,94.1,11.52z"/>
		<path class="st0" d="M68.44,14.03c0.73,0.05,1.32,0.12,1.92,0.12c0.45,0,0.57,0.17,0.57,0.6c0,1.59,0.02,3.18,0.06,4.77
			c0.03,1.11,0.3,1.37,1.42,1.39c0.4,0.01,0.68,0.04,0.68,0.57c0,0.51-0.24,0.59-0.66,0.59c-1.84-0.01-3.68-0.01-5.52,0
			c-0.39,0-0.63-0.07-0.63-0.55c0-0.49,0.19-0.61,0.64-0.61c1.28-0.01,1.42-0.15,1.44-1.43c0.03-1.59,0.03-3.18,0.04-4.77
			C68.41,14.47,68.43,14.24,68.44,14.03z"/>
	</g>
</g>
</svg>
