<?xml version="1.0" encoding="utf-8"?>
<!-- Generator: Adobe Illustrator 27.2.0, SVG Export Plug-In . SVG Version: 6.00 Build 0)  -->
<svg version="1.1" id="Layer_1" xmlns="http://www.w3.org/2000/svg" xmlns:xlink="http://www.w3.org/1999/xlink" x="0px" y="0px"
	 viewBox="0 0 150 50" style="enable-background:new 0 0 150 50;" xml:space="preserve">
<style type="text/css">
	.st0{fill:#26A17B;}
	.st1{fill:#FFFFFF;}
	.st2{fill:#FEFFFF;}
	.st3{fill:#DEF1EB;}
	.st4{fill:#27A17B;}
</style>
<g>
	<path class="st0" d="M2.58,24.03c0.11-4.77,2.16-9.58,6.3-13.43c3.87-3.6,8.51-5.34,13.78-5.22c5.48,0.12,10.14,2.21,13.89,6.21
		c3.78,4.03,5.53,8.87,5.27,14.37c-0.26,5.42-2.45,10.01-6.49,13.64c-4.05,3.64-8.87,5.32-14.29,5
		C10.72,43.98,2.55,35.44,2.58,24.03z M19.55,36.94c1.59,0,3.18,0,4.79,0c0-3.13,0-6.23,0-9.33c0.07-0.01,0.11-0.02,0.16-0.03
		c1.01-0.08,2.02-0.14,3.03-0.25c1.39-0.15,2.77-0.37,4.1-0.82c0.58-0.19,1.14-0.45,1.66-0.76c0.7-0.42,0.67-1.11,0.01-1.54
		c-0.26-0.17-0.54-0.35-0.83-0.45c-0.83-0.27-1.67-0.53-2.53-0.73c-0.64-0.15-1.31-0.22-1.96-0.31c-0.64-0.09-1.28-0.16-1.93-0.22
		c-0.56-0.05-1.13-0.08-1.7-0.11c0-0.99,0-1.95,0-2.94c2.22,0,4.43,0,6.64,0c0-1.49,0-2.95,0-4.42c-6.06,0-12.1,0-18.16,0
		c0,1.48,0,2.94,0,4.43c2.23,0,4.44,0,6.65,0c0,0.99,0,1.94,0,2.9c-0.95,0.09-1.88,0.19-2.82,0.26c-1.52,0.12-3.02,0.39-4.48,0.83
		c-0.64,0.19-1.28,0.42-1.8,0.86c-0.52,0.43-0.53,0.94,0.01,1.35c0.32,0.24,0.68,0.44,1.05,0.59c1.36,0.57,2.81,0.82,4.25,1.02
		c1.2,0.17,2.43,0.21,3.64,0.32c0.05,0,0.11,0.02,0.17,0.04c0,0.12,0,0.22,0,0.32c0,1.65,0,3.3,0,4.95c0,1.33,0.01,2.67,0.01,4
		C19.52,36.91,19.53,36.93,19.55,36.94z"/>
	<path class="st1" d="M100.36,13.82c0,2.83,0.01,5.66,0.01,8.49c0,0.19,0,0.38,0,0.62c0.07-0.07,0.12-0.1,0.16-0.15
		c0.99-1.21,2.24-1.98,3.79-2.19c1.75-0.24,3.45-0.09,5,0.85c1.42,0.87,2.22,2.2,2.62,3.78c0.19,0.75,0.33,1.54,0.34,2.31
		c0.06,3.24,0.05,6.48,0.07,9.72c0,0.02-0.01,0.03-0.03,0.07c-1.34,0-2.69,0-4.07,0c0-0.12,0-0.23,0-0.34
		c0-2.75,0.01-5.51-0.01-8.26c0-0.6-0.07-1.21-0.21-1.78c-0.4-1.63-1.6-2.56-3.28-2.62c-2.03-0.08-3.65,1.13-4.21,3.13
		c-0.14,0.49-0.18,0.99-0.18,1.49c0,2.69,0,5.37,0,8.06c0,0.1,0,0.21,0,0.33c-1.38,0-2.73,0-4.1,0c0-7.85,0-15.69,0-23.55
		c1.36,0,2.7,0,4.05,0C100.33,13.78,100.35,13.8,100.36,13.82z"/>
	<path class="st1" d="M78.48,32.5c0.85,0.87,1.69,1.74,2.55,2.62c-1.05,1.06-2.38,1.74-3.84,2.17c-1.36,0.41-2.76,0.56-4.17,0.45
		c-2.08-0.16-4-0.77-5.58-2.21c-1.26-1.15-2.01-2.59-2.39-4.24c-0.21-0.9-0.33-1.82-0.28-2.75c0.2-3.62,2.04-6.94,6.29-8.03
		c1.16-0.3,2.35-0.38,3.55-0.27c1.46,0.13,2.86,0.48,4.11,1.3c1.67,1.1,2.63,2.68,3.06,4.59c0.32,1.39,0.38,2.8,0.25,4.22
		c0,0.04-0.02,0.07-0.03,0.14c-4.31,0-8.61,0-12.95,0c0.16,1.14,0.71,2,1.63,2.63c0.64,0.44,1.35,0.69,2.11,0.8
		c1.73,0.26,3.37-0.03,4.9-0.88C77.97,32.91,78.2,32.7,78.48,32.5z M78.09,27.07c-0.02-0.07-0.05-0.12-0.05-0.16
		c-0.18-1.35-0.96-2.22-2.2-2.71c-0.95-0.38-1.94-0.36-2.94-0.26c-0.98,0.1-1.83,0.47-2.56,1.12c-0.6,0.54-0.99,1.21-1.2,2.01
		C72.13,27.07,75.09,27.07,78.09,27.07z"/>
	<path class="st1" d="M130.46,35.14c-0.62,0.65-1.41,1.17-2.29,1.58c-1.15,0.54-2.37,0.88-3.64,0.98c-0.68,0.05-1.36,0.11-2.03,0.05
		c-3.11-0.26-5.69-1.45-7.24-4.34c-0.53-0.99-0.84-2.06-0.93-3.17c-0.06-0.74-0.13-1.5-0.06-2.23c0.3-3.13,1.98-6.36,6.16-7.46
		c1.18-0.31,2.39-0.39,3.61-0.29c1.72,0.15,3.33,0.6,4.7,1.71c1.42,1.15,2.2,2.68,2.56,4.44c0.21,1.02,0.27,2.06,0.23,3.1
		c-0.01,0.32-0.05,0.64-0.08,0.99c-4.31,0-8.62,0-12.95,0c0.1,0.82,0.42,1.5,0.96,2.07c0.6,0.64,1.35,1.04,2.2,1.24
		c1.94,0.47,3.78,0.18,5.52-0.77c0.13-0.07,0.26-0.17,0.38-0.26c0.11-0.08,0.22-0.18,0.34-0.28
		C128.76,33.38,129.61,34.25,130.46,35.14z M127.53,27.08c-0.12-0.89-0.45-1.64-1.11-2.2c-0.66-0.57-1.43-0.85-2.3-0.94
		c-1.08-0.11-2.14-0.09-3.15,0.36c-1.23,0.54-2.02,1.47-2.4,2.79C121.56,27.08,124.52,27.08,127.53,27.08z"/>
	<path class="st1" d="M82.24,24.23c0-1.15,0-2.3,0-3.47c1.03,0,2.05,0,3.09,0c0-1.44,0-2.85,0-4.27c1.37-0.15,2.72-0.29,4.1-0.44
		c0,1.57,0,3.13,0,4.71c1.55,0,3.06,0,4.59,0c0,1.18,0,2.33,0,3.48c-0.02,0.02-0.03,0.03-0.05,0.05c-1.51,0-3.01,0-4.56,0
		c0,0.12,0,0.22,0,0.32c0,2.24-0.01,4.49,0.01,6.73c0,0.35,0.04,0.71,0.12,1.05c0.25,1.1,1.45,1.61,2.36,1.42
		c0.28-0.06,0.57-0.1,0.84-0.17c0.27-0.07,0.52-0.18,0.82-0.29c0.38,1.15,0.75,2.3,1.14,3.47c-0.76,0.32-1.52,0.53-2.31,0.63
		c-1.19,0.16-2.37,0.16-3.52-0.22c-1.8-0.59-2.86-1.87-3.28-3.68c-0.15-0.62-0.22-1.27-0.23-1.91c-0.03-2.33-0.01-4.66-0.01-6.99
		c0-0.1,0-0.21,0-0.36c-1.03,0-2.04,0-3.05,0C82.27,24.27,82.26,24.25,82.24,24.23z"/>
	<path class="st1" d="M58.61,20.94c1.5,0,2.99,0,4.51,0c0,1.19,0,2.35,0,3.53c-1.52,0-3.04,0-4.59,0c-0.01,0.12-0.01,0.22-0.01,0.32
		c0,2.18,0,4.35,0,6.53c0,0.35,0.02,0.71,0.08,1.06c0.2,1.02,0.92,1.6,1.96,1.64c0.62,0.02,1.21-0.14,1.78-0.36
		c0.1-0.04,0.19-0.08,0.32-0.13c0.38,1.17,0.76,2.32,1.16,3.54c-0.65,0.18-1.27,0.39-1.9,0.5c-0.66,0.12-1.34,0.22-2.01,0.19
		c-1.83-0.08-3.46-0.65-4.51-2.29c-0.49-0.76-0.76-1.61-0.87-2.5c-0.06-0.48-0.08-0.97-0.08-1.45c-0.01-2.22,0-4.45,0-6.67
		c0-0.1,0-0.21,0-0.34c-1.03,0-2.05,0-3.08,0c0-1.19,0-2.35,0-3.54c1.01,0,2.03,0,3.07,0c0-1.44,0-2.85,0-4.28
		c1.38-0.15,2.73-0.29,4.12-0.44c0,1.55,0,3.11,0,4.66C58.58,20.91,58.59,20.92,58.61,20.94z"/>
	<path class="st1" d="M137.92,37.31c-1.4,0-2.74,0-4.1,0c0-5.52,0-11.03,0-16.57c1.25,0,2.5,0,3.79,0c0.1,0.59,0.19,1.2,0.3,1.87
		c0.07-0.09,0.12-0.14,0.16-0.2c0.96-1.41,2.31-2.06,4-2.09c1.17-0.02,2.32,0.07,3.38,0.6c0.5,0.25,0.96,0.58,1.46,0.88
		c-0.65,1.24-1.26,2.42-1.88,3.63c-0.16-0.12-0.31-0.23-0.45-0.33c-0.64-0.44-1.33-0.69-2.12-0.7c-0.62-0.01-1.23-0.02-1.83,0.15
		c-1.39,0.4-2.25,1.31-2.56,2.72c-0.11,0.48-0.14,0.98-0.14,1.47c-0.01,2.71-0.01,5.43-0.01,8.14
		C137.92,37.02,137.92,37.15,137.92,37.31z"/>
	<path class="st1" d="M100.36,13.82c-0.01-0.02-0.03-0.04-0.04-0.05C100.33,13.78,100.35,13.8,100.36,13.82z"/>
	<path class="st1" d="M58.61,20.94c-0.02-0.02-0.03-0.03-0.05-0.05C58.58,20.91,58.59,20.92,58.61,20.94z"/>
	<path class="st1" d="M82.24,24.23c0.02,0.02,0.03,0.03,0.05,0.05C82.27,24.27,82.26,24.25,82.24,24.23z"/>
	<path class="st1" d="M93.98,24.28c0.02-0.02,0.03-0.03,0.05-0.05C94.01,24.25,94,24.27,93.98,24.28z"/>
	<path class="st2" d="M19.5,36.9c0-1.33-0.01-2.67-0.01-4c0-1.65,0-3.3,0-4.95c0-0.1,0-0.21,0-0.32c-0.07-0.02-0.12-0.03-0.17-0.04
		c-1.21-0.1-2.43-0.15-3.64-0.32c-1.45-0.2-2.89-0.45-4.25-1.02c-0.37-0.15-0.73-0.35-1.05-0.59c-0.54-0.41-0.52-0.91-0.01-1.35
		c0.53-0.44,1.16-0.67,1.8-0.86c1.46-0.44,2.96-0.71,4.48-0.83c0.94-0.07,1.87-0.17,2.82-0.26c0-0.96,0-1.91,0-2.9
		c-2.21,0-4.42,0-6.65,0c0-1.49,0-2.95,0-4.43c6.06,0,12.1,0,18.16,0c0,1.47,0,2.93,0,4.42c-2.21,0-4.42,0-6.64,0
		c0,0.99,0,1.95,0,2.94c0.57,0.04,1.14,0.06,1.7,0.11c0.64,0.06,1.29,0.13,1.93,0.22c0.66,0.09,1.32,0.16,1.96,0.31
		c0.85,0.2,1.69,0.46,2.53,0.73c0.29,0.1,0.57,0.28,0.83,0.45c0.66,0.43,0.69,1.12-0.01,1.54c-0.52,0.31-1.09,0.57-1.66,0.76
		c-1.33,0.44-2.71,0.67-4.1,0.82c-1.01,0.11-2.02,0.17-3.03,0.25c-0.05,0-0.09,0.01-0.16,0.03c0,3.1,0,6.2,0,9.33
		c-1.61,0-3.2,0-4.79,0C19.53,36.93,19.52,36.91,19.5,36.9z M24.32,25.96c-0.15,0.02-0.27,0.06-0.4,0.06c-1.39,0-2.78,0-4.18,0.01
		c-0.2,0-0.27-0.06-0.26-0.26c0.01-0.88,0-1.77,0-2.65c0-0.12,0-0.24,0-0.41c-0.83,0.07-1.63,0.12-2.42,0.22
		c-1.17,0.15-2.35,0.29-3.51,0.53c-0.68,0.14-1.36,0.41-1.99,0.72c-0.64,0.32-0.62,0.83,0,1.19c0.34,0.2,0.72,0.36,1.1,0.48
		c1.12,0.36,2.28,0.57,3.44,0.69c1.06,0.11,2.13,0.26,3.2,0.28c2.41,0.04,4.82,0.1,7.23-0.16c1.4-0.15,2.8-0.31,4.15-0.7
		c0.53-0.15,1.06-0.36,1.53-0.63c0.59-0.33,0.58-0.79-0.01-1.14c-0.31-0.19-0.67-0.34-1.02-0.46c-1.24-0.44-2.54-0.57-3.83-0.75
		c-0.56-0.08-1.14-0.12-1.7-0.17c-0.45-0.03-0.9-0.05-1.37-0.07C24.32,23.82,24.32,24.87,24.32,25.96z"/>
	<path class="st3" d="M19.5,36.9c0.02,0.02,0.03,0.03,0.05,0.05C19.53,36.93,19.52,36.91,19.5,36.9z"/>
	<path class="st4" d="M24.32,25.96c0-1.08,0-2.13,0-3.22c0.47,0.02,0.92,0.03,1.37,0.07c0.57,0.04,1.14,0.09,1.7,0.17
		c1.29,0.18,2.59,0.32,3.83,0.75c0.35,0.12,0.7,0.27,1.02,0.46c0.58,0.36,0.6,0.81,0.01,1.14c-0.48,0.27-1.01,0.47-1.53,0.63
		c-1.35,0.4-2.75,0.55-4.15,0.7c-2.41,0.26-4.82,0.2-7.23,0.16c-1.07-0.02-2.13-0.17-3.2-0.28c-1.17-0.12-2.32-0.33-3.44-0.69
		c-0.38-0.12-0.76-0.28-1.1-0.48c-0.62-0.36-0.64-0.87,0-1.19c0.63-0.31,1.3-0.58,1.99-0.72c1.16-0.24,2.34-0.38,3.51-0.53
		c0.79-0.1,1.59-0.15,2.42-0.22c0,0.17,0,0.29,0,0.41c0,0.88,0,1.77,0,2.65c0,0.2,0.06,0.27,0.26,0.26c1.39-0.01,2.78,0,4.18-0.01
		C24.05,26.01,24.17,25.98,24.32,25.96z"/>
</g>
</svg>
