<?xml version="1.0" encoding="UTF-8"?>
<svg version="1.1" xmlns="http://www.w3.org/2000/svg" width="336" height="185">
<path d="M0 0 C10.89 0 21.78 0 33 0 C34.43472656 4.11082031 35.86945312 8.22164062 37.34765625 12.45703125 C38.51294795 15.79289441 39.6785655 19.12864332 40.8443985 22.46431732 C42.0636862 25.95321559 43.28243678 29.44229908 44.49975586 32.93188477 C52.26011192 57.38790789 52.26011192 57.38790789 62 81 C62.18855057 80.45496323 62.37710114 79.90992645 62.57136536 79.34837341 C78.58944224 33.05175969 78.58944224 33.05175969 84.80136108 15.47732544 C85.26622257 14.16164946 85.73011413 12.84563037 86.19302368 11.52926636 C86.823658 9.73722319 87.45856436 7.94668502 88.09375 6.15625 C88.44115234 5.17462891 88.78855469 4.19300781 89.14648438 3.18164062 C90 1 90 1 91 0 C101.89 0 112.78 0 124 0 C124 38.61 124 77.22 124 117 C115.42 117 106.84 117 98 117 C97.66251752 90.28263696 98.70767437 63.68343098 100 37 C99.79892136 37.55978546 99.59784271 38.11957092 99.39067078 38.69631958 C90.00379833 64.82584961 80.61408003 90.9530431 71 117 C65.06 117 59.12 117 53 117 C49.40276516 109.26557599 46.50579965 101.32525142 43.6484375 93.296875 C43.14360585 91.88670379 42.63844239 90.47665133 42.13296509 89.06671143 C40.8123464 85.38069243 39.49565765 81.69328276 38.17999268 78.00549316 C36.06876323 72.09008086 33.95119574 66.17693362 31.83418655 60.26358795 C31.09859668 58.20726344 30.3645108 56.1504072 29.63070679 54.09344482 C29.17879371 52.82889034 28.72685999 51.56434324 28.27490234 50.29980469 C27.68677261 48.65174835 27.68677261 48.65174835 27.08676147 46.97039795 C26.10658147 44.29131451 25.07594807 41.64185079 24 39 C23.88439578 45.69219987 23.9972398 52.33231854 24.35791016 59.01318359 C25.38396651 78.32490405 25.08111276 97.66812457 25 117 C16.75 117 8.5 117 0 117 C0 78.39 0 39.78 0 0 Z " fill="#FFFFFF" transform="translate(10,23)"/>
<path d="M0 0 C22.11 0 44.22 0 67 0 C67 6.27 67 12.54 67 19 C51.82 19.33 36.64 19.66 21 20 C20.34 27.26 19.68 34.52 19 42 C20.98 41.34 22.96 40.68 25 40 C37.43290664 38.46841005 49.10420296 39.25815114 59.25 47 C68.28991232 55.54582805 70.95999796 67.48063097 71.3125 79.4375 C71.09775863 90.85905645 67.57788492 101.19942918 59.875 109.75 C50.35669408 118.76513556 38.60068964 119.44837084 26.265625 119.27734375 C20.23172424 119.06366967 15.30895062 117.92219162 10 115 C8.79150391 114.34644531 8.79150391 114.34644531 7.55859375 113.6796875 C-0.96016879 108.54316841 -5.01294953 101.92344886 -8.3359375 92.7109375 C-9 90 -9 90 -9 84 C-1.08 84 6.84 84 15 84 C15.99 86.64 16.98 89.28 18 92 C21.90488024 96.54675142 21.90488024 96.54675142 27.390625 98.23828125 C31.98059778 98.35741989 35.25780565 98.33133676 39.5 96.4375 C44.86736153 91.2043225 45.6318346 85.31613804 46.05859375 78.0703125 C45.95604999 72.69701943 45.14175711 67.47213453 41.53125 63.3046875 C35.44663919 58.08504587 29.72694181 58.45545246 22 59 C18.43891533 60.32786208 16.64486434 61.35513566 14 64 C7.14447149 63.61913731 0.6184878 61.73689246 -6 60 C-5.3750819 46.92770952 -3.95910092 33.99418962 -2.4375 21 C-1.2309375 10.605 -1.2309375 10.605 0 0 Z " fill="#FFFFFF" transform="translate(259,23)"/>
<path d="M0 0 C31.68 0 63.36 0 96 0 C96 6.27 96 12.54 96 19 C84.12 19 72.24 19 60 19 C60 51.34 60 83.68 60 117 C51.75 117 43.5 117 35 117 C35 84.66 35 52.32 35 19 C23.45 19 11.9 19 0 19 C0 12.73 0 6.46 0 0 Z " fill="#FFFFFF" transform="translate(144,23)"/>
</svg>
