<?xml version="1.0" encoding="UTF-8"?>
<svg version="1.1" xmlns="http://www.w3.org/2000/svg" width="344" height="336">
<path d="M0 0 C0.74385956 0.00214508 1.48771912 0.00429016 2.25411987 0.00650024 C11.80602227 0.09330151 21.33178938 0.69972889 30.86132812 1.3203125 C34.03723243 1.52533674 37.2137953 1.7161666 40.390625 1.90625 C42.43234569 2.0356085 44.47401464 2.16578672 46.515625 2.296875 C47.92353806 2.37982315 47.92353806 2.37982315 49.3598938 2.46444702 C62.22460553 3.33477363 62.22460553 3.33477363 65.8828125 7.3359375 C68.49541549 14.68388341 63.98242733 23.21956751 61.55078125 30.16015625 C61.11776199 31.40593948 60.68474274 32.65172272 60.23860168 33.93525696 C59.32430191 36.5617097 58.40486914 39.18629869 57.48217773 41.80981445 C56.30313675 45.16461359 55.14074132 48.52491963 53.98255444 51.88696575 C52.86997812 55.10672721 51.74064566 58.32054301 50.61328125 61.53515625 C50.19958786 62.73935715 49.78589447 63.94355804 49.35966492 65.18424988 C48.96277969 66.30253677 48.56589447 67.42082367 48.15698242 68.57299805 C47.81358322 69.55560104 47.47018402 70.53820404 47.11637878 71.55058289 C45.74828864 74.43174083 44.31984062 76.10693987 41.8828125 78.1484375 C38.61892261 79.19010448 36.78805592 79.51176649 33.5859375 78.2265625 C29.58047005 75.14721469 27.26230442 71.19027596 24.5703125 66.9609375 C24.02052734 66.11595703 23.47074219 65.27097656 22.90429688 64.40039062 C21.55416922 62.32236805 20.21418571 60.23850584 18.8828125 58.1484375 C7.99060228 64.89959638 -2.56861962 72.15553613 -13.1796875 79.3359375 C-16.89921633 81.85103517 -20.61932524 84.36527285 -24.33984375 86.87890625 C-25.70961365 87.80443298 -25.70961365 87.80443298 -27.10705566 88.74865723 C-34.34666441 93.63661391 -41.6090352 98.48961671 -48.8815918 103.32836914 C-53.02560052 106.08560586 -57.16174546 108.85447236 -61.296875 111.625 C-63.22199489 112.91318213 -65.14733063 114.20104092 -67.07275391 115.48876953 C-68.3779629 116.36233983 -69.68263078 117.23671903 -70.98681641 118.11181641 C-72.92206521 119.41003989 -74.85926682 120.70530145 -76.796875 122 C-77.66552689 122.58426254 -77.66552689 122.58426254 -78.55172729 123.18032837 C-86.43273275 128.43506388 -86.43273275 128.43506388 -91.3671875 128.5859375 C-92.07359375 128.62589844 -92.78 128.66585937 -93.5078125 128.70703125 C-100.85554296 127.13408895 -105.26835081 122.22168567 -109.31681824 116.20547485 C-109.89418228 115.31266815 -110.47154633 114.41986145 -111.06640625 113.5 C-111.99716728 112.10386978 -111.99716728 112.10386978 -112.94673157 110.67953491 C-114.91468291 107.72064319 -116.86004248 104.7476856 -118.8046875 101.7734375 C-120.12153714 99.7828546 -121.43988294 97.7932606 -122.75976562 95.8046875 C-124.62337633 92.99636124 -126.48477273 90.18685361 -128.33439636 87.36929321 C-131.49787866 82.55205164 -134.73185581 77.81270742 -138.1171875 73.1484375 C-138.61364777 73.48867447 -139.11010803 73.82891144 -139.62161255 74.17945862 C-153.53542221 83.71191804 -167.50976334 93.15454627 -181.4921875 102.5859375 C-182.4310379 103.21921967 -183.36988831 103.85250183 -184.33718872 104.50497437 C-196.25090492 112.53915006 -208.17321812 120.55966805 -220.15380859 128.49389648 C-223.83131731 130.93320462 -227.4753102 133.38890538 -231.0390625 135.9921875 C-236.48787978 139.8091255 -241.65907523 139.67001779 -248.1171875 139.1484375 C-252.8516191 137.23451834 -255.84403143 133.69474964 -258.1171875 129.1484375 C-258.61521803 124.15180332 -258.73121042 119.63963603 -256.8046875 114.9609375 C-250.07980032 107.92326487 -241.21840979 102.79887221 -233.1171875 97.4609375 C-220.18939785 88.89343342 -207.33600294 80.2167446 -194.484375 71.53555298 C-183.68150853 64.23834023 -172.86363954 56.96529333 -162.01074219 49.74267578 C-158.84289363 47.63391662 -155.68245142 45.51451175 -152.52734375 43.38671875 C-151.78677734 42.88849609 -151.04621094 42.39027344 -150.28320312 41.87695312 C-148.82063048 40.89239865 -147.35981877 39.90522528 -145.90039062 38.91601562 C-145.17916016 38.43197266 -144.45792969 37.94792969 -143.71484375 37.44921875 C-143.09101807 37.02809814 -142.46719238 36.60697754 -141.82446289 36.1730957 C-138.89164878 34.41290396 -136.21998983 33.94730681 -132.8671875 33.8359375 C-132.14015625 33.79855469 -131.413125 33.76117188 -130.6640625 33.72265625 C-124.76465549 34.70890681 -121.14990108 37.71831185 -117.73974609 42.42285156 C-116.56641248 44.15968788 -115.40915442 45.90745992 -114.265625 47.6640625 C-113.6437027 48.59385925 -113.0217804 49.52365601 -112.38101196 50.48162842 C-110.40396395 53.44479452 -108.44805431 56.42125926 -106.4921875 59.3984375 C-105.17061394 61.38500874 -103.84771004 63.37069566 -102.5234375 65.35546875 C-97.28567919 73.22474389 -92.09464848 81.11141492 -87.1171875 89.1484375 C-80.69607503 85.13170635 -74.35699968 81.00251324 -68.05859375 76.796875 C-67.28347946 76.27968903 -66.50836517 75.76250305 -65.70976257 75.22964478 C-55.92684548 68.69492041 -46.17907893 62.1080199 -36.4296875 55.5234375 C-24.34805987 47.36430672 -12.26035735 39.21578301 -0.1171875 31.1484375 C-2.03832653 26.07102555 -4.85621446 21.844843 -7.92773438 17.40820312 C-10.41319822 13.68610914 -11.88088817 10.7431467 -12.1171875 6.1484375 C-9.22814082 -0.04237682 -6.33499348 -0.0288405 0 0 Z " fill="#FFFFFF" transform="translate(277.1171875,196.8515625)"/>
<path d="M0 0 C2.17578125 1.44140625 2.17578125 1.44140625 4 4 C4.49240831 7.26319705 4.3763704 10.45950928 4.25 13.75 C4.23195312 14.63816406 4.21390625 15.52632812 4.1953125 16.44140625 C4.14827374 18.62870848 4.08257009 20.81379816 4 23 C5.16917969 22.94199219 6.33835938 22.88398437 7.54296875 22.82421875 C9.0911058 22.77730551 10.63928617 22.73180702 12.1875 22.6875 C12.95642578 22.64560547 13.72535156 22.60371094 14.51757812 22.56054688 C15.26845703 22.54443359 16.01933594 22.52832031 16.79296875 22.51171875 C17.4789917 22.48553467 18.16501465 22.45935059 18.87182617 22.43237305 C22.39434425 23.37189978 23.76726334 25.15390571 26 28 C26.73681754 31.22111655 26.68363024 34.37480437 26.64697266 37.66796875 C26.65573425 38.63602448 26.66449585 39.6040802 26.67352295 40.60147095 C26.69550624 43.79727165 26.68096736 46.99168555 26.6640625 50.1875 C26.66743092 52.41040309 26.67228376 54.63330439 26.67855835 56.85620117 C26.68592826 61.5133621 26.67521983 66.1700433 26.65185547 70.82714844 C26.62336824 76.79624109 26.63977148 82.7642097 26.66971779 88.73326111 C26.68778718 93.3229621 26.68203424 97.91239669 26.66907883 102.50210571 C26.66574386 104.70293308 26.66983505 106.90378464 26.68147659 109.10458374 C26.69417885 112.18105109 26.67481566 115.25569938 26.64697266 118.33203125 C26.65709381 119.2412735 26.66721497 120.15051575 26.67764282 121.08731079 C26.6022543 125.58450528 26.45422332 127.42099647 23.59257507 131.06877136 C20.96522507 133.02590411 19.98902886 133.61026828 16.79296875 133.48828125 C16.04208984 133.47216797 15.29121094 133.45605469 14.51757812 133.43945312 C13.36418945 133.37661133 13.36418945 133.37661133 12.1875 133.3125 C11.00510742 133.27866211 11.00510742 133.27866211 9.79882812 133.24414062 C7.86506071 133.18554161 5.93227833 133.09586827 4 133 C4.02094727 133.55461914 4.04189453 134.10923828 4.06347656 134.68066406 C4.14683548 137.20359023 4.19871868 139.72622649 4.25 142.25 C4.28351562 143.12269531 4.31703125 143.99539062 4.3515625 144.89453125 C4.45031936 151.3631058 4.45031936 151.3631058 2.19921875 154.546875 C-0.94435096 156.62397612 -3.24487341 157 -7 157 C-9.80189446 155.23358828 -11.51524911 153.96950178 -13 151 C-13.08308638 149.62451844 -13.10736016 148.24514204 -13.09765625 146.8671875 C-13.09443359 146.06152344 -13.09121094 145.25585938 -13.08789062 144.42578125 C-13.07951172 143.58402344 -13.07113281 142.74226562 -13.0625 141.875 C-13.05798828 141.02550781 -13.05347656 140.17601562 -13.04882812 139.30078125 C-13.03702874 137.20049091 -13.01909306 135.1002367 -13 133 C-14.18078125 133.03480469 -15.3615625 133.06960937 -16.578125 133.10546875 C-18.13540242 133.13361232 -19.69269525 133.16091187 -21.25 133.1875 C-22.02730469 133.21263672 -22.80460937 133.23777344 -23.60546875 133.26367188 C-24.35957031 133.27333984 -25.11367188 133.28300781 -25.890625 133.29296875 C-26.92751465 133.31653442 -26.92751465 133.31653442 -27.98535156 133.34057617 C-30.93708286 132.84158621 -31.95139153 132.24984563 -34 130 C-34.63122058 126.73249639 -34.54565757 123.47887462 -34.51757812 120.16015625 C-34.5245874 119.15016571 -34.53159668 118.14017517 -34.53881836 117.09957886 C-34.55645561 113.75360806 -34.54475486 110.40847973 -34.53125 107.0625 C-34.53394325 104.74226722 -34.53782428 102.42203554 -34.54284668 100.10180664 C-34.54874952 95.23605619 -34.5401532 90.37059919 -34.52148438 85.50488281 C-34.49869477 79.25991967 -34.51181359 73.01564408 -34.53577423 66.77070618 C-34.55021078 61.97866613 -34.545636 57.18678978 -34.53526306 52.39474487 C-34.53258986 50.09178588 -34.53588627 47.78881215 -34.54518127 45.48587036 C-34.55531128 42.27012623 -34.53989463 39.05550406 -34.51757812 35.83984375 C-34.52567505 34.88286591 -34.53377197 33.92588806 -34.54211426 32.93991089 C-34.45914125 26.50424323 -34.45914125 26.50424323 -32.09356689 23.90629578 C-29.83450568 22.92835825 -28.34347392 22.65128468 -25.890625 22.70703125 C-24.75947266 22.7215332 -24.75947266 22.7215332 -23.60546875 22.73632812 C-22.82816406 22.76146484 -22.05085938 22.78660156 -21.25 22.8125 C-20.45722656 22.82603516 -19.66445313 22.83957031 -18.84765625 22.85351562 C-16.89814436 22.88874777 -14.94898374 22.94255179 -13 23 C-13.04640625 21.75863281 -13.0928125 20.51726562 -13.140625 19.23828125 C-13.17815421 17.59637829 -13.21455314 15.95444923 -13.25 14.3125 C-13.28351562 13.49587891 -13.31703125 12.67925781 -13.3515625 11.83789062 C-13.41793722 7.73925176 -13.34080776 5.56291539 -11.171875 1.98046875 C-7.44272483 -1.42003329 -4.70362539 -1.24790061 0 0 Z " fill="#FFFFFF" transform="translate(34,102)"/>
<path d="M0 0 C0.7528125 -0.01289063 1.505625 -0.02578125 2.28125 -0.0390625 C5.74856943 0.99869156 6.71933436 2.50081411 8.5 5.625 C8.96547207 8.74948124 8.87927487 11.7876681 8.75 14.9375 C8.73195313 15.77345703 8.71390625 16.60941406 8.6953125 17.47070312 C8.64841126 19.52263228 8.57667411 21.57396756 8.5 23.625 C9.59699219 23.59019531 10.69398438 23.55539063 11.82421875 23.51953125 C13.27863045 23.49138135 14.7330588 23.46408248 16.1875 23.4375 C16.90873047 23.41236328 17.62996094 23.38722656 18.37304688 23.36132812 C22.96146874 23.29847303 25.86934474 23.75796248 29.5 26.625 C30.63176129 28.88852258 30.63021005 30.12266385 30.64044189 32.63497925 C30.64615204 33.47336334 30.65186218 34.31174744 30.65774536 35.17553711 C30.65886322 36.09713623 30.65998108 37.01873535 30.66113281 37.96826172 C30.66858017 39.42209763 30.66858017 39.42209763 30.67617798 40.90530396 C30.6908211 44.12177227 30.69760501 47.33819128 30.703125 50.5546875 C30.70887446 52.78427126 30.71463221 55.013855 30.72039795 57.24343872 C30.73091391 61.92254874 30.73675276 66.60164154 30.74023438 71.28076172 C30.74572188 77.28225903 30.76975301 83.28352978 30.79820633 89.28495598 C30.81681113 93.89169992 30.82203715 98.49838904 30.82357025 103.10516739 C30.82660193 105.31799687 30.83464771 107.53082527 30.84775543 109.74361801 C30.86477147 112.83690482 30.8629465 115.92963486 30.85644531 119.02294922 C30.87026749 120.39927521 30.87026749 120.39927521 30.8843689 121.80340576 C30.84366888 127.97162998 30.84366888 127.97162998 29.16522217 131.16262817 C25.44996386 134.42530939 20.95669142 133.74022881 16.3125 133.6875 C15.56291016 133.68298828 14.81332031 133.67847656 14.04101562 133.67382812 C12.19397617 133.66206354 10.34697787 133.64412865 8.5 133.625 C8.52094727 134.17961914 8.54189453 134.73423828 8.56347656 135.30566406 C8.64683548 137.82859023 8.69871868 140.35122649 8.75 142.875 C8.78351563 143.74769531 8.81703125 144.62039062 8.8515625 145.51953125 C8.95046742 151.99780336 8.95046742 151.99780336 6.66796875 155.17578125 C3.83698046 157.06820766 1.90622104 157.55548528 -1.5 157.625 C-5.02906067 156.02088152 -6.32772908 154.88340638 -8.5 151.625 C-8.72705078 149.63208008 -8.72705078 149.63208008 -8.6953125 147.39453125 C-8.68886719 146.59208984 -8.68242187 145.78964844 -8.67578125 144.96289062 C-8.65902344 144.12951172 -8.64226562 143.29613281 -8.625 142.4375 C-8.61597656 141.59251953 -8.60695313 140.74753906 -8.59765625 139.87695312 C-8.57410703 137.79284757 -8.53823647 135.70888783 -8.5 133.625 C-9.59699219 133.65980469 -10.69398438 133.69460937 -11.82421875 133.73046875 C-13.27863045 133.75861865 -14.7330588 133.78591752 -16.1875 133.8125 C-16.90873047 133.83763672 -17.62996094 133.86277344 -18.37304688 133.88867188 C-23.01613891 133.95227588 -26.03006385 133.79444149 -29.5 130.625 C-30.26829014 127.3898496 -30.16157657 124.18799217 -30.11523438 120.87695312 C-30.12078339 119.87671616 -30.1263324 118.87647919 -30.13204956 117.84593201 C-30.14388203 114.53222079 -30.11953327 111.21986604 -30.09375 107.90625 C-30.09203982 105.60843976 -30.09210363 103.31062758 -30.09387207 101.01281738 C-30.09221677 96.19406504 -30.07347958 91.37577675 -30.04199219 86.55712891 C-30.00231429 80.37276911 -29.99794567 74.18901766 -30.00545502 68.00455475 C-30.00852098 63.25883384 -29.99641746 58.51325035 -29.97932434 53.76756287 C-29.97228071 51.48694216 -29.96917145 49.20630587 -29.97001648 46.92567444 C-29.96822368 43.74117761 -29.94688565 40.55741685 -29.91992188 37.37304688 C-29.92285248 36.42541977 -29.92578308 35.47779266 -29.92880249 34.50144958 C-29.9174527 33.6350032 -29.90610291 32.76855682 -29.89440918 31.87585449 C-29.88881611 30.74651112 -29.88881611 30.74651112 -29.88311005 29.59435272 C-29.39444061 27.08237872 -28.46314267 26.21580621 -26.5 24.625 C-23.31175432 23.03087716 -19.87103338 23.52325265 -16.375 23.5625 C-15.62089844 23.56701172 -14.86679687 23.57152344 -14.08984375 23.57617188 C-12.22652873 23.58796501 -10.36325445 23.60590058 -8.5 23.625 C-8.54640625 22.38363281 -8.5928125 21.14226563 -8.640625 19.86328125 C-8.67815421 18.22137829 -8.71455314 16.57944923 -8.75 14.9375 C-8.78351563 14.12087891 -8.81703125 13.30425781 -8.8515625 12.46289062 C-8.9170404 8.41963012 -8.80649006 6.16273819 -6.765625 2.58203125 C-4.26195671 0.41937984 -3.26134591 -0.05584496 0 0 Z " fill="#FFFFFF" transform="translate(284.5,-0.625)"/>
<path d="M0 0 C2.96858157 2.20740681 3.82865791 3.48597373 5 7 C5.07973476 8.33525717 5.10771338 9.67412083 5.09765625 11.01171875 C5.09443359 11.76904297 5.09121094 12.52636719 5.08789062 13.30664062 C5.07532227 14.48516602 5.07532227 14.48516602 5.0625 15.6875 C5.05798828 16.48478516 5.05347656 17.28207031 5.04882812 18.10351562 C5.0370585 20.06904257 5.01912348 22.03453085 5 24 C6.26457031 23.96519531 7.52914062 23.93039063 8.83203125 23.89453125 C10.49217423 23.86639323 12.15233156 23.83909309 13.8125 23.8125 C15.06256836 23.77479492 15.06256836 23.77479492 16.33789062 23.73632812 C17.14033203 23.72666016 17.94277344 23.71699219 18.76953125 23.70703125 C19.87711792 23.68346558 19.87711792 23.68346558 21.00708008 23.65942383 C23.61319638 24.104791 24.35769467 24.95649522 26 27 C26.38031673 28.95094204 26.38031673 28.95094204 26.38768005 31.2061615 C26.39758469 32.06274857 26.40748932 32.91933563 26.41769409 33.80187988 C26.41094162 35.20693787 26.41094162 35.20693787 26.40405273 36.64038086 C26.41091599 37.62925797 26.41777924 38.61813507 26.42485046 39.63697815 C26.44318513 42.9130785 26.43927135 46.188703 26.43359375 49.46484375 C26.43815241 51.73784034 26.44345703 54.01083555 26.44947815 56.28382874 C26.45842242 61.05117385 26.45597117 65.81835156 26.44604492 70.58569336 C26.43455493 76.70050177 26.45476099 82.81473276 26.48396206 88.92946529 C26.50229259 93.62459495 26.50203783 98.31958545 26.49632454 103.0147419 C26.49617093 105.26943331 26.50224758 107.52413393 26.51461601 109.77879143 C26.52946407 112.92963946 26.51889382 116.07941069 26.50170898 119.23022461 C26.51137695 120.1649057 26.52104492 121.09958679 26.53100586 122.06259155 C26.4587353 128.3783278 26.4587353 128.3783278 24.09455872 131.58222961 C21.76573499 133.15856991 20.6710061 133.47487897 17.890625 133.390625 C17.13652344 133.37773437 16.38242188 133.36484375 15.60546875 133.3515625 C14.43951172 133.30128906 14.43951172 133.30128906 13.25 133.25 C12.45722656 133.23195312 11.66445312 133.21390625 10.84765625 133.1953125 C8.89791652 133.14833082 6.94880122 133.07659044 5 133 C5.05220703 134.75376953 5.05220703 134.75376953 5.10546875 136.54296875 C5.13361716 138.09113141 5.16091619 139.63930968 5.1875 141.1875 C5.21263672 141.95642578 5.23777344 142.72535156 5.26367188 143.51757812 C5.32380764 148.18812274 5.05424203 151.21957455 2 155 C-1.11865284 157.0791019 -1.53739522 157.28159374 -5 156.875 C-5.680625 156.81054688 -6.36125 156.74609375 -7.0625 156.6796875 C-9.95426653 155.66523714 -10.63044657 154.7730277 -12 152 C-12.35861565 148.74075001 -12.281794 145.52369436 -12.1875 142.25 C-12.16719727 140.91775391 -12.16719727 140.91775391 -12.14648438 139.55859375 C-12.11121309 137.37177422 -12.06192752 135.18620034 -12 133 C-13.25296875 133.04640625 -14.5059375 133.0928125 -15.796875 133.140625 C-17.44789281 133.17814813 -19.09893642 133.21454771 -20.75 133.25 C-21.575 133.28351563 -22.4 133.31703125 -23.25 133.3515625 C-24.04921875 133.36445313 -24.8484375 133.37734375 -25.671875 133.390625 C-26.4050293 133.41157227 -27.13818359 133.43251953 -27.89355469 133.45410156 C-31.09546891 132.76384189 -32.047849 131.64522385 -34 129 C-34.60758278 125.78486643 -34.54618697 122.6018075 -34.51757812 119.33789062 C-34.5245874 118.35862106 -34.53159668 117.3793515 -34.53881836 116.3704071 C-34.55642948 113.13206664 -34.54476415 109.89459942 -34.53125 106.65625 C-34.53394401 104.40710278 -34.53782566 102.1579567 -34.54284668 99.90881348 C-34.54874597 95.19446731 -34.54016461 90.48042423 -34.52148438 85.76611328 C-34.49869493 79.71968714 -34.51181566 73.67397118 -34.53577423 67.62757111 C-34.55022035 62.98303871 -34.54563159 58.33867501 -34.53526306 53.69413757 C-34.53259251 51.46457333 -34.53587702 49.23499382 -34.54518127 47.00544739 C-34.55532702 43.89058801 -34.53987261 40.77688268 -34.51757812 37.66210938 C-34.52567505 36.73835007 -34.53377197 35.81459076 -34.54211426 34.86283875 C-34.45925985 28.62231103 -34.45925985 28.62231103 -32.0993042 25.42449951 C-29.70515758 23.79993234 -28.5373564 23.5275041 -25.671875 23.609375 C-24.87265625 23.62226562 -24.0734375 23.63515625 -23.25 23.6484375 C-22.425 23.68195312 -21.6 23.71546875 -20.75 23.75 C-19.90953125 23.76804687 -19.0690625 23.78609375 -18.203125 23.8046875 C-16.13492605 23.85169202 -14.06731559 23.92343276 -12 24 C-12.02094727 23.41508789 -12.04189453 22.83017578 -12.06347656 22.22753906 C-12.14680115 19.56853535 -12.19870897 16.90980645 -12.25 14.25 C-12.28351563 13.32960938 -12.31703125 12.40921875 -12.3515625 11.4609375 C-12.45005258 4.66512196 -12.45005258 4.66512196 -10.234375 1.390625 C-6.77686033 -0.76125476 -3.94247594 -0.81763875 0 0 Z " fill="#FFFFFF" transform="translate(161,37)"/>
</svg>
