<?xml version="1.0" encoding="UTF-8"?>
<svg version="1.1" xmlns="http://www.w3.org/2000/svg" width="276" height="364">
<path d="M0 0 C0.81574592 -0.00438225 1.63149184 -0.00876451 2.47195733 -0.01327956 C5.21487857 -0.02667128 7.95776769 -0.03284719 10.70071411 -0.03897095 C12.6634638 -0.04687145 14.62621204 -0.05514037 16.58895874 -0.06375122 C23.04172376 -0.08997142 29.49449528 -0.10527617 35.94729614 -0.11953735 C38.16701385 -0.12489652 40.38673151 -0.13027403 42.60644913 -0.13566971 C51.83686956 -0.15729602 61.06728823 -0.17603449 70.29772758 -0.1872921 C83.53664392 -0.20354387 96.77526735 -0.23675442 110.01407325 -0.29369295 C119.31774431 -0.33234686 128.62133687 -0.35191924 137.92508614 -0.35721266 C143.48484699 -0.36087158 149.04429545 -0.37295076 154.60396957 -0.4053154 C159.83251198 -0.43531685 165.06055164 -0.44173615 170.28916168 -0.42993164 C172.20925136 -0.42971026 174.12936384 -0.43806841 176.04937363 -0.45558548 C178.66894218 -0.47818636 181.28667352 -0.47002534 183.90625 -0.45410156 C185.04861864 -0.47492469 185.04861864 -0.47492469 186.21406543 -0.49616849 C190.15561082 -0.43704432 191.85895841 -0.03066797 194.92544746 2.52857018 C195.63648565 3.39492907 196.34752384 4.26128796 197.08010864 5.15390015 C197.95409302 6.01628296 198.82807739 6.87866577 199.72854614 7.7671814 C200.62831177 8.65792358 201.52807739 9.54866577 202.45510864 10.46640015 C203.34971802 11.34940796 204.24432739 12.23241577 205.16604614 13.1421814 C207.98777717 15.99795606 210.59990759 19.01696941 213.22805786 22.05014038 C216.37878154 25.6290734 219.67206335 29.07175097 222.95510864 32.52890015 C241.202818 51.83896893 241.202818 51.83896893 241.21153641 57.74492645 C241.21537755 58.71809232 241.2192187 59.69125819 241.22317624 60.69391394 C241.22230976 61.77073258 241.22144328 62.84755122 241.22055054 63.95700073 C241.22500722 65.66407251 241.22500722 65.66407251 241.22955394 67.40563059 C241.23674913 70.57425508 241.23941442 73.74284661 241.24015141 76.91147804 C241.24199925 80.32544185 241.24954545 83.73939383 241.25628662 87.15335083 C241.26988425 94.62473831 241.27589751 102.09612044 241.28029728 109.56751823 C241.28305853 114.23342376 241.28729579 118.8993272 241.29180145 123.56523132 C241.30399833 136.48429993 241.31429529 149.40336686 241.31767654 162.3224411 C241.31789611 163.14978639 241.31811568 163.97713167 241.3183419 164.82954803 C241.31856017 165.65888267 241.31877845 166.48821732 241.31900334 167.34268332 C241.31944681 169.02324518 241.31989337 170.70380704 241.32034302 172.3843689 C241.32056445 173.21798693 241.32078588 174.05160495 241.32101402 174.91048414 C241.32495853 188.40573357 241.34240008 201.90092889 241.36570254 215.39615744 C241.38943515 229.25248326 241.40187934 243.10878196 241.40304446 256.96512842 C241.4039604 264.74440613 241.40969182 272.52361342 241.42786407 280.3028717 C241.44329117 286.93042511 241.44837036 293.55788636 241.44012597 300.18545431 C241.43622798 303.56496302 241.4387499 306.94413598 241.45118332 310.32364655 C241.46389399 313.9942334 241.45803006 317.6643467 241.44760132 321.33493042 C241.45565772 322.39390329 241.46371413 323.45287616 241.47201467 324.54393911 C241.39506571 336.1511035 238.28562775 345.65288013 230.19338989 354.13046265 C221.9813885 361.71325372 214.41332375 364.30119314 203.36575317 364.30780029 C202.4765043 364.31218255 201.58725542 364.3165648 200.67105961 364.32107985 C197.6850113 364.33445674 194.6989925 364.34064429 191.71292114 364.34677124 C189.57419197 364.35467321 187.43546412 364.36294222 185.29673767 364.37155151 C178.2662076 364.39776525 171.2356716 364.41308065 164.20510864 364.42733765 C161.78340654 364.432698 159.36170447 364.43807551 156.94000244 364.44347 C146.863729 364.46509967 136.78745716 364.48383496 126.71116638 364.49509239 C112.28024121 364.51132168 97.84958572 364.54447407 83.41876221 364.60149324 C73.26741027 364.64023241 63.11613033 364.65972994 52.96470642 364.66501296 C46.90452012 364.66866152 40.8446215 364.6806304 34.78451538 364.71311569 C29.07825874 364.74326516 23.37246279 364.74948336 17.66614342 364.73773193 C15.57806363 364.73751176 13.48996204 364.74576968 11.40195656 364.76338577 C-3.06055307 364.87870616 -14.93561813 364.0015869 -25.94332886 353.47421265 C-31.62324214 346.80648836 -35.0373304 339.60851993 -35.05411243 330.86108112 C-35.05857028 329.78229799 -35.06302812 328.70351485 -35.06762105 327.59204131 C-35.06743669 326.40752873 -35.06725233 325.22301615 -35.06706238 324.00260925 C-35.07073907 322.74372397 -35.07441575 321.48483868 -35.07820386 320.18780535 C-35.08821435 316.69113037 -35.09193911 313.19447254 -35.09459317 309.69778526 C-35.098499 305.92736131 -35.1080771 302.15695093 -35.11680603 298.38653564 C-35.13656182 289.28018674 -35.14663521 280.17383674 -35.15553382 271.06747177 C-35.15991789 266.77851303 -35.16528437 262.48955553 -35.17052269 258.20059776 C-35.18753355 243.94236539 -35.20202785 229.68413379 -35.20927143 215.42589283 C-35.2111813 211.72642325 -35.21310164 208.02695368 -35.21505737 204.32748413 C-35.21578298 202.94826838 -35.21578298 202.94826838 -35.21652325 201.54118969 C-35.22482405 186.64537541 -35.25016243 171.74964142 -35.28263805 156.8538622 C-35.31571185 141.55897265 -35.33372045 126.26412391 -35.33691567 110.96919841 C-35.3390804 102.38233154 -35.34782362 93.79558178 -35.37337685 85.20874977 C-35.39508817 77.89609227 -35.40313213 70.58358034 -35.39341006 63.27089427 C-35.38886668 59.5411219 -35.39075353 55.81164985 -35.41017151 52.08191872 C-35.43106144 48.03443787 -35.42081386 43.98762243 -35.40763855 39.94010925 C-35.4186078 38.76675028 -35.42957704 37.59339131 -35.44087869 36.38447601 C-35.38603064 29.40568043 -34.35659851 24.24863498 -30.91989136 18.15390015 C-30.34239136 17.12265015 -29.76489136 16.09140015 -29.16989136 15.02890015 C-21.56061811 5.30593989 -12.33629773 0.00801587 0 0 Z M195.08010864 23.15390015 C194.97149031 25.86332407 194.89252288 28.56833915 194.83010864 31.27890015 C194.79659302 32.03944702 194.76307739 32.7999939 194.72854614 33.58358765 C194.63659919 38.91651102 195.38367955 42.02907695 199.08010864 46.15390015 C203.58303334 49.16215656 207.10713079 49.49275801 212.45510864 49.34140015 C214.32296021 49.30079468 214.32296021 49.30079468 216.22854614 49.2593689 C217.64006958 49.20716187 217.64006958 49.20716187 219.08010864 49.15390015 C215.28954757 43.69846519 211.08775056 39.03295714 206.33010864 34.40390015 C203.55361733 31.62740883 201.01330789 28.69132904 198.49026489 25.68515015 C197.13796233 24.03491737 197.13796233 24.03491737 195.08010864 23.15390015 Z M1.08274078 77.48588276 C-0.18952277 79.2671659 -0.18952277 79.2671659 0.14260864 82.21640015 C0.76709101 85.15667288 0.76709101 85.15667288 2.64526367 86.32120037 C6.07544779 87.4942991 9.39261397 87.43269152 12.97512817 87.41459656 C13.77609987 87.4184221 14.57707157 87.42224765 15.40231514 87.42618912 C18.08925035 87.43651724 20.77597179 87.43252736 23.46292114 87.42855835 C25.38803302 87.43290488 27.31314317 87.43808784 29.23825073 87.44404602 C34.46954001 87.45745243 39.70075712 87.45801294 44.93206024 87.45548272 C49.29612627 87.45441429 53.66017761 87.45929302 58.02424049 87.46408814 C68.31696289 87.47518866 78.60964878 87.47561744 88.90237427 87.46957397 C99.52927029 87.46353039 110.15603404 87.47585374 120.78290749 87.49714404 C129.90060586 87.51474077 139.01826205 87.52076452 148.13597679 87.5175063 C153.58437063 87.51569048 159.03267008 87.51835951 164.48104858 87.53222084 C169.60282526 87.54476347 174.72439514 87.54288896 179.84616852 87.52980995 C181.72795938 87.52743696 183.60976464 87.53020458 185.491539 87.53843307 C188.05629815 87.54884117 190.62035571 87.54084811 193.18508911 87.52812195 C193.93333513 87.53549623 194.68158115 87.54287052 195.4525013 87.55046827 C198.576286 87.51775934 200.77447748 87.31897708 203.54620361 85.82191753 C205.37570325 84.14826417 205.37570325 84.14826417 205.51760864 81.09140015 C205.30104614 79.63733765 205.30104614 79.63733765 205.08010864 78.15390015 C201.35606082 75.6712016 198.49428063 75.87187182 194.1847229 75.89320374 C193.3716494 75.88937819 192.55857591 75.88555264 191.72086382 75.88161117 C188.98703135 75.871264 186.25340824 75.87527654 183.51956177 75.87924194 C181.56341863 75.87489646 179.60727719 75.86971386 177.65113831 75.86375427 C172.33101715 75.85033644 167.01096692 75.84978862 161.69083214 75.85231757 C157.2546476 75.85338526 152.81847753 75.8485092 148.38229609 75.84371215 C137.92039062 75.83260764 127.45852106 75.83218507 116.99661255 75.83822632 C106.19078662 75.84427002 95.38509078 75.83194715 84.57928705 75.81065625 C75.31215663 75.79306599 66.04506771 75.78703475 56.7779212 75.79029399 C51.23844207 75.79211088 45.69905575 75.78943023 40.15959167 75.77557945 C34.95247178 75.76304733 29.7455554 75.76490126 24.5384388 75.77799034 C22.62397761 75.78036566 20.70950231 75.77758749 18.7950573 75.76936722 C16.18829678 75.75897861 13.58222922 75.7669363 10.97549438 75.77967834 C10.21198056 75.77230406 9.44846673 75.76492977 8.66181612 75.75733203 C5.69242779 75.78801961 3.59430172 75.81100075 1.08274078 77.48588276 Z M1.5808115 118.02200413 C-0.18213773 120.07735658 -0.18213773 120.07735658 0.14260864 122.77890015 C0.9466641 125.47679776 0.9466641 125.47679776 4.08010864 127.15390015 C6.73412544 127.34949294 9.28315483 127.42780278 11.93753052 127.41459656 C12.74652046 127.4184221 13.55551041 127.42224765 14.3890152 127.42618912 C17.10902846 127.43653602 19.8288313 127.43252381 22.54885864 127.42855835 C24.4951497 127.43290385 26.44143904 127.43808646 28.38772583 127.44404602 C33.68098843 127.45746369 38.97417976 127.45801169 44.26745605 127.45548272 C48.68127267 127.45441503 53.09507474 127.45929112 57.50888824 127.46408814 C67.91805605 127.4751926 78.32718777 127.47561526 88.73635864 127.46957397 C99.48765325 127.46353027 110.23881712 127.47585315 120.99008942 127.49714404 C130.21051114 127.51473439 139.43089115 127.52076552 148.65132904 127.5175063 C154.16286268 127.51568942 159.67430303 127.51836991 165.18582153 127.53222084 C170.36667695 127.54475312 175.54732782 127.54289889 180.72817993 127.52980995 C182.63296578 127.52743467 184.53776581 127.53021268 186.4425354 127.53843307 C189.03615993 127.54882197 191.62908804 127.54086378 194.22268677 127.52812195 C194.98230965 127.53549623 195.74193253 127.54287052 196.52457428 127.55046827 C200.50614158 127.52204765 200.50614158 127.52204765 204.00869751 125.81801128 C205.26110671 124.02369436 205.26110671 124.02369436 206.08010864 121.15390015 C203.29623302 117.72299769 201.82515823 116.28069935 197.39942074 115.52748775 C195.94213756 115.50139294 194.48420569 115.50268908 193.02687073 115.52571106 C192.22096105 115.51861667 191.41505138 115.51152228 190.58472019 115.50421292 C187.88665166 115.48662308 185.19002185 115.50474197 182.49197388 115.52279663 C180.55685775 115.51765822 178.62174629 115.51037753 176.68664551 115.50111389 C171.43253241 115.48258303 166.17892608 115.49554874 160.92483401 115.51520419 C155.42939067 115.53157565 149.93397979 115.52278 144.43852234 115.51768494 C135.21065158 115.51316269 125.98298344 115.52904299 116.75515747 115.55697632 C106.08103201 115.58903822 95.40727182 115.58900919 84.73312038 115.57176155 C74.4702937 115.55590831 64.20760115 115.56262168 53.94478035 115.57969856 C49.57441711 115.58657762 45.20416112 115.58552787 40.83379936 115.57815361 C35.68975591 115.57050304 30.54612917 115.58257681 25.40215683 115.61000252 C23.51231562 115.61689997 21.62243559 115.61696981 19.73259544 115.60978699 C17.15671668 115.60112344 14.58213314 115.61699477 12.00636292 115.63923645 C11.25490807 115.63099568 10.50345322 115.62275492 9.72922701 115.61426443 C6.26475077 115.66964559 4.39090301 115.92159636 1.5808115 118.02200413 Z M1.07213497 158.51713276 C-0.16512707 160.20197512 -0.16512707 160.20197512 0.26760864 162.71640015 C0.92637897 165.29831287 0.92637897 165.29831287 3.08010864 167.15390015 C5.72123775 167.35150084 8.2576051 167.42315744 10.89993286 167.40786743 C11.71694105 167.41098741 12.53394924 167.41410739 13.37571526 167.41732192 C16.12881439 167.42533514 18.88169514 167.41896541 21.63479614 167.41268921 C23.60226572 167.4153976 25.56973429 167.41895767 27.53720093 167.42330933 C32.89244303 167.4324537 38.24760837 167.42888065 43.60285187 167.42255116 C49.1966727 167.41750174 54.79048678 167.42217965 60.38430786 167.42532349 C69.77966497 167.42896623 79.17499067 167.42415597 88.57034302 167.41464233 C99.44601139 167.4037572 110.32160479 167.40728256 121.19727135 167.41829515 C130.52041454 167.42735926 139.84353511 167.4286576 149.16668129 167.42341781 C154.74133153 167.42029328 160.31594648 167.41990196 165.89059448 167.42649078 C171.13049596 167.43225091 176.3703004 167.4282919 181.61019135 167.41670227 C183.53796985 167.41404852 185.46575647 167.41483288 187.3935318 167.4192276 C190.01589448 167.42465641 192.63794207 167.4178816 195.26028442 167.40786743 C196.03128416 167.41232888 196.8022839 167.41679032 197.59664726 167.42138696 C201.79649616 167.53253683 201.79649616 167.53253683 205.08010864 165.15390015 C205.41344198 162.15390015 205.41344198 162.15390015 205.08010864 159.15390015 C202.5663203 156.6401118 201.03102784 156.91037526 197.60130936 156.88175124 C196.83099174 156.88553056 196.06067412 156.88930989 195.26701355 156.89320374 C194.45071093 156.88937819 193.6344083 156.88555264 192.79336923 156.88161117 C190.0426118 156.87124581 187.29206174 156.87527997 184.54129028 156.87924194 C182.57544256 156.87489742 180.60959654 156.86971515 178.64375305 156.86375427 C173.29258207 156.85032504 167.94148154 156.84978995 162.59029698 156.85231757 C158.12930937 156.85338464 153.66833617 156.84851072 149.20735162 156.84371215 C138.68649216 156.83260338 128.1656684 156.83218724 117.64480591 156.83822632 C106.77708506 156.8442684 95.9094936 156.83195224 85.04179484 156.81065625 C75.72372963 156.79306564 66.4057057 156.78703487 57.08762449 156.79029399 C51.51683153 156.79211106 45.94613085 156.78942861 40.37535286 156.77557945 C35.13787791 156.76304698 29.90060529 156.7649016 24.66313362 156.77799034 C22.73738539 156.78036571 20.81162312 156.77758733 18.88589096 156.76936722 C16.26375162 156.75897884 13.64230119 156.76693617 11.02018738 156.77967834 C9.86805703 156.76861692 9.86805703 156.76861692 8.69265133 156.75733203 C4.64473192 156.79543265 4.64473192 156.79543265 1.07213497 158.51713276 Z M1.08274078 198.48588276 C-0.18952277 200.2671659 -0.18952277 200.2671659 0.14260864 203.21640015 C0.76709101 206.15667288 0.76709101 206.15667288 2.64526367 207.32120037 C6.07544779 208.4942991 9.39261397 208.43269152 12.97512817 208.41459656 C13.77609987 208.4184221 14.57707157 208.42224765 15.40231514 208.42618912 C18.08925035 208.43651724 20.77597179 208.43252736 23.46292114 208.42855835 C25.38803302 208.43290488 27.31314317 208.43808784 29.23825073 208.44404602 C34.46954001 208.45745243 39.70075712 208.45801294 44.93206024 208.45548272 C49.29612627 208.45441429 53.66017761 208.45929302 58.02424049 208.46408814 C68.31696289 208.47518866 78.60964878 208.47561744 88.90237427 208.46957397 C99.52927029 208.46353039 110.15603404 208.47585374 120.78290749 208.49714404 C129.90060586 208.51474077 139.01826205 208.52076452 148.13597679 208.5175063 C153.58437063 208.51569048 159.03267008 208.51835951 164.48104858 208.53222084 C169.60282526 208.54476347 174.72439514 208.54288896 179.84616852 208.52980995 C181.72795938 208.52743696 183.60976464 208.53020458 185.491539 208.53843307 C188.05629815 208.54884117 190.62035571 208.54084811 193.18508911 208.52812195 C193.93333513 208.53549623 194.68158115 208.54287052 195.4525013 208.55046827 C198.576286 208.51775934 200.77447748 208.31897708 203.54620361 206.82191753 C205.37570325 205.14826417 205.37570325 205.14826417 205.51760864 202.09140015 C205.30104614 200.63733765 205.30104614 200.63733765 205.08010864 199.15390015 C201.35606082 196.6712016 198.49428063 196.87187182 194.1847229 196.89320374 C193.3716494 196.88937819 192.55857591 196.88555264 191.72086382 196.88161117 C188.98703135 196.871264 186.25340824 196.87527654 183.51956177 196.87924194 C181.56341863 196.87489646 179.60727719 196.86971386 177.65113831 196.86375427 C172.33101715 196.85033644 167.01096692 196.84978862 161.69083214 196.85231757 C157.2546476 196.85338526 152.81847753 196.8485092 148.38229609 196.84371215 C137.92039062 196.83260764 127.45852106 196.83218507 116.99661255 196.83822632 C106.19078662 196.84427002 95.38509078 196.83194715 84.57928705 196.81065625 C75.31215663 196.79306599 66.04506771 196.78703475 56.7779212 196.79029399 C51.23844207 196.79211088 45.69905575 196.78943023 40.15959167 196.77557945 C34.95247178 196.76304733 29.7455554 196.76490126 24.5384388 196.77799034 C22.62397761 196.78036566 20.70950231 196.77758749 18.7950573 196.76936722 C16.18829678 196.75897861 13.58222922 196.7669363 10.97549438 196.77967834 C10.21198056 196.77230406 9.44846673 196.76492977 8.66181612 196.75733203 C5.69242779 196.78801961 3.59430172 196.81100075 1.08274078 198.48588276 Z M113.45901489 255.25546265 C104.03029705 266.74332577 100.11029302 280.46560173 101.08010864 295.15390015 C103.29244474 308.96793578 109.85008573 321.69455377 120.95510864 330.46640015 C133.38671931 339.02824874 146.99718716 342.92096771 162.04495239 340.7203064 C175.17715037 337.94200958 187.03672084 331.02514043 195.08010864 320.15390015 C200.41958911 311.88970425 204.36498085 303.05191887 205.08010864 293.15390015 C205.13682739 292.46167358 205.19354614 291.76944702 205.25198364 291.0562439 C205.74648729 278.61947707 201.0407814 265.7648762 193.07620239 256.31015015 C182.08095529 244.43270123 169.61937217 237.49862537 153.26760864 236.84140015 C137.44385649 237.28644318 124.23238799 243.80777362 113.45901489 255.25546265 Z " fill="#FFFFFF" transform="translate(34.919891357421875,-0.153900146484375)"/>
<path d="M0 0 C1.22948837 1.03794703 2.4385712 2.10059503 3.625 3.1875 C4.54732422 3.97447266 4.54732422 3.97447266 5.48828125 4.77734375 C13.02237724 11.63385509 16.93802688 20.86330967 17.87890625 30.89453125 C18.3530344 42.56420142 15.09964013 52.54787592 7.90234375 61.7421875 C0.57918011 69.60548156 -8.80513233 74.70687348 -19.57421875 75.390625 C-32.36608375 75.56252016 -43.04310951 73.01374287 -52.640625 64.078125 C-56.85143896 59.55539889 -60.12230736 54.95305491 -62.375 49.1875 C-62.73078125 48.28644531 -63.0865625 47.38539063 -63.453125 46.45703125 C-66.36970665 36.11305312 -65.16515159 23.73962582 -60.375 14.1875 C-53.89787514 3.83051322 -44.88992146 -3.42621811 -32.9140625 -6.4296875 C-21.52000602 -8.14756063 -9.55676574 -6.86834995 0 0 Z M-11.375 17.1875 C-13.1310468 19.08111729 -14.81833345 21.01778414 -16.4921875 22.984375 C-18.57799677 25.42503149 -20.72085592 27.80698824 -22.875 30.1875 C-26.75199282 34.48344745 -30.58002898 38.81901246 -34.375 43.1875 C-34.89449219 42.77757812 -35.41398437 42.36765625 -35.94921875 41.9453125 C-39.6173777 39.11113424 -42.88949706 36.58921967 -47.375 35.1875 C-49.54141665 36.85295339 -49.54141665 36.85295339 -51.375 39.1875 C-50.99229646 45.36111229 -46.67459368 48.25937857 -42.375 52.1875 C-41.5396875 53.00927734 -41.5396875 53.00927734 -40.6875 53.84765625 C-39.05353479 55.44457704 -39.05353479 55.44457704 -36.375 57.1875 C-31.69953305 57.00263804 -29.64385328 54.91449504 -26.5 51.625 C-25.19095703 50.26181641 -25.19095703 50.26181641 -23.85546875 48.87109375 C-21.2347794 46.03579677 -18.65812215 43.1760442 -16.1484375 40.2421875 C-14.12025451 37.89235434 -12.0301153 35.60509219 -9.9375 33.3125 C-8.41193862 31.60838754 -6.89117102 29.89997255 -5.375 28.1875 C-4.58738281 27.30191406 -3.79976562 26.41632813 -2.98828125 25.50390625 C-2.24964844 24.63636719 -1.51101562 23.76882813 -0.75 22.875 C0.25933594 21.70517578 0.25933594 21.70517578 1.2890625 20.51171875 C2.86374675 18.2481836 2.86374675 18.2481836 2.5234375 15.51953125 C1.7555302 12.85779319 1.7555302 12.85779319 -1.375 11.1875 C-6.00213891 11.1875 -8.16039011 14.06626052 -11.375 17.1875 Z " fill="#FFFFFF" transform="translate(211.375,254.8125)"/>
</svg>
