<?xml version="1.0" encoding="UTF-8"?>
<svg id="Layer_1" data-name="Layer 1" xmlns="http://www.w3.org/2000/svg" viewBox="0 0 250.71 235.38">
  <defs>
    <style>
      .cls-1 {
        fill: #3f3f3e;
      }
    </style>
  </defs>
  <path class="cls-1" d="m98.71,80.12c1.83.24,5.32.68,8.81,1.2.83.13,1.33.05,1.85-.69,17.15-24.78,54.32-27.61,75.83-6.96,17.69,16.98,17.44,44.33-.72,60.85-1.53,1.39-2.14,2.71-1.77,4.81.78,4.46,1.24,8.98,1.88,13.46.17,1.21-.07,2.22-1.11,2.91-1.06.71-2.09.47-3.09-.22-4.35-2.97-8.74-5.9-13.07-8.91-1.23-.86-2.39-1.04-3.85-.66-9.23,2.41-18.47,2.31-27.65-.3-1-.28-1.48-.05-2.1.7-7.73,9.38-17.74,14.7-29.7,16.47-6.66.98-13.23.52-19.77-1.1-.98-.24-2.35.06-3.22.61-4.08,2.61-8.06,5.39-12.06,8.13-1.06.72-2.1,1.26-3.35.54-1.33-.77-1.34-2.02-1.16-3.34.57-4.12,1.07-8.26,1.74-12.37.29-1.81-.19-3.06-1.54-4.31-8.74-8.14-13.51-18.15-13.17-30.18.37-13.23,6.5-23.58,16.98-31.39,8.44-6.29,18.08-9.1,30.25-9.26Zm80.12,68.18c-.36-2.62-.52-4.88-.99-7.07-.95-4.37.2-7.67,3.58-10.84,15.85-14.86,15.79-38.21.1-53.24-17.09-16.37-46.13-16.18-63.02.4-14.53,14.26-15.27,36.22-1.44,50.91,10.89,11.56,24.57,15.54,40.14,13.6,1.82-.23,3.63-.66,5.41-1.13,2.68-.71,5.08-.27,7.34,1.32,2.83,1.99,5.71,3.9,8.89,6.06Zm-108.64,15.19c3-2.04,5.66-3.82,8.3-5.64,2.09-1.44,4.31-1.7,6.78-1.19,3.04.62,6.11,1.3,9.19,1.46,13.12.67,24.46-3.47,33.67-12.99.49-.5.9-1.08,1.4-1.69-11.06-5.1-19.41-12.69-24.15-23.78-4.77-11.16-4.31-22.33.63-33.33-.22-.12-.3-.19-.4-.22-.2-.07-.4-.13-.61-.17-11.62-1.92-22.51-.01-32.3,6.66-10.01,6.82-15.87,16.23-16.16,28.54-.24,10.47,4,19.15,11.62,26.17,2.61,2.41,3.68,5.11,3.03,8.61-.44,2.37-.65,4.78-1.01,7.56Z"/>
  <path class="cls-1" d="m129.94,97.9c4.2,0,7.63,3.46,7.59,7.67-.04,4.13-3.45,7.51-7.6,7.51-4.2,0-7.63-3.47-7.59-7.67.04-4.13,3.45-7.51,7.59-7.51Zm2.52,7.52c-.04-1.37-1.23-2.49-2.6-2.44-1.38.04-2.49,1.22-2.44,2.59.04,1.37,1.23,2.49,2.59,2.45,1.37-.04,2.49-1.23,2.45-2.6Z"/>
  <path class="cls-1" d="m157.8,105.48c0,4.2-3.46,7.63-7.67,7.6-4.13-.04-7.51-3.45-7.52-7.59,0-4.2,3.46-7.63,7.67-7.59,4.13.03,7.52,3.45,7.52,7.59Zm-5.07-.05c-.03-1.37-1.2-2.5-2.57-2.47-1.38.03-2.5,1.2-2.47,2.57.03,1.37,1.2,2.5,2.57,2.47,1.37-.03,2.5-1.21,2.47-2.57Z"/>
  <path class="cls-1" d="m170.5,113.08c-4.2.02-7.65-3.43-7.63-7.64.02-4.14,3.42-7.53,7.56-7.55,4.21-.02,7.65,3.43,7.63,7.63-.02,4.14-3.42,7.53-7.56,7.55Zm2.49-7.54c.03-1.37-1.1-2.54-2.47-2.57-1.37-.03-2.54,1.09-2.57,2.47-.03,1.37,1.09,2.54,2.47,2.57,1.37.03,2.54-1.1,2.57-2.47Z"/>
  <path class="cls-1" d="m90.52,140.94c-3.53,0-7.07,0-10.6,0-1.99,0-3.15-.95-3.15-2.53,0-1.58,1.16-2.53,3.15-2.53,7.17,0,14.35,0,21.52,0,2,0,3.16.95,3.16,2.53,0,1.57-1.16,2.52-3.16,2.53-3.64.01-7.28,0-10.92,0Z"/>
  <path class="cls-1" d="m88.11,125.75c-2.74,0-5.49.01-8.23,0-1.98,0-3.14-.99-3.12-2.57.03-1.54,1.15-2.48,3.03-2.49,5.59-.01,11.18-.02,16.78,0,1.84,0,2.98,1.03,2.96,2.56-.02,1.52-1.16,2.48-3.04,2.49-2.8.02-5.59,0-8.39,0Z"/>
  <path class="cls-1" d="m86.88,110.55c-2.37,0-4.75.02-7.12,0-1.86-.02-3-.99-2.99-2.53,0-1.54,1.13-2.52,3-2.52,4.75-.02,9.5-.02,14.24,0,1.86,0,3,1,2.99,2.53,0,1.53-1.14,2.51-3,2.53-2.37.02-4.75,0-7.12,0Z"/>
</svg>