<?xml version="1.0" encoding="UTF-8"?>
<svg id="Layer_1" data-name="Layer 1" xmlns="http://www.w3.org/2000/svg" viewBox="0 0 250.71 235.38">
  <defs>
    <style>
      .cls-1 {
        fill: #ffcd00;
      }
    </style>
  </defs>
  <path class="cls-1" d="m179.78,166.92h-108.87c-2.53-.71-4.16-2.33-4.86-4.86,0-25.01,0-50.02,0-75.04.37-.32.71-.68,1.1-.97,5.28-3.75,10.56-7.5,15.88-11.21.67-.46.85-.96.84-1.72-.03-3.4-.02-6.79-.01-10.19,0-3.18,1.5-4.69,4.66-4.69,5.63,0,11.27.01,16.9-.02.58,0,1.24-.18,1.71-.5,2.98-2.06,5.95-4.15,8.87-6.29,5.54-4.07,13.01-4.12,18.59-.1,2.91,2.1,5.82,4.2,8.78,6.22.59.4,1.4.65,2.12.66,5.63.05,11.27.02,16.9.03,2.87,0,4.45,1.58,4.46,4.43.01,3.55-.02,7.1.03,10.65,0,.47.33,1.11.71,1.38,5.23,3.76,10.49,7.48,15.76,11.17.91.64,1.32,1.35,1.32,2.49-.03,24-.02,48-.02,72,0,.58,0,1.16-.12,1.73-.52,2.64-2.29,4.08-4.74,4.83ZM87.85,62.24c-.03.28-.06.43-.06.58,0,12.74,0,25.47.04,38.21,0,.41.31.94.63,1.22,2.05,1.76,4.14,3.47,6.22,5.2,7.63,6.34,15.25,12.68,22.89,19.01,3.33,2.76,7.1,3.57,11.27,2.38,2.45-.7,4.27-2.38,6.17-3.97,9.04-7.54,18.12-15.02,27.16-22.56.38-.31.69-.94.69-1.42.04-12.58.03-25.16.03-37.74,0-.29-.06-.59-.09-.89h-74.95Zm89.33,100.7c-13.78-11.44-27.29-22.67-40.89-33.97-3.13,2.8-6.76,4.33-10.94,4.33-4.19,0-7.8-1.57-10.94-4.32-13.61,11.3-27.13,22.54-40.88,33.96h103.66Zm-107.16-2.23c13.86-11.52,27.53-22.87,41.3-34.3-13.79-11.45-27.47-22.82-41.3-34.31v68.61Zm69.36-34.3c13.8,11.46,27.46,22.81,41.25,34.26v-68.54c-13.81,11.47-27.47,22.83-41.25,34.27Zm40.05-38.42c-4.22-2.99-8.31-5.89-12.49-8.85v19.22c4.21-3.5,8.27-6.87,12.49-10.37Zm-95.6-8.9c-4.29,3.04-8.38,5.94-12.56,8.9,4.21,3.49,8.3,6.89,12.56,10.42v-19.32Zm29.9-20.93h23.24c.05-.09.1-.18.15-.27-2.33-1.52-4.58-3.18-7-4.53-1.91-1.07-4.09-1.2-6.3-.95-4.18.48-6.89,3.48-10.08,5.75Z"/>
  <path class="cls-1" d="m129.36,101.88c-2,1.8-4.3,2.93-7,3.29-5.42.73-9.99-2.89-10.44-8.34-.52-6.31,3.27-13.12,8.9-15.98,3.51-1.78,7.89-1.07,10.69,1.74.26.26.45.61.84,1.14.19-.86.28-1.34.39-1.81.29-1.27,1.2-1.97,2.29-1.76,1.17.22,1.84,1.25,1.57,2.53-1.12,5.39-2.26,10.78-3.41,16.17-.35,1.62.07,2.23,1.71,2.32,2.07.13,3.8-.58,5.12-2.17,3.73-4.51,4.44-9.62,2.5-15-1.93-5.37-5.83-8.76-11.52-9.74-10.85-1.88-22.12,5.23-25.18,15.78-2.45,8.45,2.3,17.28,10.72,19.79,6.12,1.82,12.33,2.4,18.61.83,4.04-1.01,7.51-2.97,10.2-6.2.7-.84,1.55-1.17,2.56-.69.92.43,1.26,1.26,1.02,2.22-.11.42-.41.83-.7,1.17-3.66,4.29-8.4,6.68-13.87,7.71-7.04,1.31-13.97.69-20.61-1.84-11.1-4.23-15.81-17.19-10.11-28,4.28-8.12,10.92-13.45,20.21-14.79,9.85-1.43,17.96,2.55,21.73,10.84,3.22,7.09,2.59,13.98-2.34,20.23-2.4,3.03-5.6,4.23-9.43,3.75-1.82-.23-2.97-1.07-4.46-3.19Zm-13.53-7.46c-.05,4.65,1.96,6.97,5.28,6.89,1.82-.04,3.52-.57,4.89-1.79,2.35-2.1,4.33-4.38,4.84-7.74.27-1.73.1-3.17-.8-4.58-.31-.49-.63-.97-.99-1.42-1.63-1.98-4.34-2.57-6.57-1.31-4.19,2.37-6.18,6.15-6.66,9.96Z"/>
</svg>