<?xml version="1.0" encoding="UTF-8"?>
<svg id="Layer_1" data-name="Layer 1" xmlns="http://www.w3.org/2000/svg" viewBox="0 0 250.71 235.38">
  <defs>
    <style>
      .cls-1 {
        fill: #3f3f3e;
      }
    </style>
  </defs>
  <path class="cls-1" d="m72.58,103.38c.63.16,1.21.28,1.76.46,3.67,1.16,6.23,4.37,6.26,8.23.07,8.73.12,17.45,0,26.18-.08,5.81-5.27,9.61-11.27,8.53-6.23-1.12-11.02-5.79-11.46-12.24-.44-6.35-.31-12.77.05-19.14.27-4.65,3.05-8.07,7.12-10.33.73-.41.98-.85,1.02-1.66,1.38-23.94,16.82-44.6,39.37-52.71,33.38-12.01,70.19,8.18,77.91,42.79.73,3.28.99,6.66,1.38,10,.09.75.29,1.17.98,1.55,4.85,2.71,7.33,6.91,7.41,12.44.07,5.13.08,10.26,0,15.38-.08,5.48-2.55,9.64-7.32,12.36-.73.42-.97.86-.98,1.67-.03,3.19.18,6.42-.29,9.56-1.42,9.52-9.46,16.37-19.1,16.55-2.97.05-5.94.04-8.91,0-.78-.01-1.15.25-1.51.96-1.83,3.59-4.79,5.52-8.85,5.58-3.37.05-6.75.05-10.12,0-4.9-.08-9.04-3.75-9.56-8.41-.59-5.19,2.43-9.66,7.39-10.86.95-.23,1.96-.29,2.94-.3,2.92-.04,5.85-.01,8.77-.01,4.41,0,7.69,1.83,9.6,5.91.14.29.55.65.84.65,3.73-.02,7.49.16,11.18-.23,6.16-.65,10.94-6.14,11.13-12.33.07-2.29.01-4.58.01-6.89-.14-.07-.24-.16-.36-.19-5.38-1.28-7.83-4.35-7.84-9.86,0-7.87,0-15.74,0-23.62,0-5.51,2.29-8.47,7.62-9.9.13-.03.25-.1.36-.14-.83-23.93-20.79-48.15-50.1-49.55-30.69-1.46-54,22.58-55.42,49.57Zm104,21.82c0,4.05,0,8.09,0,12.14,0,.09,0,.18,0,.27.06,2.01,1.06,2.93,3.08,2.84,3.7-.18,6.85-3.29,6.93-7.15.11-5.44.11-10.88,0-16.32-.07-3.48-2.69-6.35-6.04-7.01-2.65-.52-3.95.53-3.95,3.22,0,4,0,8.01,0,12.01Zm-102.42-.05c0-4.14.02-8.28,0-12.41-.01-2.01-1.04-2.94-3.05-2.86-3.73.15-6.89,3.36-6.95,7.27-.08,5.35-.08,10.7,0,16.05.06,3.75,3.02,6.89,6.58,7.22,2.4.22,3.43-.7,3.43-3.13.01-4.05,0-8.1,0-12.14Zm66.95,47.93c1.66,0,3.32.03,4.98,0,1.99-.04,3.35-1.39,3.37-3.26.02-1.88-1.3-3.29-3.3-3.32-3.32-.06-6.64-.06-9.95,0-2.02.03-3.38,1.41-3.38,3.25,0,1.93,1.39,3.3,3.45,3.34,1.61.03,3.23,0,4.84,0Z"/>
  <path class="cls-1" d="m104.63,134.17c-2.72-.12-5.19-.68-7.41-2.1-4.37-2.8-6.53-6.83-6.55-11.98-.04-9.13-.09-18.26.01-27.39.09-8.21,5.96-13.95,14.16-13.97,13.67-.03,27.35-.03,41.02,0,8.2.02,14.08,5.73,14.18,13.94.12,9.17.12,18.35,0,27.53-.11,8.26-6.05,13.92-14.34,13.95-5.44.02-10.89.02-16.33-.01-.88,0-1.5.26-2.12.88-3.74,3.76-7.5,7.52-11.3,11.22-1.9,1.86-4.23,2.35-6.73,1.49-2.51-.85-4.02-2.65-4.45-5.28-.16-.97-.13-1.97-.14-2.96-.02-1.74,0-3.49,0-5.32Zm6.48,7.22l.33.18c.35-.32.71-.64,1.05-.97,3.83-3.8,7.68-7.59,11.47-11.43,1.06-1.07,2.21-1.53,3.71-1.52,5.89.05,11.78.02,17.67.02,5.36,0,8.27-2.89,8.27-8.24,0-8.68,0-17.36,0-26.04,0-5.36-2.88-8.21-8.27-8.21-13.31,0-26.62,0-39.93,0-5.39,0-8.26,2.85-8.26,8.22,0,8.68,0,17.36,0,26.04,0,.58.02,1.17.08,1.75.36,3.24,2.69,5.79,5.91,6.29,1.28.2,2.6.17,3.9.18,3,.03,4.07,1.07,4.08,4.05,0,3.23,0,6.45,0,9.68Z"/>
  <path class="cls-1" d="m130.16,106.98c-.03,2.61-2.28,4.8-4.87,4.74-2.62-.06-4.79-2.32-4.71-4.9.08-2.57,2.25-4.68,4.8-4.67,2.61,0,4.81,2.24,4.78,4.83Z"/>
  <path class="cls-1" d="m104.86,106.97c-.02-2.63,2.15-4.82,4.77-4.82,2.63,0,4.77,2.17,4.76,4.82-.02,2.59-2.1,4.71-4.69,4.76-2.6.05-4.82-2.13-4.84-4.75Z"/>
  <path class="cls-1" d="m145.88,106.95c-.01,2.62-2.23,4.8-4.83,4.77-2.64-.04-4.74-2.22-4.7-4.88.04-2.59,2.16-4.69,4.74-4.7,2.61,0,4.8,2.18,4.79,4.81Z"/>
</svg>