<?xml version="1.0" encoding="UTF-8"?>
<svg id="Layer_1" data-name="Layer 1" xmlns="http://www.w3.org/2000/svg" viewBox="0 0 250.71 235.38">
  <defs>
    <style>
      .cls-1 {
        fill: #3f3f3e;
      }
    </style>
  </defs>
  <path class="cls-1" d="m124.29,79.99c0,1.61.99,2.71,2.8,3.09,10.12,2.07,17.4,7.79,21.7,17.17,1.01,2.2,1.47,4.64,2.17,6.98.54,1.81,2.15,2.83,3.8,2.4,1.7-.44,2.6-2.03,2.25-3.89-.98-5.2-2.93-9.99-6.04-14.27-5.72-7.88-13.37-12.74-22.95-14.53-2.03-.38-3.73,1.07-3.74,3.05Z"/>
  <path class="cls-1" d="m67.89,87.12c.16-1.26.25-2.53.49-3.78.62-3.1,2-5.83,4.21-8.1,2.93-2.99,5.75-6.11,8.9-8.85,4.8-4.17,10.01-4.15,14.62.18,4.92,4.61,9.63,9.44,14.22,14.37,3.41,3.66,3.38,9.28.07,13.04-2.45,2.79-5.16,5.37-7.8,8-.5.5-.62.82-.28,1.51,2.64,5.34,6.37,9.88,10.4,14.2,4.13,4.42,8.68,8.37,13.8,11.63,1.46.93,3.02,1.7,4.64,2.6,1.75-1.78,3.45-3.53,5.19-5.25,1.16-1.15,2.33-2.29,3.58-3.34,3.7-3.08,9.32-3.13,12.79.18,5.08,4.85,10.05,9.82,14.87,14.93,3.57,3.79,3.61,9.5.17,13.41-3.02,3.43-6.2,6.74-9.53,9.87-3.87,3.63-8.68,4.74-13.9,4.29-9.23-.78-17.43-4.53-25.38-8.93-9.75-5.41-18.44-12.23-26.03-20.39-9.29-9.98-16.97-21.01-21.79-33.86-1.64-4.36-2.92-8.81-3.11-13.51,0-.24-.1-.48-.15-.72,0-.5,0-.99,0-1.49Zm77.91,72.83c3.98.02,6.9-1.15,9.29-3.67,2.12-2.24,4.31-4.42,6.46-6.63.49-.51,1-1.02,1.43-1.57,1.47-1.9,1.42-3.88-.1-5.72-.36-.44-.76-.85-1.16-1.25-2.3-2.31-4.61-4.62-6.92-6.93-1.83-1.83-3.64-3.69-5.51-5.48-1.89-1.82-4-1.84-5.99-.15-.38.32-.73.68-1.08,1.03-2.44,2.43-4.86,4.88-7.31,7.29-1.76,1.73-3.71,2.04-5.84.96-1.49-.75-2.98-1.5-4.41-2.36-6.42-3.83-12.01-8.67-17.05-14.16-4.46-4.85-8.52-9.97-11.27-16.03-1.45-3.2-1.14-4.77,1.38-7.21,2.55-2.47,5.1-4.94,7.54-7.51,1.94-2.04,1.86-4.02.01-6.15-.23-.27-.48-.53-.73-.78-4.01-4.02-8.02-8.04-12.04-12.05-2.59-2.59-4.87-2.61-7.46-.06-2.48,2.44-5,4.84-7.35,7.4-1.1,1.2-2.11,2.63-2.7,4.13-1.29,3.28-.91,6.71-.23,10.07,1.06,5.17,3.02,10.03,5.35,14.75,4.11,8.33,9.46,15.81,15.65,22.7,10.95,12.18,23.93,21.45,39.35,27.16,3.61,1.34,7.36,2.08,10.68,2.21Z"/>
  <path class="cls-1" d="m129.01,57.08c2.46.64,4.95,1.19,7.37,1.93,7.91,2.42,14.95,6.43,21.15,11.89,6.59,5.8,11.69,12.71,15.22,20.77,1.89,4.34,3.23,8.85,4.02,13.51.28,1.67-.66,3.07-2.24,3.47-1.6.41-3.22-.41-3.69-2.04-.65-2.28-1.07-4.62-1.76-6.89-3.08-10.21-8.86-18.62-17.08-25.37-6.88-5.64-14.7-9.27-23.45-10.92-2.39-.45-3.45-1.55-3.39-3.37.06-1.56,1.05-2.39,2.35-2.97.5,0,.99,0,1.49,0Z"/>
  <path class="cls-1" d="m124.29,79.99c0-1.99,1.71-3.43,3.74-3.05,9.58,1.79,17.23,6.65,22.95,14.53,3.11,4.28,5.06,9.08,6.04,14.27.35,1.85-.55,3.45-2.25,3.89-1.65.43-3.25-.6-3.8-2.4-.7-2.33-1.17-4.78-2.17-6.98-4.3-9.37-11.58-15.09-21.7-17.17-1.81-.37-2.8-1.48-2.8-3.09Z"/>
</svg>