<?xml version="1.0" encoding="UTF-8"?>
<svg id="Layer_1" data-name="Layer 1" xmlns="http://www.w3.org/2000/svg" viewBox="0 0 323.33 308.05">
  <defs>
    <style>
      .cls-1 {
        fill: #3f3f3e;
      }
    </style>
  </defs>
  <path class="cls-1" d="m242.77,226.68c2.26,0,4.25-.04,6.24.01,2.04.05,3.04,1.02,3.01,2.83-.02,1.79-1.04,2.72-3.11,2.74-3.46.03-6.92,0-10.38,0-.59,0-1.18,0-1.99,0,0,2.25,0,4.3,0,6.34,0,1.28-.29,2.44-1.59,3.02-2.01.91-3.98-.35-4.06-2.64-.07-2.17-.02-4.34-.02-6.62h-16.4c0,2.22.05,4.44-.01,6.66-.06,2.15-1.73,3.32-3.73,2.7-1.38-.43-1.85-1.47-1.85-2.8-.01-2.17,0-4.34,0-6.56h-16.4c0,2.09.03,4.08,0,6.07-.04,2.3-1.01,3.45-2.84,3.44-1.84,0-2.8-1.17-2.82-3.46-.02-1.99,0-3.97,0-6.06h-16.39c0,2.05.01,4.09,0,6.13-.02,2.26-1.01,3.42-2.87,3.39-1.77-.03-2.71-1.13-2.75-3.33-.03-2.05,0-4.09,0-6.18h-16.39c0,2.1.03,4.09,0,6.07-.04,2.3-1.02,3.45-2.85,3.44-1.84-.01-2.79-1.17-2.8-3.47-.01-1.99,0-3.97,0-6.05h-16.39c0,2.06.01,4.1,0,6.14-.02,2.19-.93,3.31-2.7,3.38-1.85.07-2.88-1.08-2.93-3.34-.04-2.05,0-4.09,0-6.21h-16.39c0,2.13,0,4.22,0,6.3,0,1.28-.29,2.43-1.61,3-2.03.88-3.94-.38-4.02-2.69-.07-2.12-.06-4.24-.1-6.36,0-.04-.07-.09-.28-.32-3.46,0-7.08,0-10.7,0-1.21,0-2.43,0-3.64,0-2.87-.02-3.61-.76-3.63-3.7-.02-2.49,0-4.98,0-7.46,0-.6,0-1.19,0-2.06-1.96,0-3.75.02-5.54,0-2.35-.03-3.44-.91-3.47-2.79-.03-1.96,1.08-2.88,3.54-2.9,1.75-.01,3.5,0,5.36,0v-16.39c-1.91,0-3.76.02-5.61,0-2.24-.03-3.26-.9-3.29-2.75-.03-1.92,1.02-2.81,3.37-2.84,1.8-.02,3.61,0,5.53,0v-16.39c-1.17,0-2.31-.05-3.43,0-4.6.24-5.4-.81-5.44-2.82-.03-1.76.4-3.2,5.52-2.91,1.08.06,2.16,0,3.35,0v-16.39c-1.9,0-3.76.01-5.61,0-2.25-.02-3.27-.88-3.3-2.73-.03-1.93,1.01-2.82,3.36-2.84,1.8-.02,3.61,0,5.53,0v-16.39c-1.84,0-3.63.02-5.43,0-2.35-.03-3.44-.93-3.46-2.8-.03-1.95,1.09-2.88,3.54-2.9,1.75-.01,3.5,0,5.36,0v-16.39c-1.84,0-3.63,0-5.42,0-2.4-.02-3.45-.84-3.48-2.73-.03-1.97,1.03-2.84,3.54-2.86,1.74-.02,3.49,0,5.35,0v-16.39c-1.78,0-3.52,0-5.25,0-2.52-.02-3.62-.87-3.63-2.8-.02-1.95,1.09-2.86,3.56-2.88,1.75-.01,3.49,0,5.45,0,0-2.83,0-5.49,0-8.14,0-1.88-.04-3.76.03-5.64.07-1.85,1.15-2.88,2.84-2.85,1.68.03,2.66,1.09,2.74,2.96.02.61,0,1.21,0,1.82,0,51.58,0,103.17,0,154.75v2.48h15.99c.03-.63.09-1.22.09-1.8,0-16.75,0-33.5.02-50.25,0-1.11-.14-1.81-1.37-2.32-5.55-2.31-7.99-8.46-5.64-13.9,2.33-5.41,8.77-8.02,14.16-5.58,1.35.61,2.08.46,3.12-.49,5.11-4.66,10.29-9.25,15.48-13.82.9-.79,1.31-1.37.79-2.71-1.47-3.81.04-8.42,3.37-11.1,3.55-2.86,8.53-3.29,12.4-.77,1.47.96,2.42.88,3.82,0,4.04-2.57,8.18-4.98,12.31-7.4.91-.53,1.21-1.09,1.04-2.17-.89-5.8,3.55-11.15,9.71-11.79,5.69-.6,11.15,3.98,11.53,9.7.06.97.27,2.05-.06,2.89-.68,1.72.36,2.36,1.47,3.15,5.08,3.63,10.14,7.3,15.28,11,4.4-2.84,8.84-3.05,13.38,0,5.47-3.95,10.99-7.89,16.43-11.94.44-.33.47-1.49.35-2.21-.9-5.45,2.53-10.77,7.86-12.04,5.12-1.23,10.39,1.56,12.21,6.45,1.88,5.06-.29,10.75-5.23,13.07-1.45.68-1.73,1.46-1.73,2.87.03,33.01.02,66.03.02,99.04,0,.66,0,1.32,0,2.29Zm-101.09-.14h27.93v-2.26c0-32.83,0-65.65,0-98.48,0-.49.07-.99-.03-1.45-.08-.36-.29-.8-.59-.98-1.44-.85-2.93-1.63-4.52-2.49-5.07,2.9-10.26,5.87-15.42,8.83,1.44,5.15-.84,10.72-7.38,13.17v83.66Zm96.01.02c0-1.02,0-1.81,0-2.59,0-32.33-.02-64.67.04-97,0-2.31-.03-4.16-2.78-4.96-1.04-.3-1.65-.47-2.55.2-4.84,3.56-9.7,7.07-14.61,10.53-1,.7-1.25,1.37-1,2.56,1.01,4.83-1.46,9.74-6,11.62-1.4.58-1.71,1.28-1.71,2.66.04,24.99.03,49.99.03,74.98v2.02h28.59Zm-58.69-105.21c-.69.45-1.16.94-1.71,1.08-1.94.47-2.12,1.75-2.12,3.49.05,32.76.03,65.53.03,98.29,0,.76,0,1.53,0,2.32h28.31v-2.3c0-22.57,0-45.14,0-67.71,0-2.55.06-5.1-.04-7.64-.02-.55-.48-1.35-.96-1.57-5.4-2.53-7.61-6.7-6.71-12.69.07-.47-.19-1.22-.55-1.48-5.37-3.95-10.79-7.83-16.25-11.78Zm-42.78,105.21v-1.62c0-26.88-.03-53.75.06-80.63,0-1.88-1.32-1.81-2.26-2.47-1.04-.73-1.55.1-2.15.63-5.21,4.64-10.38,9.32-15.63,13.92-1.04.91-1.37,1.6-.91,3.04,1.67,5.18-.79,10.6-5.73,12.65-1.33.55-1.61,1.23-1.6,2.54.04,16.68.03,33.37.03,50.05v1.89h28.2Zm-31.1-69.06c-2.87.02-5.05,2.25-5.01,5.12.04,2.76,2.24,4.94,5.01,4.96,2.8.03,5.14-2.27,5.14-5.06,0-2.79-2.3-5.05-5.14-5.03Zm62.25-44.29c-.02,2.68,2.26,4.95,4.99,4.98,2.78.03,5.06-2.26,5.07-5.08,0-2.86-2.2-5.08-5.05-5.07-2.73,0-5,2.35-5.01,5.17Zm39.04,19.15c-2.89-.05-5.12,2.09-5.15,4.96-.03,2.87,2.16,5.11,5.01,5.12,2.77.01,4.98-2.12,5.07-4.89.09-2.85-2.08-5.14-4.93-5.19Zm-62.58.19c-.03-2.63-2.46-4.86-5.19-4.77-2.69.09-4.99,2.35-4.95,4.86.04,2.61,2.47,4.79,5.26,4.72,2.82-.07,4.92-2.14,4.89-4.81Zm91.29-19.91c-.05,3.04,1.96,5.24,4.78,5.24,2.62,0,4.73-2.05,4.79-4.67.06-2.72-2.01-4.83-4.75-4.86-2.8-.03-4.77,1.73-4.81,4.29Z"/>
</svg>