<?xml version="1.0" encoding="UTF-8"?>
<svg id="Layer_1" data-name="Layer 1" xmlns="http://www.w3.org/2000/svg" viewBox="0 0 323.33 308.05">
  <defs>
    <style>
      .cls-1 {
        fill: #3f3f3e;
      }

      .cls-2 {
        fill: none;
        stroke: #3f3f3e;
        stroke-miterlimit: 10;
        stroke-width: 4px;
      }
    </style>
  </defs>
  <path class="cls-1" d="m80.54,73.7c-.83.93-1.59,1.92-2.5,2.76-1.23,1.14-2.71,1.05-3.8-.07-1.01-1.04-1.12-2.56-.05-3.68,2.58-2.69,5.22-5.33,7.92-7.91,1.15-1.1,2.53-1.05,3.67.06,2.64,2.55,5.24,5.14,7.79,7.79,1.16,1.21,1.06,2.72-.06,3.81-1.11,1.08-2.52,1.08-3.82-.03-.49-.42-.95-.89-1.39-1.37-.4-.44-.74-.93-1.48-1.19v153.26h153.49c-.97-1-1.83-1.84-2.64-2.72-1.31-1.42-1.33-2.91-.11-4.07,1.18-1.12,2.6-1.09,3.94.22,2.5,2.44,4.98,4.91,7.41,7.41,1.31,1.34,1.29,2.54-.03,3.88-2.53,2.58-5.08,5.14-7.67,7.66-1.28,1.25-2.84,1.26-3.96.18-1.22-1.18-1.19-2.67.16-4.06.78-.8,1.67-1.5,2.51-2.25-.06-.19-.12-.39-.18-.58-.71,0-1.42,0-2.13,0-46.38,0-92.77,0-139.15,0-4.32,0-8.65,0-12.97,0-3.81,0-4.36-.54-4.36-4.29,0-34.77,0-69.54,0-104.3,0-16.05,0-32.1,0-48.15v-2.06c-.2-.09-.41-.17-.61-.26Z"/>
  <path class="cls-1" d="m179.94,121.91c16.28-16.27,32.45-32.42,48.68-48.64-1.3.19-2.66.37-4.01.58-1.65.26-3.09.02-3.36-1.92-.25-1.76.86-2.47,2.49-2.7,3.79-.53,7.56-1.17,11.35-1.7,2.36-.33,3.42.66,3.14,3.06-.45,3.88-1.05,7.74-1.62,11.6-.23,1.57-1.04,2.74-2.8,2.44-1.6-.27-2.04-1.51-1.83-3.03.2-1.46.38-2.93.65-5-.96.92-1.55,1.47-2.12,2.04-15.64,15.64-31.27,31.27-46.91,46.91-2.5,2.5-2.73,2.52-5.77.61-8.92-5.61-17.84-11.22-26.77-16.83-.65-.41-1.33-.78-2.13-1.25-5.48,5.4-10.93,10.76-16.37,16.13-6.67,6.59-13.33,13.19-20,19.78-.5.49-.98,1.26-1.56,1.35-.96.15-2.35.21-2.88-.34-.52-.54-.34-1.92-.17-2.88.09-.51.79-.93,1.23-1.36,12.17-12.03,24.34-24.06,36.51-36.08,2.52-2.49,2.77-2.5,5.78-.61,8.99,5.65,17.98,11.3,26.97,16.95.59.37,1.2.72,1.5.9Z"/>
  <rect class="cls-2" x="103.57" y="152.23" width="29.31" height="76.41"/>
  <rect class="cls-2" x="184.31" y="152.23" width="29.31" height="76.41"/>
  <rect class="cls-2" x="143.71" y="133.01" width="29.31" height="95.62"/>
</svg>