<?xml version="1.0" encoding="UTF-8"?>
<svg id="Layer_1" data-name="Layer 1" xmlns="http://www.w3.org/2000/svg" viewBox="0 0 323.33 308.05">
  <defs>
    <style>
      .cls-1 {
        fill: #ffcd00;
      }
    </style>
  </defs>
  <path class="cls-1" d="m242.37,225.28c2.24,0,4.23-.04,6.21.01,2.03.05,3.02,1.02,3,2.82-.02,1.78-1.04,2.71-3.09,2.73-3.44.03-6.88,0-10.33,0-.59,0-1.17,0-1.98,0,0,2.24,0,4.28,0,6.31,0,1.27-.29,2.43-1.58,3.01-2,.9-3.96-.35-4.04-2.63-.07-2.16-.02-4.32-.02-6.58h-16.32c0,2.21.05,4.42-.01,6.62-.06,2.14-1.72,3.3-3.71,2.68-1.37-.42-1.84-1.46-1.84-2.78-.01-2.16,0-4.31,0-6.52h-16.32c0,2.08.03,4.06,0,6.04-.04,2.29-1.01,3.43-2.83,3.43-1.83,0-2.78-1.16-2.8-3.44-.02-1.98,0-3.96,0-6.03h-16.31c0,2.04.01,4.07,0,6.1-.02,2.25-1.01,3.41-2.85,3.37-1.76-.03-2.7-1.13-2.73-3.31-.03-2.04,0-4.07,0-6.15h-16.31c0,2.09.03,4.07,0,6.04-.04,2.29-1.01,3.43-2.84,3.42-1.83-.01-2.77-1.16-2.79-3.45-.01-1.98,0-3.95,0-6.02h-16.31c0,2.05.01,4.08,0,6.11-.02,2.18-.92,3.3-2.68,3.36-1.84.07-2.87-1.07-2.91-3.32-.04-2.04,0-4.07,0-6.18h-16.31c0,2.12,0,4.19,0,6.27,0,1.27-.29,2.42-1.6,2.99-2.02.87-3.92-.38-4-2.68-.07-2.11-.06-4.22-.1-6.33,0-.04-.07-.09-.28-.32-3.44,0-7.05,0-10.65,0-1.21,0-2.42,0-3.62,0-2.86-.02-3.59-.76-3.61-3.68-.02-2.48,0-4.95,0-7.43,0-.59,0-1.19,0-2.05-1.95,0-3.73.02-5.52,0-2.34-.03-3.43-.91-3.45-2.78-.03-1.95,1.08-2.86,3.52-2.88,1.74-.01,3.48,0,5.33,0v-16.31c-1.9,0-3.74.02-5.58,0-2.23-.03-3.25-.9-3.27-2.73-.03-1.91,1.02-2.8,3.35-2.82,1.79-.02,3.59,0,5.5,0v-16.31c-1.17,0-2.29-.05-3.42,0-4.57.24-5.37-.8-5.41-2.81-.03-1.75.4-3.19,5.5-2.9,1.07.06,2.15,0,3.33,0v-16.31c-1.9,0-3.74.01-5.58,0-2.24-.02-3.25-.87-3.28-2.72-.03-1.92,1.01-2.8,3.35-2.82,1.79-.02,3.59,0,5.5,0v-16.31c-1.83,0-3.62.02-5.4,0-2.34-.03-3.42-.93-3.45-2.79-.03-1.94,1.09-2.86,3.52-2.88,1.74-.01,3.48,0,5.33,0v-16.31c-1.83,0-3.61,0-5.39,0-2.39-.02-3.44-.84-3.47-2.72-.03-1.96,1.03-2.82,3.52-2.85,1.73-.02,3.47,0,5.33,0v-16.31c-1.77,0-3.5,0-5.23,0-2.51-.02-3.6-.87-3.62-2.79-.02-1.95,1.09-2.85,3.54-2.86,1.74-.01,3.48,0,5.43,0,0-2.82,0-5.46,0-8.1,0-1.87-.04-3.75.03-5.62.07-1.84,1.14-2.87,2.82-2.83,1.67.03,2.65,1.08,2.72,2.95.02.6,0,1.21,0,1.81,0,51.33,0,102.67,0,154v2.47h15.92"/>
  <g>
    <path class="cls-1" d="m111.09,203.1c-1.41,0-2.66.01-3.91,0-2.93-.04-4.92-1.97-5.07-4.89-.02-.35,0-.71,0-1.06,0-18.75,0-37.51,0-56.26,0-4.22,1.76-6,5.93-6.01.95,0,1.9,0,3.05,0,0-2.7.02-5.25,0-7.8-.01-1.31.46-2.28,1.77-2.65,1.65-.46,3.03.67,3.06,2.56.05,2.56.01,5.13.01,7.89,1.32,0,2.52-.02,3.71,0,3.26.06,5.17,1.94,5.18,5.19.02,19.26.02,38.52,0,57.77,0,3.34-1.94,5.22-5.28,5.24-1.15,0-2.29,0-3.61,0,0,2.7.02,5.25,0,7.81-.02,1.52-.85,2.53-2.12,2.71-1.44.21-2.67-.9-2.69-2.55-.04-2.57-.01-5.14-.01-7.98Zm8.76-4.92v-58.46c-3.81,0-7.49.06-11.17-.03-1.37-.03-1.77.34-1.77,1.75.05,18.4.03,36.79.04,55.19,0,.49.04.98.07,1.55h12.83Z"/>
    <path class="cls-1" d="m206.15,88.72c0-2.76-.04-5.33.01-7.89.04-2.07,1.88-3.39,3.43-2.35.69.46,1.27,1.58,1.33,2.43.17,2.51.06,5.03.06,7.81,1.24,0,2.43,0,3.61,0,3.45.02,5.36,1.96,5.37,5.5.01,12.96,0,25.91,0,38.87,0,6.05,0,12.1,0,18.15,0,3.82-1.84,5.67-5.64,5.69-1.05,0-2.1,0-3.34,0,0,2.71.02,5.26,0,7.81-.02,1.7-.93,2.69-2.4,2.68-1.45,0-2.38-1.01-2.42-2.69-.03-1.26,0-2.52,0-3.78,0-1.26,0-2.51,0-4.02-1.27,0-2.46.02-3.64,0-3.35-.06-5.25-1.93-5.25-5.28-.01-19.21-.01-38.42,0-57.62,0-3.42,1.93-5.29,5.37-5.31,1.1,0,2.2,0,3.52,0Zm8.87,63.28v-58.36h-12.81v58.36h12.81Z"/>
    <path class="cls-1" d="m174.45,121.72c0-2.6-.03-4.97.02-7.34.01-.69.02-1.6.43-2,.62-.59,1.59-1.12,2.41-1.11,1.13,0,1.91.9,1.94,2.12.06,2.12.03,4.23.04,6.35,0,.59,0,1.19,0,1.97,1.39,0,2.63-.02,3.87,0,3,.05,5.08,2.05,5.08,5.02.02,19.41.02,38.82,0,58.23,0,2.91-2.01,4.87-4.97,4.99-1.25.05-2.51,0-3.99,0,0,1.62,0,3.12,0,4.61,0,.86,0,1.71,0,2.57-.01,2.21-.81,3.3-2.41,3.29-1.61,0-2.42-1.1-2.43-3.31,0-2.31,0-4.62,0-7.16-1.26,0-2.4.01-3.54,0-3.42-.05-5.36-1.96-5.36-5.35,0-19.21,0-38.42,0-57.62,0-3.3,1.98-5.26,5.26-5.29,1.15,0,2.3,0,3.63,0Zm8.85,63.35v-58.43h-12.81v58.43h12.81Z"/>
    <path class="cls-1" d="m147.63,173.12c0,2.73.03,5.2,0,7.66-.03,1.72-.92,2.76-2.31,2.84-1.41.08-2.47-.96-2.5-2.6-.04-2.56-.01-5.12-.01-7.9-1.37,0-2.61.02-3.85,0-3.07-.05-5.12-2.07-5.12-5.15-.01-19.31-.01-38.62,0-57.92,0-3.1,2-5.1,5.09-5.19,1.2-.03,2.41,0,3.88,0,0-1.94,0-3.78,0-5.62,0-.86-.03-1.72.03-2.57.1-1.38,1.03-2.3,2.3-2.34,1.26-.04,2.34.82,2.44,2.19.12,1.65.06,3.32.07,4.99,0,1.05,0,2.1,0,3.35,1.33,0,2.52-.02,3.71,0,3.22.07,5.18,2.02,5.18,5.22.01,19.26.01,38.51,0,57.77,0,3.3-1.97,5.24-5.28,5.27-1.15.01-2.29,0-3.62,0Zm-8.84-63.36v58.43h12.81v-58.43h-12.81Z"/>
  </g>
</svg>