<?xml version="1.0" encoding="UTF-8"?>
<svg id="Layer_1" data-name="Layer 1" xmlns="http://www.w3.org/2000/svg" viewBox="0 0 323.33 308.05">
  <defs>
    <style>
      .cls-1 {
        fill: #ffcd00;
      }
    </style>
  </defs>
  <path class="cls-1" d="m134.57,140.68c-2.77-2.54-4.04-5.49-3.23-9.15.96-4.32,4.8-7.07,9.35-6.69,4.11.34,7.63,3.95,7.67,8.17.01,1.55.6,2.12,1.9,2.62,3.58,1.38,7.11,2.91,10.72,4.4.36-.5.68-.91.97-1.35,4.2-6.37,8.43-12.73,12.56-19.15.44-.68.61-1.76.45-2.56-.76-3.77.71-7.53,3.93-9.54,3.08-1.93,7.2-1.52,10.25,1.01,3.01,2.5,4.01,6.16,2.51,9.74-.39.94-.35,1.58.21,2.4,2.38,3.51,4.69,7.07,7.23,10.91,1.42-5.31,2.73-10.25,4.05-15.19.2-.74.38-1.49.61-2.22.74-2.41,1.16-4.35-1-6.77-3.33-3.73-1.73-9.9,2.55-12.47,4.35-2.62,9.88-1.12,12.23,3.32,2.38,4.48.59,9.96-3.98,12.01-.96.43-2.02.61-3.22.96-1.65,6-3.35,12.15-5.02,18.3-.69,2.56-2.08,5.25-1.73,7.68.33,2.37,2.46,4.49,3.82,6.71,3.58,5.86,7.19,11.69,10.74,17.57.57.95,1.09,1.22,2.25.98,4.79-1.01,9.22,2.46,10.01,7.7.67,4.45-2.91,8.92-7.61,9.49-4.78.59-9.39-2.89-9.62-7.57-.09-1.8.68-3.64,1.03-5.47.1-.51.3-1.2.07-1.55-4.56-6.91-9.18-13.77-14.04-21.02-.5,1.85-1,3.31-1.23,4.82-.07.45.6,1.06,1,1.53,2.34,2.79,2.71,6.69.89,9.97-1.76,3.18-5.25,4.9-8.99,4.41-3.29-.43-6.38-3.09-6.92-6.49-.27-1.71-1.12-2.28-2.5-2.86-6.55-2.72-13.06-5.53-19.75-8.39-1.75,2.7-3.48,5.37-5.21,8.04-.71,1.09-1.35,2.24-2.14,3.27-1.51,1.97-2.32,3.73-1.17,6.46,1.46,3.49-.43,7.52-3.61,9.54-3.17,2.01-7.24,1.77-10.11-.6-3.03-2.5-4.08-6.51-2.63-10.09.15-.38.34-.75.55-1.24-1.75-1.66-3.51-3.32-5.4-5.1-.26.49-.48.86-.66,1.26-3.93,8.67-7.83,17.35-11.79,26.01-.42.91-.38,1.52.21,2.37,2.4,3.48,2.07,7.88-.71,10.97-2.63,2.93-6.93,3.7-10.38,1.88-3.58-1.89-5.46-6.08-4.46-9.93,1.04-4,4.51-6.64,8.82-6.56,1,.02,1.45-.27,1.85-1.16,4.2-9.33,8.47-18.62,12.64-27.96.23-.5.04-1.53-.35-1.92-7.29-7.2-14.62-14.36-21.99-21.47-.37-.35-1.28-.52-1.75-.32-3.51,1.47-6.64.81-9.41-1.6-2.72-2.36-3.52-5.45-2.57-8.86.99-3.54,3.39-5.83,6.98-6.6,5.75-1.22,11.37,4.56,9.99,10.3-.35,1.48-.03,2.31,1.02,3.32,6.62,6.36,13.16,12.8,19.73,19.21.41.4.86.78,1.39,1.26,1.03-2.32,1.98-4.47,3-6.76Zm44.6-17.83c-4.15,6.5-8.32,13.02-12.58,19.69,6.75,2.78,13.4,5.52,20.07,8.26,1.93-2.21,4.18-3.58,7.13-3.61.31,0,.76-.63.88-1.04.68-2.33,1.35-4.66,1.85-7.03.16-.75-.03-1.76-.44-2.41-1.98-3.16-4.09-6.23-6.16-9.33-.97-1.46-1.96-2.9-2.9-4.3-3.25,1.08-4.02,1.05-7.85-.22Zm-21.13,22.17c-3.9-1.63-7.49-3.15-11.1-4.59-.38-.15-.96.05-1.4.22-1.52.58-3.05,1.17-4.53,1.85-.62.28-1.38.68-1.65,1.23-1.15,2.33-2.2,4.71-3.13,7.13-.2.52.03,1.48.42,1.9,1.7,1.81,3.5,3.53,5.35,5.18.41.37,1.19.44,1.81.45,1.51.02,3.02-.05,4.53-.12.42-.02,1.04-.06,1.21-.32,2.82-4.21,5.57-8.46,8.48-12.91Zm25.77-33.07c-1.78-.04-3.35,1.3-3.41,2.91-.07,1.79,1.61,3.67,3.33,3.75,1.75.08,3.28-1.37,3.37-3.2.09-1.83-1.42-3.42-3.29-3.46Zm-82.81,13.76c1.82-.04,3.32-1.52,3.31-3.27,0-1.86-1.52-3.31-3.44-3.3-1.9.01-3.35,1.53-3.27,3.43.07,1.78,1.58,3.18,3.41,3.13Zm48.66,40.91c0-1.77-1.34-3.11-3.14-3.12-1.83,0-3.33,1.39-3.39,3.16-.06,1.84,1.49,3.48,3.27,3.48,1.76,0,3.26-1.62,3.26-3.51Zm70.12,4.25c.03,1.91,1.37,3.34,3.15,3.34,1.81,0,3.33-1.48,3.29-3.21-.04-1.88-1.42-3.32-3.19-3.32-1.87,0-3.28,1.38-3.25,3.19Zm-82.78-37.19c.03,1.95,1.41,3.32,3.36,3.33,1.73,0,3.14-1.53,3.09-3.38-.04-1.69-1.49-3-3.3-3-1.88,0-3.18,1.26-3.16,3.05Zm72.97-35.03c-1.7,0-3.25,1.49-3.23,3.11.02,1.86,1.55,3.3,3.47,3.26,1.71-.03,2.98-1.44,2.97-3.3,0-1.73-1.4-3.07-3.21-3.08Zm-12.67,57.94c0-1.91-1.5-3.61-3.19-3.61-1.7,0-3.33,1.62-3.31,3.29.01,1.71,1.56,3.1,3.45,3.08,1.76-.02,3.06-1.19,3.06-2.76Zm-80.01,35.47c0-1.68-1.45-3.2-3.1-3.23-1.7-.04-3.33,1.52-3.36,3.21-.03,1.69,1.53,3.16,3.35,3.18,1.73.01,3.11-1.39,3.11-3.15Z"/>
  <path class="cls-1" d="m76.9,72.27c-.83.93-1.59,1.92-2.5,2.76-1.23,1.14-2.71,1.05-3.8-.07-1.01-1.04-1.12-2.56-.05-3.68,2.58-2.69,5.22-5.33,7.92-7.91,1.15-1.1,2.53-1.05,3.67.06,2.64,2.55,5.24,5.14,7.79,7.79,1.16,1.21,1.06,2.72-.06,3.81-1.11,1.08-2.52,1.08-3.82-.03-.49-.42-.95-.89-1.39-1.37-.4-.44-.74-.93-1.48-1.19v153.26h153.49c-.97-1-1.83-1.84-2.64-2.72-1.31-1.42-1.33-2.91-.11-4.07,1.18-1.12,2.6-1.09,3.94.22,2.5,2.44,4.98,4.91,7.41,7.41,1.31,1.34,1.29,2.54-.03,3.88-2.53,2.58-5.08,5.14-7.67,7.66-1.28,1.25-2.84,1.26-3.96.18-1.22-1.18-1.19-2.67.16-4.06.78-.8,1.67-1.5,2.51-2.25-.06-.19-.12-.39-.18-.58-.71,0-1.42,0-2.13,0-46.38,0-92.77,0-139.15,0-4.32,0-8.65,0-12.97,0-3.81,0-4.36-.54-4.36-4.29,0-34.77,0-69.54,0-104.3,0-16.05,0-32.1,0-48.15v-2.06c-.2-.09-.41-.17-.61-.26Z"/>
</svg>