<?xml version="1.0" encoding="UTF-8"?>
<svg id="Layer_1" data-name="Layer 1" xmlns="http://www.w3.org/2000/svg" viewBox="0 0 323.33 308.05">
  <defs>
    <style>
      .cls-1 {
        fill: #3f3f3e;
      }
    </style>
  </defs>
  <path class="cls-1" d="m142.64,136.19c5.93,1.75,11.21,4.48,15.76,8.51,9.09,8.06,13.89,18.19,14.13,30.33.17,8.66.01,17.32.09,25.98,0,.82.44,1.83,1.01,2.43,2.35,2.51,4.84,4.89,7.26,7.34,3.03,3.07,3.91,6.71,2.34,10.22-1.68,3.76-4.73,5.44-8.79,5.44-31.67,0-63.34,0-95.01,0-4.01,0-6.96-1.75-8.62-5.43-1.56-3.47-.72-7.11,2.21-10.08,2.46-2.49,4.99-4.91,7.38-7.46.57-.61,1.01-1.61,1.02-2.43.07-8.07.04-16.13.05-24.2,0-19.22,10.78-34.23,28.96-40.33.28-.09.55-.19,1-.34-1.61-3.24-3.18-6.41-4.76-9.57-.69-1.38-1.43-2.73-2.05-4.14-.96-2.19.25-4.07,2.65-4.21.35-.02.71,0,1.07,0,12.45,0,24.91,0,37.36,0,3.94,0,4.99,1.75,3.21,5.32-1.8,3.6-3.61,7.2-5.42,10.8-.29.57-.53,1.16-.85,1.84Zm-15.61,84.54c15.77,0,31.54,0,47.32.01,1.61,0,2.94-.39,3.63-1.97.7-1.61.02-2.84-1.12-3.96-2.83-2.79-5.59-5.65-8.44-8.41-1.11-1.07-1.57-2.23-1.56-3.78.05-9.07.21-18.15-.02-27.21-.35-13.75-6.66-24.08-18.64-30.83-4.33-2.44-8.97-3.81-14.09-3.62-5.62.22-11.26.04-16.9.06-.82,0-1.66.08-2.46.26-16.31,3.72-27.55,17.78-27.6,34.53-.02,8.83-.05,17.67.03,26.5.02,1.82-.55,3.14-1.85,4.38-2.91,2.79-5.73,5.68-8.56,8.54-.96.96-1.3,2.11-.78,3.42.54,1.35,1.57,2.03,3.02,2.08.53.02,1.07,0,1.6,0,15.48,0,30.95,0,46.43,0Zm-15.3-96.75c1.77,3.55,3.44,6.81,5.01,10.12.45.95,1.02,1.25,2.04,1.24,4.15-.06,8.34-.39,12.43.08,4.3.49,6.66-.99,7.96-5.02.71-2.19,2.01-4.2,3.11-6.41h-30.56Z"/>
  <path class="cls-1" d="m179.47,186.24c-.82-1.73-1.58-3.32-2.41-5.09,2.07-.98,4.03-1.91,5.99-2.84,25.53-12.19,42.12-31.87,49.46-59.23,1.79-6.67,2.63-13.49,2.69-20.4.05-6.69.01-13.39.01-20.32-1.67,0-3.24,0-4.82,0-14.04.05-27.42-2.87-39.97-9.22-3.8-1.92-7.39-4.25-11.03-6.47-.81-.49-1.31-.62-2.17-.04-15.96,10.91-33.65,16.05-52.96,15.72-.89-.02-1.78,0-2.96,0,.25,11.22-.67,22.4,1.19,33.69-1.91.31-3.69.61-5.77.95-.36-4.15-.93-8.08-1-12.03-.16-8.3-.08-16.61-.08-24.91,0-2.39,1.06-3.3,3.53-3.41,6.8-.3,13.66-.24,20.39-1.1,12.79-1.64,24.4-6.6,34.98-13.95.44-.3.87-.62,1.3-.93,2.12-1.5,2.79-1.52,4.93.04,5.44,3.96,11.26,7.22,17.49,9.77,9.82,4.03,20.04,6.06,30.65,6.17,2.91.03,5.81-.01,8.72.02,2.14.02,3.28,1.05,3.26,3.12-.06,9.55.36,19.13-.38,28.63-2.18,28.06-14.7,50.73-36.81,68.1-7.32,5.75-15.58,9.87-24.23,13.72Z"/>
  <path class="cls-1" d="m223.87,89.79c-4.42-.62-8.6-1.08-12.72-1.82-11.18-2.02-21.67-5.96-31.51-11.64-.77-.44-1.38-.81-2.4-.22-13.49,7.83-28.02,12.34-43.6,13.37-.23.02-.46.09-.86.17-.23,7.45-.16,14.86,1.29,22.33-1.91.37-3.64.7-5.78,1.11-.42-4.26-.99-8.35-1.19-12.46-.21-4.38-.09-8.78-.08-13.17,0-2.37.94-3.35,3.3-3.45,16.5-.72,31.83-5.3,45.93-13.91,1.46-.89,2.73-.82,4.13.04,10.53,6.47,21.9,10.7,34.1,12.64,3.97.63,8.01.85,12.02,1.23,1.87.18,2.96,1.09,2.98,2.86.14,10.26.24,20.52-2.43,30.57-6.9,25.89-22.55,44.45-46.74,55.86-.21.1-.45.14-.86.27-.4-.83-.81-1.66-1.2-2.5-.38-.8-.75-1.6-1.09-2.33,32.67-16.29,47.88-42.73,46.71-78.95Z"/>
  <path class="cls-1" d="m175.48,89.61v-5.45h5.54v5.45h-5.54Z"/>
  <path class="cls-1" d="m138.53,95.52h5.46v5.54h-5.46v-5.54Z"/>
  <path class="cls-1" d="m218.02,101.06h-5.46v-5.49h5.46v5.49Z"/>
  <path class="cls-1" d="m149.93,129.65h5.41v5.54h-5.41v-5.54Z"/>
  <path class="cls-1" d="m201.12,129.68h5.49v5.52h-5.49v-5.52Z"/>
  <path class="cls-1" d="m175.49,160.81v-5.47h5.47v5.47h-5.47Z"/>
  <path class="cls-1" d="m129.9,197.95v5.56h-5.72v-5.52h-8.44v-5.74c3.18,0,6.36,0,9.55,0,1.84,0,3.68.02,5.52,0,2.8-.04,4.7-1.75,4.73-4.23.02-2.48-1.88-4.27-4.66-4.3-2.55-.03-5.1,0-7.65,0-5.94-.03-10.39-4.23-10.45-9.83-.06-5.64,4.26-9.92,10.18-10.1.34-.01.69-.04,1.15-.06v-5.5h5.72v5.52h8.44v5.74c-3.18,0-6.36,0-9.55,0-1.84,0-3.68-.02-5.52,0-2.8.03-4.71,1.75-4.73,4.23-.02,2.48,1.88,4.27,4.65,4.3,2.61.03,5.22,0,7.83.01,5.79.04,10.22,4.29,10.28,9.82.06,5.57-4.24,9.92-10,10.1-.4.01-.8,0-1.33,0Z"/>
</svg>