<?xml version="1.0" encoding="UTF-8"?>
<svg id="Layer_1" data-name="Layer 1" xmlns="http://www.w3.org/2000/svg" viewBox="0 0 323.33 308.05">
  <defs>
    <style>
      .cls-1 {
        fill: #3f3f3e;
      }
    </style>
  </defs>
  <path class="cls-1" d="m217.95,139.55c0-3.51.18-6.68-.03-9.83-.59-8.57-2.95-16.66-6.8-24.34-1.02-2.04-.8-3.8.5-5.18,1.26-1.34,3.18-1.84,4.77-.95.89.5,1.78,1.33,2.23,2.23,6.08,12.09,8.82,24.88,7.81,38.41-.16,2.16-.54,4.3-.64,6.46-.03.65.41,1.46.87,1.99,6.26,7.1,11.53,14.82,14.73,23.8,6.89,19.31-.24,39.17-17.55,48.92-22.97,12.94-52.67-1.2-57.06-27.21-.55-3.24-.62-6.55-.92-9.86-2.78.39-5.67.9-8.57,1.19-24.26,2.42-47.57-14.24-53.33-38.07-6.53-27.03,9.39-53.86,36.22-61.06,25.37-6.8,52.19,7.49,60.55,32.27.99,2.95.11,5.21-2.37,6.1-2.46.88-4.56-.34-5.64-3.27-.08-.23-.17-.45-.26-.67-4.16-11.01-11.55-19.08-22.29-23.91-25.23-11.35-54.47,4.6-58.72,31.94-3.63,23.35,13.05,45.27,36.52,48.06,6.33.75,12.49.14,18.5-1.92.74-.25,1.65-.93,1.88-1.61,3.87-11.18,10.6-20.52,18.97-28.65,4.61-4.47,9.71-8.44,14.7-12.51,2.21-1.8,3.79-1.72,6.07-.03,2.8,2.08,5.51,4.29,8.26,6.45.45.35.89.71,1.6,1.27Zm-43.37,47.81c.08.88.16,2.33.36,3.75,1.99,14.2,13.83,25.33,27.83,26.19,14.77.91,27.84-8.35,31.64-22.44,2.5-9.25.51-17.9-3.81-26.13-5.94-11.3-14.77-20.1-24.67-27.94-.88-.69-1.37-.29-2,.21-7.81,6.13-14.85,13.02-20.51,21.21-5.11,7.4-8.62,15.41-8.83,25.15Z"/>
  <path class="cls-1" d="m194.59,73.79c-.28-1.39-.63-2.61-.75-3.85-.24-2.36,1.11-4.16,3.34-4.65,2.07-.46,4.28.82,4.88,3.04,1.49,5.57,2.92,11.17,4.28,16.78.57,2.35-1.36,4.88-3.81,4.92-5.72.09-11.45.07-17.17-.02-2.13-.03-3.7-1.77-3.83-3.85-.14-2.26,1.14-4.08,3.35-4.43,1.53-.25,3.1-.19,5-.29-.53-.46-.82-.78-1.17-1.02-26.4-17.79-63.65-12.76-84.5,11.37-11.51,13.32-17.3,28.79-16.21,46.33,1.52,24.27,13.3,42.44,34.55,54.27,10.9,6.07,22.76,8.27,35.19,7.48,2.02-.13,3.73.32,4.76,2.2.84,1.52.85,3.19-.33,4.37-.89.89-2.28,1.67-3.51,1.78-36.22,3.09-69.69-21.7-77.56-57.36-8.57-38.84,15.15-77.61,53.68-87.3,20.44-5.14,39.75-2,57.71,9.14.51.32,1.02.64,1.54.95.1.06.23.06.57.14Z"/>
  <path class="cls-1" d="m144.9,123.66c-.12,2.02,1.06,3.68,2.89,4.6,2.17,1.1,4.56,1.78,6.86,2.63,2.25.83,4.63,1.41,6.72,2.52,5.64,2.99,8.8,7.6,8.19,14.21-.57,6.22-4.05,10.37-9.62,12.92-.11.05-.21.13-.33.15-1.81.3-2.5,1.21-2.42,3.17.09,2.43-2,4.24-4.29,4.19-2.23-.05-4.18-1.82-4.12-4.19.05-1.86-.55-2.69-2.28-3.36-3.31-1.29-5.75-3.69-7.25-6.95-1.15-2.49-.37-4.93,1.85-5.99,2.19-1.04,4.4-.21,5.74,2.17,1.79,3.18,4.95,4.4,8.64,3.35,3.61-1.03,5.69-3.67,5.6-7.02-.06-2.17-1.2-3.76-2.97-4.63-2.19-1.08-4.58-1.73-6.87-2.6-2.46-.93-5.06-1.63-7.34-2.91-10.97-6.14-9.3-20.17-.03-25.61,1.08-.64,2.24-1.22,3.44-1.56,1.17-.34,1.43-.94,1.42-2.06-.01-3.04,1.72-5,4.25-5,2.54,0,4.29,1.97,4.25,5-.02,1.21.33,1.78,1.5,2.21,3.41,1.24,6.01,3.49,7.72,6.72,1.42,2.67.88,5.21-1.34,6.45-2.27,1.27-4.6.4-6.12-2.3-1.65-2.92-4.87-4.12-8.43-3.14-3.55.98-5.7,3.53-5.68,7.02Z"/>
  <path class="cls-1" d="m211.47,153.86c.56.29,1.58.53,2.2,1.18,4.5,4.71,8.43,9.86,11.38,15.69.93,1.86.27,3.99-1.31,5.16-1.6,1.18-3.65,1.16-5.17-.12-.45-.38-.8-.89-1.15-1.37-3.16-4.37-6.28-8.76-9.49-13.09-1.12-1.5-1.78-2.99-.99-4.82.65-1.5,1.82-2.34,3.44-2.55.24-.03.48-.03,1.1-.07Z"/>
</svg>