<?xml version="1.0" encoding="UTF-8"?>
<svg id="Layer_1" data-name="Layer 1" xmlns="http://www.w3.org/2000/svg" viewBox="0 0 323.33 308.05">
  <defs>
    <style>
      .cls-1 {
        fill: #3f3f3e;
      }
    </style>
  </defs>
  <path class="cls-1" d="m151.95,210.3c-30.1,0-60.2,0-90.3-.02-.97,0-2.05-.05-2.87-.47-1.26-.64-1.61-1.89-1.14-3.26,3.24-9.34,6.5-18.67,9.75-28.01.58-1.67,1.9-2.04,3.49-2.03,5.32.02,10.63-.04,15.95.03,1.47.02,2.18-.38,2.68-1.89,2.59-7.74,5.33-15.43,8.02-23.13,1.05-3,1.36-3.21,4.63-3.21,5.12,0,10.23-.06,15.35.03,1.45.03,2.08-.44,2.54-1.81,2.63-7.79,5.36-15.56,8.07-23.33.98-2.83,1.44-3.14,4.49-3.14,12.89,0,25.78,0,38.67,0,3.11,0,3.51.29,4.56,3.32,2.68,7.71,5.39,15.41,8.01,23.13.46,1.34,1.06,1.85,2.53,1.83,5.38-.1,10.76,0,16.15-.06,1.97-.02,3.04.82,3.67,2.65,2.73,7.97,5.56,15.91,8.27,23.89.44,1.29,1.03,1.74,2.39,1.72,5.25-.08,10.5-.04,15.75-.03,2.85,0,3.34.37,4.3,3.14,2.99,8.58,5.99,17.16,8.98,25.75,1.22,3.49.24,4.89-3.42,4.89-30.17,0-60.33,0-90.5,0Zm-34.79-5.69c0-.3.05-.51,0-.69-2.39-6.89-4.76-13.8-7.25-20.65-.2-.55-1.24-1.12-1.9-1.12-11.49-.07-22.98-.03-34.48-.07-1.13,0-1.67.37-2,1.42-.81,2.53-1.71,5.02-2.58,7.53-1.56,4.5-3.13,8.99-4.74,13.59h52.95Zm8.22-.04h53.05c-.14-.54-.22-.93-.35-1.29-2.26-6.51-4.57-13.01-6.77-19.54-.44-1.32-1.08-1.68-2.42-1.68-10.89.05-21.77.12-32.66-.04-2.44-.04-3.41.78-4.12,2.99-2.09,6.49-4.42,12.9-6.73,19.55Zm114.3.04c-2.55-7.3-5.03-14.5-7.62-21.66-.16-.44-1.13-.82-1.72-.82-11.49-.05-22.98-.02-34.48-.06-1.24,0-1.72.47-2.09,1.56-1.5,4.46-3.09,8.9-4.64,13.34-.87,2.49-1.71,4.99-2.62,7.64h53.16Zm-144.87-28.27h53.14c-2.44-7.02-4.85-13.83-7.15-20.67-.46-1.36-1.08-1.82-2.52-1.81-9.89.07-19.78.02-29.68.04-1.98,0-4.42-.56-5.81.38-1.29.87-1.5,3.39-2.13,5.2-1.94,5.56-3.86,11.12-5.85,16.86Zm114.31.07c-2.57-7.38-4.99-14.46-7.55-21.49-.19-.51-1.29-.98-1.98-.98-11.35-.06-22.71-.02-34.06-.08-1.36,0-1.97.41-2.4,1.7-2.16,6.41-4.42,12.78-6.64,19.17-.18.52-.26,1.07-.41,1.68h53.03Zm-30.73-28.18c-.11-.59-.14-.91-.24-1.21-2.33-6.71-4.72-13.39-6.98-20.12-.4-1.2-1.09-1.25-2.08-1.25-11.43.02-22.86.04-34.29-.02-1.34,0-1.8.51-2.2,1.67-2.17,6.41-4.42,12.79-6.64,19.19-.18.53-.28,1.08-.46,1.75h52.89Zm-57.01,50.8c2.04-5.87,3.92-11.26,5.83-16.74h-11.67c1.95,5.58,3.82,10.93,5.85,16.74Zm55.29-16.82c1.94,5.56,3.81,10.94,5.85,16.82,2.04-5.87,3.92-11.26,5.86-16.82h-11.71Zm-30.58-28.22c1.94,5.56,3.79,10.88,5.65,16.19l.44-.03c1.85-5.33,3.7-10.66,5.62-16.16h-11.7Z"/>
  <path class="cls-1" d="m101.9,109.01c-.6.76-1.05,1.85-1.81,2.15-.84.32-2,.04-2.94-.24-.48-.14-.81-.83-1.16-1.32-3.48-4.94-6.96-9.88-10.42-14.84-1.37-1.96-1.31-3.5.13-4.55,1.41-1.03,3.06-.58,4.37,1.26,3.56,5.05,7.11,10.1,10.64,15.17.44.64.71,1.39,1.19,2.36Z"/>
  <path class="cls-1" d="m154.73,90.59c0,3.06.02,6.12,0,9.17-.01,2.14-1.07,3.43-2.75,3.45-1.69.02-2.81-1.27-2.81-3.39-.02-6.25-.02-12.5,0-18.75,0-2.17,1.06-3.35,2.85-3.31,1.69.04,2.7,1.19,2.72,3.24.03,3.19,0,6.38,0,9.57Z"/>
  <path class="cls-1" d="m219.7,92.12c-.55,1.09-.82,1.83-1.26,2.47-3.52,5.06-7.07,10.11-10.63,15.15-1.31,1.85-2.95,2.28-4.37,1.21-1.36-1.02-1.46-2.59-.2-4.39,3.61-5.17,7.25-10.31,10.85-15.47.88-1.25,2.09-1.84,3.42-1.2.88.42,1.45,1.46,2.18,2.24Z"/>
  <path class="cls-1" d="m127.18,103.55c-.62.64-1.25,1.71-2.18,2.13-1.36.61-2.66-.03-3.28-1.42-.73-1.63-1.28-3.33-1.91-5.01-1.61-4.34-3.23-8.68-4.83-13.02-.79-2.14-.28-3.76,1.31-4.36,1.69-.63,3.07.17,3.88,2.34,2.13,5.7,4.24,11.41,6.34,17.12.2.55.34,1.13.66,2.22Z"/>
  <path class="cls-1" d="m179.14,105.87c-1.5,0-2.7-1.82-1.99-3.96.68-2.07,1.51-4.1,2.27-6.14,1.45-3.91,2.88-7.82,4.35-11.72.76-2.02,2.15-2.78,3.8-2.18,1.55.57,2.13,2.17,1.4,4.16-2.14,5.84-4.32,11.66-6.47,17.5-.5,1.35-1.27,2.32-3.35,2.35Z"/>
  <path class="cls-1" d="m157.31,129.66c1.46,0,2.92-.03,4.38,0,1.74.04,2.71,1.01,2.85,2.7.13,1.49-1.06,2.78-2.72,2.83-3.11.09-6.23.09-9.35,0-1.7-.05-2.76-1.1-2.73-2.8.03-1.68,1.06-2.68,2.8-2.73,1.59-.04,3.18,0,4.77-.01Z"/>
</svg>