<?xml version="1.0" encoding="UTF-8"?>
<svg id="Layer_1" data-name="Layer 1" xmlns="http://www.w3.org/2000/svg" viewBox="0 0 63.43 60.49">
  <defs>
    <style>
      .cls-1 {
        fill: #3f3f3e;
        stroke-width: 0px;
      }
    </style>
  </defs>
  <path class="cls-1" d="M16.57,46.57v.71c0,2.33,0,4.66,0,6.99,0,.2,0,.4-.02.59-.06.5-.35.79-.85.83-.53.04-.87-.23-.98-.74-.05-.21-.04-.43-.04-.65,0-2.33,0-4.66,0-6.99,0-.21,0-.43,0-.73-.71,0-1.38,0-2.04,0-.67,0-1.34,0-2.02,0-.91,0-1.21-.31-1.21-1.21,0-3.24,0-6.48,0-9.72,0-5.51,0-11.02,0-16.54,0-1.24.23-1.47,1.5-1.47,1.22,0,2.45,0,3.77,0v-.72c0-3.56,0-7.11,0-10.67,0-.2,0-.4.02-.59.08-.53.48-.87.97-.86.49.02.86.38.9.92.02.37.01.75.01,1.13,0,3.34,0,6.68,0,10.02v.77c1.15,0,2.23,0,3.31,0,.28,0,.55,0,.83,0,.82.02,1.15.35,1.16,1.16,0,1.64,0,3.28,0,4.92,0,7.15,0,14.3,0,21.46,0,1.14-.25,1.39-1.39,1.39-1.28,0-2.56,0-3.91,0ZM19.94,44.64v-25.07h-8.58v25.07h8.58Z"/>
  <path class="cls-1" d="M46.86,40.96c-1.38,0-2.68,0-3.98,0-1.01,0-1.32-.31-1.32-1.3,0-4.44,0-8.89,0-13.33,0-.97.3-1.27,1.27-1.27,1.32,0,2.63,0,4.03,0v-.7c0-2.63,0-5.25,0-7.88,0-.22,0-.44.03-.65.08-.44.36-.7.8-.75.46-.05.82.14.98.59.08.24.09.5.09.76,0,2.63,0,5.25,0,7.88v.75c1.36,0,2.63,0,3.91,0,1.11,0,1.35.25,1.35,1.36,0,4.4,0,8.81,0,13.21,0,1.05-.28,1.33-1.34,1.33-1.28,0-2.56,0-3.93,0,0,.27,0,.5,0,.72,0,3.32,0,6.64,0,9.95,0,.25,0,.52-.07.76-.14.48-.5.71-.99.65-.46-.05-.75-.33-.81-.81-.03-.21-.02-.43-.02-.65,0-3.28,0-6.56,0-9.84v-.8ZM43.51,26.97v12.05h8.58v-12.05h-8.58Z"/>
  <path class="cls-1" d="M30.76,12.13v-2.6c0-1.15,0-2.29,0-3.44,0-.84.34-1.29.96-1.28.6.01.93.45.93,1.26,0,1.78,0,3.56,0,5.34v.73c.8,0,1.56,0,2.32,0,.61,0,1.23,0,1.84,0,.78,0,1.11.33,1.12,1.12.01.83,0,1.66,0,2.49,0,2.77,0,5.53,0,8.3,0,1.07-.3,1.36-1.38,1.37-1.28,0-2.56,0-3.91,0v.74c0,5.06,0,10.12,0,15.18,0,.18,0,.36,0,.53-.05.56-.43.93-.96.92-.5,0-.87-.37-.92-.9-.02-.18,0-.36,0-.53,0-5.06,0-10.12,0-15.18v-.77c-1.31,0-2.57,0-3.83,0-1.21,0-1.46-.26-1.46-1.46,0-3.48,0-6.96,0-10.43,0-1.14.25-1.38,1.4-1.39,1.26,0,2.53,0,3.89,0ZM36.01,23.48v-9.41h-8.59v9.41h8.59Z"/>
</svg>