<?xml version="1.0" encoding="utf-8"?>
<!-- Generator: Adobe Illustrator 28.2.0, SVG Export Plug-In . SVG Version: 6.00 Build 0)  -->
<svg version="1.1" id="Layer_1" xmlns="http://www.w3.org/2000/svg" xmlns:xlink="http://www.w3.org/1999/xlink" x="0px" y="0px"
	 viewBox="0 0 63.4 60.5" style="enable-background:new 0 0 63.4 60.5;" xml:space="preserve">
<style type="text/css">
	.st0{fill:#FFFFFF;}
</style>
<path class="st0" d="M16.6,46.6v0.7c0,2.3,0,4.7,0,7c0,0.2,0,0.4,0,0.6c-0.1,0.5-0.4,0.8-0.9,0.8c-0.5,0-0.9-0.2-1-0.7
	c-0.1-0.2,0-0.4,0-0.7c0-2.3,0-4.7,0-7c0-0.2,0-0.4,0-0.7c-0.7,0-1.4,0-2,0c-0.7,0-1.3,0-2,0c-0.9,0-1.2-0.3-1.2-1.2
	c0-3.2,0-6.5,0-9.7c0-5.5,0-11,0-16.5c0-1.2,0.2-1.5,1.5-1.5c1.2,0,2.4,0,3.8,0v-0.7c0-3.6,0-7.1,0-10.7c0-0.2,0-0.4,0-0.6
	c0.1-0.5,0.5-0.9,1-0.9c0.5,0,0.9,0.4,0.9,0.9c0,0.4,0,0.8,0,1.1c0,3.3,0,6.7,0,10v0.8c1.1,0,2.2,0,3.3,0c0.3,0,0.5,0,0.8,0
	c0.8,0,1.1,0.4,1.2,1.2c0,1.6,0,3.3,0,4.9c0,7.1,0,14.3,0,21.5c0,1.1-0.2,1.4-1.4,1.4C19.2,46.6,17.9,46.6,16.6,46.6L16.6,46.6z
	 M19.9,44.6V19.6h-8.6v25.1H19.9z"/>
<path class="st0" d="M46.9,41c-1.4,0-2.7,0-4,0c-1,0-1.3-0.3-1.3-1.3c0-4.4,0-8.9,0-13.3c0-1,0.3-1.3,1.3-1.3c1.3,0,2.6,0,4,0v-0.7
	c0-2.6,0-5.2,0-7.9c0-0.2,0-0.4,0-0.6c0.1-0.4,0.4-0.7,0.8-0.8c0.5-0.1,0.8,0.1,1,0.6c0.1,0.2,0.1,0.5,0.1,0.8c0,2.6,0,5.2,0,7.9
	v0.8c1.4,0,2.6,0,3.9,0c1.1,0,1.3,0.2,1.3,1.4c0,4.4,0,8.8,0,13.2c0,1-0.3,1.3-1.3,1.3c-1.3,0-2.6,0-3.9,0c0,0.3,0,0.5,0,0.7
	c0,3.3,0,6.6,0,10c0,0.2,0,0.5-0.1,0.8c-0.1,0.5-0.5,0.7-1,0.7c-0.5,0-0.8-0.3-0.8-0.8c0-0.2,0-0.4,0-0.7c0-3.3,0-6.6,0-9.8L46.9,41
	L46.9,41z M43.5,27V39h8.6V27C52.1,27,43.5,27,43.5,27z"/>
<path class="st0" d="M30.8,12.1V9.5c0-1.1,0-2.3,0-3.4c0-0.8,0.3-1.3,1-1.3c0.6,0,0.9,0.4,0.9,1.3c0,1.8,0,3.6,0,5.3v0.7
	c0.8,0,1.6,0,2.3,0c0.6,0,1.2,0,1.8,0c0.8,0,1.1,0.3,1.1,1.1c0,0.8,0,1.7,0,2.5c0,2.8,0,5.5,0,8.3c0,1.1-0.3,1.4-1.4,1.4
	c-1.3,0-2.6,0-3.9,0v0.7c0,5.1,0,10.1,0,15.2c0,0.2,0,0.4,0,0.5c0,0.6-0.4,0.9-1,0.9c-0.5,0-0.9-0.4-0.9-0.9c0-0.2,0-0.4,0-0.5
	c0-5.1,0-10.1,0-15.2v-0.8c-1.3,0-2.6,0-3.8,0c-1.2,0-1.5-0.3-1.5-1.5c0-3.5,0-7,0-10.4c0-1.1,0.2-1.4,1.4-1.4
	C28.1,12.1,29.4,12.1,30.8,12.1z M36,23.5v-9.4h-8.6v9.4H36z"/>
</svg>
