<?xml version="1.0" encoding="utf-8"?>
<!-- Generator: Adobe Illustrator 28.2.0, SVG Export Plug-In . SVG Version: 6.00 Build 0)  -->
<svg version="1.1" id="Layer_1" xmlns="http://www.w3.org/2000/svg" xmlns:xlink="http://www.w3.org/1999/xlink" x="0px" y="0px"
	 viewBox="0 0 63.4 60.5" style="enable-background:new 0 0 63.4 60.5;" xml:space="preserve">
<style type="text/css">
	.st0{fill:#FFFFFF;}
</style>
<rect x="7.5" y="46.6" class="st0" width="48.4" height="2.1"/>
<path class="st0" d="M12.4,37c2.7,0,4.9-2.2,4.9-4.9c0-1-0.3-1.9-0.8-2.6l4.9-4.9c0.8,0.5,1.6,0.8,2.6,0.8s1.9-0.3,2.6-0.8l4.9,4.9
	c-0.5,0.8-0.8,1.6-0.8,2.6c0,2.7,2.2,4.9,4.9,4.9s4.9-2.2,4.9-4.9c0-1-0.3-1.9-0.8-2.6l8.8-8.8c0.8,0.5,1.7,0.8,2.6,0.8
	c2.7,0,4.9-2.2,4.9-4.9s-2.2-4.9-4.9-4.9s-4.9,2.2-4.9,4.9c0,1,0.3,1.9,0.8,2.6L38.2,28c-0.8-0.5-1.7-0.8-2.6-0.8S33.7,27.6,33,28
	l-4.9-4.9c0.5-0.8,0.8-1.6,0.8-2.6c0-2.7-2.2-4.9-4.9-4.9s-4.9,2.2-4.9,4.9c0,1,0.3,1.9,0.8,2.6L15,28c-0.8-0.5-1.6-0.8-2.6-0.8
	c-2.7,0-4.9,2.2-4.9,4.9S9.7,37,12.4,37z M15.2,32.2c0,1.6-1.3,2.9-2.9,2.9s-2.9-1.3-2.9-2.9s1.3-2.9,2.9-2.9S15.2,30.6,15.2,32.2z
	 M24,23.4c-1.6,0-2.9-1.3-2.9-2.9s1.3-2.9,2.9-2.9s2.9,1.3,2.9,2.9S25.6,23.4,24,23.4z M38.4,32.2c0,1.6-1.3,2.9-2.9,2.9
	s-2.9-1.3-2.9-2.9s1.3-2.9,2.9-2.9S38.4,30.6,38.4,32.2z M48.2,16.7c0-1.6,1.3-2.9,2.9-2.9s2.9,1.3,2.9,2.9s-1.3,2.9-2.9,2.9
	S48.2,18.3,48.2,16.7z"/>
</svg>
