<?xml version="1.0" encoding="UTF-8"?>
<svg id="Layer_1" data-name="Layer 1" xmlns="http://www.w3.org/2000/svg" viewBox="0 0 63.43 60.49">
  <defs>
    <style>
      .cls-1 {
        fill: #3f3f3e;
        stroke-width: 0px;
      }
    </style>
  </defs>
  <rect class="cls-1" x="7.49" y="46.57" width="48.44" height="2.11"/>
  <path class="cls-1" d="M12.37,37.03c2.69,0,4.88-2.19,4.88-4.88,0-.96-.29-1.85-.77-2.61l4.89-4.89c.76.48,1.65.77,2.61.77s1.85-.29,2.61-.77l4.89,4.89c-.48.76-.77,1.65-.77,2.61,0,2.69,2.19,4.88,4.88,4.88s4.88-2.19,4.88-4.88c0-.96-.29-1.85-.77-2.61l8.76-8.76c.76.48,1.65.77,2.61.77,2.69,0,4.88-2.19,4.88-4.88s-2.19-4.88-4.88-4.88-4.88,2.19-4.88,4.88c0,.96.29,1.85.77,2.61l-8.76,8.76c-.76-.48-1.65-.77-2.61-.77s-1.85.29-2.61.77l-4.89-4.89c.48-.76.77-1.65.77-2.61,0-2.69-2.19-4.88-4.88-4.88s-4.88,2.19-4.88,4.88c0,.96.29,1.85.77,2.61l-4.89,4.89c-.76-.48-1.65-.77-2.61-.77-2.69,0-4.88,2.19-4.88,4.88s2.19,4.88,4.88,4.88ZM15.23,32.15c0,1.58-1.28,2.86-2.86,2.86s-2.86-1.28-2.86-2.86,1.28-2.86,2.86-2.86,2.86,1.28,2.86,2.86ZM23.98,23.41c-1.58,0-2.86-1.28-2.86-2.86s1.28-2.86,2.86-2.86,2.86,1.28,2.86,2.86-1.28,2.86-2.86,2.86ZM38.44,32.15c0,1.58-1.28,2.86-2.86,2.86s-2.86-1.28-2.86-2.86,1.28-2.86,2.86-2.86,2.86,1.28,2.86,2.86ZM48.19,16.68c0-1.58,1.28-2.86,2.86-2.86s2.86,1.28,2.86,2.86-1.28,2.86-2.86,2.86-2.86-1.28-2.86-2.86Z"/>
</svg>