<?xml version="1.0" encoding="utf-8"?>
<!-- Generator: Adobe Illustrator 28.2.0, SVG Export Plug-In . SVG Version: 6.00 Build 0)  -->
<svg version="1.1" id="Layer_1" xmlns="http://www.w3.org/2000/svg" xmlns:xlink="http://www.w3.org/1999/xlink" x="0px" y="0px"
	 viewBox="0 0 63.4 60.5" style="enable-background:new 0 0 63.4 60.5;" xml:space="preserve">
<style type="text/css">
	.st0{fill:#FFFFFF;}
</style>
<path class="st0" d="M47,41.6c-1.4,0-2.7,0.5-3.7,1.4l-10-8.1c0.7-1,1.2-2.1,1.2-3.4c0-0.7-0.1-1.3-0.3-1.9l6-2.4
	c1,1.6,2.8,2.8,4.9,2.8c3.1,0,5.7-2.6,5.7-5.7s-2.6-5.7-5.7-5.7c-1.2,0-2.4,0.4-3.3,1.1l-3.8-3.4c0.6-0.9,1-2,1-3.1
	c0-3.1-2.6-5.7-5.7-5.7s-5.7,2.6-5.7,5.7s2.5,5.7,5.7,5.7c1.4,0,2.7-0.5,3.7-1.4l3.7,3.3c-0.8,1-1.2,2.2-1.2,3.5
	c0,0.5,0.1,1,0.2,1.5l-6.1,2.5c-1-1.4-2.7-2.4-4.6-2.4c-3.1,0-5.7,2.6-5.7,5.7s2.6,5.7,5.7,5.7c1.3,0,2.5-0.4,3.4-1.1l10,8.1
	c-0.4,0.6-0.7,1.3-0.8,2.1l-19.2-1.4c-0.2-3-2.7-5.3-5.7-5.3s-5.7,2.6-5.7,5.7s2.6,5.7,5.7,5.7c2.7,0,5-1.9,5.6-4.5l19.2,1.4
	c0.3,2.9,2.7,5.2,5.7,5.2c3.1,0,5.7-2.6,5.7-5.7S50.1,41.7,47,41.6L47,41.6z M49,24.3c0,2.3-1.8,4.1-4.1,4.1s-4.1-1.8-4.1-4.1
	s1.8-4.1,4.1-4.1S49,22,49,24.3z M29,13.2c0-2.3,1.8-4.1,4.1-4.1s4.1,1.8,4.1,4.1s-1.8,4.1-4.1,4.1S29,15.4,29,13.2z M24.6,31.5
	c0-2.3,1.8-4.1,4.1-4.1s4.1,1.8,4.1,4.1s-1.8,4.1-4.1,4.1S24.6,33.8,24.6,31.5z M16.5,49.4c-2.3,0-4.1-1.8-4.1-4.1s1.8-4.1,4.1-4.1
	s4.1,1.8,4.1,4.1S18.7,49.4,16.5,49.4z M47,51.4c-2.3,0-4.1-1.8-4.1-4.1s1.8-4.1,4.1-4.1s4.1,1.8,4.1,4.1S49.2,51.4,47,51.4z"/>
<path class="st0" d="M33.1,10.8c-1.3,0-2.4,1.1-2.4,2.4s1.1,2.4,2.4,2.4s2.4-1.1,2.4-2.4S34.4,10.8,33.1,10.8z M33.1,14
	c-0.4,0-0.8-0.4-0.8-0.8s0.4-0.8,0.8-0.8s0.8,0.4,0.8,0.8S33.5,14,33.1,14z"/>
<path class="st0" d="M16.5,43.3c-1.1,0-2,0.9-2,2s0.9,2,2,2s2-0.9,2-2S17.6,43.3,16.5,43.3z M16.5,45.7c-0.2,0-0.4-0.2-0.4-0.4
	s0.2-0.4,0.4-0.4s0.4,0.2,0.4,0.4S16.7,45.7,16.5,45.7z"/>
</svg>
