<?xml version="1.0" encoding="UTF-8"?>
<svg id="Layer_1" data-name="Layer 1" xmlns="http://www.w3.org/2000/svg" viewBox="0 0 63.43 60.49">
  <defs>
    <style>
      .cls-1 {
        fill: #3f3f3e;
        stroke-width: 0px;
      }
    </style>
  </defs>
  <path class="cls-1" d="M46.95,41.63c-1.41,0-2.7.52-3.69,1.37l-9.97-8.06c.72-.95,1.15-2.14,1.15-3.42,0-.66-.12-1.3-.33-1.89l5.95-2.4c1,1.65,2.81,2.76,4.87,2.76,3.14,0,5.7-2.56,5.7-5.7s-2.56-5.7-5.7-5.7c-1.25,0-2.4.41-3.34,1.09l-3.78-3.36c.6-.9.96-1.99.96-3.15,0-3.14-2.56-5.7-5.7-5.7s-5.7,2.56-5.7,5.7,2.55,5.7,5.7,5.7c1.4,0,2.68-.51,3.68-1.35l3.7,3.29c-.75.97-1.21,2.18-1.21,3.49,0,.51.07,1,.2,1.47l-6.07,2.45c-1.03-1.44-2.72-2.39-4.63-2.39-3.14,0-5.7,2.56-5.7,5.7s2.56,5.7,5.7,5.7c1.28,0,2.45-.43,3.41-1.14l10.05,8.12c-.41.62-.7,1.33-.84,2.08l-19.2-1.37c-.2-2.96-2.67-5.3-5.68-5.3s-5.7,2.56-5.7,5.7,2.56,5.7,5.7,5.7c2.73,0,5.01-1.93,5.57-4.5l19.23,1.38c.28,2.88,2.71,5.15,5.67,5.15,3.14,0,5.7-2.56,5.7-5.7s-2.56-5.7-5.7-5.7ZM49.03,24.29c0,2.26-1.84,4.1-4.1,4.1s-4.1-1.84-4.1-4.1,1.84-4.1,4.1-4.1,4.1,1.84,4.1,4.1ZM28.97,13.17c0-2.26,1.84-4.1,4.1-4.1s4.1,1.84,4.1,4.1-1.84,4.1-4.1,4.1-4.1-1.84-4.1-4.1ZM24.64,31.51c0-2.26,1.84-4.1,4.1-4.1s4.1,1.84,4.1,4.1-1.84,4.1-4.1,4.1-4.1-1.84-4.1-4.1ZM16.48,49.4c-2.26,0-4.1-1.84-4.1-4.1s1.84-4.1,4.1-4.1,4.1,1.84,4.1,4.1-1.84,4.1-4.1,4.1ZM46.95,51.42c-2.26,0-4.1-1.84-4.1-4.1s1.84-4.1,4.1-4.1,4.1,1.84,4.1,4.1-1.84,4.1-4.1,4.1Z"/>
  <path class="cls-1" d="M33.07,10.76c-1.33,0-2.4,1.08-2.4,2.4s1.08,2.4,2.4,2.4,2.4-1.08,2.4-2.4-1.08-2.4-2.4-2.4ZM33.07,13.97c-.44,0-.81-.36-.81-.81s.36-.81.81-.81.81.36.81.81-.36.81-.81.81Z"/>
  <path class="cls-1" d="M16.48,43.32c-1.09,0-1.98.89-1.98,1.98s.89,1.98,1.98,1.98,1.98-.89,1.98-1.98-.89-1.98-1.98-1.98ZM16.48,45.68c-.21,0-.38-.17-.38-.38s.17-.38.38-.38.38.17.38.38-.17.38-.38.38Z"/>
</svg>