<?xml version="1.0" encoding="UTF-8"?>
<svg id="Layer_1" data-name="Layer 1" xmlns="http://www.w3.org/2000/svg" viewBox="0 0 63.43 60.49">
  <defs>
    <style>
      .cls-1 {
        fill: #3f3f3e;
        stroke-width: 0px;
      }
    </style>
  </defs>
  <g>
    <path class="cls-1" d="M29.97,45.25H11.06c-2.3,0-4.17-1.87-4.17-4.17V13.16c0-2.3,1.87-4.17,4.17-4.17h31.87c2.3,0,4.17,1.87,4.17,4.17v13.96h-1.44v-13.96c0-1.51-1.23-2.73-2.73-2.73H11.06c-1.51,0-2.73,1.23-2.73,2.73v27.92c0,1.51,1.23,2.73,2.73,2.73h18.91v1.44Z"/>
    <g>
      <path class="cls-1" d="M23.64,25.18c-1.23,0-2.23-1-2.23-2.23s1-2.23,2.23-2.23,2.23,1,2.23,2.23-1,2.23-2.23,2.23ZM23.64,22.17c-.43,0-.79.35-.79.79s.35.79.79.79.79-.35.79-.79-.35-.79-.79-.79Z"/>
      <path class="cls-1" d="M30.34,25.18c-1.23,0-2.23-1-2.23-2.23s1-2.23,2.23-2.23,2.23,1,2.23,2.23-1,2.23-2.23,2.23ZM30.34,22.17c-.43,0-.79.35-.79.79s.35.79.79.79.79-.35.79-.79-.35-.79-.79-.79Z"/>
      <path class="cls-1" d="M17.72,31.55h-1.56c-.8,0-1.44-.65-1.44-1.44v-1.56c0-.8.65-1.44,1.44-1.44h1.56c.8,0,1.44.65,1.44,1.44v1.56c0,.8-.65,1.44-1.44,1.44ZM16.15,28.53v1.57s1.56,0,1.56,0c0,0,0,0,0,0v-1.56h-1.57Z"/>
      <path class="cls-1" d="M23.64,31.55c-1.23,0-2.23-1-2.23-2.23s1-2.23,2.23-2.23,2.23,1,2.23,2.23-1,2.23-2.23,2.23ZM23.64,28.53c-.43,0-.79.35-.79.79s.35.79.79.79.79-.35.79-.79-.35-.79-.79-.79Z"/>
      <path class="cls-1" d="M31.13,31.55h-1.56c-.8,0-1.44-.65-1.44-1.44v-1.56c0-.8.65-1.44,1.44-1.44h1.56c.8,0,1.44.65,1.44,1.44v1.56c0,.8-.65,1.44-1.44,1.44ZM29.56,28.53v1.57s1.56,0,1.56,0c0,0,0,0,0,0v-1.56h-1.57Z"/>
      <path class="cls-1" d="M16.94,37.91c-1.23,0-2.23-1-2.23-2.23s1-2.23,2.23-2.23,2.23,1,2.23,2.23-1,2.23-2.23,2.23ZM16.94,34.89c-.43,0-.79.35-.79.79s.35.79.79.79.79-.35.79-.79-.35-.79-.79-.79Z"/>
      <path class="cls-1" d="M23.64,37.91c-1.23,0-2.23-1-2.23-2.23s1-2.23,2.23-2.23,2.23,1,2.23,2.23-1,2.23-2.23,2.23ZM23.64,34.89c-.43,0-.79.35-.79.79s.35.79.79.79.79-.35.79-.79-.35-.79-.79-.79Z"/>
      <path class="cls-1" d="M30.34,37.91c-1.23,0-2.23-1-2.23-2.23s1-2.23,2.23-2.23,2.23,1,2.23,2.23-1,2.23-2.23,2.23ZM30.34,34.89c-.43,0-.79.35-.79.79s.35.79.79.79.79-.35.79-.79-.35-.79-.79-.79Z"/>
      <path class="cls-1" d="M37.05,25.18c-1.23,0-2.23-1-2.23-2.23s1-2.23,2.23-2.23,2.23,1,2.23,2.23-1,2.23-2.23,2.23ZM37.05,22.17c-.43,0-.79.35-.79.79s.35.79.79.79.79-.35.79-.79-.35-.79-.79-.79Z"/>
      <path class="cls-1" d="M37.05,31.55c-1.23,0-2.23-1-2.23-2.23s1-2.23,2.23-2.23,2.23,1,2.23,2.23-1,2.23-2.23,2.23ZM37.05,28.53c-.43,0-.79.35-.79.79s.35.79.79.79.79-.35.79-.79-.35-.79-.79-.79Z"/>
    </g>
    <g>
      <rect class="cls-1" x="14.66" y="5.5" width="1.44" height="7.88"/>
      <rect class="cls-1" x="37.88" y="5.5" width="1.44" height="7.88"/>
    </g>
    <rect class="cls-1" x="20.47" y="15.53" width="13.04" height="1.44"/>
  </g>
  <path class="cls-1" d="M44.7,54.99c-6.53,0-11.84-5.31-11.84-11.84s5.31-11.84,11.84-11.84,11.84,5.31,11.84,11.84-5.31,11.84-11.84,11.84ZM44.7,32.75c-5.73,0-10.4,4.67-10.4,10.4s4.67,10.4,10.4,10.4,10.4-4.67,10.4-10.4-4.67-10.4-10.4-10.4Z"/>
  <g>
    <path class="cls-1" d="M44.79,48.86c-1.43,0-3.04-.73-3.7-2.49l1.34-.51c.49,1.29,1.8,1.7,2.8,1.53.36-.06,1.53-.36,1.57-1.61.03-1.32-1.15-1.81-2.7-2.32-.41-.13-.79-.26-1.09-.41-1.26-.63-1.88-1.9-1.56-3.23.34-1.45,1.64-2.46,3.15-2.46,2.5,0,3.64,2.24,3.69,2.34l-1.28.64c-.03-.06-.81-1.54-2.4-1.54-.99,0-1.6.7-1.76,1.35-.08.33-.15,1.13.81,1.62.21.1.54.21.9.33,1.4.46,3.76,1.23,3.69,3.72-.04,1.54-1.12,2.71-2.76,2.99-.22.04-.45.06-.68.06Z"/>
    <rect class="cls-1" x="43.98" y="35.42" width="1.44" height="2.71"/>
    <rect class="cls-1" x="43.98" y="48.14" width="1.44" height="2.71"/>
  </g>
</svg>