<?xml version="1.0" encoding="utf-8"?>
<!-- Generator: Adobe Illustrator 28.2.0, SVG Export Plug-In . SVG Version: 6.00 Build 0)  -->
<svg version="1.1" id="Layer_1" xmlns="http://www.w3.org/2000/svg" xmlns:xlink="http://www.w3.org/1999/xlink" x="0px" y="0px"
	 viewBox="0 0 63.4 60.5" style="enable-background:new 0 0 63.4 60.5;" xml:space="preserve">
<style type="text/css">
	.st0{fill:#FFFFFF;}
</style>
<g>
	<path class="st0" d="M30,45.2H11.1c-2.3,0-4.2-1.9-4.2-4.2V13.2c0-2.3,1.9-4.2,4.2-4.2h31.9c2.3,0,4.2,1.9,4.2,4.2v14h-1.4v-14
		c0-1.5-1.2-2.7-2.7-2.7H11.1c-1.5,0-2.7,1.2-2.7,2.7v27.9c0,1.5,1.2,2.7,2.7,2.7H30C30,43.8,30,45.2,30,45.2z"/>
	<g>
		<path class="st0" d="M23.6,25.2c-1.2,0-2.2-1-2.2-2.2s1-2.2,2.2-2.2s2.2,1,2.2,2.2S24.9,25.2,23.6,25.2z M23.6,22.2
			c-0.4,0-0.8,0.4-0.8,0.8s0.4,0.8,0.8,0.8s0.8-0.4,0.8-0.8S24.1,22.2,23.6,22.2z"/>
		<path class="st0" d="M30.3,25.2c-1.2,0-2.2-1-2.2-2.2s1-2.2,2.2-2.2s2.2,1,2.2,2.2S31.6,25.2,30.3,25.2z M30.3,22.2
			c-0.4,0-0.8,0.4-0.8,0.8s0.4,0.8,0.8,0.8s0.8-0.4,0.8-0.8S30.8,22.2,30.3,22.2z"/>
		<path class="st0" d="M17.7,31.5h-1.6c-0.8,0-1.4-0.6-1.4-1.4v-1.6c0-0.8,0.6-1.4,1.4-1.4h1.6c0.8,0,1.4,0.6,1.4,1.4v1.6
			C19.2,30.9,18.5,31.5,17.7,31.5z M16.1,28.5v1.6h1.6l0,0v-1.6L16.1,28.5L16.1,28.5z"/>
		<path class="st0" d="M23.6,31.5c-1.2,0-2.2-1-2.2-2.2s1-2.2,2.2-2.2s2.2,1,2.2,2.2S24.9,31.5,23.6,31.5z M23.6,28.5
			c-0.4,0-0.8,0.4-0.8,0.8s0.4,0.8,0.8,0.8s0.8-0.4,0.8-0.8S24.1,28.5,23.6,28.5z"/>
		<path class="st0" d="M31.1,31.5h-1.6c-0.8,0-1.4-0.6-1.4-1.4v-1.6c0-0.8,0.6-1.4,1.4-1.4h1.6c0.8,0,1.4,0.6,1.4,1.4v1.6
			C32.6,30.9,31.9,31.5,31.1,31.5z M29.6,28.5v1.6h1.6l0,0v-1.6L29.6,28.5L29.6,28.5z"/>
		<path class="st0" d="M16.9,37.9c-1.2,0-2.2-1-2.2-2.2s1-2.2,2.2-2.2s2.2,1,2.2,2.2S18.2,37.9,16.9,37.9z M16.9,34.9
			c-0.4,0-0.8,0.3-0.8,0.8s0.4,0.8,0.8,0.8s0.8-0.3,0.8-0.8S17.4,34.9,16.9,34.9z"/>
		<path class="st0" d="M23.6,37.9c-1.2,0-2.2-1-2.2-2.2s1-2.2,2.2-2.2s2.2,1,2.2,2.2S24.9,37.9,23.6,37.9z M23.6,34.9
			c-0.4,0-0.8,0.3-0.8,0.8s0.4,0.8,0.8,0.8s0.8-0.3,0.8-0.8S24.1,34.9,23.6,34.9z"/>
		<path class="st0" d="M30.3,37.9c-1.2,0-2.2-1-2.2-2.2s1-2.2,2.2-2.2s2.2,1,2.2,2.2S31.6,37.9,30.3,37.9z M30.3,34.9
			c-0.4,0-0.8,0.3-0.8,0.8s0.4,0.8,0.8,0.8s0.8-0.3,0.8-0.8S30.8,34.9,30.3,34.9z"/>
		<path class="st0" d="M37,25.2c-1.2,0-2.2-1-2.2-2.2s1-2.2,2.2-2.2s2.2,1,2.2,2.2S38.3,25.2,37,25.2z M37,22.2
			c-0.4,0-0.8,0.4-0.8,0.8s0.3,0.8,0.8,0.8s0.8-0.4,0.8-0.8S37.5,22.2,37,22.2z"/>
		<path class="st0" d="M37,31.5c-1.2,0-2.2-1-2.2-2.2s1-2.2,2.2-2.2s2.2,1,2.2,2.2S38.3,31.5,37,31.5z M37,28.5
			c-0.4,0-0.8,0.4-0.8,0.8s0.3,0.8,0.8,0.8s0.8-0.4,0.8-0.8S37.5,28.5,37,28.5z"/>
	</g>
	<g>
		<rect x="14.7" y="5.5" class="st0" width="1.4" height="7.9"/>
		<rect x="37.9" y="5.5" class="st0" width="1.4" height="7.9"/>
	</g>
	<rect x="20.5" y="15.5" class="st0" width="13" height="1.4"/>
</g>
<path class="st0" d="M44.7,55c-6.5,0-11.8-5.3-11.8-11.8s5.3-11.8,11.8-11.8s11.8,5.3,11.8,11.8S51.2,55,44.7,55z M44.7,32.8
	c-5.7,0-10.4,4.7-10.4,10.4S39,53.6,44.7,53.6s10.4-4.7,10.4-10.4S50.4,32.8,44.7,32.8z"/>
<g>
	<path class="st0" d="M44.8,48.9c-1.4,0-3-0.7-3.7-2.5l1.3-0.5c0.5,1.3,1.8,1.7,2.8,1.5c0.4-0.1,1.5-0.4,1.6-1.6
		c0-1.3-1.2-1.8-2.7-2.3c-0.4-0.1-0.8-0.3-1.1-0.4c-1.3-0.6-1.9-1.9-1.6-3.2c0.3-1.5,1.6-2.5,3.2-2.5c2.5,0,3.6,2.2,3.7,2.3L47,40.3
		c0-0.1-0.8-1.5-2.4-1.5c-1,0-1.6,0.7-1.8,1.3c-0.1,0.3-0.2,1.1,0.8,1.6c0.2,0.1,0.5,0.2,0.9,0.3c1.4,0.5,3.8,1.2,3.7,3.7
		c0,1.5-1.1,2.7-2.8,3C45.3,48.9,45,48.9,44.8,48.9L44.8,48.9z"/>
	<rect x="44" y="35.4" class="st0" width="1.4" height="2.7"/>
	<rect x="44" y="48.1" class="st0" width="1.4" height="2.7"/>
</g>
</svg>
