<?xml version="1.0" encoding="utf-8"?>
<!-- Generator: Adobe Illustrator 28.2.0, SVG Export Plug-In . SVG Version: 6.00 Build 0)  -->
<svg version="1.1" id="Layer_1" xmlns="http://www.w3.org/2000/svg" xmlns:xlink="http://www.w3.org/1999/xlink" x="0px" y="0px"
	 viewBox="0 0 63.4 60.5" style="enable-background:new 0 0 63.4 60.5;" xml:space="preserve">
<style type="text/css">
	.st0{fill:#FFFFFF;}
</style>
<g>
	<path class="st0" d="M31.7,20.3c2,0,3.8-2.1,3.8-4.6c0-2.2-1.6-3.9-3.9-3.9s-3.9,1.6-3.9,3.9C27.9,18.1,29.7,20.3,31.7,20.3z
		 M31.7,13.4c1.2,0,2.3,0.7,2.3,2.3s-1.1,3-2.3,3s-2.3-1.5-2.3-3S30.6,13.4,31.7,13.4z"/>
	<path class="st0" d="M43,17.6L43,17.6c-0.9-1.2-2.6-1.4-3.8-0.4l-4.3,3.5h-6.3l-4.3-3.5c-1.1-0.9-2.8-0.7-3.8,0.4l0,0
		c-0.5,0.6-0.7,1.3-0.6,2s0.4,1.4,1,1.8l6.6,5.4v4.8l0,0l0,0c0,0,0,0.1,0,0.2c0,0,0,0,0,0c0,0,0,0.1,0,0.1v1.2c0,0.1,0,0.2,0,0.2
		l0,12.7c-0.3,1.1,0.4,2.3,1.5,2.6c0,0,0,0,0.1,0c0.5,0.2,1.2,0.1,1.7-0.2c0.3-0.2,0.6-0.4,0.8-0.6c0.4,0.5,1.1,0.9,1.9,0.9
		c0.2,0,0.5,0,0.7-0.1c1.1-0.3,1.8-1.5,1.5-2.6L36,33.8v-1.9c0-0.1,0-0.1,0-0.2c0-0.1,0-0.1,0-0.2v-4.8l6.6-5.4
		c0.6-0.5,0.9-1.1,1-1.8S43.5,18.2,43,17.6L43,17.6z M42,19.4c0,0.3-0.2,0.6-0.4,0.8l-6.9,5.6c0,0,0,0,0,0c0,0,0,0-0.1,0.1
		c0,0,0,0,0,0.1c0,0,0,0,0,0.1c0,0,0,0,0,0.1c0,0,0,0,0,0.1c0,0,0,0,0,0.1s0,0,0,0.1c0,0,0,0,0,0.1c0,0,0,0,0,0v5.1
		c0,0.1,0,0.1,0,0.2c0,0.1,0,0.1,0,0.2v1.9l-0.1,12.3c0,0.1,0,0.2,0,0.2c0.1,0.3-0.1,0.7-0.5,0.8c-0.1,0-0.2,0-0.3,0
		c-0.3,0-0.6-0.1-0.7-0.3l-0.4-12.2c0-0.4-0.3-0.8-0.8-0.8l0,0c-0.4,0-0.8,0.3-0.8,0.7l-0.5,12.1c-0.1,0.1-0.2,0.2-0.3,0.3
		c-0.2,0.1-0.5,0.1-0.6,0.1c0,0,0,0-0.1,0C29.1,47,29,46.6,29,46.3c0-0.1,0-0.1,0-0.2L29,33.8v-2.2l0,0v-5c0,0,0,0,0-0.1
		c0-0.2-0.1-0.5-0.3-0.7l-6.9-5.6c-0.2-0.2-0.4-0.5-0.4-0.8c0-0.3,0.1-0.6,0.2-0.9l0,0c0.4-0.5,1.1-0.6,1.6-0.2l4.4,3.6
		c0.1,0.2,0.4,0.3,0.6,0.3h6.9c0,0,0,0,0,0c0,0,0,0,0,0c0,0,0.1,0,0.1,0h0c0,0,0.1,0,0.1,0c0,0,0,0,0,0c0,0,0.1,0,0.1-0.1l0,0
		l4.5-3.7c0.5-0.4,1.2-0.3,1.6,0.2l0,0C41.9,18.8,42,19.1,42,19.4L42,19.4z"/>
</g>
<g>
	<path class="st0" d="M48.4,23.5c1.9,0,3.6-2,3.6-4.3c0-2.1-1.5-3.6-3.6-3.6s-3.6,1.5-3.6,3.6C44.8,21.5,46.5,23.5,48.4,23.5z
		 M48.4,17.1c1,0,2.1,0.6,2.1,2.1s-1,2.8-2.1,2.8s-2.1-1.3-2.1-2.8S47.4,17.1,48.4,17.1z"/>
	<path class="st0" d="M51.3,23.7h-5.8c-2,0-3.5,1.6-3.5,3.5v5.7c0,1,0.7,2,1.7,2.2c0.2,0,0.3,0,0.5,0c0.2,0,0.4,0,0.7-0.1l0,10.1
		c-0.1,0.5,0,1,0.2,1.4c0.3,0.5,0.7,0.8,1.2,0.9c0,0,0,0,0.1,0c0.5,0.1,1,0.1,1.5-0.1c0.2-0.1,0.5-0.3,0.6-0.5
		c0.4,0.4,0.9,0.7,1.6,0.7c0.2,0,0.4,0,0.7-0.1c1-0.3,1.6-1.3,1.4-2.3L52.1,35c0.2,0.1,0.4,0.1,0.6,0.1c0.2,0,0.3,0,0.5,0
		c1-0.2,1.7-1.1,1.7-2.2v-5.7C54.9,25.2,53.3,23.7,51.3,23.7L51.3,23.7z M53.3,32.9c0,0.3-0.2,0.6-0.5,0.7c-0.2,0-0.4,0-0.6-0.2
		c-0.1-0.1-0.1-0.2-0.2-0.3c0,0,0-0.1,0-0.1v-5.2c0-0.4-0.3-0.8-0.8-0.8s-0.8,0.3-0.8,0.8V33c0,0,0,0.1,0,0.1l0,0c0,0,0,0.1,0,0.1
		c0,0,0,0,0,0.1v1.6l-0.1,10.3c0,0.1,0,0.2,0,0.2c0.1,0.2-0.1,0.5-0.3,0.5c-0.3,0.1-0.6,0-0.7-0.1l-0.3-10.2c0-0.4-0.3-0.8-0.8-0.8
		c-0.4,0-0.8,0.3-0.8,0.7l-0.4,10.2c0,0.1-0.1,0.1-0.2,0.2C47,46,46.8,46,46.7,46c0,0,0,0-0.1,0c-0.1,0-0.2-0.1-0.3-0.2
		c-0.1-0.1-0.1-0.2,0-0.3c0-0.1,0-0.1,0-0.2l0-10.3V33l0,0l0,0v-5.2c0-0.4-0.3-0.8-0.8-0.8s-0.8,0.3-0.8,0.8V33l0,0l0,0
		c0,0,0,0.1,0,0.1c0,0.1-0.1,0.2-0.2,0.3c-0.2,0.2-0.4,0.2-0.6,0.2c-0.3-0.1-0.5-0.3-0.5-0.7v-5.7c0-1.1,0.9-2,2-2h5.8
		c1.1,0,2,0.9,2,2L53.3,32.9L53.3,32.9z"/>
</g>
<g>
	<path class="st0" d="M15,23.5c1.9,0,3.6-2,3.6-4.3c0-2.1-1.5-3.6-3.6-3.6s-3.6,1.5-3.6,3.6C11.4,21.5,13.1,23.5,15,23.5z M15,17.1
		c1,0,2.1,0.6,2.1,2.1S16.1,22,15,22s-2.1-1.3-2.1-2.8S14,17.1,15,17.1z"/>
	<path class="st0" d="M17.9,23.7h-5.8l0,0l0,0c-1.9,0-3.5,1.6-3.5,3.5v5.7c0,1,0.7,2,1.7,2.2c0.1,0,0.3,0,0.4,0c0.2,0,0.4,0,0.6-0.1
		l0.1,10.1c-0.2,1,0.4,2,1.4,2.3c0.2,0.1,0.4,0.1,0.6,0.1c0.6,0,1.2-0.2,1.6-0.7c0.5,0.5,1.4,0.8,2.2,0.6c1-0.3,1.6-1.3,1.4-2.3
		l0-10.1c0.2,0.1,0.4,0.1,0.6,0.1c0.1,0,0.3,0,0.5,0c1-0.2,1.7-1.1,1.7-2.2v-5.7C21.5,25.2,19.9,23.7,17.9,23.7L17.9,23.7z
		 M19.9,32.9c0,0.3-0.2,0.6-0.5,0.7c-0.2,0-0.4,0-0.6-0.2c-0.1-0.1-0.1-0.2-0.2-0.3c0,0,0-0.1,0-0.1l0,0l0,0v-5.2
		c0-0.4-0.3-0.8-0.8-0.8s-0.8,0.3-0.8,0.8v5.2l0,0l0,0l0,12.2c0,0.1,0,0.1,0,0.2c0.1,0.2-0.1,0.5-0.3,0.5c-0.2,0.1-0.6-0.1-0.7-0.2
		l-0.4-10.2c0-0.4-0.4-0.7-0.8-0.7s-0.8,0.3-0.8,0.8l-0.3,10.2c-0.1,0.1-0.4,0.2-0.7,0.1c-0.2-0.1-0.4-0.3-0.3-0.5
		c0-0.1,0-0.1,0-0.2l-0.1-10.3v-1.6c0,0,0,0,0-0.1c0,0,0-0.1,0-0.1l0,0c0,0,0-0.1,0-0.1v-5.2c0-0.4-0.3-0.8-0.8-0.8
		s-0.8,0.3-0.8,0.8v5.2c0,0,0,0.1,0,0.1c0,0.1-0.1,0.2-0.2,0.3c-0.2,0.2-0.4,0.2-0.6,0.2c-0.3-0.1-0.5-0.3-0.5-0.7v-5.7
		c0-1.1,0.9-2,2-2h5.8c1.1,0,2,0.9,2,2L19.9,32.9L19.9,32.9z"/>
</g>
</svg>
