<?xml version="1.0" encoding="UTF-8"?>
<svg id="Layer_1" data-name="Layer 1" xmlns="http://www.w3.org/2000/svg" viewBox="0 0 63.43 60.49">
  <defs>
    <style>
      .cls-1 {
        fill: #3f3f3e;
        stroke-width: 0px;
      }
    </style>
  </defs>
  <path class="cls-1" d="M47.69,44.47c.18-.2.36-.4.53-.61,2.73-3.31,4.23-7.49,4.23-11.79s-1.39-8.07-3.79-11.22l2.11-2.11,2,2c.18.18.43.28.68.28.11,0,.23-.02.34-.06.35-.13.6-.46.63-.83l.82-11.27c.02-.28-.08-.55-.28-.75-.2-.2-.47-.3-.75-.28l-11.24.84c-.38.03-.7.27-.83.63-.13.35-.04.75.22,1.02l2,2-2.85,2.85c-.45-.2-.91-.39-1.39-.56-1.98-.7-4.06-1.06-6.18-1.06-10.22,0-18.53,8.31-18.53,18.53,0,1.12.11,2.22.3,3.29h-6.54c-.53,0-.97.43-.97.97v7.16c0,.53.43.97.97.97h11c3.39,3.77,8.31,6.15,13.77,6.15,4.63,0,9.02-1.71,12.4-4.77l6.57,6.57c.19.19.44.28.68.28s.49-.09.68-.28c.38-.38.38-.99,0-1.36l-6.57-6.57ZM46.39,12.98c.38-.38.38-.99,0-1.36-.02-.02-.04-.03-.06-.05-.02-.03-.04-.06-.07-.08l-1.06-1.06,8.03-.6-.59,8.05-1.19-1.19c-.19-.19-.44-.28-.68-.28s-.49.09-.68.28l-2.68,2.68c-1.2-1.27-2.58-2.39-4.11-3.29l3.1-3.1ZM10.12,42.52v-5.23h6.03c.55,1.89,1.4,3.65,2.49,5.23h-8.51ZM17.32,32.07c0-9.15,7.45-16.6,16.6-16.6,1.9,0,3.77.32,5.54.95,6.62,2.34,11.06,8.63,11.06,15.65,0,3.85-1.35,7.6-3.79,10.56-.27.33-.56.65-.86.96-.09.05-.18.1-.26.18-.08.08-.14.17-.19.27-3.08,2.97-7.18,4.64-11.51,4.64-9.15,0-16.6-7.45-16.6-16.6Z"/>
  <path class="cls-1" d="M31.25,36.32c0-.06,0-.12-.02-.18.01-.06.02-.12.02-.18v-5.3c0-1.64.64-3.18,1.79-4.33l6.01-6.01c.38-.38.38-.99,0-1.36-.38-.38-.99-.38-1.36,0l-6.01,6.01c-1.37,1.37-2.18,3.15-2.33,5.07-.02.07-.03.15-.03.23v5.1h-7.29c-.53,0-.97.43-.97.97s.43.97.97.97h8.26c.53,0,.97-.43.97-.97Z"/>
  <path class="cls-1" d="M44.66,23.48c-.38-.38-.99-.38-1.36,0l-6.37,6.37c-.26.17-.44.47-.44.81v5.73c0,3.38-2.75,6.13-6.13,6.13h-3.35c-.53,0-.97.43-.97.97s.43.97.97.97h3.35c4.44,0,8.06-3.61,8.06-8.06v-5.3l6.24-6.24c.38-.38.38-.99,0-1.36Z"/>
</svg>