<?xml version="1.0" encoding="utf-8"?>
<!-- Generator: Adobe Illustrator 28.2.0, SVG Export Plug-In . SVG Version: 6.00 Build 0)  -->
<svg version="1.1" id="Layer_1" xmlns="http://www.w3.org/2000/svg" xmlns:xlink="http://www.w3.org/1999/xlink" x="0px" y="0px"
	 viewBox="0 0 63.4 60.5" style="enable-background:new 0 0 63.4 60.5;" xml:space="preserve">
<style type="text/css">
	.st0{fill:#FFFFFF;}
</style>
<path class="st0" d="M47.7,44.5c0.2-0.2,0.4-0.4,0.5-0.6c2.7-3.3,4.2-7.5,4.2-11.8s-1.4-8.1-3.8-11.2l2.1-2.1l2,2
	c0.2,0.2,0.4,0.3,0.7,0.3c0.1,0,0.2,0,0.3-0.1c0.3-0.1,0.6-0.5,0.6-0.8l0.8-11.3c0-0.3-0.1-0.6-0.3-0.8c-0.2-0.2-0.5-0.3-0.8-0.3
	L43,8.7c-0.4,0-0.7,0.3-0.8,0.6c-0.1,0.4,0,0.8,0.2,1l2,2l-2.8,2.9c-0.5-0.2-0.9-0.4-1.4-0.6c-2-0.7-4.1-1.1-6.2-1.1
	c-10.2,0-18.5,8.3-18.5,18.5c0,1.1,0.1,2.2,0.3,3.3H9.2c-0.5,0-1,0.4-1,1v7.2c0,0.5,0.4,1,1,1h11c3.4,3.8,8.3,6.2,13.8,6.2
	c4.6,0,9-1.7,12.4-4.8l6.6,6.6c0.2,0.2,0.4,0.3,0.7,0.3s0.5-0.1,0.7-0.3c0.4-0.4,0.4-1,0-1.4L47.7,44.5L47.7,44.5z M46.4,13
	c0.4-0.4,0.4-1,0-1.4c0,0,0,0-0.1-0.1c0,0,0-0.1-0.1-0.1l-1.1-1.1l8-0.6l-0.6,8.1l-1.2-1.2c-0.2-0.2-0.4-0.3-0.7-0.3
	s-0.5,0.1-0.7,0.3l-2.7,2.7c-1.2-1.3-2.6-2.4-4.1-3.3L46.4,13L46.4,13z M10.1,42.5v-5.2h6c0.5,1.9,1.4,3.7,2.5,5.2H10.1L10.1,42.5z
	 M17.3,32.1c0-9.1,7.5-16.6,16.6-16.6c1.9,0,3.8,0.3,5.5,1c6.6,2.3,11.1,8.6,11.1,15.6c0,3.8-1.3,7.6-3.8,10.6
	c-0.3,0.3-0.6,0.7-0.9,1c-0.1,0-0.2,0.1-0.3,0.2c-0.1,0.1-0.1,0.2-0.2,0.3c-3.1,3-7.2,4.6-11.5,4.6C24.8,48.7,17.3,41.2,17.3,32.1
	L17.3,32.1z"/>
<path class="st0" d="M31.2,36.3c0-0.1,0-0.1,0-0.2c0-0.1,0-0.1,0-0.2v-5.3c0-1.6,0.6-3.2,1.8-4.3l6-6c0.4-0.4,0.4-1,0-1.4
	c-0.4-0.4-1-0.4-1.4,0l-6,6c-1.4,1.4-2.2,3.1-2.3,5.1c0,0.1,0,0.1,0,0.2v5.1H22c-0.5,0-1,0.4-1,1s0.4,1,1,1h8.3
	C30.8,37.3,31.3,36.9,31.2,36.3L31.2,36.3z"/>
<path class="st0" d="M44.7,23.5c-0.4-0.4-1-0.4-1.4,0l-6.4,6.4c-0.3,0.2-0.4,0.5-0.4,0.8v5.7c0,3.4-2.8,6.1-6.1,6.1H27
	c-0.5,0-1,0.4-1,1s0.4,1,1,1h3.4c4.4,0,8.1-3.6,8.1-8.1v-5.3l6.2-6.2C45,24.5,45,23.9,44.7,23.5L44.7,23.5z"/>
</svg>
