<?xml version="1.0" encoding="utf-8"?>
<!-- Generator: Adobe Illustrator 28.2.0, SVG Export Plug-In . SVG Version: 6.00 Build 0)  -->
<svg version="1.1" id="Layer_1" xmlns="http://www.w3.org/2000/svg" xmlns:xlink="http://www.w3.org/1999/xlink" x="0px" y="0px"
	 viewBox="0 0 63.4 60.5" style="enable-background:new 0 0 63.4 60.5;" xml:space="preserve">
<style type="text/css">
	.st0{fill:#FFFFFF;}
</style>
<g>
	<path class="st0" d="M37.3,52.9h-19c-2.2,0-3.9-1.8-3.9-3.9V11.5c0-2.2,1.8-3.9,3.9-3.9h19c2.2,0,3.9,1.8,3.9,3.9v4.9
		c0,0.4-0.3,0.6-0.7,0.6s-0.7-0.3-0.7-0.6v-4.9c0-1.4-1.2-2.6-2.6-2.6h-19c-1.5,0-2.6,1.2-2.6,2.6V49c0,1.5,1.2,2.6,2.6,2.6h19
		c1.5,0,2.6-1.2,2.6-2.6v-8.3c0-0.4,0.3-0.7,0.7-0.7s0.7,0.3,0.7,0.7V49C41.2,51.2,39.4,52.9,37.3,52.9z"/>
	<path class="st0" d="M35.9,45.9H19.6c-1,0-1.8-0.8-1.8-1.8v-31c0-1,0.8-1.8,1.8-1.8h16.3c1,0,1.8,0.8,1.8,1.8v3.3
		c0,0.4-0.3,0.6-0.7,0.6s-0.7-0.3-0.7-0.6V13c0-0.3-0.2-0.6-0.5-0.6H19.6c-0.3,0-0.5,0.2-0.5,0.6v31c0,0.3,0.2,0.5,0.5,0.5h16.3
		c0.3,0,0.5-0.2,0.5-0.5v-3.3c0-0.4,0.3-0.7,0.7-0.7s0.7,0.3,0.7,0.7v3.3C37.7,45.1,36.9,45.9,35.9,45.9L35.9,45.9z"/>
	<path class="st0" d="M31.6,49.6h-7.7c-0.4,0-0.6-0.3-0.6-0.7s0.3-0.7,0.6-0.7h7.7c0.4,0,0.7,0.3,0.7,0.7S32,49.6,31.6,49.6z"/>
</g>
<g>
	<path class="st0" d="M33.4,28.6L33.4,28.6c-0.2,0-0.4-0.2-0.4-0.4v-4.5c0-0.2,0.2-0.4,0.4-0.4s0.4,0.2,0.4,0.4v4.5
		C33.8,28.5,33.6,28.6,33.4,28.6L33.4,28.6z M33.4,28.3L33.4,28.3L33.4,28.3z"/>
	<path class="st0" d="M33.4,34.7L33.4,34.7c-0.2,0-0.4-0.2-0.4-0.4v-2c0-0.2,0.2-0.4,0.4-0.4s0.4,0.2,0.4,0.4v2
		C33.8,34.5,33.6,34.7,33.4,34.7L33.4,34.7z M33.4,34.3L33.4,34.3L33.4,34.3z"/>
	<path class="st0" d="M37.9,26.1L37.9,26.1c-0.2,0-0.4-0.2-0.4-0.4v-3c0-0.2,0.2-0.4,0.4-0.4s0.4,0.2,0.4,0.4v3
		C38.3,26,38.1,26.1,37.9,26.1L37.9,26.1z M37.9,25.8L37.9,25.8L37.9,25.8z"/>
	<path class="st0" d="M37.9,35.2L37.9,35.2c-0.2,0-0.4-0.2-0.4-0.4v-2c0-0.2,0.2-0.4,0.4-0.4s0.4,0.2,0.4,0.4v2
		C38.3,35,38.1,35.2,37.9,35.2L37.9,35.2z M37.9,34.8L37.9,34.8L37.9,34.8z"/>
	<path class="st0" d="M42.4,25.1L42.4,25.1c-0.2,0-0.4-0.2-0.4-0.4v-1.5c0-0.2,0.2-0.4,0.4-0.4s0.4,0.2,0.4,0.4v1.5
		C42.8,25,42.6,25.1,42.4,25.1L42.4,25.1z M42.4,24.8L42.4,24.8L42.4,24.8z"/>
	<path class="st0" d="M42.4,34.2L42.4,34.2c-0.2,0-0.4-0.2-0.4-0.4v-4c0-0.2,0.2-0.4,0.4-0.4s0.4,0.2,0.4,0.4v4
		C42.8,34,42.6,34.2,42.4,34.2L42.4,34.2z M42.4,33.8L42.4,33.8L42.4,33.8z"/>
	<path class="st0" d="M38.8,33.2H37c-0.4,0-0.7-0.3-0.7-0.7v-6.4c0-0.4,0.3-0.7,0.7-0.7h1.8c0.4,0,0.7,0.3,0.7,0.7v6.4
		C39.5,32.8,39.2,33.2,38.8,33.2z M37,32.4h1.8v-6.3H37V32.4z"/>
	<path class="st0" d="M34.3,32.7h-1.8c-0.4,0-0.7-0.3-0.7-0.7v-3.3c0-0.4,0.3-0.7,0.7-0.7h1.8c0.4,0,0.7,0.3,0.7,0.7V32
		C35,32.3,34.7,32.7,34.3,32.7z M32.5,31.9h1.8v-3.3h-1.8V31.9z"/>
	<path class="st0" d="M43.3,30.1h-1.8c-0.4,0-0.7-0.3-0.7-0.7v-4.4c0-0.4,0.3-0.7,0.7-0.7h1.8c0.4,0,0.7,0.3,0.7,0.7v4.4
		C44,29.8,43.7,30.1,43.3,30.1z M41.5,29.4h1.8v-4.3h-1.8C41.5,25.1,41.5,29.4,41.5,29.4z"/>
</g>
<path class="st0" d="M48.5,37.8H27.4c-0.4,0-0.6-0.3-0.6-0.7V20c0-0.4,0.3-0.6,0.6-0.6h21.1c0.4,0,0.7,0.3,0.7,0.6v17.1
	C49.1,37.5,48.8,37.8,48.5,37.8z M28,36.5h19.8V20.7H28C28,20.7,28,36.5,28,36.5z"/>
</svg>
