<?xml version="1.0" encoding="UTF-8"?>
<svg id="Layer_1" data-name="Layer 1" xmlns="http://www.w3.org/2000/svg" viewBox="0 0 63.43 60.49">
  <defs>
    <style>
      .cls-1 {
        fill: #3f3f3e;
        stroke-width: 0px;
      }
    </style>
  </defs>
  <g>
    <path class="cls-1" d="M37.26,52.91h-19.01c-2.16,0-3.92-1.76-3.92-3.91V11.49c0-2.16,1.76-3.91,3.92-3.91h19.01c2.16,0,3.92,1.76,3.92,3.91v4.91c0,.36-.29.65-.65.65s-.65-.29-.65-.65v-4.91c0-1.45-1.18-2.62-2.63-2.62h-19.01c-1.45,0-2.63,1.18-2.63,2.62v37.51c0,1.45,1.18,2.62,2.63,2.62h19.01c1.45,0,2.63-1.18,2.63-2.62v-8.27c0-.36.29-.65.65-.65s.65.29.65.65v8.27c0,2.16-1.76,3.91-3.92,3.91Z"/>
    <path class="cls-1" d="M35.9,45.92h-16.29c-1.02,0-1.84-.83-1.84-1.84V13.05c0-1.02.83-1.84,1.84-1.84h16.29c1.02,0,1.84.83,1.84,1.84v3.35c0,.36-.29.65-.65.65s-.65-.29-.65-.65v-3.35c0-.3-.25-.55-.55-.55h-16.29c-.3,0-.55.25-.55.55v31.02c0,.3.25.55.55.55h16.29c.3,0,.55-.25.55-.55v-3.35c0-.36.29-.65.65-.65s.65.29.65.65v3.35c0,1.02-.83,1.84-1.84,1.84Z"/>
    <path class="cls-1" d="M31.59,49.6h-7.67c-.36,0-.65-.29-.65-.65s.29-.65.65-.65h7.67c.36,0,.65.29.65.65s-.29.65-.65.65Z"/>
  </g>
  <g>
    <path class="cls-1" d="M33.39,28.64h-.03c-.2,0-.37-.17-.37-.37v-4.52c0-.2.17-.37.37-.37s.39.17.39.37v4.52c0,.2-.17.37-.37.37ZM33.39,28.27h0,0Z"/>
    <path class="cls-1" d="M33.39,34.67h-.03c-.2,0-.37-.17-.37-.37v-2.01c0-.2.17-.37.37-.37s.39.17.39.37v2.01c0,.2-.17.37-.37.37ZM33.39,34.3h0,0Z"/>
    <path class="cls-1" d="M37.91,26.12h-.03c-.2,0-.37-.17-.37-.37v-3.02c0-.2.17-.37.37-.37s.39.17.39.37v3.02c0,.2-.17.37-.37.37ZM37.91,25.75h0,0Z"/>
    <path class="cls-1" d="M37.91,35.17h-.03c-.2,0-.37-.17-.37-.37v-2.01c0-.2.17-.37.37-.37s.39.17.39.37v2.01c0,.2-.17.37-.37.37ZM37.91,34.8h0,0Z"/>
    <path class="cls-1" d="M42.44,25.12h-.03c-.2,0-.37-.17-.37-.37v-1.51c0-.2.17-.37.37-.37s.39.17.39.37v1.51c0,.2-.17.37-.37.37ZM42.44,24.75h0,0Z"/>
    <path class="cls-1" d="M42.44,34.16h-.03c-.2,0-.37-.17-.37-.37v-4.02c0-.2.17-.37.37-.37s.39.17.39.37v4.02c0,.2-.17.37-.37.37ZM42.44,33.79h0,0Z"/>
    <path class="cls-1" d="M38.82,33.16h-1.84c-.39,0-.71-.32-.71-.71v-6.36c0-.39.32-.71.71-.71h1.84c.39,0,.71.32.71.71v6.36c0,.39-.32.71-.71.71ZM37.01,32.42h1.77v-6.3h-1.77v6.3Z"/>
    <path class="cls-1" d="M34.3,32.66h-1.84c-.39,0-.71-.32-.71-.71v-3.34c0-.39.32-.71.71-.71h1.84c.39,0,.71.32.71.71v3.34c0,.39-.32.71-.71.71ZM32.49,31.92h1.77v-3.28h-1.77v3.28Z"/>
    <path class="cls-1" d="M43.34,30.14h-1.84c-.39,0-.71-.32-.71-.71v-4.35c0-.39.32-.71.71-.71h1.84c.39,0,.71.32.71.71v4.35c0,.39-.32.71-.71.71ZM41.54,29.4h1.77v-4.29h-1.77v4.29Z"/>
  </g>
  <path class="cls-1" d="M48.45,37.75h-21.1c-.36,0-.65-.29-.65-.65v-17.08c0-.36.29-.65.65-.65h21.1c.36,0,.65.29.65.65v17.08c0,.36-.29.65-.65.65ZM28,36.45h19.81v-15.78h-19.81v15.78Z"/>
</svg>