<?xml version="1.0" encoding="utf-8"?>
<!-- Generator: Adobe Illustrator 28.2.0, SVG Export Plug-In . SVG Version: 6.00 Build 0)  -->
<svg version="1.1" id="Layer_1" xmlns="http://www.w3.org/2000/svg" xmlns:xlink="http://www.w3.org/1999/xlink" x="0px" y="0px"
	 viewBox="0 0 63.4 60.5" style="enable-background:new 0 0 63.4 60.5;" xml:space="preserve">
<style type="text/css">
	.st0{fill:#FFFFFF;}
</style>
<g>
	<path class="st0" d="M51,52.4h-8.6c-1.2,0-2.2-1-2.2-2.2v-38c0-1.2,1-2.2,2.2-2.2H51c1.2,0,2.2,1,2.2,2.2v38
		C53.2,51.4,52.2,52.4,51,52.4z M42.4,11.7c-0.2,0-0.4,0.2-0.4,0.4v38c0,0.2,0.2,0.4,0.4,0.4H51c0.2,0,0.4-0.2,0.4-0.4v-38
		c0-0.2-0.2-0.4-0.4-0.4H42.4z"/>
	<path class="st0" d="M35.9,52.4h-8.6c-1.2,0-2.2-1-2.2-2.2V23.7c0-1.2,1-2.2,2.2-2.2h8.6c1.2,0,2.2,1,2.2,2.2v26.4
		C38.2,51.4,37.2,52.4,35.9,52.4z M27.4,23.3c-0.2,0-0.4,0.2-0.4,0.4v26.4c0,0.2,0.2,0.4,0.4,0.4h8.6c0.2,0,0.4-0.2,0.4-0.4V23.7
		c0-0.2-0.2-0.4-0.4-0.4C35.9,23.3,27.3,23.3,27.4,23.3z"/>
	<path class="st0" d="M21,52.4h-8.6c-1.2,0-2.2-1-2.2-2.2V34.7c0-1.2,1-2.2,2.2-2.2H21c1.2,0,2.2,1,2.2,2.2v15.4
		C23.2,51.4,22.2,52.4,21,52.4z M12.4,34.3c-0.2,0-0.4,0.2-0.4,0.4v15.4c0,0.2,0.2,0.4,0.4,0.4H21c0.2,0,0.4-0.2,0.4-0.4V34.7
		c0-0.2-0.2-0.4-0.4-0.4H12.4z"/>
</g>
<path class="st0" d="M21.9,21.6c-0.1,0-0.2,0-0.3-0.1l-3.6-1.9l-3.6,1.9c-0.2,0.1-0.6,0.1-0.8-0.1c-0.2-0.2-0.3-0.4-0.3-0.7l0.7-4
	L11.1,14c-0.2-0.2-0.3-0.5-0.2-0.8c0.1-0.3,0.3-0.5,0.6-0.5l4-0.6l1.8-3.6c0.1-0.2,0.4-0.4,0.7-0.4s0.5,0.2,0.7,0.4l1.8,3.6l4,0.6
	c0.3,0,0.5,0.2,0.6,0.5s0,0.6-0.2,0.8l-2.9,2.8l0.7,4c0,0.3-0.1,0.5-0.3,0.7C22.1,21.6,22,21.6,21.9,21.6L21.9,21.6z M17.9,18.1
	c0.1,0,0.2,0,0.3,0.1l2.6,1.4l-0.5-2.9c0-0.2,0-0.5,0.2-0.6l2.1-2.1l-2.9-0.4c-0.2,0-0.4-0.2-0.5-0.4l-1.3-2.6l-1.3,2.6
	c-0.1,0.2-0.3,0.4-0.5,0.4L13.2,14l2.1,2.1c0.2,0.2,0.2,0.4,0.2,0.6L15,19.6l2.6-1.4C17.7,18.1,17.8,18.1,17.9,18.1L17.9,18.1z"/>
</svg>
