<?xml version="1.0" encoding="UTF-8"?>
<svg id="Layer_1" data-name="Layer 1" xmlns="http://www.w3.org/2000/svg" viewBox="0 0 63.43 60.49">
  <defs>
    <style>
      .cls-1 {
        fill: #3f3f3e;
        stroke-width: 0px;
      }
    </style>
  </defs>
  <g>
    <path class="cls-1" d="M51.01,52.38h-8.57c-1.23,0-2.24-1-2.24-2.24V12.12c0-1.23,1-2.24,2.24-2.24h8.57c1.24,0,2.24,1,2.24,2.24v38.02c0,1.23-1,2.24-2.24,2.24ZM42.44,11.71c-.23,0-.41.18-.41.41v38.02c0,.23.18.41.41.41h8.57c.23,0,.41-.18.41-.41V12.12c0-.23-.18-.41-.41-.41h-8.57Z"/>
    <path class="cls-1" d="M35.92,52.38h-8.57c-1.23,0-2.24-1-2.24-2.24v-26.4c0-1.24,1-2.24,2.24-2.24h8.57c1.23,0,2.24,1,2.24,2.24v26.4c0,1.23-1,2.24-2.24,2.24ZM27.35,23.33c-.23,0-.41.18-.41.41v26.4c0,.23.18.41.41.41h8.57c.23,0,.41-.18.41-.41v-26.4c0-.23-.18-.41-.41-.41h-8.57Z"/>
    <path class="cls-1" d="M20.99,52.38h-8.57c-1.24,0-2.24-1-2.24-2.24v-15.42c0-1.24,1-2.24,2.24-2.24h8.57c1.24,0,2.24,1.01,2.24,2.24v15.42c0,1.23-1,2.24-2.24,2.24ZM12.42,34.31c-.23,0-.41.18-.41.41v15.42c0,.23.18.41.41.41h8.57c.23,0,.41-.18.41-.41v-15.42c0-.23-.18-.41-.41-.41h-8.57Z"/>
  </g>
  <path class="cls-1" d="M21.85,21.64c-.12,0-.23-.03-.34-.08l-3.58-1.88-3.58,1.88c-.25.13-.55.11-.77-.06-.23-.16-.34-.44-.29-.72l.68-3.99-2.9-2.82c-.2-.19-.27-.49-.19-.75.09-.27.32-.46.59-.5l4-.58,1.79-3.63c.12-.25.38-.41.66-.41s.53.16.66.41l1.79,3.63,4,.58c.28.04.5.23.59.5.09.27.01.56-.19.75l-2.9,2.82.68,3.99c.05.27-.07.55-.29.72-.13.09-.28.14-.43.14ZM17.93,18.11c.12,0,.23.03.34.08l2.61,1.37-.5-2.9c-.04-.24.04-.48.21-.65l2.11-2.06-2.92-.42c-.24-.03-.44-.18-.55-.4l-1.3-2.64-1.3,2.64c-.11.22-.31.37-.55.4l-2.91.42,2.11,2.06c.17.17.25.41.21.65l-.5,2.9,2.61-1.37c.11-.06.22-.08.34-.08Z"/>
</svg>