<?xml version="1.0" encoding="UTF-8"?>
<svg id="Layer_1" data-name="Layer 1" xmlns="http://www.w3.org/2000/svg" viewBox="0 0 87.4 64.3">
  <defs>
    <style>
      .cls-1 {
        fill: #3f3f3e;
        stroke-width: 0px;
      }
    </style>
  </defs>
  <path class="cls-1" d="M7.67,62.34h15.05v-13.59H7.67v13.59ZM9.56,50.64h11.26v9.8h-11.26v-9.8Z"/>
  <path class="cls-1" d="M26.67,62.34h15.05v-25.29h-15.05v25.29ZM28.57,38.95h11.26v21.5h-11.26v-21.5Z"/>
  <path class="cls-1" d="M45.68,62.34h15.05v-19.44h-15.05v19.44ZM47.57,44.79h11.26v15.65h-11.26v-15.65Z"/>
  <path class="cls-1" d="M64.68,25.35v36.98h15.05V25.35h-15.05ZM77.84,60.44h-11.26V27.25h11.26v33.19Z"/>
  <path class="cls-1" d="M15.19,36.02c2.94,0,5.33-2.39,5.33-5.33,0-.66-.13-1.29-.35-1.87l10.1-6.22c.98,1.06,2.37,1.73,3.92,1.73,2.03,0,3.8-1.14,4.7-2.82l9,2.77c-.02.19-.03.37-.03.56,0,2.94,2.39,5.33,5.33,5.33s5.33-2.39,5.33-5.33c0-1.03-.3-1.98-.8-2.8l11.32-10.45c.88.65,1.97,1.04,3.15,1.04,2.94,0,5.33-2.39,5.33-5.33s-2.39-5.33-5.33-5.33-5.33,2.39-5.33,5.33c0,1.03.3,1.98.8,2.8l-11.32,10.45c-.88-.65-1.97-1.04-3.15-1.04-2.03,0-3.8,1.14-4.7,2.82l-9-2.77c.02-.19.03-.37.03-.56,0-2.94-2.39-5.33-5.33-5.33s-5.33,2.39-5.33,5.33c0,.66.13,1.29.35,1.87l-10.1,6.22c-.98-1.06-2.37-1.73-3.92-1.73-2.94,0-5.33,2.39-5.33,5.33s2.39,5.33,5.33,5.33ZM72.21,3.86c1.9,0,3.44,1.54,3.44,3.44s-1.54,3.44-3.44,3.44c-.92,0-1.76-.37-2.37-.96l-.16-.17c-.56-.61-.91-1.42-.91-2.31,0-1.9,1.54-3.44,3.44-3.44ZM53.2,21.4c.92,0,1.75.37,2.37.96l.16.17c.56.61.9,1.42.9,2.3,0,1.9-1.54,3.44-3.44,3.44s-3.44-1.54-3.44-3.44c0-.23.02-.45.07-.67l.21-.68c.53-1.23,1.74-2.09,3.16-2.09ZM34.2,15.55c1.9,0,3.44,1.54,3.44,3.44,0,.23-.02.45-.07.67l-.21.68c-.53,1.23-1.74,2.09-3.16,2.09-1.16,0-2.18-.58-2.81-1.46l-.12-.2c-.32-.52-.51-1.12-.51-1.77,0-1.9,1.54-3.44,3.44-3.44ZM15.19,27.25c1.16,0,2.18.58,2.8,1.46l.13.21c.32.52.51,1.12.51,1.77,0,1.9-1.54,3.44-3.44,3.44s-3.44-1.54-3.44-3.44,1.54-3.44,3.44-3.44Z"/>
</svg>