<?xml version="1.0" encoding="UTF-8"?>
<svg id="Layer_1" data-name="Layer 1" xmlns="http://www.w3.org/2000/svg" viewBox="0 0 87.4 64.3">
  <defs>
    <style>
      .cls-1 {
        fill: #ffcb00;
        stroke-width: 0px;
      }
    </style>
  </defs>
  <path class="cls-1" d="M12.63,44.55c.39-.16.78-.45,1.18-.46,1.35-.06,2.71-.02,4.15-.02v-.74c0-7.84,0-15.67,0-23.51,0-.2,0-.41,0-.61.03-.59.4-.99.93-1,.51-.02.94.38,1,.95.02.2,0,.4,0,.61,0,7.84,0,15.67,0,23.51v.8c.6,0,1.16,0,1.72,0,.87,0,1.74-.01,2.61,0,.67.01,1.05.35,1.05.99.01,2.65.01,5.31,0,7.96,0,.67-.38,1-1.1,1.01-1.4,0-2.79,0-4.29,0,0,.24,0,.45,0,.66,0,2.41-.01,4.82,0,7.23,0,.61-.16,1.07-.72,1.35h-.61c-.49-.31-.64-.75-.64-1.33.02-2.41.01-4.82.01-7.23,0-.21,0-.43,0-.68-1.44,0-2.8.04-4.15-.02-.4-.02-.78-.3-1.18-.46,0-3,0-6,0-9ZM23.33,46.04h-8.81v6h8.81v-6Z"/>
  <path class="cls-1" d="M36.38,43.85v.72c0,2.39,0,4.78,0,7.17,0,.2,0,.41-.02.61-.06.51-.36.81-.87.85-.54.04-.89-.23-1.01-.76-.05-.21-.04-.44-.04-.66,0-2.39,0-4.78,0-7.17,0-.22,0-.44,0-.75-.73,0-1.41,0-2.09,0-.69,0-1.38,0-2.07,0-.93,0-1.24-.31-1.24-1.24,0-3.32,0-6.64,0-9.96,0-5.65,0-11.3,0-16.95,0-1.28.23-1.5,1.54-1.5,1.25,0,2.51,0,3.86,0v-.73c0-3.65,0-7.29,0-10.94,0-.2,0-.41.02-.61.08-.54.49-.9.99-.88.5.02.88.39.92.94.03.38.01.77.01,1.15,0,3.42,0,6.85,0,10.27v.79c1.18,0,2.28,0,3.39,0,.28,0,.57,0,.85,0,.84.02,1.18.36,1.19,1.19,0,1.68,0,3.36,0,5.04,0,7.33,0,14.66,0,22,0,1.17-.26,1.43-1.42,1.43-1.31,0-2.62,0-4.01,0ZM39.83,41.87v-25.7h-8.8v25.7h8.8Z"/>
  <path class="cls-1" d="M67.42,38.1c-1.41,0-2.75,0-4.08,0-1.03,0-1.35-.31-1.35-1.33,0-4.56,0-9.11,0-13.67,0-1,.3-1.3,1.3-1.3,1.35,0,2.7,0,4.13,0v-.72c0-2.69,0-5.39,0-8.08,0-.22,0-.45.03-.67.08-.45.37-.72.82-.77.48-.05.85.14,1,.6.08.24.09.52.09.78,0,2.69,0,5.39,0,8.08v.77c1.39,0,2.7,0,4.01,0,1.13,0,1.39.25,1.39,1.39,0,4.52,0,9.03,0,13.55,0,1.07-.29,1.36-1.37,1.36-1.31,0-2.63,0-4.03,0,0,.28,0,.51,0,.74,0,3.4,0,6.8,0,10.2,0,.26,0,.53-.07.78-.14.49-.51.73-1.02.67-.47-.05-.77-.34-.83-.83-.03-.22-.02-.44-.02-.67,0-3.36,0-6.72,0-10.08v-.82ZM63.99,23.76v12.35h8.79v-12.35h-8.79Z"/>
  <path class="cls-1" d="M50.92,8.54v-2.67c0-1.17,0-2.35,0-3.52,0-.87.35-1.33.99-1.31.62.01.95.46.95,1.29,0,1.82,0,3.65,0,5.47v.75c.82,0,1.6,0,2.38,0,.63,0,1.26,0,1.88,0,.8.01,1.14.34,1.15,1.15.02.85,0,1.7,0,2.55,0,2.84,0,5.67,0,8.51,0,1.1-.3,1.4-1.42,1.4-1.31,0-2.62,0-4.01,0v.76c0,5.19,0,10.37,0,15.56,0,.18,0,.37,0,.55-.05.58-.45.95-.99.94-.51,0-.9-.38-.95-.92-.02-.18,0-.36,0-.55,0-5.19,0-10.37,0-15.56v-.79c-1.34,0-2.63,0-3.92,0-1.24,0-1.5-.26-1.5-1.5,0-3.57,0-7.13,0-10.7,0-1.17.25-1.42,1.43-1.42,1.29,0,2.59,0,3.99,0ZM56.3,20.18v-9.65h-8.81v9.65h8.81Z"/>
</svg>