<?xml version="1.0" encoding="UTF-8"?>
<svg id="Layer_1" data-name="Layer 1" xmlns="http://www.w3.org/2000/svg" viewBox="0 0 87.4 64.3">
  <defs>
    <style>
      .cls-1 {
        fill: #ffd000;
        stroke-width: 0px;
      }
    </style>
  </defs>
  <g>
    <g>
      <rect class="cls-1" x="42.55" y="2.54" width="1.93" height="59.22"/>
      <path class="cls-1" d="M43.51,20.11c-8.68,0-16.58-3.45-20.62-8.99l1.56-1.14c3.68,5.06,10.99,8.2,19.06,8.2,3.37,0,6.6-.54,9.59-1.59l.64,1.82c-3.2,1.13-6.64,1.71-10.24,1.71Z"/>
      <path class="cls-1" d="M59.99,15.18l-1.13-1.56c1.62-1.17,2.95-2.51,3.96-3.98l1.59,1.09c-1.13,1.65-2.62,3.15-4.42,4.45Z"/>
      <path class="cls-1" d="M24.45,54.3l-1.56-1.14c4.04-5.55,11.94-8.99,20.62-8.99,3.5,0,6.87.55,10,1.62l-.63,1.82c-2.93-1.01-6.09-1.52-9.37-1.52-8.07,0-15.38,3.14-19.06,8.2Z"/>
      <path class="cls-1" d="M62.58,54.3c-1.01-1.39-2.32-2.66-3.9-3.77l1.11-1.58c1.75,1.24,3.22,2.66,4.35,4.22l-1.56,1.13Z"/>
      <path class="cls-1" d="M43.51,62.72c-8.19,0-15.05-11.65-15.95-27.1l1.93-.11c.83,14.18,6.99,25.29,14.02,25.29,4.06,0,7.95-3.64,10.66-9.98l1.78.76c-3.04,7.08-7.57,11.14-12.44,11.14Z"/>
      <path class="cls-1" d="M58.11,44.99l-1.88-.45c.93-3.89,1.41-8.05,1.41-12.39s-.47-8.5-1.41-12.38l1.88-.45c.97,4.03,1.46,8.35,1.46,12.83s-.49,8.81-1.46,12.84Z"/>
      <path class="cls-1" d="M29.51,28.53l-1.93-.12c.97-15.3,7.82-26.84,15.93-26.84,4.86,0,9.38,4.05,12.42,11.1l-1.77.76c-2.72-6.31-6.6-9.93-10.65-9.93-7.09,0-13.11,10.76-14.01,25.03Z"/>
      <path class="cls-1" d="M43.51,62.72c-14.05,0-26.24-9.5-29.66-23.11-.21-.82-1.01-1.41-1.9-1.41h-1.22v-1.93h1.22c1.8,0,3.35,1.18,3.78,2.88,3.2,12.74,14.62,21.65,27.78,21.65,15.47,0,28.12-12.33,28.63-27.68h-39.32v-1.93h41.27v.97c0,16.86-13.72,30.57-30.57,30.57Z"/>
      <path class="cls-1" d="M24.9,33.11h-11.96v-.97C12.94,15.29,26.66,1.58,43.51,1.58c13.66,0,25.77,9.18,29.45,22.33.29,1.06,1.29,1.79,2.41,1.79h1.29v1.93h-1.29c-1.99,0-3.74-1.32-4.27-3.2-3.44-12.32-14.79-20.92-27.59-20.92-15.47,0-28.12,12.33-28.63,27.68h10.02v1.93Z"/>
    </g>
    <path class="cls-1" d="M56.31,20.46c-2.31,0-4.18-1.88-4.18-4.18s1.88-4.18,4.18-4.18,4.18,1.88,4.18,4.18-1.88,4.18-4.18,4.18ZM56.31,14.02c-1.24,0-2.25,1.01-2.25,2.25s1.01,2.25,2.25,2.25,2.25-1.01,2.25-2.25-1.01-2.25-2.25-2.25Z"/>
    <path class="cls-1" d="M28.43,36.33c-2.31,0-4.18-1.88-4.18-4.18s1.88-4.18,4.18-4.18,4.18,1.88,4.18,4.18-1.88,4.18-4.18,4.18ZM28.43,29.9c-1.24,0-2.25,1.01-2.25,2.25s1.01,2.25,2.25,2.25,2.25-1.01,2.25-2.25-1.01-2.25-2.25-2.25Z"/>
    <path class="cls-1" d="M56.26,52.16c-2.31,0-4.18-1.88-4.18-4.18s1.88-4.18,4.18-4.18,4.18,1.88,4.18,4.18-1.88,4.18-4.18,4.18ZM56.26,45.73c-1.24,0-2.25,1.01-2.25,2.25s1.01,2.25,2.25,2.25,2.25-1.01,2.25-2.25-1.01-2.25-2.25-2.25Z"/>
  </g>
  <path class="cls-1" d="M79.88,30.63c-2.31,0-4.18-1.88-4.18-4.18s1.88-4.18,4.18-4.18,4.18,1.88,4.18,4.18-1.88,4.18-4.18,4.18ZM79.88,24.19c-1.24,0-2.25,1.01-2.25,2.25s1.01,2.25,2.25,2.25,2.25-1.01,2.25-2.25-1.01-2.25-2.25-2.25Z"/>
  <path class="cls-1" d="M7.52,41.42c-2.31,0-4.18-1.88-4.18-4.18s1.88-4.18,4.18-4.18,4.18,1.88,4.18,4.18-1.88,4.18-4.18,4.18ZM7.52,34.99c-1.24,0-2.25,1.01-2.25,2.25s1.01,2.25,2.25,2.25,2.25-1.01,2.25-2.25-1.01-2.25-2.25-2.25Z"/>
</svg>