<?xml version="1.0" encoding="UTF-8"?>
<svg id="Layer_1" data-name="Layer 1" xmlns="http://www.w3.org/2000/svg" viewBox="0 0 87.4 64.3">
  <defs>
    <style>
      .cls-1 {
        fill: #3f3f3e;
        stroke-width: 0px;
      }
    </style>
  </defs>
  <path class="cls-1" d="M5.67,64.3h15.89v-14.34H5.67v14.34ZM7.67,51.95h11.89v10.34H7.67v-10.34Z"/>
  <path class="cls-1" d="M25.72,64.3h15.89v-26.69h-15.89v26.69ZM27.72,39.61h11.89v22.69h-11.89v-22.69Z"/>
  <path class="cls-1" d="M45.78,64.3h15.89v-20.52h-15.89v20.52ZM47.78,45.78h11.89v16.52h-11.89v-16.52Z"/>
  <path class="cls-1" d="M65.84,25.27v39.03h15.89V25.27h-15.89ZM79.73,62.3h-11.89V27.27h11.89v35.03Z"/>
  <path class="cls-1" d="M13.61,36.52c3.1,0,5.63-2.53,5.63-5.63,0-.7-.13-1.36-.36-1.97l10.66-6.56c1.03,1.12,2.5,1.82,4.13,1.82,2.14,0,4.01-1.21,4.96-2.98l9.5,2.92c-.02.2-.03.39-.03.59,0,3.1,2.52,5.63,5.63,5.63s5.63-2.53,5.63-5.63c0-1.08-.31-2.09-.84-2.95l11.95-11.03c.93.69,2.08,1.1,3.32,1.1,3.1,0,5.63-2.53,5.63-5.63s-2.52-5.63-5.63-5.63-5.63,2.53-5.63,5.63c0,1.08.31,2.09.84,2.95l-11.95,11.03c-.93-.69-2.08-1.1-3.32-1.1-2.14,0-4.01,1.21-4.96,2.98l-9.5-2.92c.02-.2.03-.39.03-.59,0-3.1-2.53-5.63-5.63-5.63s-5.63,2.53-5.63,5.63c0,.7.13,1.36.36,1.97l-10.66,6.56c-1.03-1.12-2.5-1.82-4.13-1.82-3.1,0-5.63,2.53-5.63,5.63s2.53,5.63,5.63,5.63ZM73.79,2.58c2,0,3.63,1.63,3.63,3.63s-1.63,3.63-3.63,3.63c-.97,0-1.85-.39-2.51-1.02l-.16-.18c-.59-.65-.96-1.5-.96-2.44,0-2,1.63-3.63,3.63-3.63ZM53.73,21.09c.97,0,1.85.39,2.5,1.01l.17.18c.59.65.95,1.49.95,2.43,0,2-1.63,3.63-3.63,3.63s-3.63-1.63-3.63-3.63c0-.24.03-.48.07-.7l.22-.72c.55-1.3,1.84-2.21,3.34-2.21ZM33.67,14.92c2,0,3.63,1.63,3.63,3.63,0,.24-.03.48-.07.7l-.22.72c-.56,1.29-1.84,2.2-3.34,2.2-1.22,0-2.3-.61-2.96-1.55l-.13-.21c-.33-.55-.54-1.19-.54-1.87,0-2,1.63-3.63,3.63-3.63ZM13.61,27.27c1.22,0,2.3.61,2.96,1.54l.14.22c.33.55.54,1.18.54,1.87,0,2-1.63,3.63-3.63,3.63s-3.63-1.63-3.63-3.63,1.63-3.63,3.63-3.63Z"/>
</svg>