<?xml version="1.0" encoding="UTF-8"?>
<svg version="1.1" xmlns="http://www.w3.org/2000/svg" width="603" height="629">
<path d="M0 0 C-0.54223165 8.63262517 -1.50775206 17.08258003 -2.93359375 25.61157227 C-3.1272049 26.79698105 -3.32081604 27.98238983 -3.52029419 29.20372009 C-4.04518755 32.41040886 -4.57491686 35.61624946 -5.10704422 38.8217442 C-5.6655793 42.19311429 -6.21802172 45.5654831 -6.77124023 48.93772888 C-7.69895543 54.58743384 -8.63076014 60.23645135 -9.56542969 65.88500977 C-10.76435409 73.13067799 -11.95656316 80.37743443 -13.14665222 87.62455845 C-14.17308555 93.87485217 -15.20241094 100.12466906 -16.23228836 106.37439609 C-16.56208669 108.37639728 -16.89151994 110.3784583 -17.22091675 112.38052559 C-17.8343046 116.10497247 -18.44997854 119.82903371 -19.06640625 123.55297852 C-19.2482547 124.65896393 -19.43010315 125.76494934 -19.61746216 126.90444946 C-19.86978104 128.42430702 -19.86978104 128.42430702 -20.12719727 129.97486877 C-20.27246353 130.85396691 -20.4177298 131.73306505 -20.56739807 132.63880253 C-20.96137246 134.78916588 -21.44172688 136.88705945 -22 139 C-25.91209308 137.40584497 -28.37218086 134.86106668 -31.3125 131.875 C-31.80032959 131.3807251 -32.28815918 130.8864502 -32.79077148 130.37719727 C-36.05259765 127.04625774 -39.1413058 123.60480343 -42.1640625 120.05859375 C-45.91417982 115.85367497 -49.98117205 111.9460524 -54 108 C-58.4506962 109.42155017 -60.94796681 111.58768477 -64.21411133 114.8894043 C-64.70917679 115.38563797 -65.20424225 115.88187164 -65.71430969 116.3931427 C-67.3439668 118.02996681 -68.96283657 119.67704993 -70.58203125 121.32421875 C-71.72083927 122.47117259 -72.8603932 123.61738625 -74.00065613 124.76289368 C-77.00102988 127.78037105 -79.99273327 130.80629291 -82.98223877 133.83453369 C-87.75355695 138.66504187 -92.53744742 143.48308734 -97.32221031 148.30027199 C-98.98219432 149.97407109 -100.63821175 151.65171355 -102.2936554 153.33000183 C-107.04927813 158.1381862 -111.84131492 162.8196292 -116.98710632 167.21443176 C-120.86300623 170.65260828 -124.47420966 174.36667044 -128.12033081 178.04516602 C-129.59931909 179.53714243 -131.08160502 181.02577553 -132.56469727 182.51367188 C-135.71265249 185.67294765 -138.8566327 188.83616023 -142 192 C-145.64814783 195.67190789 -149.29799344 199.34209557 -152.95211792 203.00805664 C-154.39865069 204.46097908 -155.84209167 205.91692281 -157.28540039 207.37304688 C-161.77046928 211.87467776 -166.30904838 216.20947073 -171.13198853 220.34570312 C-174.38752909 223.2287853 -177.37221012 226.36908909 -180.38671875 229.5 C-181.74990435 230.89526116 -183.11385856 232.28977174 -184.47851562 233.68359375 C-186.5990703 235.85381996 -188.71456124 238.02814369 -190.81762695 240.21533203 C-192.86871499 242.34482521 -194.93815515 244.45491718 -197.01171875 246.5625 C-197.95249519 247.55443359 -197.95249519 247.55443359 -198.91227722 248.56640625 C-203.31573388 252.99712971 -203.31573388 252.99712971 -206.79370117 253.01171875 C-209.58864226 251.73007264 -211.40920979 250.13427284 -213.625 248 C-217.10075994 244.74500472 -220.60955779 241.6197883 -224.3125 238.625 C-228.4197353 235.29981938 -232.47483827 231.92337367 -236.5 228.5 C-241.33964951 224.38704379 -246.22953482 220.34371108 -251.16015625 216.33984375 C-253.27060319 214.60097481 -255.35845139 212.84649921 -257.43359375 211.06640625 C-258.01625 210.56753906 -258.59890625 210.06867188 -259.19921875 209.5546875 C-260.33118337 208.58297854 -261.46025039 207.60788058 -262.5859375 206.62890625 C-265.27821891 204.31931821 -267.79843485 202.5061899 -271 201 C-271.92184082 201.92406143 -272.84368164 202.84812286 -273.79345703 203.80018616 C-282.50028175 212.52732201 -291.20977571 221.25178621 -299.92185974 229.97367191 C-304.40025171 234.45727248 -308.87771278 238.94179435 -313.35302734 243.4284668 C-317.67558506 247.76192543 -322.00061278 252.09290486 -326.32733154 256.42220879 C-327.9739317 258.07065023 -329.61965451 259.71996855 -331.26446533 261.37019539 C-333.57630559 263.68934174 -335.89130474 266.00529166 -338.20703125 268.32055664 C-338.87957443 268.9966951 -339.55211761 269.67283356 -340.24504089 270.36946106 C-344.05385005 274.17011546 -347.97999439 277.76042715 -352.05111694 281.27738285 C-355.2112861 284.07065542 -358.17778855 287.04665892 -361.15039062 290.03686523 C-362.14700714 291.03326271 -362.14700714 291.03326271 -363.16375732 292.04978943 C-365.33030421 294.2170256 -367.49330062 296.38776771 -369.65625 298.55859375 C-371.16917356 300.073385 -372.68232 301.58795368 -374.19567871 303.10231018 C-378.15651974 307.0669488 -382.11434702 311.03458251 -386.0715332 315.00286865 C-390.11877339 319.06038257 -394.16888565 323.11502746 -398.21875 327.16992188 C-406.14863112 335.11049161 -414.07532821 343.0542316 -422 351 C-425.97123535 349.18478883 -428.45477341 346.60603545 -431.3125 343.375 C-432.03336792 342.57400879 -432.03336792 342.57400879 -432.76879883 341.75683594 C-434.18644874 340.17750129 -435.59492106 338.59052083 -437 337 C-437.75023437 336.15179688 -438.50046875 335.30359375 -439.2734375 334.4296875 C-440.85691795 332.62645874 -442.43340206 330.81789522 -444 329 C-442.72992898 325.50616119 -441.27269147 322.7529032 -439.015625 319.8046875 C-438.41758057 319.01650635 -437.81953613 318.2283252 -437.20336914 317.41625977 C-436.23645142 316.15833618 -436.23645142 316.15833618 -435.25 314.875 C-433.87812367 313.06960482 -432.50704798 311.26360099 -431.13671875 309.45703125 C-430.44239746 308.5438916 -429.74807617 307.63075195 -429.03271484 306.68994141 C-426.00091004 302.67787975 -423.03191785 298.62081863 -420.0625 294.5625 C-415.11475739 287.81800475 -410.08300585 281.14306998 -405 274.5 C-397.54480189 264.75447342 -390.24870837 254.89966457 -383 245 C-375.09138797 234.19909557 -367.09947505 223.47353364 -358.96582031 212.84082031 C-352.19624425 203.97722363 -345.58876628 194.99837223 -339 186 C-331.09355561 175.20205595 -323.10417308 164.47915748 -314.97241211 153.84960938 C-308.20039083 144.98322465 -301.58929168 136.00254852 -295 127 C-293.89475897 125.49332251 -292.78929421 123.98680911 -291.68359375 122.48046875 C-289.12057488 118.98831062 -286.55961294 115.49465521 -284 112 C-279.74077176 113.44565046 -276.75025897 115.57297922 -273.25 118.375 C-268.20932701 122.34734472 -263.07078092 126.13327878 -257.8125 129.8125 C-251.88952007 133.96326023 -245.98923056 138.14154004 -240.125 142.375 C-239.39176514 142.902146 -238.65853027 143.42929199 -237.90307617 143.97241211 C-233.82048244 146.91846285 -229.78325285 149.91396676 -225.78125 152.96875 C-224.91999512 153.62053223 -224.05874023 154.27231445 -223.17138672 154.94384766 C-221.50337574 156.20884927 -219.84317741 157.48423482 -218.19189453 158.77099609 C-217.44020996 159.33898926 -216.68852539 159.90698242 -215.9140625 160.4921875 C-215.2535791 161.00120605 -214.5930957 161.51022461 -213.91259766 162.03466797 C-212.06540214 163.19393651 -212.06540214 163.19393651 -210.07975769 162.73735046 C-207.70832605 161.89659087 -206.57722782 160.94603688 -204.8112793 159.16772461 C-204.21353195 158.57297836 -203.61578461 157.97823212 -202.99992371 157.36546326 C-202.36444107 156.71763382 -201.72895844 156.06980438 -201.07421875 155.40234375 C-200.07549492 154.40081017 -200.07549492 154.40081017 -199.05659485 153.37904358 C-197.64692408 151.96264934 -196.24085636 150.54266141 -194.83813477 149.11938477 C-192.71282432 146.96319229 -190.57729114 144.81759292 -188.43945312 142.67382812 C-187.06708909 141.29228152 -185.69532547 139.91013818 -184.32421875 138.52734375 C-183.69480881 137.89368393 -183.06539886 137.26002411 -182.41691589 136.60716248 C-179.39216649 133.53455366 -176.46732393 130.41953721 -173.6574707 127.14868164 C-169.39515468 122.22490696 -164.78078796 117.67480164 -160.15625 113.09375 C-158.7380835 111.68137068 -157.31991993 110.26898839 -155.90192413 108.85643768 C-152.93933555 105.90687976 -149.97215979 102.96193688 -147.00579834 100.01617432 C-144.55418969 97.58122894 -142.10362669 95.14525184 -139.65563965 92.70666504 C-137.82931571 90.88779387 -136.00074639 89.07117348 -134.16955566 87.25720215 C-129.77748455 82.88244843 -125.52804183 78.45514123 -121.50828552 73.734375 C-119.00016657 70.85029322 -116.28592354 68.17900132 -113.5625 65.5 C-112.75135742 64.695625 -112.75135742 64.695625 -111.92382812 63.875 C-110.61823383 62.58095964 -109.30947004 61.29011826 -108 60 C-109.23854511 56.28436466 -110.69017178 55.40541409 -113.75 53 C-114.74128906 52.20851562 -115.73257812 51.41703125 -116.75390625 50.6015625 C-117.54692139 49.96976074 -117.54692139 49.96976074 -118.35595703 49.32519531 C-121.17236444 47.05500532 -123.92973873 44.71581067 -126.6875 42.375 C-127.23398193 41.91182373 -127.78046387 41.44864746 -128.34350586 40.97143555 C-132.59960679 37.35648008 -136.81875994 33.70121854 -141 30 C-138.53190025 27.53190025 -137.05899338 27.39989371 -133.6612854 26.69650269 C-131.96196617 26.33898422 -131.96196617 26.33898422 -130.22831726 25.97424316 C-128.97944229 25.71961304 -127.73056732 25.46498291 -126.44384766 25.20263672 C-125.11987674 24.92712455 -123.79604247 24.65095506 -122.47233582 24.37417603 C-118.87248169 23.62353309 -115.27072323 22.88242946 -111.66851091 22.14319754 C-107.90170674 21.36875021 -104.13655778 20.58633475 -100.3711853 19.80496216 C-94.04539739 18.49352011 -87.71841006 17.18799998 -81.390625 15.88623047 C-74.07403633 14.3809928 -66.75915279 12.86769303 -59.44518816 11.34975994 C-52.41298792 9.89039164 -45.37985611 8.43556733 -38.34620285 6.98321915 C-35.35161672 6.36487028 -32.35732049 5.74514427 -29.36323929 5.12435532 C-25.83626912 4.39338081 -22.30848754 3.66645632 -18.78003883 2.94265366 C-16.86706457 2.54929221 -14.95488958 2.15205001 -13.04273987 1.75469971 C-11.90422073 1.52199371 -10.7657016 1.28928772 -9.59268188 1.04953003 C-8.60343027 0.84564604 -7.61417866 0.64176205 -6.59494972 0.43169975 C-4 0 -4 0 0 0 Z " fill="#FCCD0A" transform="translate(536,0)"/>
<path d="M0 0 C198.99 0 397.98 0 603 0 C603 19.8 603 39.6 603 60 C404.01 60 205.02 60 0 60 C0 40.2 0 20.4 0 0 Z " fill="#FCCD0A" transform="translate(0,569)"/>
<path d="M0 0 C40.26 0 80.52 0 122 0 C122 81.84 122 163.68 122 248 C81.74 248 41.48 248 0 248 C0 166.16 0 84.32 0 0 Z " fill="#FCCD0A" transform="translate(438,252)"/>
<path d="M0 0 C40.59 0 81.18 0 123 0 C123 61.05 123 122.1 123 185 C82.41 185 41.82 185 0 185 C0 123.95 0 62.9 0 0 Z " fill="#FCCD0A" transform="translate(240,315)"/>
<path d="M0 0 C32.34 0 64.68 0 98 0 C98 24.42 98 48.84 98 74 C65.66 74 33.32 74 0 74 C0 49.58 0 25.16 0 0 Z " fill="#FCCD0A" transform="translate(103,426)"/>
</svg>
