<?xml version="1.0" encoding="UTF-8"?>
<svg version="1.1" xmlns="http://www.w3.org/2000/svg" width="648" height="559">
<path d="M0 0 C0.91916364 -0.00384115 1.83832728 -0.00768229 2.78534436 -0.01163983 C3.79155544 -0.01077335 4.79776652 -0.00990687 5.83446884 -0.00901413 C7.44209001 -0.01347081 7.44209001 -0.01347081 9.08218837 -0.01801753 C12.68563784 -0.02671264 16.28905413 -0.02821347 19.89251328 -0.02970505 C22.47122392 -0.03433263 25.04993388 -0.03935721 27.62864304 -0.04475021 C34.64318069 -0.05832725 41.65771263 -0.06435729 48.67226124 -0.06876087 C53.05306049 -0.07152439 57.43385754 -0.07576195 61.8146553 -0.08026505 C73.94631563 -0.09245695 86.07797419 -0.10275638 98.2096405 -0.10614014 C98.98596928 -0.1063597 99.76229806 -0.10657927 100.56215195 -0.10680549 C101.72941482 -0.10713291 101.72941482 -0.10713291 102.92025876 -0.10746694 C104.49711053 -0.1079104 106.07396229 -0.10835696 107.65081406 -0.10880661 C108.43298525 -0.10902804 109.21515645 -0.10924947 110.0210298 -0.10947761 C122.69302268 -0.11342504 135.36495803 -0.13087772 148.03692868 -0.15416613 C161.05031905 -0.17788875 174.06368055 -0.1903424 187.07709289 -0.19150805 C194.38232033 -0.19242431 201.68747282 -0.19816414 208.9926796 -0.21632767 C215.86433594 -0.23335314 222.73584789 -0.23497446 229.60751915 -0.22618866 C232.12943083 -0.22541712 234.65135009 -0.22977638 237.17324257 -0.23964691 C240.61672175 -0.2523339 244.05969443 -0.24650675 247.50317001 -0.23606491 C248.5004582 -0.24412132 249.4977464 -0.25217772 250.52525544 -0.26047826 C259.03125919 -0.20017967 265.57499823 1.66580417 271.95013046 7.51814651 C276.8995255 12.94016282 277.54618134 18.91807455 277.56322861 25.92981339 C277.56768529 26.95446999 277.56768529 26.95446999 277.57223201 27.99982673 C277.58090131 30.28809094 277.58242576 32.57630273 277.58391953 34.86458206 C277.58854902 36.50572191 277.59357386 38.14686068 277.59896469 39.7879982 C277.61207961 44.24690071 277.61853209 48.70578816 277.62297535 53.16470695 C277.62590805 55.95216241 277.63001327 58.73961378 277.63447952 61.52706718 C277.64815318 70.25318752 277.65782001 78.97929847 277.66168141 87.70542878 C277.66615946 97.76915805 277.68369612 107.83275133 277.71268201 117.89643925 C277.73432253 125.68088771 277.74438699 133.46529798 277.74572253 141.24977618 C277.74676903 145.89630508 277.7526435 150.54270611 277.77054214 155.18920326 C277.78706343 159.56326648 277.7891587 163.93710628 277.78040314 168.31118965 C277.77963488 169.9119133 277.78394746 171.51264916 277.79386139 173.11334229 C277.84868741 182.52128236 277.62291325 190.49920506 272.86028671 198.88142776 C265.8894218 205.3160723 258.40046748 206.86874925 249.18241501 206.75961685 C247.54978638 206.77025843 247.54978638 206.77025843 245.88417536 206.781115 C242.25987967 206.79862893 238.63666575 206.7806226 235.01238632 206.76253128 C232.40485269 206.76767254 229.79732253 206.77495537 227.18980026 206.78421402 C220.85667854 206.80254017 214.52386648 206.79411248 208.19075458 206.7761258 C203.04182997 206.76206987 197.89298912 206.7582134 192.74404716 206.76156807 C192.00975448 206.76204551 191.2754618 206.76252295 190.51891782 206.76301486 C189.02698272 206.76404125 187.53504764 206.76509661 186.04311258 206.76618063 C172.86711863 206.77473736 159.69127369 206.7581055 146.51531601 206.72835159 C133.74344246 206.69951078 120.97178351 206.69243474 108.19988632 206.70784378 C94.27510648 206.72462086 80.3504284 206.72862527 66.42564589 206.71113342 C64.93966744 206.70928912 63.45368897 206.7074544 61.96771049 206.70562935 C61.23667345 206.70471726 60.5056364 206.70380517 59.75244672 206.70286544 C54.61188699 206.69726985 49.4713771 206.70055802 44.33082008 206.7071743 C37.40729401 206.71573206 30.48408177 206.70269689 23.560606 206.67532539 C21.02138434 206.66844516 18.48213383 206.66833967 15.94291306 206.67554092 C12.473657 206.6842453 9.00535148 206.66826109 5.53617477 206.64609146 C4.5342193 206.65433223 3.53226382 206.662573 2.49994606 206.67106348 C-4.62458383 206.58718136 -11.05104449 205.35130495 -16.46153599 200.41078192 C-22.88060209 193.57356592 -22.85775791 186.34459966 -22.77252579 177.38924026 C-22.76969589 176.26573166 -22.766866 175.14222305 -22.76395035 173.98466873 C-22.75278632 170.4084785 -22.72768829 166.83254187 -22.70221329 163.25642776 C-22.69217862 160.82674389 -22.68305362 158.39705608 -22.67486954 155.96736526 C-22.65285933 150.02196674 -22.61941917 144.07671538 -22.57721329 138.13142776 C-21.78429886 138.1211203 -20.99138443 138.11081284 -20.17444229 138.10019302 C-12.69981361 138.00219133 -5.22526697 137.89967308 2.24922943 137.79208851 C6.0918839 137.7369382 9.93454609 137.68353096 13.7772789 137.63411331 C17.48612862 137.58635316 21.1948879 137.53400641 24.9036293 137.47848701 C26.31817241 137.45811618 27.73274028 137.43939452 29.14732742 137.42235374 C31.1295048 137.39819304 33.11160076 137.36761054 35.09368515 137.33675003 C36.22175583 137.32120575 37.34982651 137.30566147 38.51208115 137.28964615 C40.98595125 137.155173 43.06339784 136.84782949 45.42278671 136.13142776 C45.46907296 127.82141985 45.50463691 119.51146555 45.52641106 111.2013607 C45.53686015 107.3428798 45.55103971 103.48448691 45.57366562 99.62605667 C45.59535411 95.90430584 45.60734686 92.18263982 45.6125412 88.46083069 C45.61624417 87.03901585 45.62347491 85.61720579 45.63424683 84.19542694 C45.64870791 82.20815663 45.64960317 80.22080146 45.64983749 78.23347855 C45.65427872 77.10096664 45.65871994 75.96845474 45.66329575 74.8016243 C45.69645733 71.97788352 45.69645733 71.97788352 43.42278671 70.13142776 C40.5497188 69.79868211 40.5497188 69.79868211 37.13714218 69.81258011 C36.49311447 69.80253448 35.84908676 69.79248886 35.18554306 69.78213882 C33.05369599 69.75121194 30.92197501 69.73424583 28.78997421 69.71736526 C27.31308525 69.6986612 25.83620706 69.67908836 24.35934067 69.65867996 C20.46974654 69.607272 16.58011774 69.56769292 12.69036484 69.53053665 C8.722178 69.4905511 4.75413649 69.43943399 0.78606796 69.38924026 C-7.00159287 69.29237851 -14.7893238 69.20800682 -22.57721329 69.13142776 C-22.67896192 61.87243551 -22.74882516 54.61362843 -22.79693985 47.35408401 C-22.81700623 44.88656618 -22.84426573 42.41909562 -22.8789711 39.95174026 C-22.92770635 36.39693383 -22.95023268 32.84275832 -22.96783829 29.28767776 C-22.98848343 28.19153152 -23.00912857 27.09538528 -23.03039932 25.96602249 C-23.03277067 17.79940697 -21.50226739 12.50649019 -16.13971329 6.31892776 C-10.97702343 1.9117535 -6.74761222 0.01060539 0 0 Z M122.05706406 52.78377151 C107.84293557 71.23663018 102.03574802 92.36984348 104.69085312 115.46297073 C107.09441709 130.75126943 113.97536749 144.74513913 124.42278671 156.13142776 C125.0866539 156.88681839 125.75052109 157.64220901 126.43450546 158.42049026 C139.79652842 172.79516191 158.87746473 181.28823969 178.38372421 182.34627151 C200.62880107 183.03155239 222.13228652 175.48984461 238.50091171 160.17049026 C253.60652286 144.14380527 262.39753617 124.37715932 262.42278671 102.13142776 C261.31992361 82.38015212 254.57116025 65.07496669 241.42278671 50.13142776 C240.74473984 49.35799026 240.06669296 48.58455276 239.36809921 47.78767776 C224.83727539 32.24555118 203.83392942 24.51223471 182.86028671 23.75642776 C159.49646773 24.57185696 137.03023914 34.66821038 122.05706406 52.78377151 Z " fill="#FCCD0A" transform="translate(370.5772132873535,91.86857223510742)"/>
<path d="M0 0 C1.35560657 -0.00483667 1.35560657 -0.00483667 2.73859912 -0.00977105 C3.72244262 -0.00822245 4.70628611 -0.00667385 5.71994305 -0.00507832 C7.29821921 -0.00847665 7.29821921 -0.00847665 8.90837973 -0.01194364 C12.43962871 -0.0182817 15.97083928 -0.01745439 19.50209332 -0.01662922 C22.03169079 -0.01962083 24.5612878 -0.02302337 27.09088421 -0.02680683 C33.25246596 -0.03473192 39.4140336 -0.03786149 45.57561997 -0.03841921 C50.58496854 -0.03889459 55.59431396 -0.04095044 60.60366154 -0.04411983 C74.81067942 -0.05292542 89.01768975 -0.05753938 103.22471038 -0.05678936 C103.99042644 -0.0567494 104.75614249 -0.05670945 105.54506207 -0.05666828 C106.31171469 -0.0566274 107.07836731 -0.05658652 107.86825182 -0.0565444 C120.2912063 -0.056138 132.71413046 -0.06570619 145.13707618 -0.07980665 C157.89737529 -0.09417556 170.65765962 -0.10107654 183.41796702 -0.10021287 C190.58007887 -0.09988107 197.74215894 -0.10262077 204.9042635 -0.11339092 C211.64048561 -0.12345583 218.3766295 -0.12315529 225.11285877 -0.11587429 C227.58477915 -0.11482768 230.05670369 -0.11719588 232.52861691 -0.12323475 C235.90407623 -0.13094664 239.27930321 -0.12631496 242.6547575 -0.11860371 C244.12048449 -0.12631905 244.12048449 -0.12631905 245.61582214 -0.13419026 C254.46011067 -0.08957111 262.24021963 0.96256515 268.78798199 7.5466032 C272.91421374 12.22620714 274.63504539 16.26999557 274.60487652 22.46969891 C274.60472546 23.51040035 274.60457439 24.5511018 274.60441875 25.62333965 C274.59409618 26.73496975 274.58377361 27.84659985 274.57313824 28.9919157 C274.56889339 30.7125951 274.56889339 30.7125951 274.5645628 32.4680357 C274.5533827 36.12584213 274.52828169 39.78340223 274.50282574 43.44113445 C274.49279315 45.92355279 274.48366779 48.40597497 274.47548199 50.88840008 C274.45345044 56.96856201 274.41999421 63.04858063 274.37782574 69.12863445 C273.57016262 69.13450069 272.7624995 69.14036694 271.93036175 69.14641094 C264.32283995 69.20428914 256.71564751 69.27633718 249.10841942 69.36434937 C245.19734725 69.4090976 241.28638032 69.44834357 237.37514019 69.47507 C233.60130486 69.50105906 229.82787355 69.54142936 226.05428791 69.59182072 C224.61382665 69.6085194 223.17329546 69.62001498 221.73275089 69.62624836 C219.716788 69.63585593 217.70095132 69.66559547 215.68519878 69.69626141 C214.5371426 69.70736446 213.38908642 69.71846752 212.20624065 69.72990704 C209.4194411 69.92905678 209.4194411 69.92905678 207.5078764 71.28737164 C205.89193038 73.92033441 205.99652493 75.94155959 205.98964214 79.02121258 C205.97545742 80.83824688 205.97545742 80.83824688 205.96098614 82.69198895 C205.96705883 84.00139446 205.97313152 85.31079998 205.97938824 86.65988445 C205.97736723 88.01604653 205.97445556 89.37220754 205.97069073 90.7283659 C205.96626858 93.56973912 205.97269451 96.4108293 205.98671246 99.25216961 C206.00380477 102.89415548 205.99396293 106.53547815 205.97599506 110.17743969 C205.96515398 112.97758258 205.96860495 115.77756825 205.97637844 118.57771587 C205.97935276 120.57357495 205.97024234 122.56944013 205.96098614 124.56527996 C205.97044262 125.77663616 205.9798991 126.98799236 205.98964214 128.23605633 C205.99322231 129.83797832 205.99322231 129.83797832 205.99687481 131.47226238 C206.19498859 134.10386087 206.19498859 134.10386087 207.5078764 135.96989727 C210.2529201 137.67089747 212.46976353 137.52991045 215.68519878 137.5610075 C217.63688221 137.59069874 217.63688221 137.59069874 219.62799358 137.6209898 C221.04850908 137.62775962 222.46902615 137.63420648 223.88954449 137.6403532 C225.34258835 137.65719775 226.79561762 137.67534769 228.24862957 137.69475079 C232.07082338 137.74228187 235.89295804 137.7720708 239.71535015 137.79819012 C243.61663275 137.82798018 247.51771145 137.87451577 251.41884136 137.91965008 C259.07173506 138.00571841 266.72464352 138.07304764 274.37782574 138.12863445 C274.47957437 145.38762671 274.54943761 152.64643379 274.5975523 159.9059782 C274.61761868 162.37349603 274.64487818 164.8409666 274.67958355 167.30832195 C274.7283188 170.86312839 274.75084512 174.41730389 274.76845074 177.97238445 C274.78909588 179.06853069 274.80974102 180.16467693 274.83101177 181.29403973 C274.83321886 188.894949 273.7391311 194.23343048 268.63173199 200.15207195 C268.07356792 200.59808758 267.51540386 201.0441032 266.94032574 201.50363445 C266.3847398 201.96511883 265.82915386 202.4266032 265.25673199 202.90207195 C259.5652628 206.6175009 254.2527679 206.41603678 247.65606976 206.39605999 C246.01654031 206.40285666 246.01654031 206.40285666 244.34388906 206.40979064 C240.6744131 206.42247005 237.00508488 206.42081196 233.33558941 206.4191618 C230.70746958 206.42514483 228.07935151 206.43194985 225.45123577 206.43951702 C219.04901681 206.45612351 212.64683467 206.46162641 206.24459597 206.46274178 C201.03978194 206.46369244 195.83498005 206.46780367 190.63016987 206.47414303 C175.86977214 206.4917547 161.10940348 206.50098205 146.34899517 206.49948208 C145.55340916 206.49940217 144.75782315 206.49932226 143.93812847 206.49923992 C143.1415697 206.49915816 142.34501094 206.4990764 141.52431402 206.49899216 C128.61633293 206.49817934 115.70846855 206.51731613 102.80052122 206.54551665 C89.54301049 206.57425205 76.28555667 206.58805658 63.028014 206.5863291 C55.58640827 206.58566541 48.14492488 206.59114837 40.70334721 206.6126852 C34.3670994 206.6309057 28.0310294 206.63523733 21.69476672 206.62166636 C18.46329722 206.61514084 15.23223917 206.61718206 12.00078869 206.63237286 C8.49373178 206.64779131 4.98757006 206.63853839 1.48053265 206.62311077 C0.46447183 206.6333979 -0.55158898 206.64368502 -1.59843951 206.65428388 C-8.75100694 206.58477126 -14.32728031 205.21362203 -19.64561176 200.2341032 C-20.09162739 199.60117352 -20.53764301 198.96824383 -20.99717426 198.31613445 C-21.45865864 197.69093914 -21.92014301 197.06574383 -22.39561176 196.4216032 C-25.21330538 191.15413138 -25.87289199 185.9054693 -25.88287067 180.00744915 C-25.88669622 179.32586502 -25.89052177 178.6442809 -25.89446324 177.94204271 C-25.90471443 175.67684843 -25.90081626 173.41191138 -25.89683247 171.14670086 C-25.90118333 169.51496937 -25.90636773 167.88323992 -25.91232014 166.25151348 C-25.92568152 161.83202003 -25.92629197 157.41261225 -25.92375684 152.99310255 C-25.92268512 149.29790957 -25.92757566 145.60273378 -25.93236226 141.90754449 C-25.94344769 133.18663165 -25.94390036 124.46576187 -25.93784809 115.74484539 C-25.93180922 106.76130846 -25.94411933 97.77792819 -25.96541816 88.79441798 C-25.98305696 81.06934922 -25.9890319 73.34433022 -25.98578042 65.61924207 C-25.98397095 61.01077378 -25.98657 56.40241723 -26.00049496 51.79396725 C-26.01310571 47.45842614 -26.01109861 43.12312851 -25.99808407 38.78759098 C-25.99572575 37.20138306 -25.99842617 35.61515782 -26.00670719 34.02896976 C-26.0535313 24.35866608 -25.89038828 16.07764425 -20.43467426 7.81613445 C-14.59533704 2.23632332 -8.03360001 0.00727847 0 0 Z M6.72938824 54.1247282 C-7.34993412 72.1097762 -11.11425232 92.68933073 -9.62217426 115.12863445 C-8.89554276 120.31642057 -7.38218088 125.20306038 -5.62217426 130.12863445 C-5.18904926 131.47054852 -5.18904926 131.47054852 -4.74717426 132.83957195 C2.03112217 152.02457168 17.83783138 166.60326596 35.69032574 175.44113445 C54.5600745 183.53461092 75.89766614 185.5275834 95.37782574 178.12863445 C104.5935827 174.32998638 112.82286427 169.66972663 120.37782574 163.12863445 C121.36782574 162.40675945 122.35782574 161.68488445 123.37782574 160.94113445 C136.97747651 149.29502468 146.04536654 129.30022898 147.59657574 111.6379118 C148.87264306 90.21991932 143.61064537 69.64305112 129.37782574 53.12863445 C128.54057964 52.0612907 128.54057964 52.0612907 127.68641949 50.97238445 C116.25477864 37.03485157 98.16995073 27.45644049 80.37782574 25.12863445 C50.8530062 22.64469044 26.43628001 31.63384696 6.72938824 54.1247282 Z " fill="#FCCD0A" transform="translate(25.62217426300049,352.8713655471802)"/>
<path d="M0 0 C0.73863281 0.57363281 1.47726563 1.14726562 2.23828125 1.73828125 C3.17607422 2.42857422 3.17607422 2.42857422 4.1328125 3.1328125 C15.81207279 12.28112699 24.38037506 28.10535069 26.23828125 42.73828125 C27.62031189 62.27772261 25.49721753 79.56403574 13.06640625 95.52734375 C10.87306233 98.03078112 8.60374183 100.39772026 6.23828125 102.73828125 C5.64789063 103.3621875 5.0575 103.98609375 4.44921875 104.62890625 C0.28298091 108.70337674 -4.42611218 111.35784423 -9.57421875 113.98828125 C-10.5334021 114.48255615 -10.5334021 114.48255615 -11.51196289 114.98681641 C-20.74104729 119.48908965 -29.8433212 121.28512836 -40.07421875 121.17578125 C-41.57915894 121.16442139 -41.57915894 121.16442139 -43.11450195 121.15283203 C-61.81279928 120.74002618 -78.04019163 112.89395472 -90.98046875 99.4296875 C-102.98850057 85.36643485 -108.34908583 68.08534473 -107.76171875 49.73828125 C-106.55998415 35.46768292 -101.56417659 23.00925444 -92.76171875 11.73828125 C-92.25125 11.05121094 -91.74078125 10.36414063 -91.21484375 9.65625 C-69.56216499 -17.51678993 -26.93235513 -20.05966483 0 0 Z M-45.76171875 2.73828125 C-46.81148839 5.88759018 -46.8630347 8.12642581 -46.82421875 11.42578125 C-46.81519531 12.41964844 -46.80617188 13.41351563 -46.796875 14.4375 C-46.78527344 15.19675781 -46.77367188 15.95601563 -46.76171875 16.73828125 C-47.58671875 16.92390625 -48.41171875 17.10953125 -49.26171875 17.30078125 C-54.97737766 19.64828402 -59.09182331 23.49435925 -62.76171875 28.42578125 C-64.59452053 34.49693716 -65.22442064 41.73071798 -62.26171875 47.55078125 C-58.44625991 53.09066454 -53.16966236 57.64686597 -46.76171875 59.73828125 C-44.76835058 60.07227645 -42.76726661 60.36258777 -40.76171875 60.61328125 C-37.25077682 61.18834932 -34.73858441 61.74940353 -31.51171875 63.30078125 C-29.22606494 66.48437049 -29.11880014 68.7566292 -29.328125 72.61328125 C-29.94835781 75.6529808 -31.26488518 76.97581049 -33.76171875 78.73828125 C-37.21637147 80.46560761 -40.97748753 80.09243807 -44.76171875 79.73828125 C-49.50119596 77.88370321 -50.73577624 75.27253353 -52.76171875 70.73828125 C-54.64310634 68.44897889 -54.64310634 68.44897889 -57.69921875 68.36328125 C-60.78605319 68.45905578 -60.78605319 68.45905578 -62.69921875 70.36328125 C-64.2117804 73.74430141 -63.91723367 75.20376503 -62.76171875 78.73828125 C-59.40143724 84.63615465 -55.0062006 88.96887352 -48.76171875 91.73828125 C-47.77171875 91.73828125 -46.78171875 91.73828125 -45.76171875 91.73828125 C-45.79652344 92.56972656 -45.83132812 93.40117187 -45.8671875 94.2578125 C-45.89425781 95.34449219 -45.92132813 96.43117188 -45.94921875 97.55078125 C-45.98402344 98.62972656 -46.01882812 99.70867187 -46.0546875 100.8203125 C-45.997547 103.71370636 -45.997547 103.71370636 -44.4765625 105.63671875 C-42.59195557 107.08279684 -42.59195557 107.08279684 -39.13671875 106.55078125 C-37.46609375 106.14859375 -37.46609375 106.14859375 -35.76171875 105.73828125 C-34.37945859 102.97376092 -34.66646488 100.69214495 -34.69921875 97.61328125 C-34.70824219 96.51757812 -34.71726562 95.421875 -34.7265625 94.29296875 C-34.73816406 93.44992187 -34.74976562 92.606875 -34.76171875 91.73828125 C-33.24578125 91.42890625 -33.24578125 91.42890625 -31.69921875 91.11328125 C-25.68363656 89.35975122 -21.41885698 85.37120832 -18.32421875 79.98828125 C-15.95617676 74.61661889 -15.6675997 69.09084926 -17.4921875 63.5 C-20.49550364 56.99077196 -24.93112153 52.64710711 -31.37890625 49.5703125 C-34.22250065 48.57738528 -36.96850955 48.15938882 -39.94921875 47.73828125 C-43.43681024 47.21359934 -45.80600545 46.71698957 -49.01171875 45.17578125 C-51.30182096 41.98599603 -51.34709089 39.72131735 -51.125 35.86328125 C-50.65272764 33.10074184 -49.85848962 31.60207758 -47.76171875 29.73828125 C-42.78061602 28.07791367 -37.80255596 27.93969278 -32.88671875 29.86328125 C-30.26230495 32.17894049 -29.26462758 34.60177587 -27.76171875 37.73828125 C-26.03242992 39.82928753 -26.03242992 39.82928753 -23.76171875 40.73828125 C-19.94063079 39.8284984 -18.9797743 39.06536458 -16.76171875 35.73828125 C-16.76171875 29.84827045 -19.8359463 25.84096619 -23.76171875 21.73828125 C-27.29772724 18.96951989 -30.1916208 16.73828125 -34.76171875 16.73828125 C-34.7153125 15.76246094 -34.66890625 14.78664063 -34.62109375 13.78125 C-34.585 12.50894531 -34.54890625 11.23664063 -34.51171875 9.92578125 C-34.44210938 8.02892578 -34.44210938 8.02892578 -34.37109375 6.09375 C-34.42806537 2.70654423 -34.42806537 2.70654423 -36.58984375 0.7890625 C-40.64536422 -1.17305082 -42.60959926 -0.09862629 -45.76171875 2.73828125 Z " fill="#FCCD0A" transform="translate(134.76171875,402.26171875)"/>
<path d="M0 0 C15.27829493 12.88648518 22.22406127 30.28671361 24.28515625 49.68359375 C24.9785609 67.56137449 18.16119552 84.3499203 6.64453125 97.73828125 C-6.10678927 111.09777286 -22.2959085 118.7158343 -40.71240234 119.33422852 C-60.73494753 119.66405344 -77.60368031 112.82453373 -92.1171875 98.98046875 C-105.58952781 84.85285897 -110.64555986 68.12659758 -110.40063477 48.921875 C-109.81675616 30.31539441 -102.06947271 14.77918934 -88.765625 1.82421875 C-62.91650125 -20.51185295 -27.06786141 -19.91937576 0 0 Z M-49 1 C-49.28071552 4.06723147 -49.28071552 4.06723147 -49.1875 7.4375 C-49.51849534 13.55753626 -49.51849534 13.55753626 -51.58984375 15.4609375 C-52.97322249 16.03977928 -54.37784478 16.5697671 -55.796875 17.0546875 C-60.64130289 19.133325 -63.77536269 23.97668619 -66.4375 28.375 C-67.8697141 35.05866582 -67.7861432 41.17077759 -64.32421875 47.18359375 C-59.47539833 53.83463061 -53.18760677 57.11378384 -45.1875 58.48046875 C-44.218125 58.63128906 -43.24875 58.78210938 -42.25 58.9375 C-38.94504119 59.50053315 -37.19520619 59.86986254 -34.375 61.75 C-32.10770916 65.46011229 -31.67432497 68.4439971 -32.5625 72.6875 C-34.57177955 75.91981928 -36.43982552 76.72371103 -40 78 C-43.67618647 78.386967 -46.16995273 78.31620848 -49.625 77 C-51.99088046 75.00767961 -52.94105199 73.52585076 -54.4375 70.875 C-56.41953539 67.38069309 -56.41953539 67.38069309 -60.3125 66 C-63.15172278 65.70301546 -63.15172278 65.70301546 -65.1875 67.9375 C-67.24624207 70.72165497 -67.24624207 70.72165497 -66.7734375 73.16015625 C-64.37457959 81.05529851 -59.57639723 84.85214321 -52.76953125 89.08203125 C-51.03635585 90.15349625 -51.03635585 90.15349625 -49 90 C-49.03480469 90.83144531 -49.06960938 91.66289062 -49.10546875 92.51953125 C-49.13253906 93.60621094 -49.15960937 94.69289063 -49.1875 95.8125 C-49.22230469 96.89144531 -49.25710938 97.97039062 -49.29296875 99.08203125 C-49.23724461 101.97563148 -49.23724461 101.97563148 -47.7109375 103.890625 C-45.84153538 105.32903805 -45.84153538 105.32903805 -42.4375 104.9375 C-38.99571915 104.39500623 -38.99571915 104.39500623 -37.7890625 102.25 C-36.89670593 99.70545848 -36.90024653 97.74888924 -36.9375 95.0625 C-36.7265625 92.38671875 -36.7265625 92.38671875 -36 90 C-33.90176398 88.32229652 -31.81209633 87.37481973 -29.36328125 86.28125 C-24.6151689 83.70706678 -21.67751103 79.03253308 -20 74 C-19.29454379 66.84135422 -19.63178427 60.89321412 -24 55 C-29.84031318 48.34264819 -36.84986733 46.51857062 -45.3125 45.0625 C-48.3070836 44.48034922 -49.99527597 44.0029244 -52.625 42.375 C-54.6239549 38.92225972 -54.83201807 35.81971931 -54 32 C-52.1875 29 -52.1875 29 -49 27 C-43.90136289 26.1362129 -39.58872274 26.13944185 -35 28.625 C-32.78162583 31.25931933 -31.39547003 33.86019243 -30 37 C-28.89471558 38.31968178 -28.89471558 38.31968178 -26.125 38.25 C-23.09102026 38.22186481 -23.09102026 38.22186481 -21.0625 36.9375 C-19.27981377 33.68671922 -20.07683494 31.51956679 -21 28 C-23.75286179 21.77357012 -27.72824163 17.72913335 -34 15 C-34.99 15 -35.98 15 -37 15 C-36.95359375 14.19175781 -36.9071875 13.38351563 -36.859375 12.55078125 C-36.56018059 5.90968544 -36.56018059 5.90968544 -38.6875 -0.25 C-40.87258987 -2.17001632 -40.87258987 -2.17001632 -43.5625 -2.5 C-46.49005555 -1.89947578 -47.25328016 -1.40424943 -49 1 Z " fill="#FCCD0A" transform="translate(597,143)"/>
<path d="M0 0 C1.75464713 3.03874556 2.56887 6.27131527 3.42694092 9.644104 C3.63381027 10.42333725 3.84067963 11.2025705 4.05381775 12.00541687 C4.73475421 14.58250701 5.40025156 17.16328707 6.06463623 19.74468994 C6.53304028 21.53981098 7.00198103 23.33479206 7.47143555 25.12963867 C8.45331362 28.89392339 9.42734068 32.66013439 10.3961792 36.42779541 C11.63661498 41.24830531 12.89826032 46.06296438 14.16614914 50.87631607 C15.13975848 54.58345021 16.10097684 58.29371296 17.0586319 62.00499725 C17.51868788 63.78098979 17.98279658 65.55593773 18.45107269 67.32978058 C19.10552285 69.81558119 19.74288823 72.30518014 20.37615967 74.79644775 C20.57140732 75.52397751 20.76665497 76.25150726 20.96781921 77.00108337 C22.11993535 81.62898906 22.33075506 85.34331729 21.14276123 89.97906494 C17.63060946 92.32049946 16.27589826 92.3625784 12.14276123 91.97906494 C9.52142334 90.8616333 9.52142334 90.8616333 6.92010498 89.31890869 C5.96942139 88.77299072 5.01873779 88.22707275 4.03924561 87.66461182 C2.06198268 86.4965258 0.08542274 85.32724904 -1.89044189 84.15679932 C-3.31453369 83.33985596 -3.31453369 83.33985596 -4.76739502 82.50640869 C-5.62470215 81.9984375 -6.48200928 81.49046631 -7.36529541 80.96710205 C-10.37325665 79.77446767 -11.82855162 79.91527781 -14.85723877 80.97906494 C-17.01771444 83.46818016 -17.01771444 83.46818016 -18.91973877 86.66656494 C-39.95685725 118.86027572 -72.97965766 139.77629948 -110.17755127 148.03375244 C-128.02857154 151.77285392 -128.02857154 151.77285392 -133.41973877 148.35406494 C-135.32267528 145.21008289 -135.52186807 143.59760223 -134.85723877 139.97906494 C-131.37429828 135.94482102 -127.45519588 133.36751454 -122.85723877 130.79156494 C-95.79343118 114.97788852 -74.59762745 90.57812816 -63.23223877 61.29156494 C-62.84201538 60.30265259 -62.84201538 60.30265259 -62.44390869 59.29376221 C-61.08275723 55.55795915 -60.20496584 52.70675386 -61.85723877 48.97906494 C-63.50743014 48.27260146 -65.17816839 47.61384435 -66.85723877 46.97906494 C-71.13952081 44.76350565 -75.3353923 42.39223894 -79.54473877 40.04156494 C-81.27433838 39.09120361 -81.27433838 39.09120361 -83.03887939 38.12164307 C-84.13780518 37.50869385 -85.23673096 36.89574463 -86.36895752 36.26422119 C-87.8765564 35.42709595 -87.8765564 35.42709595 -89.41461182 34.57305908 C-91.85723877 32.97906494 -91.85723877 32.97906494 -93.85723877 29.97906494 C-94.29603649 26.54181616 -94.43621403 24.74498214 -92.31323242 21.93652344 C-89.175335 19.43557888 -86.00402015 18.56068612 -82.18634033 17.597229 C-81.03431122 17.28911537 -81.03431122 17.28911537 -79.85900879 16.97477722 C-77.32535106 16.30105948 -74.78699517 15.64744818 -72.24786377 14.99468994 C-70.47888366 14.53050417 -68.71014907 14.06538182 -66.94165039 13.59936523 C-63.23506732 12.62587397 -59.52615847 11.66199306 -55.81524658 10.70513916 C-51.07220726 9.48161046 -46.33493829 8.23728067 -41.59915543 6.98599625 C-37.94640611 6.02285045 -34.29116086 5.06948135 -30.63506317 4.119133 C-28.88816646 3.66409779 -27.14196266 3.20639343 -25.396492 2.74591827 C-22.94862773 2.10201377 -20.49777675 1.47102664 -18.04571533 0.84332275 C-16.97619629 0.55820076 -16.97619629 0.55820076 -15.8850708 0.26731873 C-4.65914819 -2.56116112 -4.65914819 -2.56116112 0 0 Z " fill="#FCCD0A" transform="translate(523.8572387695313,352.02093505859375)"/>
<path d="M0 0 C1.98198314 3.13813998 2.17064058 4.72373465 1.5 8.375 C-1.96897672 12.39204925 -5.85443916 14.94524318 -10.4375 17.5 C-37.25501584 33.11363657 -62.55918471 60.00252451 -71.5 90.375 C-71.84053465 93.51598405 -71.76384329 96.20888049 -71.5 99.375 C-70.79641357 99.63998291 -70.09282715 99.90496582 -69.36791992 100.17797852 C-63.9573413 102.43626293 -58.92566295 105.45709732 -53.8125 108.3125 C-52.65943359 108.94607422 -51.50636719 109.57964844 -50.31835938 110.23242188 C-48.6699707 111.1518457 -48.6699707 111.1518457 -46.98828125 112.08984375 C-45.98321533 112.64792725 -44.97814941 113.20601074 -43.94262695 113.78100586 C-41.5 115.375 -41.5 115.375 -39.5 118.375 C-39.06172526 121.80815216 -38.92294402 123.60828026 -41.03727722 126.4175415 C-44.2073109 128.93719553 -47.42303653 129.79834433 -51.27856445 130.75683594 C-52.05794373 130.96224503 -52.837323 131.16765411 -53.64031982 131.37928772 C-56.21129679 132.05301011 -58.78692123 132.70656747 -61.36328125 133.359375 C-63.15708569 133.82351515 -64.95063611 134.28863802 -66.74394226 134.75469971 C-70.50183869 135.72815675 -74.26200829 136.69208835 -78.02416992 137.64892578 C-82.83651901 138.87329809 -87.64351138 140.11731656 -92.4490633 141.3680687 C-96.15262897 142.33035382 -99.85837088 143.2840178 -103.56487083 144.23493195 C-105.33758283 144.69043709 -107.10972861 145.14815185 -108.8812809 145.60814667 C-111.36319993 146.25080637 -113.84771073 146.88225871 -116.33325195 147.51074219 C-117.05921066 147.70082352 -117.78516937 147.89090485 -118.53312683 148.08674622 C-129.12924698 150.7291203 -129.12924698 150.7291203 -133.29573059 148.34931946 C-135.12075159 145.35731913 -135.91065053 142.14964731 -136.76831055 138.78588867 C-136.97357361 138.0148027 -137.17883667 137.24371674 -137.39031982 136.44926453 C-138.06605485 133.89974874 -138.72670534 131.34659581 -139.38671875 128.79296875 C-139.85256442 127.01782876 -140.31911186 125.24287281 -140.78633118 123.46809387 C-141.76360809 119.74660162 -142.73367587 116.02332716 -143.69848633 112.29858398 C-144.93392498 107.53063597 -146.18499581 102.76696476 -147.44125652 98.00446606 C-148.40680645 94.3384448 -149.36504302 90.67054341 -150.32099342 87.00200844 C-150.77949045 85.24526008 -151.24000272 83.48903639 -151.70258141 81.73335838 C-152.34894788 79.27482542 -152.98567617 76.81399108 -153.61987305 74.35229492 C-153.90735161 73.26963348 -153.90735161 73.26963348 -154.20063782 72.1651001 C-155.2221283 68.15263893 -155.84223884 64.51469074 -155.5 60.375 C-153.875 58 -153.875 58 -151.5 56.375 C-146.88993641 55.93748467 -144.22701762 56.69278279 -140.27734375 59.03515625 C-139.32666016 59.58107422 -138.37597656 60.12699219 -137.39648438 60.68945312 C-135.41922145 61.85753914 -133.44266151 63.0268159 -131.46679688 64.19726562 C-130.51740234 64.74189453 -129.56800781 65.28652344 -128.58984375 65.84765625 C-127.73253662 66.35562744 -126.87522949 66.86359863 -125.99194336 67.38696289 C-122.98398212 68.57959727 -121.52868715 68.43878714 -118.5 67.375 C-116.33952433 64.88588478 -116.33952433 64.88588478 -114.4375 61.6875 C-97.06338349 35.09938705 -71.27154676 15.9937355 -41.5 5.375 C-40.44554687 4.99601562 -39.39109375 4.61703125 -38.3046875 4.2265625 C-32.01757501 2.13085834 -25.70699039 0.74329456 -19.1875 -0.375 C-18.44653076 -0.50285889 -17.70556152 -0.63071777 -16.94213867 -0.76245117 C-4.27395369 -2.7780699 -4.27395369 -2.7780699 0 0 Z " fill="#FCCD0A" transform="translate(291.5,41.625)"/>
<path d="M0 0 C3.11343797 -0.09748288 6.22543055 -0.16510688 9.33992004 -0.2167244 C10.62024801 -0.25855394 10.62024801 -0.25855394 11.92644119 -0.30122852 C17.21364514 -0.33548307 20.13538212 0.6271345 24.33308411 4.12678146 C33.11681517 14.70852459 29.33308411 34.03010438 29.33308411 46.12678146 C-42.60691589 46.12678146 -114.54691589 46.12678146 -188.66691589 46.12678146 C-189.89062184 32.66601605 -189.89062184 32.66601605 -189.97941589 26.31428146 C-190.0084198 25.60336349 -190.03742371 24.89244553 -190.06730652 24.15998459 C-190.12972516 18.96003167 -188.92613846 16.12808567 -185.66691589 12.12678146 C-177.46321322 4.89971006 -164.02774453 6.80384373 -153.64250183 6.37067795 C-152.04126503 6.30179784 -150.44003847 6.23267903 -148.83882141 6.16334152 C-144.5117426 5.97676463 -140.1845163 5.79385535 -135.85724163 5.61188388 C-132.22521609 5.4588573 -128.59326348 5.30413579 -124.96130776 5.14946228 C-116.3737064 4.78381965 -107.78597768 4.4212831 -99.19816589 4.06061935 C-90.39475501 3.6908407 -81.59159112 3.31555574 -72.78853011 2.93754715 C-65.18903812 2.6114384 -57.58939616 2.28899686 -49.98962998 1.96934181 C-45.46961008 1.77918 -40.94965712 1.58769428 -36.42984772 1.39258766 C-26.16718426 0.95063067 -15.90430987 0.53192128 -5.63770103 0.19205999 C-3.75840783 0.12981196 -1.879201 0.06497227 0 0 Z " fill="#FCCD0A" transform="translate(227.6669158935547,295.87321853637695)"/>
<path d="M0 0 C1.90840133 0.02350242 1.90840133 0.02350242 3.85535622 0.04747963 C8.11096589 0.10721981 12.36446027 0.21795881 16.61865234 0.34130859 C17.34811286 0.36240157 18.07757338 0.38349455 18.82913876 0.40522671 C30.17267417 0.74258809 41.51068613 1.2053792 52.84878492 1.68894911 C56.47308708 1.84283801 60.09754153 1.99296849 63.7219969 2.14319861 C72.2631454 2.49732315 80.8040147 2.85767522 89.34472656 3.22216797 C98.12726005 3.59686937 106.91019733 3.960731 115.69339502 4.31949651 C123.28919416 4.63013764 130.88469853 4.94736916 138.48000205 5.26990092 C142.99399357 5.46152297 147.5080525 5.65069375 152.02241135 5.83347702 C156.24687859 6.00480807 160.47091648 6.18438507 164.694767 6.37028313 C166.23978112 6.4369145 167.78492271 6.50066433 169.33018494 6.56126976 C171.44388794 6.64463468 173.55687488 6.73855587 175.67001343 6.83505249 C176.85003622 6.88482931 178.03005901 6.93460613 179.24584007 6.98589134 C186.00007527 7.69763321 190.21543861 9.05745211 194.61865234 14.34130859 C197.33813867 18.26001285 196.87764253 22.44967424 196.80615234 27.02880859 C196.80518555 28.17639648 196.80518555 28.17639648 196.80419922 29.34716797 C196.76285981 34.79937715 196.22998407 39.83932309 195.61865234 45.34130859 C123.67865234 45.34130859 51.73865234 45.34130859 -22.38134766 45.34130859 C-22.38134766 23.88676314 -22.38134766 23.88676314 -22.13134766 18.09130859 C-22.11716797 17.41197266 -22.10298828 16.73263672 -22.08837891 16.03271484 C-21.79391976 9.94329976 -19.39677059 6.6629159 -15.51358032 2.18978882 C-10.54482216 -0.74251289 -5.65877462 -0.13300082 0 0 Z " fill="#FCCD0A" transform="translate(413.38134765625,34.65869140625)"/>
<path d="M0 0 C19.09624978 -0.12032643 19.09624978 -0.12032643 27.22460938 -0.14648438 C32.77507103 -0.16443086 38.32538448 -0.18568106 43.87573242 -0.22631836 C48.34962273 -0.25887 52.82335417 -0.27684415 57.29735374 -0.28463173 C59.00583587 -0.2901828 60.71430912 -0.3010225 62.42272377 -0.31719017 C64.81236312 -0.33890904 67.20134258 -0.34196931 69.59106445 -0.34057617 C70.65489601 -0.35675491 70.65489601 -0.35675491 71.74021912 -0.3732605 C74.57074025 -0.35535743 76.53984637 -0.30376531 78.93780518 1.27922058 C80.87680751 4.42044781 80.44630392 8.13304207 80.43359375 11.71875 C80.4388356 12.57303589 80.44407745 13.42732178 80.44947815 14.30749512 C80.45589938 16.11302605 80.45456002 17.91859882 80.44604492 19.72412109 C80.43753074 22.49001317 80.46629979 25.25384309 80.49804688 28.01953125 C80.49965885 29.77343688 80.49908143 31.52734617 80.49609375 33.28125 C80.50732773 34.10943237 80.51856171 34.93761475 80.53013611 35.79089355 C80.46073558 41.49403031 80.46073558 41.49403031 78.43305969 43.72077942 C75.1491556 45.44734524 72.18819344 45.39663502 68.56933594 45.34057617 C67.82748047 45.34101425 67.085625 45.34145233 66.32128906 45.34190369 C63.87538097 45.33981787 61.43016298 45.31649727 58.984375 45.29296875 C57.28615697 45.28737204 55.58793408 45.2831023 53.88970947 45.28010559 C49.42454608 45.26866266 44.95967641 45.2392003 40.49462891 45.20599365 C35.13487823 45.16987898 29.77502923 45.15612898 24.41519165 45.13863373 C16.27659028 45.10956252 8.13863312 45.05207182 0 45 C0 30.15 0 15.3 0 0 Z " fill="#FCCD0A" transform="translate(243,434)"/>
<path d="M0 0 C0.75146301 -0.00043808 1.50292603 -0.00087616 2.27716064 -0.00132751 C4.76096582 0.0007625 7.24409595 0.02410292 9.7277832 0.04760742 C11.44985078 0.05320264 13.17192313 0.05747309 14.89399719 0.06047058 C19.42657657 0.07192526 23.95886757 0.10139772 28.49133301 0.13458252 C33.929487 0.1706654 39.36773742 0.1844416 44.80597687 0.20194244 C53.0678733 0.23103481 61.32913698 0.28851735 69.59106445 0.34057617 C69.59106445 15.19057617 69.59106445 30.04057617 69.59106445 45.34057617 C50.78448941 45.50101141 50.78448941 45.50101141 42.77075195 45.53588867 C37.30151864 45.55980451 31.83255307 45.58810296 26.36352539 45.64233398 C21.95445573 45.68578106 17.54567315 45.70971095 13.13640594 45.72008514 C11.45384959 45.7274786 9.77130902 45.74191634 8.08887482 45.7634964 C5.73281345 45.7925162 3.37793972 45.79653292 1.02172852 45.79467773 C0.32545349 45.80905884 -0.37082153 45.82343994 -1.0881958 45.83825684 C-4.39052237 45.81010322 -6.15018494 45.53040256 -8.84199524 43.55561829 C-11.23568904 40.17186936 -10.96100161 36.73456607 -10.9050293 32.74291992 C-10.90648453 31.91224503 -10.90793976 31.08157013 -10.90943909 30.22572327 C-10.90778193 28.47320033 -10.89624103 26.72066256 -10.87548828 24.96826172 C-10.84649733 22.28379675 -10.8548893 19.60130268 -10.86791992 16.91674805 C-10.86168335 15.2129624 -10.85329304 13.50918298 -10.8425293 11.80541992 C-10.84546494 11.00224838 -10.84840057 10.19907684 -10.85142517 9.37156677 C-10.75868217 3.90495786 -10.75868217 3.90495786 -9.34674072 1.62652588 C-6.3955472 -0.33191994 -3.42155404 -0.05203497 0 0 Z " fill="#FCCD0A" transform="translate(335.408935546875,172.659423828125)"/>
<path d="M0 0 C2.45908389 2.77477709 2.8980365 5.72045882 3.484375 9.26953125 C3.72671875 10.56503906 3.9690625 11.86054688 4.21875 13.1953125 C4.67401588 16.516684 4.83808021 19.61253823 4.734375 22.95703125 C-2.17565484 23.80855705 -9.03766914 24.24596283 -15.99243164 24.52954102 C-17.13181686 24.5784549 -18.27120209 24.62736877 -19.44511414 24.67776489 C-23.18854862 24.83767569 -26.93215224 24.9931527 -30.67578125 25.1484375 C-33.2893516 25.25888832 -35.90291247 25.36956375 -38.51646423 25.48045349 C-43.98427741 25.71198699 -49.452187 25.94111971 -54.92016602 26.16870117 C-61.2249628 26.43113145 -67.52961139 26.69690943 -73.83418757 26.96458393 C-79.92258255 27.22304046 -86.01105842 27.47953049 -92.09957695 27.73505974 C-94.68032026 27.84348559 -97.26104584 27.95233408 -99.84175301 28.0616169 C-103.45050471 28.21407305 -107.05934217 28.36430715 -110.66821289 28.51391602 C-111.72869843 28.55909866 -112.78918396 28.60428131 -113.88180542 28.65083313 C-119.34897485 28.87498877 -124.79387152 29.00330029 -130.265625 28.95703125 C-130.34676606 27.18695411 -130.40488005 25.41581027 -130.453125 23.64453125 C-130.48792969 22.65839844 -130.52273437 21.67226563 -130.55859375 20.65625 C-130.265625 17.95703125 -130.265625 17.95703125 -129.05955029 16.35664177 C-126.79276388 14.58810764 -125.10344438 14.30262429 -122.26985168 13.86404419 C-121.28713099 13.70776676 -120.30441029 13.55148933 -119.29191017 13.39047623 C-117.79389901 13.17592096 -117.79389901 13.17592096 -116.265625 12.95703125 C-115.37092688 12.82621029 -114.47622875 12.69538933 -113.55441856 12.5606041 C-110.77118677 12.1692932 -107.98558754 11.80373568 -105.19799805 11.44482422 C-103.62996681 11.23956116 -103.62996681 11.23956116 -102.03025818 11.03015137 C-98.6129868 10.58363853 -95.19519917 10.14123708 -91.77734375 9.69921875 C-89.38603484 9.38832919 -86.99474382 9.07730199 -84.60346985 8.7661438 C-79.61015783 8.11710329 -74.61657573 7.47019079 -69.62280273 6.82470703 C-63.22554385 5.99756938 -56.82908939 5.16438204 -50.43283367 4.3295269 C-45.50298029 3.68687003 -40.5726711 3.04776702 -35.64222145 2.4097023 C-33.28297444 2.10388053 -30.92388119 1.79687008 -28.56494713 1.48864365 C-25.27252016 1.05891172 -21.97949894 0.63405765 -18.6862793 0.21044922 C-17.22973938 0.01879684 -17.22973938 0.01879684 -15.74377441 -0.17672729 C-3.71582339 -1.71056008 -3.71582339 -1.71056008 0 0 Z " fill="#FCCD0A" transform="translate(209.265625,262.04296875)"/>
<path d="M0 0 C1.11640366 0.14309097 2.23280731 0.28618195 3.38304138 0.43360901 C7.05456462 0.90572169 10.7250535 1.38537527 14.39550781 1.86572266 C16.95278893 2.19747335 19.51010142 2.52898228 22.06744385 2.86026001 C27.41732914 3.554576 32.76669414 4.2527314 38.11572266 4.95361328 C44.29509103 5.76319798 50.47559288 6.56366327 56.65671992 7.35969961 C62.6152309 8.12743185 68.57265773 8.90325254 74.52970123 9.68230057 C77.06040457 10.01228493 79.59140629 10.33998917 82.12270355 10.6653862 C85.65436532 11.12024823 89.18469963 11.58430725 92.71484375 12.05078125 C94.28742195 12.25038704 94.28742195 12.25038704 95.89176941 12.45402527 C96.8533345 12.58298691 97.8148996 12.71194855 98.80560303 12.84481812 C99.63957485 12.95358969 100.47354668 13.06236126 101.33279037 13.17442894 C103.72196443 13.68093133 105.51544141 14.38523623 107.59863281 15.65478516 C108.92092471 18.29936895 108.69540475 20.33239817 108.66113281 23.27978516 C108.65210938 24.28267578 108.64308594 25.28556641 108.63378906 26.31884766 C108.61638672 27.47513672 108.61638672 27.47513672 108.59863281 28.65478516 C93.06387532 28.02273622 77.52921994 27.3882219 61.9946804 26.75084019 C54.78035431 26.45489303 47.56599788 26.15972708 40.3515625 25.86645508 C34.05726188 25.61058517 27.76302556 25.3531936 21.46885931 25.09403843 C18.14180195 24.95710214 14.81471276 24.82111188 11.48756027 24.68649483 C-15.19291506 23.60607145 -15.19291506 23.60607145 -26.40136719 22.65478516 C-25.13129912 3.85046799 -25.13129912 3.85046799 -21.77636719 -0.40771484 C-15.21967355 -2.99588338 -6.79124146 -0.8951441 0 0 Z " fill="#FCCD0A" transform="translate(460.4013671875,1.34521484375)"/>
</svg>
