<?xml version="1.0" encoding="UTF-8"?>
<svg version="1.1" xmlns="http://www.w3.org/2000/svg" width="498" height="504">
<path d="M0 0 C2.16154287 -0.00958556 4.32208298 -0.040598 6.48339844 -0.07226562 C39.72183269 -0.32553932 70.28019 14.34915282 93.82714844 37.36523438 C118.10179672 61.79895637 129.58836489 94.39336855 129.57592773 128.45874023 C129.21484059 164.24793191 113.88545717 194.64506566 88.93652344 219.63476562 C80.56768476 227.54636643 70.73326777 234.2925396 60.32714844 239.24023438 C61.2656665 239.50501587 61.2656665 239.50501587 62.22314453 239.77514648 C65.05006713 240.57394519 67.87611353 241.37580109 70.70214844 242.17773438 C71.68699219 242.45552734 72.67183594 242.73332031 73.68652344 243.01953125 C74.62753906 243.28701172 75.56855469 243.55449219 76.53808594 243.83007812 C77.84205322 244.19927368 77.84205322 244.19927368 79.17236328 244.57592773 C81.32714844 245.24023437 81.32714844 245.24023437 83.32714844 246.24023438 C83.32714844 246.90023437 83.32714844 247.56023437 83.32714844 248.24023438 C81.743867 249.58271255 80.10783782 250.86314794 78.45214844 252.11523438 C58.10428281 268.46666426 45.45896649 294.4030678 42.51025391 320.16845703 C39.88441368 349.87896389 48.62383313 378.41543934 67.78808594 401.29882812 C68.62597656 402.26949219 69.46386719 403.24015625 70.32714844 404.24023438 C70.89691406 404.91183594 71.46667969 405.5834375 72.05371094 406.27539062 C89.94031872 425.6754806 117.45761047 436.23382326 143.35449219 437.46289062 C170.4551447 438.28201409 196.97829627 429.37891159 217.32714844 411.24023438 C218.03613281 410.50289063 218.74511719 409.76554687 219.47558594 409.00585938 C221.32714844 407.24023438 221.32714844 407.24023438 223.32714844 407.24023438 C223.57464844 406.67433594 223.82214844 406.1084375 224.07714844 405.52539062 C225.52950381 402.87030347 227.27899565 400.90284154 229.32714844 398.67773438 C231.56075535 396.2429386 233.48939956 393.99685769 235.32714844 391.24023438 C236.31714844 391.57023437 237.30714844 391.90023438 238.32714844 392.24023438 C239.41455078 394.46728516 239.41455078 394.46728516 240.41308594 397.43554688 C240.7844165 398.53286133 241.15574707 399.63017578 241.53833008 400.76074219 C241.92239014 401.95022461 242.3064502 403.13970703 242.70214844 404.36523438 C243.09845459 405.58049805 243.49476074 406.79576172 243.90307617 408.04785156 C250.88355273 429.96160781 257.26100822 452.37863188 247.13964844 474.36523438 C239.6252242 488.27918312 228.3439214 497.38420222 213.32714844 502.24023438 C203.49639687 504.42900597 193.66792084 504.52715187 183.65904236 504.50093079 C182.00645306 504.50395709 180.35386516 504.50784896 178.7012797 504.51252335 C174.19316461 504.52274995 169.68512952 504.52063527 165.17700803 504.51634276 C160.30237889 504.51386586 155.42776853 504.52290149 150.55314636 504.53038025 C141.01708206 504.54310141 131.48104595 504.54492426 121.94497459 504.54257999 C114.19271448 504.5407942 106.4404629 504.54255205 98.68820381 504.54680443 C97.58328536 504.54739962 96.47836691 504.54799481 95.33996608 504.54860803 C93.09509479 504.54981982 90.85022351 504.55103396 88.60535223 504.55225041 C67.57489844 504.56311546 46.54446071 504.56096803 25.51400603 504.55486556 C6.28500286 504.54969424 -12.94394968 504.56095937 -32.17294282 504.57996378 C-51.93507398 504.59934491 -71.69718119 504.60759789 -91.45932192 504.60384053 C-102.54725495 504.6019293 -113.63514487 504.60440869 -124.72307014 504.61855507 C-134.15954403 504.63047313 -143.59594824 504.63186875 -153.03242309 504.6197649 C-157.84405349 504.61387998 -162.65555646 504.61276627 -167.46717834 504.6247673 C-171.87692688 504.63563803 -176.28644178 504.63250863 -180.69617944 504.61850562 C-182.2861687 504.61586204 -183.87617635 504.61821452 -185.46614755 504.62624148 C-202.94734485 504.70832764 -217.63545893 501.35761119 -230.61035156 488.92773438 C-241.75859815 477.01790699 -246.37893192 464.02205422 -246.28173828 447.80102539 C-244.23441064 391.65776284 -206.40317106 335.37678407 -166.67285156 298.24023438 C-163.10752499 295.09630763 -159.43551695 292.14332535 -155.67285156 289.24023438 C-154.69316406 288.45519531 -153.71347656 287.67015625 -152.70410156 286.86132812 C-123.47531082 263.59113738 -90.16743429 249.75388469 -54.67285156 239.24023438 C-55.55585938 238.76714844 -56.43886719 238.2940625 -57.34863281 237.80664062 C-65.51892255 233.34096328 -72.66372754 228.4211015 -79.67285156 222.24023438 C-80.57648438 221.48097656 -81.48011719 220.72171875 -82.41113281 219.93945312 C-106.45207158 199.1629134 -121.06300002 167.6557351 -123.51269531 136.16601562 C-125.59253563 98.17088396 -113.04209296 65.32457436 -87.79003906 37.13867188 C-65.08486516 13.29348924 -32.66057779 0.0871336 0 0 Z " fill="#FFFFFF" transform="translate(245.6728515625,-0.240234375)"/>
<path d="M0 0 C16.7125677 14.28019718 25.15171203 32.18797312 27.28515625 53.90234375 C27.97698262 73.90514958 19.83121073 93.236307 6.359375 107.8046875 C-8.3210061 121.4642474 -26.80779924 128.73325138 -46.82763672 128.40209961 C-64.45342839 127.68621754 -79.58394338 121.32732925 -93 110 C-93.65484375 109.45859375 -94.3096875 108.9171875 -94.984375 108.359375 C-104.25648081 99.9379211 -110.33983448 87.78019659 -114 76 C-114.24492187 75.21882813 -114.48984375 74.43765625 -114.7421875 73.6328125 C-119.2992928 55.59166961 -115.58914299 36.4009456 -106.984375 20.2578125 C-99.70246944 8.30287305 -90.24145435 -0.39437217 -78 -7 C-77.16855469 -7.45503906 -76.33710938 -7.91007812 -75.48046875 -8.37890625 C-51.38299297 -20.48183636 -21.13169686 -16.14390808 0 0 Z M-58.9375 14.0625 C-61.48772783 17.69464266 -62.12668987 20.12320888 -62.09765625 24.44921875 C-62.09282227 25.72055664 -62.09282227 25.72055664 -62.08789062 27.01757812 C-62.07951172 27.89865234 -62.07113281 28.77972656 -62.0625 29.6875 C-62.05798828 30.58017578 -62.05347656 31.47285156 -62.04882812 32.39257812 C-62.03704983 34.59511987 -62.02060164 36.79752599 -62 39 C-63.2065625 38.95359375 -64.413125 38.9071875 -65.65625 38.859375 C-67.27080836 38.82182713 -68.88539378 38.78543023 -70.5 38.75 C-71.29148437 38.71648437 -72.08296875 38.68296875 -72.8984375 38.6484375 C-79.37269401 38.54230215 -84.76296081 39.92968829 -89.56420898 44.48364258 C-93.57973523 49.10024848 -94.31201539 52.8283626 -94.20703125 58.7265625 C-93.65259493 64.81490095 -90.15955236 68.09037401 -85.71875 71.80078125 C-82.71297912 73.89798957 -80.09764346 74.12146069 -76.55078125 74.09765625 C-75.70322266 74.09443359 -74.85566406 74.09121094 -73.98242188 74.08789062 C-73.10134766 74.07951172 -72.22027344 74.07113281 -71.3125 74.0625 C-70.41982422 74.05798828 -69.52714844 74.05347656 -68.60742188 74.04882812 C-66.40488013 74.03704983 -64.20247401 74.02060164 -62 74 C-62.03480469 75.30195313 -62.06960938 76.60390625 -62.10546875 77.9453125 C-62.13361901 79.67186204 -62.16091784 81.39842561 -62.1875 83.125 C-62.21263672 83.9809375 -62.23777344 84.836875 -62.26367188 85.71875 C-62.33449105 91.85641208 -61.60367557 96.17737898 -57.28125 100.86328125 C-56.39953125 101.58064453 -56.39953125 101.58064453 -55.5 102.3125 C-54.9121875 102.80363281 -54.324375 103.29476562 -53.71875 103.80078125 C-49.59369562 106.67894419 -44.82053407 106.68641909 -40 106 C-34.37693273 103.71131297 -30.90875703 100.35211293 -28 95 C-27.07811539 92.23434618 -26.88214778 90.61716298 -26.90234375 87.76953125 C-26.90556641 86.96708984 -26.90878906 86.16464844 -26.91210938 85.33789062 C-26.92048828 84.50451172 -26.92886719 83.67113281 -26.9375 82.8125 C-26.94201172 81.96751953 -26.94652344 81.12253906 -26.95117188 80.25195312 C-26.96294597 78.16793845 -26.9808811 76.08396023 -27 74 C-25.7934375 74.04640625 -24.586875 74.0928125 -23.34375 74.140625 C-21.72919164 74.17817287 -20.11460622 74.21456977 -18.5 74.25 C-17.70851563 74.28351563 -16.91703125 74.31703125 -16.1015625 74.3515625 C-10.22342198 74.44792546 -5.911791 73.2912638 -1 70 C2.93057819 65.96598554 4.74338292 62.26678421 5.375 56.6875 C4.83463179 51.37387924 3.27875608 47.09749139 -0.71875 43.41796875 C-4.77779007 40.43388633 -8.11397395 38.86605655 -13.23046875 38.90234375 C-14.43413086 38.90717773 -14.43413086 38.90717773 -15.66210938 38.91210938 C-16.91217773 38.92467773 -16.91217773 38.92467773 -18.1875 38.9375 C-19.03248047 38.94201172 -19.87746094 38.94652344 -20.74804688 38.95117188 C-22.83206155 38.96294597 -24.91603977 38.9808811 -27 39 C-26.96519531 37.85402344 -26.93039062 36.70804687 -26.89453125 35.52734375 C-26.86637297 33.99741061 -26.83907501 32.46746146 -26.8125 30.9375 C-26.78736328 30.18533203 -26.76222656 29.43316406 -26.73632812 28.65820312 C-26.65029226 22.0334414 -27.95018086 17.43762276 -32.3125 12.25 C-36.2044517 8.99162184 -39.3049117 7.21973367 -44.375 6.5625 C-50.34353844 7.28284085 -54.97389421 9.48207948 -58.9375 14.0625 Z " fill="#FFFFFF" transform="translate(438,275)"/>
</svg>
