<?xml version="1.0" encoding="UTF-8"?>
<svg version="1.1" xmlns="http://www.w3.org/2000/svg" width="484" height="505">
<path d="M0 0 C-0.57134178 7.12356378 -1.39532827 14.14582594 -2.55053711 21.19726562 C-2.78002296 22.62622162 -2.78002296 22.62622162 -3.0141449 24.08404541 C-3.51451426 27.19211376 -4.02056829 30.29922021 -4.52734375 33.40625 C-4.87997137 35.58050558 -5.2324728 37.75478164 -5.58485413 39.92907715 C-6.32101603 44.464885 -7.0603003 49.00017128 -7.80151367 53.53515625 C-8.75181308 59.35243157 -9.69176248 65.17132806 -10.62912655 70.99069977 C-11.35242638 75.47125143 -12.08239072 79.95069818 -12.81427193 84.42985535 C-13.16389399 86.57612482 -13.51113764 88.72278311 -13.85597038 90.86982727 C-14.33704369 93.86036735 -14.82735401 96.84924969 -15.32006836 99.83789062 C-15.46091858 100.72619568 -15.6017688 101.61450073 -15.74688721 102.52972412 C-15.88281784 103.34253845 -16.01874847 104.15535278 -16.15879822 104.99279785 C-16.27364532 105.69843117 -16.38849241 106.40406448 -16.50681973 107.13108063 C-17 109 -17 109 -19 112 C-33.73576642 97.44817518 -33.73576642 97.44817518 -38.47265625 91.6484375 C-40.45603669 89.50780695 -42.71183888 87.80515909 -45 86 C-45.43324585 86.43546646 -45.8664917 86.87093292 -46.31286621 87.31959534 C-50.85261951 91.88159869 -55.39598935 96.43997767 -59.94140625 100.99633789 C-61.63372911 102.69366667 -63.3251505 104.39189477 -65.015625 106.09106445 C-67.45592369 108.54359341 -69.89952506 110.99279096 -72.34375 113.44140625 C-73.08991577 114.19273331 -73.83608154 114.94406036 -74.6048584 115.71815491 C-77.94144617 119.05509263 -81.29850959 122.30575963 -84.88085938 125.37866211 C-89.51836773 129.37700845 -93.81149216 133.69806857 -98.12033081 138.04516602 C-99.59931909 139.53714243 -101.08160502 141.02577553 -102.56469727 142.51367188 C-105.71265249 145.67294765 -108.8566327 148.83616023 -112 152 C-115.64814783 155.67190789 -119.29799344 159.34209557 -122.95211792 163.00805664 C-124.39865069 164.46097908 -125.84209167 165.91692281 -127.28540039 167.37304688 C-131.81331177 171.91767845 -136.39406833 176.30422538 -141.26403809 180.47998047 C-143.7220865 182.63226364 -145.97713006 184.95228672 -148.234375 187.3125 C-149.58982422 188.70662109 -149.58982422 188.70662109 -150.97265625 190.12890625 C-152.37436394 191.57792897 -153.77587944 193.02720064 -155.16552734 194.48779297 C-156.53109733 195.91962978 -157.91374453 197.33511904 -159.296875 198.75 C-160.10479492 199.59046875 -160.91271484 200.4309375 -161.74511719 201.296875 C-164 203 -164 203 -166.10229492 202.91601562 C-169.35072789 201.34800836 -171.89566138 198.88504849 -174.5625 196.5 C-175.82332667 195.3948148 -177.08505415 194.29065646 -178.34765625 193.1875 C-178.96914551 192.64222656 -179.59063477 192.09695312 -180.23095703 191.53515625 C-182.61119216 189.46961409 -185.04919729 187.48103518 -187.5 185.5 C-191.75148698 182.04997154 -195.91727636 178.51346557 -200.0625 174.9375 C-205.6066768 170.15589387 -211.23576197 165.51576252 -217 161 C-223.50550144 166.35640879 -229.40960469 172.27522969 -235.35131836 178.23779297 C-236.48512639 179.37188348 -237.61915547 180.50575304 -238.75338745 181.63941956 C-241.81503523 184.70078172 -244.87360108 187.76520601 -247.93160319 190.83020926 C-251.13420772 194.03908675 -254.33966524 197.24511175 -257.54481506 200.45144653 C-263.60626351 206.5159967 -269.66515943 212.58309033 -275.72313172 218.65111268 C-282.62323505 225.56241322 -289.52619548 232.47085711 -296.42939174 239.37906814 C-310.62276523 253.58287974 -324.81256524 267.79025667 -339 282 C-340.11418494 281.0563956 -341.22674266 280.11086962 -342.33862305 279.16455078 C-342.95835495 278.63822052 -343.57808685 278.11189026 -344.21659851 277.5696106 C-346.58833925 275.48218978 -348.70642067 273.22820247 -350.8125 270.875 C-351.93591797 269.63363281 -351.93591797 269.63363281 -353.08203125 268.3671875 C-354.78103461 266.27025056 -355.85245898 264.41477008 -357 262 C-356.58862793 261.46334717 -356.17725586 260.92669434 -355.75341797 260.3737793 C-346.03175542 247.68063547 -336.44541286 234.89973527 -327 222 C-319.09138797 211.19909557 -311.09947505 200.47353364 -302.96582031 189.84082031 C-296.19624425 180.97722363 -289.58876628 171.99837223 -283 163 C-275.75128735 153.10032958 -268.45496892 143.24570685 -261 133.5 C-250.06087676 119.19712274 -239.40465993 104.6959828 -229 90 C-224.32433087 90.50340233 -221.85971088 92.38077886 -218.25 95.3125 C-213.21650105 99.31994234 -208.08679716 103.12767536 -202.8125 106.8125 C-196.59511473 111.16765608 -190.40612341 115.55855856 -184.25 120 C-183.49952393 120.53987549 -182.74904785 121.07975098 -181.97583008 121.63598633 C-181.2670874 122.14798584 -180.55834473 122.65998535 -179.828125 123.1875 C-179.16232422 123.66703125 -178.49652344 124.1465625 -177.81054688 124.640625 C-176.22550226 125.83069086 -174.72134548 127.12694974 -173.234375 128.4375 C-171.19916225 130.21164113 -171.19916225 130.21164113 -169.14570618 129.86073303 C-166.25024135 128.69924026 -164.63483036 127.00146665 -162.43432617 124.79077148 C-161.53626755 123.89571396 -160.63820892 123.00065643 -159.7129364 122.07847595 C-158.73938459 121.0929083 -157.766068 120.10710824 -156.79296875 119.12109375 C-155.78470891 118.10977291 -154.77585428 117.09904475 -153.76643372 116.08888245 C-151.64949791 113.96734312 -149.53756373 111.84099208 -147.42944336 109.71069336 C-144.7465973 106.99974621 -142.05532247 104.2973783 -139.36063671 101.59820461 C-136.77243092 99.00479864 -134.18890268 96.40675163 -131.60546875 93.80859375 C-130.87850831 93.07881223 -130.87850831 93.07881223 -130.1368618 92.33428764 C-125.11974676 87.29203638 -120.22782215 82.20787871 -115.59242249 76.81233215 C-113.00747202 73.87040632 -110.23428237 71.12980391 -107.4453125 68.3828125 C-106.56478714 67.50796707 -106.56478714 67.50796707 -105.66647339 66.615448 C-103.82177179 64.78280187 -101.97381369 62.95349705 -100.125 61.125 C-97.66640929 58.69296814 -95.21113697 56.25765523 -92.7578125 53.8203125 C-92.19434113 53.26513947 -91.63086975 52.70996643 -91.05032349 52.13796997 C-88.16586894 49.34276325 -88.16586894 49.34276325 -86 46 C-86.52335937 45.78601562 -87.04671875 45.57203125 -87.5859375 45.3515625 C-90.98195927 43.45022992 -93.7129185 40.9405367 -96.625 38.375 C-102.30658977 33.43176332 -108.07053679 28.64520159 -114 24 C-111.74108609 21.74108609 -110.82854029 21.55851373 -107.7756958 20.92428589 C-106.8897171 20.73642517 -106.0037384 20.54856445 -105.09091187 20.35501099 C-104.1163504 20.15648529 -103.14178894 19.95795959 -102.13769531 19.75341797 C-101.11316254 19.53854736 -100.08862976 19.32367676 -99.03305054 19.10229492 C-95.6329375 18.39135093 -92.2306449 17.69151444 -88.828125 16.9921875 C-86.46870887 16.5022923 -84.10939616 16.01189881 -81.75018311 15.52102661 C-76.79798595 14.49240682 -71.84472147 13.46913889 -66.890625 12.44970703 C-60.54219846 11.14301851 -54.19634304 9.82431018 -47.85121536 8.50170708 C-42.97596412 7.48668021 -38.09951787 6.47749642 -33.22267914 5.47012711 C-30.88277448 4.98617113 -28.54321747 4.50053114 -26.20401764 4.01317978 C-22.93047996 3.33220134 -19.65544318 2.65896481 -16.37988281 1.98779297 C-15.41341827 1.78521881 -14.44695374 1.58264465 -13.45120239 1.37393188 C-8.89222613 0.44806493 -4.68146066 -0.24736166 0 0 Z " fill="#FFFFFF" transform="translate(430,0)"/>
<path d="M0 0 C159.72 0 319.44 0 484 0 C484 16.17 484 32.34 484 49 C324.28 49 164.56 49 0 49 C0 32.83 0 16.66 0 0 Z " fill="#FFFFFF" transform="translate(0,456)"/>
<path d="M0 0 C32.34 0 64.68 0 98 0 C98 65.67 98 131.34 98 199 C65.66 199 33.32 199 0 199 C0 133.33 0 67.66 0 0 Z " fill="#FFFFFF" transform="translate(351,202)"/>
<path d="M0 0 C32.67 0 65.34 0 99 0 C99 48.84 99 97.68 99 148 C66.33 148 33.66 148 0 148 C0 99.16 0 50.32 0 0 Z " fill="#FFFFFF" transform="translate(192,253)"/>
<path d="M0 0 C32.67 0 65.34 0 99 0 C99 24.42 99 48.84 99 74 C66.33 74 33.66 74 0 74 C0 49.58 0 25.16 0 0 Z " fill="#FFFFFF" transform="translate(34,327)"/>
</svg>
