<?xml version="1.0" encoding="UTF-8"?>
<svg version="1.1" xmlns="http://www.w3.org/2000/svg" width="519" height="449">
<path d="M0 0 C0.86348627 -0.00367669 1.72697255 -0.00735338 2.61662507 -0.01114148 C5.5152764 -0.02217049 8.41389187 -0.02602082 11.31256104 -0.02983093 C13.38881545 -0.03609612 15.46506874 -0.04274296 17.5413208 -0.04974365 C24.36382263 -0.07077781 31.18632468 -0.08114461 38.0088501 -0.09111023 C40.3575873 -0.09515785 42.70632438 -0.09927478 45.05506134 -0.10346031 C56.08831496 -0.1225096 67.12156189 -0.13674187 78.15482879 -0.14507228 C90.89174127 -0.15484779 103.62848012 -0.18117674 116.36533141 -0.22157317 C126.21004311 -0.2517258 136.054705 -0.26654031 145.89946198 -0.26985329 C151.77950637 -0.27220451 157.65936519 -0.28117471 163.53936005 -0.30631447 C169.07155763 -0.32958544 174.60344732 -0.3338322 180.13568115 -0.32355309 C182.16415684 -0.3230574 184.19264763 -0.3293874 186.22107697 -0.34310913 C188.99475812 -0.36081992 191.7673333 -0.35372586 194.54101562 -0.34057617 C195.33986545 -0.35154542 196.13871528 -0.36251466 196.96177268 -0.37381631 C203.14865545 -0.30321377 208.51118867 1.29455617 213.09070182 5.6298849 C216.37683901 9.41570499 217.65283312 12.40395063 217.63800049 17.34321594 C217.63792496 18.18386093 217.63784943 19.02450592 217.63777161 19.890625 C217.63261032 20.79383987 217.62744904 21.69705475 217.62213135 22.62763977 C217.62000893 24.01962334 217.62000893 24.01962334 217.61784363 25.43972778 C217.61224447 28.4047416 217.59969214 31.36968001 217.5869751 34.33467102 C217.58195999 36.34443556 217.5773971 38.35420127 217.57330322 40.3639679 C217.56227531 45.29173134 217.54501127 50.21943839 217.5244751 55.14717102 C216.57607002 55.1593013 216.57607002 55.1593013 215.60850525 55.17167664 C209.03870229 55.25761137 202.46920492 55.35711 195.89971924 55.46455383 C193.44664637 55.50288056 190.99351658 55.53772684 188.54034424 55.56904602 C185.01792025 55.61461609 181.49588935 55.67262423 177.97369385 55.73310852 C176.87361496 55.74465973 175.77353607 55.75621094 174.64012146 55.76811218 C173.6192897 55.78798187 172.59845795 55.80785156 171.54669189 55.82832336 C170.19767036 55.84830887 170.19767036 55.84830887 168.82139587 55.86869812 C166.24877614 56.00559076 166.24877614 56.00559076 163.5244751 58.14717102 C163.07992539 60.35695923 163.07992539 60.35695923 163.16802979 62.94819641 C163.16502869 63.94585526 163.16202759 64.9435141 163.15893555 65.97140503 C163.17128235 67.05163437 163.18362915 68.13186371 163.1963501 69.24482727 C163.19915985 70.90172829 163.19915985 70.90172829 163.20202637 72.59210205 C163.20875722 74.92990634 163.22269201 77.26769917 163.2432251 79.60542297 C163.27437582 83.19822056 163.28419352 86.79057993 163.2901001 90.38349915 C163.29926969 92.64978058 163.30964532 94.91605752 163.3213501 97.18232727 C163.32772491 98.80570763 163.32772491 98.80570763 163.33422852 100.46188354 C163.34383606 101.45639023 163.3534436 102.45089691 163.36334229 103.47554016 C163.37017029 104.35553177 163.37699829 105.23552338 163.3840332 106.1421814 C163.30407553 108.14542791 163.30407553 108.14542791 164.5244751 109.14717102 C166.18091876 109.2700782 167.84246502 109.3250101 169.50323486 109.35249329 C171.09477135 109.38241112 171.09477135 109.38241112 172.71846008 109.41293335 C173.8726091 109.42964584 175.02675812 109.44635834 176.21588135 109.46357727 C177.9783445 109.49474892 177.9783445 109.49474892 179.77641296 109.52655029 C183.54653833 109.59217226 187.31673592 109.65098932 191.0869751 109.70967102 C193.63581083 109.75284422 196.18463913 109.7964581 198.73345947 109.8405304 C204.99705402 109.94786647 211.26072111 110.04960892 217.5244751 110.14717102 C217.59880164 116.16114111 217.65316098 122.17484198 217.68927002 128.18916321 C217.70432798 130.23380696 217.72477866 132.27841857 217.75079346 134.32295227 C217.78730821 137.26704354 217.80423161 140.21070659 217.81744385 143.15498352 C217.8329277 144.06458832 217.84841156 144.97419312 217.86436462 145.91136169 C217.86572899 151.09224905 217.43510243 154.67383392 214.5244751 159.14717102 C208.1594478 165.37075326 202.4022237 166.44840274 193.8843689 166.40786743 C193.02734088 166.41169298 192.17031286 166.41551853 191.2873143 166.41946 C188.42245741 166.42975891 185.55780211 166.42580375 182.69293213 166.42182922 C180.63608617 166.42617743 178.57924183 166.43136094 176.5223999 166.43731689 C170.93973321 166.45070677 165.35713422 166.45128554 159.77445459 166.4487536 C155.11242626 166.44768383 150.45041162 166.45256742 145.78838623 166.45735902 C134.78878434 166.46845427 123.7892166 166.46889156 112.78961182 166.46284485 C101.44589389 166.4568048 90.10229998 166.46911688 78.75860322 166.49041492 C69.01575465 166.50803406 59.27294554 166.51403176 49.53008163 166.51077718 C43.71270938 166.5089646 37.89542559 166.51159795 32.07806778 166.52549171 C26.60660625 166.53807036 21.13533797 166.53612547 15.66387939 166.52308083 C13.65798757 166.52071555 11.65208214 166.52344796 9.6462059 166.53170395 C6.90342989 166.54217723 4.16130159 166.53406601 1.41854858 166.52139282 C0.62884489 166.52876711 -0.1608588 166.53614139 -0.97449291 166.54373914 C-7.04595696 166.48490918 -12.76694944 165.45485676 -17.53411865 161.39326477 C-18.21667725 160.49801086 -18.21667725 160.49801086 -18.9130249 159.58467102 C-19.38611084 158.98525696 -19.85919678 158.3858429 -20.34661865 157.76826477 C-22.57595578 154.56696752 -22.60670866 152.43944227 -22.62269592 148.56289673 C-22.62985123 147.37545364 -22.63700653 146.18801056 -22.64437866 144.96458435 C-22.64706757 143.65496735 -22.64975647 142.34535034 -22.65252686 140.99604797 C-22.65879083 139.60811187 -22.66543757 138.22017745 -22.67243958 136.83224487 C-22.69349459 132.26665925 -22.70384497 127.70107324 -22.71380615 123.13545227 C-22.71785351 121.56368174 -22.72197043 119.99191139 -22.72615623 118.42014122 C-22.74521301 111.03420055 -22.75944162 103.6482699 -22.7677682 96.26230937 C-22.7775355 87.73909574 -22.80383953 79.21614218 -22.8442691 70.69302016 C-22.87444844 64.1043877 -22.8892389 57.51582968 -22.89254922 50.92712945 C-22.89489815 46.99262632 -22.90383742 43.05840086 -22.92901039 39.12397194 C-22.95232742 35.41962719 -22.95651006 31.71574217 -22.94624901 28.011343 C-22.94551921 26.00998875 -22.96458614 24.00865766 -22.98431396 22.00740051 C-22.94489267 15.1860305 -22.71415715 10.61907788 -18.4755249 5.14717102 C-12.36969469 0.31338877 -7.56954542 -0.00172764 0 0 Z M4.0088501 42.00654602 C-7.53091813 56.7560511 -11.93175716 72.63921603 -10.4755249 91.14717102 C-8.23507111 109.15153844 1.33444519 122.71948288 14.9619751 134.02217102 C29.67594092 144.73749249 46.09718405 147.97947 63.9385376 145.71357727 C81.24389191 142.32408573 95.47806326 132.44701987 105.5869751 118.18623352 C114.78705439 103.75546399 118.04009094 86.87940264 114.83306885 70.04560852 C110.83170677 53.60486559 101.70387954 39.57403025 87.5244751 30.14717102 C59.50937228 13.94331364 26.19186029 16.79231704 4.0088501 42.00654602 Z " fill="#FFFFFF" transform="translate(22.47552490234375,282.8528289794922)"/>
<path d="M0 0 C0.88360632 -0.00297112 1.76721263 -0.00594224 2.6775949 -0.0090034 C5.65622749 -0.01771659 8.63482001 -0.01920086 11.61346436 -0.02069092 C13.74192898 -0.02531727 15.87039277 -0.03034168 17.99885559 -0.03573608 C23.79440942 -0.04888048 29.58995166 -0.05530912 35.38551807 -0.05974674 C39.00412211 -0.06267444 42.62272295 -0.06677869 46.24132538 -0.07125092 C57.55650196 -0.08493178 68.87167127 -0.09459531 80.18685555 -0.09845281 C93.26053832 -0.10293388 106.33411656 -0.12048167 119.40776753 -0.1494534 C129.50463554 -0.17105372 139.6014741 -0.18115622 149.69836497 -0.18249393 C155.73259796 -0.18354322 161.76673275 -0.18947739 167.80094147 -0.20731354 C173.47752463 -0.22376545 179.15393551 -0.22596368 184.83053398 -0.21717453 C186.91466927 -0.21640259 188.99881371 -0.22076749 191.0829258 -0.23063278 C193.9273163 -0.24330768 196.77109253 -0.2374996 199.61547852 -0.22705078 C200.44097301 -0.23510719 201.2664675 -0.24316359 202.11697698 -0.25146413 C207.67903861 -0.20365216 211.94441427 0.75317294 216.20623779 4.64044189 C219.75059242 9.19238897 220.68559208 12.08836798 220.70214844 17.77577209 C220.70785858 18.9492067 220.71356873 20.1226413 220.7194519 21.33163452 C220.72112869 23.26497147 220.72112869 23.26497147 220.72283936 25.23736572 C220.72746829 26.60736729 220.73249305 27.97736756 220.73788452 29.34736633 C220.75100359 33.07061281 220.75745256 36.79384127 220.76189518 40.51710725 C220.76482681 42.84371511 220.7689318 45.17031806 220.77339935 47.49692345 C220.78707322 54.77767629 220.79674032 62.05841788 220.80060124 69.33918267 C220.80508135 77.74122873 220.82262742 86.14311204 220.85160184 94.54510862 C220.8732253 101.04117853 220.88330588 107.53720269 220.88464236 114.03330821 C220.88568995 117.91237849 220.89158782 121.79129578 220.90946198 125.67032814 C220.92595415 129.32045798 220.92809274 132.97032001 220.91932297 136.62047386 C220.91818683 138.59455691 220.93189551 140.56863112 220.94607544 142.54266357 C220.93772171 144.31550468 220.93772171 144.31550468 220.92919922 146.12416077 C220.93066578 147.1471417 220.93213234 148.17012262 220.93364334 149.22410297 C220.27879805 154.35871408 218.04829032 158.20947132 214.06170654 161.45294189 C213.47389404 161.94407471 212.88608154 162.43520752 212.28045654 162.94122314 C208.23723904 165.76228627 203.84286644 165.28867439 199.13050842 165.28761292 C198.25970947 165.2912896 197.38891052 165.29496629 196.49172372 165.29875439 C193.56232732 165.30980201 190.63296637 165.31363691 187.70355225 165.31744385 C185.60774116 165.32370769 183.51193119 165.33035442 181.41612244 165.33735657 C175.71346933 165.35477378 170.01082461 165.36532037 164.30815148 165.3735621 C160.74597735 165.37871087 157.18380582 165.38478667 153.62163353 165.39107323 C142.47838566 165.41012758 131.33514442 165.42435803 120.19188339 165.4326852 C107.32535046 165.4424586 94.45898952 165.46877994 81.5925172 165.50918609 C71.65016194 165.53933864 61.707856 165.55415327 51.7654559 165.55746621 C45.8261526 165.55981771 39.88703299 165.56879136 33.9477787 165.59392738 C28.35896176 165.61719781 22.77044958 165.62144532 17.18159676 165.611166 C15.13215878 165.61067028 13.08270586 165.61700134 11.03331375 165.63072205 C8.23111885 165.64843055 5.43001891 165.64133979 2.62782288 165.62818909 C1.82050903 165.63915833 1.01319519 165.65012758 0.18141729 165.66142923 C-6.60479422 165.58476058 -11.91505233 163.59728194 -16.81329346 158.82794189 C-20.49204608 152.74385102 -20.72102131 146.84381958 -20.63360596 139.92559814 C-20.63077606 139.06985703 -20.62794617 138.21411591 -20.62503052 137.33244324 C-20.6139128 134.62246198 -20.58882428 131.9128218 -20.56329346 129.20294189 C-20.55325277 127.35594149 -20.54412883 125.50893586 -20.53594971 123.66192627 C-20.51400109 119.15463513 -20.47953 114.64759617 -20.43829346 110.14044189 C-19.77874664 110.13235504 -19.11919983 110.12426819 -18.43966675 110.11593628 C-11.59428139 110.03008617 -4.74919217 109.93059186 2.09588623 109.82305908 C4.65280191 109.7847021 7.2097728 109.74986128 9.76678467 109.71856689 C13.43560563 109.67306214 17.10404427 109.6150438 20.77264404 109.55450439 C22.49612564 109.53717758 22.49612564 109.53717758 24.25442505 109.51950073 C25.31537384 109.49963104 26.37632263 109.47976135 27.46942139 109.45928955 C28.40651947 109.44596588 29.34361755 109.43264221 30.30911255 109.41891479 C32.76205806 109.35009724 32.76205806 109.35009724 34.56170654 107.14044189 C34.86061637 104.97214135 34.86061637 104.97214135 34.80462646 102.44708252 C34.80770309 101.47267212 34.81077972 100.49826172 34.81394958 99.49432373 C34.80676407 98.43910522 34.79957855 97.38388672 34.79217529 96.29669189 C34.79171707 95.21665894 34.79125885 94.13662598 34.79078674 93.02386475 C34.78776188 90.73735457 34.77986863 88.45084649 34.76751709 86.16436768 C34.74928227 82.65501646 34.74700721 79.14592924 34.74725342 75.63653564 C34.74233754 73.41908544 34.73650892 71.20163702 34.72967529 68.98419189 C34.72856247 67.92897339 34.72744965 66.87375488 34.7263031 65.78656006 C34.71992325 64.81214966 34.7135434 63.83773926 34.70697021 62.83380127 C34.70315842 61.97379517 34.69934662 61.11378906 34.69541931 60.22772217 C34.69377693 58.08031742 34.69377693 58.08031742 33.56170654 56.14044189 C15.74170654 55.81044189 -2.07829346 55.48044189 -20.43829346 55.14044189 C-20.50016846 48.89106689 -20.56204346 42.64169189 -20.62579346 36.20294189 C-20.65310547 34.24880371 -20.68041748 32.29466553 -20.70855713 30.28131104 C-20.71733217 28.70441299 -20.72497368 27.12750806 -20.73126221 25.55059814 C-20.74661011 24.75456177 -20.76195801 23.95852539 -20.777771 23.1383667 C-20.78072725 16.69076719 -19.85890197 10.11633477 -15.68438721 4.98419189 C-15.08755127 4.54075439 -14.49071533 4.09731689 -13.87579346 3.64044189 C-13.27637939 3.17637939 -12.67696533 2.71231689 -12.05938721 2.23419189 C-8.1826798 -0.38141792 -4.52945498 -0.00470351 0 0 Z M95.31170654 42.76544189 C84.71364677 56.72173459 80.13609469 73.76827731 82.18670654 91.14044189 C85.15509171 108.85246202 94.17935784 123.60368037 108.53045654 134.36700439 C123.99426391 144.58689689 141.37043389 148.02678563 159.62420654 144.44122314 C172.07929942 141.20453782 181.50657633 135.15029645 190.56170654 126.14044189 C191.27326904 125.46368408 191.98483154 124.78692627 192.71795654 124.08966064 C203.4950854 113.08455406 208.34563552 97.39969585 208.99920654 82.26544189 C208.45181961 65.1139847 201.48176586 48.86951233 189.38592529 36.76544189 C176.01092476 24.33390613 159.63493041 18.36070796 141.39373779 18.79278564 C123.1540891 20.447555 107.23423553 28.9628218 95.31170654 42.76544189 Z " fill="#FFFFFF" transform="translate(298.43829345703125,73.85955810546875)"/>
<path d="M0 0 C10.10723512 8.73521225 18.37631924 19.3113734 20.27734375 32.92578125 C21.47229472 51.58637118 18.74232711 65.90107236 6.58984375 80.61328125 C-2.46088456 90.35227787 -15.21962086 96.32194254 -28.47265625 97.1640625 C-44.03565627 97.57081856 -59.19169371 93.71166123 -70.96875 82.87109375 C-83.42587582 69.05450431 -87.6067283 54.53219378 -86.90625 36.30224609 C-85.77049495 21.60086357 -77.23635361 9.3321227 -66.41015625 -0.0859375 C-46.93602515 -14.85168493 -19.4142201 -14.79046036 0 0 Z M-36.4609375 1.1015625 C-38.15471957 3.55046723 -38.02501012 5.1653652 -37.91015625 8.11328125 C-37.88308594 9.01433594 -37.85601562 9.91539063 -37.828125 10.84375 C-37.79332031 11.53082031 -37.75851562 12.21789062 -37.72265625 12.92578125 C-38.56828125 13.09078125 -39.41390625 13.25578125 -40.28515625 13.42578125 C-45.38591602 15.65156733 -49.22351765 19.92750405 -51.72265625 24.92578125 C-52.54131644 31.21776958 -52.02161557 36.04968628 -48.25 41.2421875 C-43.14148769 46.87330976 -36.6984678 47.80968463 -29.515625 49.21484375 C-26.72265625 49.92578125 -26.72265625 49.92578125 -24.72265625 51.92578125 C-24.52734375 54.30859375 -24.52734375 54.30859375 -24.59765625 57.05078125 C-24.61570312 57.96085937 -24.63375 58.8709375 -24.65234375 59.80859375 C-24.67554688 60.50726563 -24.69875 61.2059375 -24.72265625 61.92578125 C-28.86992992 63.68837256 -32.34608568 64.39934493 -36.7734375 63.75 C-40.05158667 62.36384875 -41.4611645 59.63511299 -43.203125 56.640625 C-44.62967929 54.65922237 -44.62967929 54.65922237 -47.2734375 54.5546875 C-49.89680364 54.70446262 -49.89680364 54.70446262 -51.72265625 56.92578125 C-51.60893605 62.83923181 -49.85934641 65.78909109 -45.72265625 69.92578125 C-42.70050444 72.08446112 -41.45086443 72.92578125 -37.72265625 72.92578125 C-37.79226563 73.95638672 -37.79226563 73.95638672 -37.86328125 75.0078125 C-37.899375 75.90886719 -37.93546875 76.80992187 -37.97265625 77.73828125 C-38.0190625 78.63160156 -38.06546875 79.52492188 -38.11328125 80.4453125 C-37.95387799 83.06579274 -37.95387799 83.06579274 -35.84375 84.76171875 C-33.80364938 86.13626845 -33.80364938 86.13626845 -31.53515625 85.73828125 C-29.53063275 85.06943242 -29.53063275 85.06943242 -28.72265625 82.92578125 C-28.65269611 81.2187539 -28.63825471 79.50910122 -28.66015625 77.80078125 C-28.66917969 76.89070313 -28.67820312 75.980625 -28.6875 75.04296875 C-28.69910156 74.34429687 -28.71070313 73.645625 -28.72265625 72.92578125 C-28.04203125 72.88453125 -27.36140625 72.84328125 -26.66015625 72.80078125 C-21.79446175 71.35142544 -18.30062261 68.35782841 -15.5390625 64.1015625 C-13.34936184 59.30368506 -13.59815235 55.25171671 -14.85546875 50.19140625 C-16.12006474 46.88750682 -17.96820299 45.08999453 -20.72265625 42.92578125 C-21.59277344 42.16394531 -21.59277344 42.16394531 -22.48046875 41.38671875 C-26.17907908 38.97682282 -30.34005827 38.64921368 -34.62890625 37.8671875 C-38.08228034 36.81635018 -39.52381046 35.75362379 -41.72265625 32.92578125 C-42.31718359 29.35861722 -42.16176581 27.65126661 -40.28515625 24.55078125 C-36.49856144 22.149526 -33.08861639 22.26646499 -28.72265625 22.92578125 C-26.28515625 24.11328125 -26.28515625 24.11328125 -24.72265625 25.92578125 C-24.43390625 26.79203125 -24.14515625 27.65828125 -23.84765625 28.55078125 C-23.47640625 29.33453125 -23.10515625 30.11828125 -22.72265625 30.92578125 C-19.76904452 32.00154003 -19.76904452 32.00154003 -16.72265625 31.92578125 C-16.06265625 31.26578125 -15.40265625 30.60578125 -14.72265625 29.92578125 C-14.90810299 24.26965565 -15.47726828 20.94772775 -19.72265625 16.92578125 C-23.88153912 13.97585771 -23.88153912 13.97585771 -28.72265625 12.92578125 C-28.69945312 12.15492187 -28.67625 11.3840625 -28.65234375 10.58984375 C-28.63429688 9.58695313 -28.61625 8.5840625 -28.59765625 7.55078125 C-28.57445312 6.55304688 -28.55125 5.5553125 -28.52734375 4.52734375 C-28.45048777 1.76315952 -28.45048777 1.76315952 -30.72265625 -0.07421875 C-34.5202155 -0.44773329 -34.5202155 -0.44773329 -36.4609375 1.1015625 Z " fill="#FFFFFF" transform="translate(476.72265625,113.07421875)"/>
<path d="M0 0 C11.79010344 8.79204857 19.61333358 20.48962143 22.6171875 34.9765625 C24.63941172 50.94800682 21.55148672 65.98434394 11.7734375 78.953125 C1.91313648 90.4098557 -10.01125584 96.92583958 -25 99 C-41.25106693 100.19866026 -55.2476984 95.56952046 -67.6796875 85.1640625 C-79.02778603 74.58014569 -84.8090372 60.62673614 -85.4375 45.1875 C-84.96112276 29.54989929 -79.12966548 16.6869295 -68.48046875 5.32421875 C-49.29229998 -12.65524647 -21.7757858 -13.333302 0 0 Z M-34 2 C-36.20914 5.31371 -36.22481553 6.3446021 -36.125 10.1875 C-36.09792969 11.53908203 -36.09792969 11.53908203 -36.0703125 12.91796875 C-36.04710937 13.60503906 -36.02390625 14.29210937 -36 15 C-36.845625 15.165 -37.69125 15.33 -38.5625 15.5 C-43.29087512 17.56329096 -46.01715186 20.85030769 -49 25 C-50.70108067 30.10324201 -50.56521247 34.31873434 -48.3125 39.1875 C-44.97530255 45.18982042 -40.71471876 47.36565233 -34.3515625 49.35546875 C-32.09956512 49.97271056 -29.84736595 50.4597553 -27.5625 50.9375 C-24 52 -24 52 -22.4375 53.625 C-21.77092502 57.24354989 -22.39602519 60.37615113 -23 64 C-25.94826763 64.98275588 -27.92652504 65.13414725 -31 65.125 C-32.299375 65.12886719 -32.299375 65.12886719 -33.625 65.1328125 C-36 65 -36 65 -39 64 C-39.28875 63.030625 -39.5775 62.06125 -39.875 61.0625 C-40.70137876 57.83723097 -40.70137876 57.83723097 -43.4375 56.5 C-46.22774618 55.64354576 -46.22774618 55.64354576 -49 58 C-49.610834 61.83952797 -49.16754165 63.68973769 -47.3125 67.125 C-44.28196885 70.89268738 -41.61788708 73.46070431 -37 75 C-36.81824219 76.04800781 -36.81824219 76.04800781 -36.6328125 77.1171875 C-36.46523437 78.02726562 -36.29765625 78.93734375 -36.125 79.875 C-35.88136719 81.23238281 -35.88136719 81.23238281 -35.6328125 82.6171875 C-35.16955297 85.16505988 -35.16955297 85.16505988 -33 87 C-30.5 87.41666667 -30.5 87.41666667 -28 87 C-25.86413322 83.79619983 -25.76867825 82.98060033 -25.875 79.3125 C-25.90207031 78.10013672 -25.90207031 78.10013672 -25.9296875 76.86328125 C-25.95289062 76.24839844 -25.97609375 75.63351562 -26 75 C-25.154375 74.835 -24.30875 74.67 -23.4375 74.5 C-18.70912488 72.43670904 -15.98284814 69.14969231 -13 65 C-11.35519384 60.06558151 -11.4097957 55.73589501 -13.0625 50.875 C-16.8557779 45.24626506 -21.33208474 41.60029966 -28 40 C-28.74894531 39.87496094 -29.49789062 39.74992187 -30.26953125 39.62109375 C-36.54431753 38.49588975 -36.54431753 38.49588975 -39.125 35.6875 C-40.14462647 32.55579014 -40.13427508 31.07874665 -39 28 C-37.2190813 25.22968202 -35.92650373 24.98058589 -32.6875 24.125 C-28.38523705 23.97916058 -26.50657433 24.529459 -23 27 C-21.96838392 28.98387708 -20.96476382 30.98276656 -20 33 C-18.13740463 34.32051497 -18.13740463 34.32051497 -16 34 C-13.72855926 32.14567913 -13.72855926 32.14567913 -12 30 C-12.99082434 23.93120093 -15.28055834 21.32484977 -19.9296875 17.3828125 C-21.99811554 16.00125868 -23.5683623 15.42526399 -26 15 C-25.97679688 14.31292969 -25.95359375 13.62585938 -25.9296875 12.91796875 C-25.91164063 12.01691406 -25.89359375 11.11585938 -25.875 10.1875 C-25.85179688 9.29417969 -25.82859375 8.40085937 -25.8046875 7.48046875 C-25.81714173 4.74597286 -25.81714173 4.74597286 -28 2 C-31 1.5 -31 1.5 -34 2 Z " fill="#FFFFFF" transform="translate(106,321)"/>
<path d="M0 0 C3.30260545 2.19783258 3.84709417 5.19363284 4.80932617 8.9050293 C5.12943161 10.12026779 5.44953705 11.33550629 5.77934265 12.58757019 C6.11772553 13.9163239 6.45558793 15.24521025 6.79296875 16.57421875 C7.14677314 17.94098505 7.50121922 19.30758538 7.85627747 20.67402649 C8.59836012 23.5397033 9.33294265 26.40717069 10.06225586 29.27612305 C10.99339905 32.93674115 11.94235746 36.59244978 12.89701366 40.24699688 C13.63248709 43.07034122 14.35856957 45.89603683 15.08190346 48.7225132 C15.4279499 50.07031038 15.77678774 51.41739428 16.12856102 52.76370811 C19.77189235 66.75177429 19.77189235 66.75177429 19 73 C16 75 16 75 12.75390625 74.87890625 C7.91591173 73.74618121 4.2721797 71.44001664 0.16210938 68.79492188 C-3.74845246 66.39476572 -6.41939391 65.5607638 -11 66 C-11.25652344 66.72832031 -11.51304687 67.45664062 -11.77734375 68.20703125 C-13.92960774 73.12354484 -17.56277461 76.92426226 -21 81 C-21.66 81.80824219 -22.32 82.61648438 -23 83.44921875 C-42.33061704 106.18466038 -70.26085348 119.03157728 -99.66015625 122.08203125 C-102.33408095 121.98828765 -103.78915884 121.49354603 -106 120 C-107.0625 117.1875 -107.0625 117.1875 -107 114 C-103.39312098 109.72159072 -99.26021865 107.1971797 -94.5 104.4375 C-86.36100012 99.52775785 -79.6467854 93.75963796 -73 87 C-72.16726563 86.16597656 -71.33453125 85.33195312 -70.4765625 84.47265625 C-60.66134134 74.13819984 -48.29697024 56.84851185 -48 42 C-55.17131997 37.50794902 -62.31437299 33.17757515 -69.85546875 29.32421875 C-72 28 -72 28 -74 25 C-74 22 -74 22 -73 19 C-69.05214347 16.67134985 -65.12667337 15.33404289 -60.70678711 14.19067383 C-59.48209213 13.87056839 -58.25739716 13.55046295 -56.99559021 13.22065735 C-55.67292433 12.88245745 -54.35017339 12.54459005 -53.02734375 12.20703125 C-51.65773351 11.85301447 -50.28823344 11.49857123 -48.9188385 11.14372253 C-46.05792083 10.40401373 -43.19581928 9.66913297 -40.33276367 8.93774414 C-36.66990729 8.00167745 -33.01014368 7.05411147 -29.35117245 6.10298634 C-26.52727733 5.37019745 -23.70190124 4.64326076 -20.87603951 3.91809654 C-19.52604074 3.5709725 -18.17648883 3.22210563 -16.82740593 2.87143898 C-14.94106228 2.38211375 -13.05247943 1.90144551 -11.16381836 1.42114258 C-10.09159531 1.14595291 -9.01937225 0.87076324 -7.91465759 0.5872345 C-5.11281667 0.02272989 -2.83832764 -0.34066102 0 0 Z " fill="#FFFFFF" transform="translate(418,281)"/>
<path d="M0 0 C2 2 2 2 2.3125 5.4375 C2 9 2 9 0.87890625 10.50390625 C-1.69222111 12.55118646 -4.47195854 13.96040947 -7.375 15.5 C-15.10524873 19.75613878 -21.49902558 25.07449219 -28 31 C-28.65355469 31.57105469 -29.30710937 32.14210937 -29.98046875 32.73046875 C-40.73910402 42.67134552 -48.05458887 55.79790912 -54 69 C-54.40089844 69.87398438 -54.80179687 70.74796875 -55.21484375 71.6484375 C-56.11040873 74.3306769 -56.41715874 76.19576624 -56 79 C-54.5347569 80.63716226 -54.5347569 80.63716226 -52.375 81.8125 C-51.56675781 82.30878906 -50.75851563 82.80507812 -49.92578125 83.31640625 C-43.83015784 86.83198548 -43.83015784 86.83198548 -37.69873047 90.28442383 C-35.17285402 91.69474578 -33.05697619 92.94302381 -31 95 C-30.75 98.5 -30.75 98.5 -31 102 C-33.57166554 104.57166554 -35.58213034 104.86338266 -39.09863281 105.78759766 C-40.03558739 106.03675179 -40.03558739 106.03675179 -40.99147034 106.29093933 C-43.06024683 106.83898321 -45.13151622 107.37683208 -47.203125 107.9140625 C-48.64331177 108.29195611 -50.08339423 108.67024743 -51.52337646 109.04891968 C-54.54518234 109.84183436 -57.56825354 110.6296807 -60.59228516 111.4140625 C-64.45946837 112.41760481 -68.32316953 113.43387323 -72.18599319 114.45405006 C-75.16153432 115.23831448 -78.13887125 116.01557417 -81.11678314 116.79078293 C-82.54144045 117.1625733 -83.96552777 117.53655514 -85.3890152 117.91279984 C-87.38549557 118.43940166 -89.38421956 118.95646258 -91.38378906 119.47119141 C-92.519151 119.76716217 -93.65451294 120.06313293 -94.82427979 120.36807251 C-102.58654539 121.91266356 -102.58654539 121.91266356 -105.76191711 119.86233521 C-107.40436414 117.39175189 -108.05040658 115.07302551 -108.80932617 112.20263672 C-109.12943161 111.01064667 -109.44953705 109.81865662 -109.77934265 108.59054565 C-110.11776473 107.28706809 -110.45562602 105.98344482 -110.79296875 104.6796875 C-111.14682031 103.33774649 -111.5012658 101.99596196 -111.85627747 100.65432739 C-112.59839871 97.83996567 -113.33292819 95.02375793 -114.06225586 92.20605469 C-114.99251741 88.61472057 -115.94179483 85.02874858 -116.89701366 81.44398308 C-117.63339023 78.67147505 -118.35915651 75.89627107 -119.08190346 73.12018204 C-119.42746093 71.79818888 -119.77628125 70.47704375 -120.12856102 69.15682602 C-123.78931712 55.39171136 -123.78931712 55.39171136 -123 48 C-119.63906397 45.75937598 -118.90005197 45.43665916 -115 46 C-111.46814591 47.65224075 -108.20083365 49.76221844 -104.8828125 51.80078125 C-101.9970885 53.51588136 -99.54160082 54.87347217 -96.2578125 55.640625 C-92.69968007 54.63105109 -91.78168654 52.3383972 -89.875 49.25 C-73.72580411 24.40455921 -47.7289239 8.17075817 -19.1171875 1.30859375 C-12.8537714 0.03271269 -6.38145401 -0.76532429 0 0 Z " fill="#FFFFFF" transform="translate(232,32)"/>
<path d="M0 0 C0.74178812 -0.0204645 1.48357624 -0.04092899 2.24784279 -0.06201363 C6.62349501 -0.08233931 9.43412661 0.41524811 12.80712891 3.26513672 C15.80712891 9.26513672 15.80712891 9.26513672 16.80712891 37.26513672 C-41.27287109 37.26513672 -99.35287109 37.26513672 -159.19287109 37.26513672 C-159.19287109 14.26513672 -159.19287109 14.26513672 -155.19287109 8.26513672 C-151.65955933 6.27614259 -148.45462382 5.96769614 -144.44247437 5.79684448 C-143.29349167 5.74361023 -142.14450897 5.69037598 -140.96070862 5.63552856 C-139.08281898 5.56215775 -139.08281898 5.56215775 -137.16699219 5.48730469 C-135.82760864 5.42864956 -134.48825874 5.3692219 -133.14894104 5.30908203 C-129.51409429 5.14816876 -125.87886597 4.99837254 -122.24345732 4.85077429 C-118.42040245 4.69388302 -114.59776017 4.52748779 -110.77505493 4.36233521 C-104.3410036 4.0857713 -97.90669436 3.81605067 -91.47216797 3.55078125 C-84.08023336 3.24599698 -76.6887191 2.93235975 -69.29738367 2.61339462 C-61.38376606 2.27195945 -53.4698916 1.93679892 -45.55592394 1.60358667 C-43.30096373 1.5082608 -41.04605246 1.41184311 -38.79114914 1.31518173 C-11.9489526 0.16886523 -11.9489526 0.16886523 0 0 Z " fill="#FFFFFF" transform="translate(189.19287109375,236.73486328125)"/>
<path d="M0 0 C1.80072716 0.06313637 1.80072716 0.06313637 3.63783264 0.12754822 C4.99041887 0.19147737 6.34299304 0.25566211 7.69555664 0.32006836 C9.16563049 0.37811195 10.63576248 0.43469693 12.10594177 0.49000549 C15.48755972 0.62043466 18.86853867 0.76165891 22.24945068 0.90924072 C28.76726138 1.19202837 35.28627592 1.44085889 41.80541992 1.69067383 C54.06635952 2.16396068 66.32601069 2.66502041 78.5853554 3.17783773 C79.57830223 3.21935883 79.57830223 3.21935883 80.59130859 3.26171875 C81.254453 3.2894533 81.91759742 3.31718786 82.60083711 3.34576285 C88.04338196 3.5727528 93.48622358 3.79193679 98.92914158 4.009767 C104.89247315 4.24891905 110.85541418 4.49697738 116.81825066 4.74818611 C119.32546834 4.85255172 121.83280015 4.95421402 124.34024239 5.05303764 C127.82436301 5.19098548 131.30791065 5.33913947 134.79150391 5.48974609 C135.80911804 5.52773819 136.82673218 5.56573029 137.87518311 5.60487366 C153.24808473 6.30228395 153.24808473 6.30228395 157.60571289 10.65991211 C160.13963309 14.88311244 160.24054692 17.36647403 160.23071289 22.34741211 C160.23329102 23.6403418 160.23586914 24.93327148 160.23852539 26.26538086 C160.10571289 30.15991211 160.10571289 30.15991211 159.10571289 37.15991211 C101.35571289 37.15991211 43.60571289 37.15991211 -15.89428711 37.15991211 C-15.89428711 7.57370521 -15.89428711 7.57370521 -11.89428711 3.15991211 C-7.72017837 0.7039985 -4.82373862 -0.20151848 0 0 Z " fill="#FFFFFF" transform="translate(328.894287109375,26.840087890625)"/>
<path d="M0 0 C1.86159004 0.00033989 1.86159004 0.00033989 3.76078796 0.00068665 C5.11502441 0.01600649 6.46925719 0.03165448 7.82348633 0.04760742 C9.20924928 0.05320366 10.59501817 0.05747363 11.98078918 0.06047058 C15.62564521 0.07191734 19.27014181 0.10138259 22.91485596 0.13458252 C26.6350001 0.16528731 30.35520413 0.17914116 34.07543945 0.1940918 C41.3732828 0.22466081 48.6701395 0.28337945 55.96801758 0.34057617 C55.96801758 12.22057617 55.96801758 24.10057617 55.96801758 36.34057617 C40.32558194 36.42079379 40.32558194 36.42079379 33.67114258 36.43823242 C29.12584785 36.45020014 24.58063349 36.46437616 20.03540039 36.49145508 C16.37200412 36.51314438 12.70869401 36.52513648 9.04523849 36.53033066 C7.64575214 36.53403348 6.24627063 36.54126395 4.84682083 36.55203629 C2.89068427 36.56649843 0.93446149 36.56739264 -1.02172852 36.56762695 C-2.69384903 36.57428879 -2.69384903 36.57428879 -4.39974976 36.58108521 C-7.03198242 36.34057617 -7.03198242 36.34057617 -9.03198242 34.34057617 C-9.43146713 29.9405628 -9.36099804 25.52599455 -9.34765625 21.10986328 C-9.34449925 18.91477696 -9.36794003 16.72104232 -9.39331055 14.52612305 C-9.39558386 13.13224454 -9.39628689 11.73836241 -9.39526367 10.34448242 C-9.39824463 9.07419189 -9.40122559 7.80390137 -9.40429688 6.49511719 C-9.03198242 3.34057617 -9.03198242 3.34057617 -7.88571167 1.66470337 C-5.22441115 -0.23627564 -3.25091618 -0.01978245 0 0 Z " fill="#FFFFFF" transform="translate(269.031982421875,137.659423828125)"/>
<path d="M0 0 C15.64243564 -0.12032643 15.64243564 -0.12032643 22.296875 -0.14648438 C26.8422289 -0.16443618 31.38740197 -0.18570014 35.93261719 -0.22631836 C39.59602467 -0.25885241 43.25923831 -0.27684029 46.92277908 -0.28463173 C48.3222827 -0.29018603 49.72177539 -0.30103199 51.12119675 -0.31719017 C53.07727511 -0.33888273 55.03354748 -0.3402247 56.98974609 -0.34057617 C58.1044931 -0.34723801 59.21924011 -0.35389984 60.36776733 -0.36076355 C61.6707225 -0.18218559 61.6707225 -0.18218559 63 0 C66.19124845 4.78687268 65.33326278 10.28171241 65.31567383 15.87890625 C65.31251091 17.9927105 65.33599013 20.10511846 65.36132812 22.21875 C65.36360095 23.56249824 65.36430469 24.90625023 65.36328125 26.25 C65.36626221 27.47203125 65.36924316 28.6940625 65.37231445 29.953125 C65 33 65 33 63.85372925 34.66914368 C61.193161 36.57925761 59.22336502 36.36038559 55.96801758 36.34057617 C54.10642754 36.34023628 54.10642754 36.34023628 52.20722961 36.33988953 C50.85299316 36.32456968 49.49876039 36.3089217 48.14453125 36.29296875 C46.7587683 36.28737251 45.37299941 36.28310254 43.98722839 36.28010559 C40.34237236 36.26865883 36.69787577 36.23919358 33.05316162 36.20599365 C29.33301748 36.17528886 25.61281345 36.16143501 21.89257812 36.14648438 C14.59473478 36.11591536 7.29787807 36.05719672 0 36 C0 24.12 0 12.24 0 0 Z " fill="#FFFFFF" transform="translate(194,348)"/>
<path d="M0 0 C1.46069389 2.18866186 1.91670956 3.95981586 2.38671875 6.546875 C2.54527344 7.36671875 2.70382813 8.1865625 2.8671875 9.03125 C3.25996641 12.30286727 3.21975486 15.5043325 3.19921875 18.796875 C-8.6672464 19.32228136 -20.5338635 19.84410138 -32.4006815 20.36148071 C-37.91229961 20.60189074 -43.42386023 20.84348531 -48.93530273 21.08789062 C-54.26497723 21.32419003 -59.59478512 21.55724253 -64.92469597 21.78814697 C-66.94705095 21.87631202 -68.96935731 21.9656008 -70.99160957 22.05609131 C-82.27042844 22.5599905 -93.50945924 22.93500772 -104.80078125 22.796875 C-105.875 16.83984375 -105.875 16.83984375 -105.80078125 14.796875 C-99.87071093 7.41461607 -82.34446927 8.34054797 -73.44140625 7.1953125 C-71.56432644 6.9517405 -69.687272 6.70797295 -67.8102417 6.46401978 C-63.89380446 5.95583359 -59.97705182 5.4501713 -56.06005859 4.94628906 C-51.04715045 4.3011966 -46.03512512 3.64951048 -41.02331924 2.99591637 C-37.1546121 2.49217745 -33.28544434 1.99205205 -29.41613007 1.49300003 C-27.56765738 1.25412549 -25.71933251 1.01410412 -23.87116241 0.77289963 C-21.28989381 0.43654265 -18.70803999 0.10509475 -16.12597656 -0.22509766 C-14.98968056 -0.37467171 -14.98968056 -0.37467171 -13.83042908 -0.52726746 C-2.86486713 -1.9140544 -2.86486713 -1.9140544 0 0 Z " fill="#FFFFFF" transform="translate(167.80078125,210.203125)"/>
<path d="M0 0 C9.85813119 0.2766635 19.55704686 1.51992001 29.32418823 2.8086853 C31.19832087 3.05101015 33.07251852 3.29283275 34.94677734 3.53417969 C38.8522029 4.03878932 42.75688835 4.54869379 46.66110229 5.06259155 C51.65640564 5.71977424 56.65320148 6.36468606 61.65058708 7.00581932 C65.51166243 7.50234375 69.37195437 8.004751 73.23202896 8.50899124 C75.07454826 8.74907446 76.91728768 8.98747478 78.76025009 9.22413254 C81.33299297 9.5555147 83.90459428 9.89467619 86.4760437 10.2359314 C87.23043228 10.33159897 87.98482086 10.42726654 88.7620697 10.52583313 C99.23631702 11.93956409 99.23631702 11.93956409 101.76950073 14.4727478 C101.84130037 15.99202818 101.85342081 17.51442262 101.83200073 19.0352478 C101.82297729 19.86153687 101.81395386 20.68782593 101.80465698 21.53915405 C101.79305542 22.17723999 101.78145386 22.81532593 101.76950073 23.4727478 C82.86250725 23.72649182 64.03382135 22.98081064 45.15164185 22.14035034 C41.9617519 21.99960909 38.7716563 21.86390235 35.58154297 21.72833347 C32.45495858 21.5951845 29.32846397 21.46002051 26.20199585 21.32417107 C24.73513269 21.26045417 23.26825497 21.19707124 21.80136108 21.13406563 C12.11307149 20.71543485 2.44230451 20.15838363 -7.23049927 19.4727478 C-7.10125565 18.32316589 -6.97201202 17.17358398 -6.83885193 15.98916626 C-6.614369 13.98015756 -6.39199098 11.97087236 -6.18435669 9.96005249 C-5.62393488 5.40562999 -5.01714106 1.06336839 0 0 Z " fill="#FFFFFF" transform="translate(354.2304992675781,-0.472747802734375)"/>
</svg>
